<svg xmlns="http://www.w3.org/2000/svg" xmlns:xlink="http://www.w3.org/1999/xlink" width="50" height="53" viewBox="0 0 50 53"><defs><path id="lkdpa" d="M909.55 3762.72c0-1.4-.73-2.13-2.19-2.13-.74 0-1.49.26-2.21.76a.98.98 0 0 1-1.45-.4l-.25-.54a.97.97 0 0 1 .3-1.17 6.7 6.7 0 0 1 4-1.3c3.3 0 4.79 2.29 4.79 4.56 0 2.84-2.04 5.02-4.93 7.8l-.13.1h4.42c.54 0 .98.44.98.98v.71c0 .54-.44.97-.98.97h-8a.97.97 0 0 1-.97-.97v-.55c0-.26.1-.52.3-.7l1.34-1.3c3.37-3.2 4.96-4.9 4.98-6.82zm9.68-4.55h.93c.54 0 .97.43.97.97v7.6h.96c.54 0 .98.43.98.97v.63c0 .53-.44.97-.98.97h-.96v2.78c0 .54-.43.97-.97.97h-.93a.97.97 0 0 1-.98-.97v-2.78h-5.45a.97.97 0 0 1-.98-.97v-.69c0-.2.06-.39.18-.55l5.97-8.52a.98.98 0 0 1 .8-.41h.3a.8.8 0 0 1 .08 0h.08zm-.98 4.25c-.92 1.38-2.2 3.23-2.95 4.32h2.95zm9.03 19.77l2.9 3.06a25 25 0 0 1-17.14 6.75 25.02 25.02 0 0 1-25.04-24.93 25.01 25.01 0 0 1 23.23-24.88v-2.56a.64.64 0 0 1 1-.53l7.53 5.04a.64.64 0 0 1 0 1.06l-7.54 5.04a.64.64 0 0 1-1-.53v-3.3a20.8 20.8 0 0 0-19 20.66 20.8 20.8 0 0 0 20.82 20.73c5.31 0 10.37-2 14.24-5.61zm3.53-25.93a20.88 20.88 0 0 0-2.5-3.28l3.1-2.85a25.05 25.05 0 0 1 3 3.94zm1.9 4l3.98-1.39c.55 1.56.93 3.18 1.16 4.81l-4.18.57c-.19-1.36-.51-2.7-.96-4zm-7.74-10.19a20.84 20.84 0 0 0-3.6-2.01l1.7-3.85c1.51.66 2.97 1.48 4.33 2.42zm6.45 26.74l3.72 1.98a25.02 25.02 0 0 1-2.76 4.11l-3.26-2.67a20.8 20.8 0 0 0 2.3-3.42zM938 3769a24.83 24.83 0 0 1-.87 4.87l-4.06-1.14c.38-1.32.62-2.68.73-4.05z"/></defs><g><g clip-path="url(#clip-7038)" opacity=".1" transform="translate(-888 -3739)"><use xlink:href="#lkdpa"/></g></g></svg>