<svg id="SVGDoc" width="53" height="53" xmlns="http://www.w3.org/2000/svg" version="1.1"
     xmlns:xlink="http://www.w3.org/1999/xlink" xmlns:avocode="https://avocode.com/" viewBox="0 0 53 53">
    <defs>
        <path d="M1188.35896,3769.95095l0.12703,2.08778c-0.317,-1.5666 -0.49118,-3.18341 -0.49118,-4.83979c0,-11.73844 8.35556,-21.57501 19.52545,-24.13909v-4.05332l11.48563,5.63843l-11.48563,5.63843v-2.5694c-8.61111,2.45071 -14.93122,10.24971 -14.93122,19.48495c0,2.13648 0.34618,4.19256 0.97206,6.12614zM1233.31352,3772.05345c0.39333,-1.55645 0.62359,-3.17758 0.62359,-4.8545c0,-9.69403 -6.96156,-17.81183 -16.2323,-19.81389l5.58117,-2.74009l-1.77052,-0.86915c9.88838,3.3683 17.01599,12.58375 17.01599,23.42312c0,2.50219 -0.40981,4.9075 -1.11282,7.18043l3.5804,2.03224l-10.71396,6.94684l0.76881,-12.58527zM1228.14514,3786.99863l1.5089,-0.97795c-4.41181,3.72083 -10.12779,5.98817 -16.39091,5.98817c-7.26082,0 -13.79997,-3.03378 -18.40473,-7.86773l-3.5907,2.0368l-0.76939,-12.5868l10.71384,6.94811l-2.23583,1.26733c3.71567,3.50779 8.73688,5.69144 14.2868,5.69144c6.04179,0 11.47511,-2.56991 15.25726,-6.64149zM1211.57387,3753.11454h3.44788v3.03733c2.35405,0.10449 3.93929,0.58662 5.09983,1.14001l-1.0199,3.90166c-0.91679,-0.38169 -2.53349,-1.17552 -5.0655,-1.17552c-2.28745,0 -3.02616,0.96704 -3.02616,1.9346c0,1.13874 1.23161,1.86358 4.22115,2.9686c4.18453,1.44968 5.87288,3.34978 5.87288,6.45685c0,3.07334 -2.21626,5.69448 -6.25866,6.38736v3.52123h-3.44582v-3.28055c-2.35691,-0.10272 -4.64344,-0.72357 -5.97908,-1.48442l1.05366,-4.03912c1.47617,0.79408 3.55339,1.5179 5.83775,1.5179c2.00409,0 3.37543,-0.75756 3.37543,-2.14079c0,-1.31247 -1.12598,-2.14079 -3.72608,-3.00436c-3.76431,-1.24121 -6.33053,-2.96758 -6.33053,-6.31584c0,-3.0391 2.18033,-5.42235 5.94315,-6.14668z"
              id="Path-0"/>
    </defs>
    <desc>Generated with Avocode.</desc>
    <g transform="matrix(1,0,0,1,-1188,-3739)">
        <g clip-path="url(#clip-7044)">
            <title>Forma 1</title>
            <use xlink:href="#Path-0" fill="#000000" fill-opacity="1"/>
        </g>
    </g>
</svg>
