<svg xmlns="http://www.w3.org/2000/svg" xmlns:xlink="http://www.w3.org/1999/xlink" width="53" height="47" viewBox="0 0 53 47"><defs><path id="krbaa" d="M1494.01 3761.07c.06.19.09.48.09.87 0 .38-.03.66-.09.86-.06.2-.18.3-.37.3s-.31-.1-.37-.3c-.06-.2-.1-.48-.1-.86 0-.4.04-.68.1-.87.06-.19.18-.28.37-.28s.31.1.37.28zm-.15 7.09a.51.51 0 0 0 .1-.05v.19c0 .17-.06.3-.15.36-.1.06-.2.1-.3.1a.28.28 0 0 1-.19-.06c-.05-.04-.07-.1-.07-.2s.04-.17.12-.21a.74.74 0 0 1 .23-.08l.12-.02a.9.9 0 0 0 .14-.03zm4.46-5.36c-.06-.2-.09-.48-.09-.86 0-.4.03-.68.1-.87.06-.19.18-.29.37-.29s.3.1.37.29c.06.19.08.48.08.87 0 .38-.02.66-.08.86-.06.2-.18.3-.37.3s-.31-.1-.38-.3zm.97 4.77c.09.07.13.18.14.31h-.88a.55.55 0 0 1 .14-.3.4.4 0 0 1 .3-.12c.12 0 .22.04.3.11zm4.83-6.5c.06.19.09.48.09.87 0 .38-.03.66-.09.86-.06.2-.18.3-.37.3-.18 0-.3-.1-.37-.3-.06-.2-.1-.48-.1-.86 0-.4.04-.68.1-.87.06-.19.19-.28.37-.28.2 0 .31.1.37.28zm4.32 1.73c-.06-.2-.1-.48-.1-.86 0-.4.04-.68.1-.87.06-.19.18-.29.37-.29s.31.1.37.29c.06.19.09.48.09.87 0 .38-.03.66-.09.86-.06.2-.18.3-.37.3s-.31-.1-.37-.3zm-12.64 0c-.07-.2-.1-.48-.1-.86 0-.4.04-.68.1-.87.06-.19.18-.29.37-.29s.31.1.37.29c.06.19.09.48.09.87 0 .38-.03.66-.1.86-.05.2-.17.3-.36.3-.19 0-.31-.1-.37-.3zm-5.06 0c-.06-.2-.1-.48-.1-.86 0-.4.04-.68.1-.87.06-.19.18-.29.37-.29s.31.1.37.29c.06.19.09.48.09.87 0 .38-.03.66-.09.86-.06.2-.18.3-.37.3s-.31-.1-.37-.3zm32.56-.55h5.65v5.83h-5.65zm-11.59-1.18c.06.19.09.48.09.87 0 .38-.03.66-.09.86-.06.2-.18.3-.37.3s-.31-.1-.37-.3c-.06-.2-.1-.48-.1-.86 0-.4.04-.68.1-.87.06-.19.18-.28.37-.28s.31.1.37.28zm-5.06 0c.06.19.09.48.09.87 0 .38-.03.66-.09.86-.06.2-.18.3-.37.3s-.31-.1-.37-.3c-.06-.2-.1-.48-.1-.86 0-.4.04-.68.1-.87.06-.19.18-.28.37-.28.2 0 .31.1.37.28zm4.96 6.5c.08.07.13.18.14.31h-.88a.55.55 0 0 1 .13-.3.4.4 0 0 1 .3-.12c.13 0 .23.04.3.11zm-5.44.59a.5.5 0 0 0 .1-.05v.19c0 .17-.05.3-.14.36-.1.06-.2.1-.31.1a.28.28 0 0 1-.18-.06c-.05-.04-.08-.1-.08-.2s.04-.17.12-.21a.76.76 0 0 1 .24-.08l.12-.02a.9.9 0 0 0 .13-.03zm30.06 5v-5.08h-1.58v-6.13a5.44 5.44 0 0 0-5.4-5.47H1523a5.44 5.44 0 0 0-5.4 5.47v6.13h-1.38v5.17h-26.71c-1.93 0-3.5-1.61-3.5-3.6v-27.06a3.55 3.55 0 0 1 3.5-3.59h45.98c1.93 0 3.5 1.61 3.5 3.6v27.06a3.57 3.57 0 0 1-2.76 3.5zm-25.38-4.94h1.43c0-.17 0-.3-.02-.39a.98.98 0 0 0-.15-.4.8.8 0 0 0-.34-.3 1.1 1.1 0 0 0-.46-.1c-.29 0-.52.1-.7.28-.18.18-.27.45-.27.79 0 .37.1.63.3.8.2.15.43.23.69.23.31 0 .56-.1.73-.28a.64.64 0 0 0 .2-.36h-.53a.44.44 0 0 1-.1.14.43.43 0 0 1-.29.09c-.1 0-.2-.03-.28-.08-.13-.08-.2-.22-.2-.42zm1.6-6.28c0-.54-.08-.95-.25-1.24-.16-.3-.45-.44-.86-.44-.4 0-.7.14-.86.44-.17.29-.25.7-.25 1.24s.08.95.25 1.24c.16.3.45.44.86.44s.7-.15.86-.44c.17-.29.25-.7.25-1.24zm-2.96 5.87v1.26h.53v-1.25c0-.13 0-.22-.02-.29a.57.57 0 0 0-.33-.43.76.76 0 0 0-.6.03.65.65 0 0 0-.26.26.57.57 0 0 0-.17-.24.6.6 0 0 0-.36-.1.61.61 0 0 0-.39.11.84.84 0 0 0-.18.22v-.29h-.5v1.98h.53v-1.2c0-.1.01-.18.04-.23.05-.1.15-.15.3-.15.12 0 .2.05.25.15.02.05.03.13.03.25v1.18h.52v-1.18c0-.09.01-.16.04-.23.05-.11.15-.17.29-.17.12 0 .2.04.25.14.02.04.04.1.03.18zm-3.22-.14c0 .07-.03.12-.1.15a.81.81 0 0 1-.21.04l-.18.03c-.2.02-.35.06-.45.12-.18.11-.28.29-.28.53 0 .19.06.33.18.43.11.1.26.16.44.16.14 0 .26-.03.37-.1.1-.05.18-.12.25-.2l.01.13.03.1h.56v-.07a.17.17 0 0 1-.08-.06l-.03-.14V3767.66c0-.24-.08-.4-.25-.49a1.23 1.23 0 0 0-.57-.13c-.33 0-.57.09-.7.26a.77.77 0 0 0-.14.43h.49a.38.38 0 0 1 .07-.18c.05-.06.14-.09.26-.09.11 0 .2.01.25.05.06.03.08.08.08.16zm.87-4.49c.17-.29.25-.7.25-1.24s-.08-.95-.25-1.24c-.16-.3-.45-.44-.86-.44-.4 0-.7.14-.86.44-.17.29-.25.7-.25 1.24s.08.95.25 1.24c.17.3.45.44.86.44s.7-.15.86-.44zm.8 0c.17.3.46.44.87.44s.7-.15.86-.44c.17-.29.25-.7.25-1.24s-.08-.95-.25-1.24c-.16-.3-.45-.44-.86-.44-.4 0-.7.14-.86.44-.17.29-.25.7-.25 1.24s.08.95.25 1.24zm-3.08-1.24c0-.54-.08-.95-.24-1.24-.17-.3-.46-.44-.87-.44-.4 0-.7.14-.86.44-.16.29-.25.7-.25 1.24s.09.95.25 1.24c.17.3.45.44.86.44s.7-.15.87-.44c.16-.29.24-.7.24-1.24zm-.67 4.45v1.87l-1.05-1.87h-.57v2.68h.51v-1.9l1.08 1.9h.55v-2.68zm-5.65 1.83h1.42l-.01-.39a.98.98 0 0 0-.16-.4.8.8 0 0 0-.34-.3 1.1 1.1 0 0 0-.46-.1c-.29 0-.52.1-.7.28-.18.18-.27.45-.27.79 0 .37.1.63.3.8.2.15.43.23.7.23.3 0 .55-.1.73-.28a.64.64 0 0 0 .19-.36h-.53a.45.45 0 0 1-.1.14.43.43 0 0 1-.29.09c-.1 0-.2-.03-.28-.08-.13-.08-.2-.22-.2-.42zm-1.36-.4v1.25h.52v-1.25l-.01-.29a.58.58 0 0 0-.6-.48.75.75 0 0 0-.35.08.65.65 0 0 0-.24.26.57.57 0 0 0-.17-.24.6.6 0 0 0-.36-.1.61.61 0 0 0-.4.11.84.84 0 0 0-.17.22v-.29h-.5v1.98h.52v-1.2c0-.1.02-.18.04-.23.05-.1.15-.15.3-.15.12 0 .2.05.25.15.02.05.04.13.04.25v1.18h.51v-1.18c0-.09.01-.16.04-.23.05-.11.15-.17.3-.17.12 0 .2.04.24.14.03.04.04.1.04.18zm-3.22-.15c0 .07-.04.12-.11.15a.8.8 0 0 1-.2.04l-.18.03c-.2.02-.35.06-.45.12-.19.11-.28.29-.28.53 0 .19.06.33.17.43a.73.73 0 0 0 .82.06c.09-.05.17-.12.24-.2l.02.13c0 .03.01.07.03.1h.55v-.07a.17.17 0 0 1-.07-.06.29.29 0 0 1-.03-.14V3767.66c0-.24-.09-.4-.25-.49a1.23 1.23 0 0 0-.58-.13c-.33 0-.56.09-.7.26a.77.77 0 0 0-.14.43h.5a.37.37 0 0 1 .07-.18c.05-.06.13-.09.26-.09.1 0 .19.01.24.05.06.03.09.08.09.16zm.79-5.73c0-.54-.08-.95-.25-1.24-.16-.3-.45-.44-.86-.44-.4 0-.7.14-.86.44-.17.29-.25.7-.25 1.24s.08.95.25 1.24c.16.3.45.44.86.44s.7-.15.86-.44c.17-.29.25-.7.25-1.24zm-3.2-9.22h1.91v-1.95h-1.91v1.95zm7.45-1.95h-1.92v1.95h1.92v-.04zm-1.92 4.48c.77-.23 1.4-.79 1.71-1.52h-1.7zm1.8-5.49a2.66 2.66 0 0 0-2.54-1.93h-1.89v4.89h1.64v-2.96h.5zm-5.42 0v-1.8c-.86.25-1.54.93-1.8 1.8zm-1.7 3.97c.3.73.93 1.3 1.7 1.52v-1.52zm2.7 1.64h1.63v-1.64h-1.64zm.85 5.33c-.17.29-.25.7-.25 1.24s.08.95.25 1.24c.16.3.45.44.86.44.4 0 .7-.15.86-.44.17-.29.25-.7.25-1.24s-.08-.95-.25-1.24c-.16-.3-.45-.44-.86-.44s-.7.14-.86.44zm-5.06 0c-.17.29-.25.7-.25 1.24s.08.95.25 1.24c.16.3.45.44.86.44s.7-.15.86-.44c.17-.29.25-.7.25-1.24s-.08-.95-.25-1.24c-.16-.3-.45-.44-.86-.44-.4 0-.7.14-.86.44zm0 8.37h.52v-1.9l1.07 1.9h.55v-2.68h-.51v1.87l-1.05-1.87h-.58zm7.59-5.89c.16.3.45.44.86.44.4 0 .7-.15.86-.44.17-.29.25-.7.25-1.24s-.08-.95-.25-1.24c-.17-.3-.45-.44-.86-.44s-.7.14-.86.44c-.17.29-.25.7-.25 1.24s.08.95.25 1.24zm36.6-14.79c0-2.7-2.17-4.9-4.84-4.9-.86 0-1.67.25-2.37.66a4.9 4.9 0 0 0-2.37-.6 5 5 0 0 0-4.97 5.01 5 5 0 0 0 4.97 5.03c.98 0 1.9-.3 2.67-.8.63.31 1.33.5 2.07.5 2.67 0 4.84-2.2 4.84-4.9zm-8.76-.13h2.81l.02.17c0 .2-.03.4-.06.6h-3.62c.03.22.07.44.13.65h3.34c-.08.27-.18.52-.31.77h-2.77c.1.2.2.4.32.59h2.08c-.13.17-.3.3-.45.45-.1.1-.19.22-.3.3h-.73c.15.17.33.3.5.45-.54.27-1.14.44-1.78.44a4.1 4.1 0 0 1-4.06-4.12 4.1 4.1 0 0 1 4.06-4.1c.54 0 1.05.1 1.52.3-.22.2-.42.43-.6.67h1.53c.22.23.4.5.57.77h-2.58c-.1.2-.2.43-.27.66h3.18c.1.24.17.5.22.76h-3.59c-.03.21-.06.42-.06.64h.9zm4.62 19.72v-6.03c0-.59-.47-1.07-1.05-1.07H1523c-.58 0-1.05.48-1.05 1.07v6.03h-3v-6.03c0-2.26 1.82-4.1 4.05-4.1h6.25a4.07 4.07 0 0 1 4.04 4.1v6.03zm-12.73 1.47h17.3V3786h-17.3zm9.93 3.8c-.4-.24-.86-.38-1.36-.38a2.76 2.76 0 0 0-1.4 5.13l-1.48 2.8c-.25.46-.03.84.5.84h5.1c.53 0 .74-.37.49-.83l-1.63-2.92a2.77 2.77 0 0 0-.22-4.65z"/></defs><g><g clip-path="url(#clip-7050)" opacity=".1" transform="translate(-1486 -3739)"><use xlink:href="#krbaa"/></g></g></svg>