<svg xmlns="http://www.w3.org/2000/svg" xmlns:xlink="http://www.w3.org/1999/xlink" width="53" height="53" viewBox="0 0 53 53"><defs><path id="9euxa" d="M638.04 3739.13l-5.6 2.55c-.36.17-.7.4-.98.67l-9.14 9.15-31.47-3.77a1.87 1.87 0 0 0-1.55.53l-1.75 1.75c-.93.93-.64 2.5.56 3.04l22.55 10.1-6.47 6.48h-11.31c-.5 0-.98.2-1.33.55l-.94.95c-.94.94-.63 2.53.58 3.05l9.54 4.09 4.1 9.54a1.87 1.87 0 0 0 3.04.58l.95-.95c.35-.35.55-.83.55-1.32v-11.31l6.47-6.48 10.11 22.56a1.87 1.87 0 0 0 3.04.56l1.75-1.75c.4-.41.6-.98.53-1.55l-3.78-31.47 9.15-9.15c.28-.28.5-.6.67-.97l2.56-5.6a1.37 1.37 0 0 0-1.83-1.83z"/></defs><g><g opacity=".1" transform="translate(-587 -3739)"><use xlink:href="#9euxa"/></g></g></svg>