<svg width="320px" height="177px" viewBox="0 0 320 177" version="1.1" xmlns="http://www.w3.org/2000/svg"
     xmlns:xlink="http://www.w3.org/1999/xlink">
    <!-- Generator: Sketch 50 (54983) - http://www.bohemiancoding.com/sketch -->
    <desc>Created with Sketch.</desc>
    <defs></defs>
    <g id="Page-1" stroke="none" stroke-width="1" fill="none" fill-rule="evenodd">
        <g id="Mobile-Portrait-320" transform="translate(0.000000, -3908.000000)" fill="#393A3B">
            <g id="comment" transform="translate(-78.000000, 3608.000000)">
                <g id="Page-1" transform="translate(0.000000, 300.000000)">
                    <path d="M255.998687,95.7273065 L264.135061,96.7885305 C265.271183,96.7775211 279.805755,96.3741066 279.805755,83.420411 L279.805755,44.1012559 C279.805755,44.0694074 279.80772,44.0363793 279.812043,44.0045308 C279.817152,43.9585274 280.354756,39.3664433 278.556454,34.4877225 C276.174961,28.0240466 271.000127,24.1113975 263.176176,22.8590824 L156.299416,1.63027739 C155.629376,1.58034207 146.338017,0.976006654 140.850366,6.02104744 C138.110077,8.5402257 136.733449,12.0946773 136.758993,16.5861044 L136.758993,51.8274699 L145.620032,50.390748 L145.620032,20.391019 C145.616888,20.1861662 145.586236,15.0522642 149.699616,11.6531232 C153.142563,8.80759596 158.362984,8.08923499 165.214295,9.51691351 L262.670011,29.1757047 C262.710881,29.1839617 262.751359,29.1953642 262.790264,29.2103055 C263.067712,29.3141081 269.588129,31.9276523 269.588129,46.4604052 L269.588129,76.2993188 C269.639218,76.7974925 269.863219,80.1643917 267.035688,82.9143734 C264.672665,85.2121849 260.935372,86.3831093 255.884328,86.4181034 C255.895725,89.6080664 255.930701,92.7697197 255.998687,95.7273065 Z M167.411871,81.9518405 L201.332424,87.3625495 C201.485295,87.3892865 215.356115,89.9627252 215.356115,100.720839 L215.356115,114.550172 L229.733887,100.164866 C229.987362,99.8876663 236.600524,92.8102184 246.141429,94.4411769 L254.421636,95.5216673 C254.357186,92.6140158 254.323782,89.5164528 254.312386,86.3941187 C252.464174,86.3260965 250.459162,86.1212437 248.296562,85.7783807 C247.369509,85.766585 232.726865,85.7618667 223.512924,97.2446327 C223.299926,97.5104302 222.941916,97.6083349 222.621633,97.4884115 C222.303708,97.3677017 222.098569,97.0559008 222.114682,96.7157901 C222.116254,96.682762 222.22904,93.172741 219.633763,89.2329617 C216.176276,83.9846408 209.48491,80.3385756 200.284331,78.6899234 L167.411871,71.9738186 L167.411871,81.9518405 Z M76.2392086,124.544708 L85.6708633,127.914753 L85.6708633,87.3523265 C85.6708633,87.2119571 85.8402401,73.2898307 100.475024,70.8492907 L131.907585,65.3453954 C132.166563,65.2986056 132.432221,65.3874669 132.613781,65.5789512 C132.794947,65.7708287 132.868435,66.0397717 132.809094,66.2969189 C132.785122,66.405833 132.223939,69.0803219 134.173933,72.01589 C136.352253,75.2947144 140.706926,77.5488815 147.117308,78.7146945 L165.839928,81.7009843 L165.839928,71.0108924 C165.839928,70.7745843 165.946034,70.5512515 166.128772,70.4018387 C166.311511,70.2520328 166.552018,70.1942336 166.783094,70.240237 L200.579856,77.1450738 C212.806031,79.3359371 218.439087,84.5091584 221.008427,88.4623062 C222.623598,90.94767 223.269666,93.2576704 223.524714,94.8119566 C233.490043,83.8599991 247.765638,84.1863481 248.392451,84.2071873 C248.425461,84.2083668 248.458472,84.2115124 248.490697,84.2166239 C250.579808,84.5496571 252.522336,84.7478256 254.308456,84.8127023 C254.289986,71.3852108 254.649567,58.0159117 254.655069,57.8197091 C254.655462,57.7961176 254.657427,57.7729193 254.660178,57.7493278 C254.668824,57.6730487 255.49763,49.9778968 250.689844,45.427491 C247.373046,42.2882497 242.140442,41.3095959 235.139011,42.5170872 L89.0411079,67.6656187 C87.9918363,68.1315507 76.2392086,73.6566784 76.2392086,86.5659434 L76.2392086,124.544708 Z M167.411871,83.5442663 L167.411871,134.776339 C168.628161,134.338717 169.893575,133.992315 171.204968,133.760725 L237.978332,121.97127 C238.765875,121.753048 255.386022,116.948248 254.655462,102.332925 C254.5749,100.7173 254.510844,98.9628798 254.460934,97.1121271 L245.90721,95.9962495 C237.168781,94.4997625 230.930921,101.184412 230.869222,101.252434 L215.125826,117.004474 C214.901431,117.229773 214.563463,117.296615 214.269117,117.175119 C213.975557,117.05323 213.784173,116.766593 213.784173,116.448501 L213.784173,100.720839 C213.784173,91.284242 201.198808,88.9357089 201.071481,88.9132969 L167.411871,83.5442663 Z M130.511308,177 C130.426816,177 130.341538,176.986631 130.258618,176.958322 C129.940299,176.849801 129.726122,176.551762 129.725336,176.215583 L129.685252,159.701538 C129.685252,159.685417 129.685645,159.669296 129.686431,159.653568 C129.931654,155.48967 129.02032,152.274936 126.97876,150.099014 C124.436143,147.388744 120.874121,147.141427 120.323942,147.119408 L97.6195908,151.81962 C91.5444263,152.988578 86.5440773,152.044919 82.7454784,149.018523 C76.9009964,144.361563 75.7314712,136.26968 75.5055045,133.748929 L0.785971223,133.748929 C0.352115108,133.748929 0,133.397023 0,132.962546 C0,132.528463 0.352115108,132.176163 0.785971223,132.176163 L76.2392086,132.176163 C76.6620612,132.176163 77.0090674,132.511556 77.0247869,132.934237 C77.0283237,133.032141 77.4606079,142.803738 83.7314793,147.793732 C87.153598,150.516976 91.7232347,151.352115 97.3118831,150.277129 L120.094438,145.560797 C120.146705,145.550181 120.200151,145.544676 120.253597,145.544676 C120.441051,145.544676 124.88454,145.583995 128.108987,149.005941 C130.464542,151.505067 131.524031,155.110633 131.257194,159.721591 L131.291777,173.916592 L148.68139,151.395366 C149.232749,150.455245 155.616014,139.869349 165.839928,135.401514 L165.839928,83.2938033 L146.852828,80.2650488 C139.962219,79.0115541 135.252286,76.5163605 132.836996,72.8447378 C131.323609,70.5433877 131.111004,68.3493788 131.15266,67.0742586 L100.739897,72.3992518 C87.3972491,74.6243228 87.2428058,87.2253256 87.2428058,87.3523265 L87.2428058,129.030631 C87.2428058,129.286599 87.1186223,129.526052 86.909554,129.673499 C86.7004856,129.820946 86.4328624,129.857119 86.1923552,129.771404 L75.1887581,125.839488 C74.8759415,125.727822 74.6672662,125.431355 74.6672662,125.098715 L74.6672662,86.5659434 C74.6672662,72.0524569 88.3769622,66.2363674 88.5156862,66.1793547 C88.5691322,66.1573359 88.6245432,66.1412151 88.6815261,66.1313853 L234.872174,40.9671261 C242.395097,39.6699871 248.083171,40.7886171 251.779201,44.2935266 C257.030667,49.274084 256.300893,57.2020052 256.22544,57.8959883 C256.205004,58.6591731 255.861928,71.7316126 255.880005,84.8355074 C260.481867,84.7938291 263.902021,83.7679923 265.940044,81.7863069 C268.377734,79.4161482 268.026405,76.4738958 268.022868,76.4444065 C268.018545,76.4109852 268.016187,76.3767775 268.016187,76.3429631 L268.016187,46.4604052 C268.016187,33.7748662 262.824061,30.9607943 262.277418,30.7008947 L164.898728,11.0578312 C158.54415,9.73356206 153.773305,10.3378975 150.715484,12.8531438 C147.182543,15.7604021 147.191582,20.3347926 147.191975,20.3807961 L147.191975,51.05996 C147.191975,51.4456809 146.912562,51.7747822 146.531759,51.8365133 L136.098777,53.5276301 C135.871238,53.5649833 135.638984,53.4997135 135.463712,53.3503008 C135.288048,53.200888 135.18705,52.9822735 135.18705,52.75147 L135.18705,16.5904295 C135.159148,11.6385751 136.708691,7.68935919 139.792449,4.85759364 C145.978828,-0.823631073 156.0538,0.0280218256 156.48019,0.0669477891 C156.507306,0.06970013 156.534422,0.0736320455 156.561538,0.0787435357 L263.453624,21.3110873 C273.951449,22.9911948 278.277434,29.1399242 280.052943,34.0017378 C281.879933,39.0051002 281.440969,43.5846022 281.377698,44.1472593 L281.377698,83.420411 C281.377698,98.1910448 264.259638,98.3616899 264.086331,98.3616899 C264.052141,98.3616899 264.018344,98.3593307 263.984548,98.3553988 L256.039165,97.3181595 C256.087895,99.0643232 256.149201,100.722805 256.225833,102.254679 C257.034204,118.433725 238.534799,123.452029 238.347738,123.500785 C238.327303,123.505896 238.306475,123.510221 238.28604,123.514153 L171.478486,135.3099 C170.069632,135.55879 168.711867,135.955127 167.411871,136.463524 L167.411871,144.316739 C170.007147,143.179236 176.834879,140.506319 186.171432,139.260689 L227.800004,132.187566 C227.843233,132.180095 227.88764,132.176163 227.931655,132.176163 L436.214029,132.176163 C436.648278,132.176163 437,132.528463 437,132.962546 C437,133.397023 436.648278,133.748929 436.214029,133.748929 L227.997676,133.748929 L186.40683,140.815368 C174.871916,142.354713 167.054647,146.209563 166.977228,146.248096 C166.733184,146.369592 166.443947,146.356617 166.212478,146.213495 C165.98101,146.06998 165.839928,145.817158 165.839928,145.544676 L165.839928,137.144138 C156.198812,141.724427 150.086314,152.10665 150.01479,152.230112 C149.997499,152.259994 149.97785,152.289484 149.956629,152.316614 L131.133404,176.69449 C130.981711,176.891086 130.750243,177 130.511308,177 Z"
                          id="Fill-1"></path>
                </g>
            </g>
        </g>
    </g>
</svg>
