<svg xmlns="http://www.w3.org/2000/svg" xmlns:xlink="http://www.w3.org/1999/xlink" width="132" height="120" viewBox="0 0 132 120"><defs><path id="9hjna" d="M720.5 2532.9c.5-1.55 2.58-2.23 4.9-1.77 2.67.53 7.03 7 2.29 8.11-4.21-.75-8.33-2.78-7.18-6.34zm49.31 5.83c.01-1.33 1.82-2.24 4.25-1.52 2.86 3.4-4.26 4.49-4.25 1.52zm-45.39 3.8c-2.07-.75-2.43-2.84-3.59-4.3 1.8.96 2.84 2.53 3.6 4.3zm-62.37 9.38c-4.27-3.94 6.49-3.85 2.29 0zm113.97 0c.46-.85 2.4-.94 3.6-.5 1.99 2.7-4.22 3.57-3.6.5zm-55.52 4.56c-1.23 1.92-1.34 4.7-3.26 6.08.73-2.13 1.07-4.57 2.29-6.33.52-.07.56.24.97.25zm-41.47 19c.23-.9 1.54-.35 1.96 0-.33.72-1.39-.06-1.96 0zm93.07 5.33c-.12-1.36.81-1.9 2.61-1.78-.06 1.23-1.12 1.67-2.61 1.78zm-105.8 1.77c-2.14-.37-3.87-1.05-4.57-2.53 1.89.56 3.57 1.28 4.57 2.53zm78.04 9.63c1.86-.95 5.76-1.57 8.17-1.27-1.7.76-5.44.64-8.17 1.27zm11.76 25.6c-2.3-.16-4.05-.75-5.23-1.78 1.6.7 4.42.45 5.23 1.77zm-98.62 1.26c-.71-.36-1.63-1.4-.98-2.03 1.22-.01.94 1.13.98 2.03zm102.86 8.62c-.53-1.64 1.01-2.98 3.92-2.79 5 2.7-2.8 6.22-3.92 2.79zm-94.7-1.02c-.34-.94.82-.72.66-1.52 1.04-.28.38 1.8-.66 1.52zm82.62-1.01c-.08.45-.56.58-1.3.5v-.75c.68-.11.86.17 1.3.25zm-71.19 8.62c.57-3.2 4.1-4.08 5.55-6.6.39.05.28.47.33.77-2.04 1.88-3.3 4.37-5.88 5.83zm76.42-4.06v1.27c-.78.46-1.9.66-2.94.25-.59-2.04 1.56-2.32 2.94-1.52zm23.18 4.06c.2 1.08-.29 1.63-.98 2.02-1.42.18-1.8-.45-2.28-1.01.08-1.48 1.99-1.8 3.26-1.01zm-37.88 2.02c.1.59-.05.98-.33 1.27-1.02.12-1.45-.22-1.3-1.01.79.1.7-.47 1.63-.26zm-40.16 1.02c.58-.04.68.3 1.3.25-1.55 4.7-2.1 10.19-5.55 13.43.46-1.16.34-2.6.98-4.06.3-.7 1.32-1.27 1.63-2.02 1.02-2.44-.42-6.13 1.64-7.6zm-9.15 1.52c1.65 1.76 2.64 4.03 4.57 5.57-1.5 1.37-4 1.96-4.57 4.06-2.69.83-4.55.6-7.84.25-1.17-.95-2.24-1.97-3.59-2.79-1.93-5.96 4.85-9.24 11.43-7.1zm32.98 4.05c.34 1.36-.44 1.85-1.3 2.28-.96.07-1-.57-1.96-.5-1.47-1.72 1.72-3.18 3.26-1.78zm-27.1 0c1.5.04-.21 1.14 0 1.77-.97-.36.43-.98 0-1.77zm-28.41-60.3c1.83.6 3.28 1.5 4.9 2.27-.22.12-4.1-1.17-4.9-2.28zm-10.78 25.33c.25-.95-1.24-.55-1.3-1.27.04-.8.74-1.11 1.96-1 .29.53 1 .74.98 1.51-1.92.1-.81.22-1.64.76zm86.87 6.08c-2.69-.02-4-1.11-6.2-1.52-.29.46-.73.8-1.31 1.02-2.81-.5-2.8-2.46-6.53-1.78-6.1 1.12.54 7.8.97 11.4.78.5 2.28.44 2.95 1.02-.74 3.9 2.52 6.09 3.26 10.14-2.64-.83-3.72-2.86-4.57-5.07-3.2-2.6-5.6-5.8-10.13-7.35-1.3-1.52-2.23-3.34-5.22-3.55-1.26.68-.79 1.2-.98 2.79-1.93-.27-2.43 1.95-3.26 3.3-1.94.09-3.32.18-4.9 1-.48 1.58 0 3.89-1.96 4.32-2.87.1-2.77-2.08-2.62-4.31-2.74 1.25-.64 6.25-2.93 7.85.3-3.33.45-6.65.97-9.88-1.2-2.03-3.34-3.32-4.9-5.07-3 .96-2.68 4.5-5.87 5.32-.11-2.48 3.83-3.07 2.94-5.32-3.3.92-3.54 5.51-6.53 5.83.2-1.27 1.26-1.9 1.96-2.79-3.22-.08-4.19 2.82-6.2 4.82-2.57 2.53-6.14 4.5-8.17 6.84-1.91.36-3.59.2-5.23-.26-1.36-4.9 4.42-7.63 8.82-10.38 3.05-1.91 6.32-4.22 6.86-7.35-1.17-.77-2.1 1.53-3.27.76.9-1.84 3.96-1.71 3.6-3.8-.48-2.75-4.66-1.63-7.19-1.02-4.38 1.06-9.53 2.5-12.4 2.79.27-.97 1.95-.85 2.93-1.27-1.34-.78-4.98-.97-4.25-2.53 1.12.97.2-.26 2.29-.25.73-.04-.42-.64 0-1.27.76.08 1.35.3 1.96.5-.71-1.57-2.76-.9-4.57-1.26-2.98 2.32-10.46 4.5-15.35 5.32 2.04-1.54 5.45-2.02 8.16-3.04.77-1.6 4.2-3.1 5.56-5.07-.56-1.05-2.58.01-3.27-.5 3.79-1.63 5.55-4.82 9.47-6.34-.9-1.2-.9-1.53-.98-3.3.39-.29 1.15-.28 1.96-.25-4.08-2.57-14.21-.46-16-4.81.38-.04.27-.47.32-.76 2.25-.31 2.51-1.86 4.58-1.27.23.69-1.54-.18-1.3.5 6.18 2.49 17.49 4.61 24.16 1.02-1.96-1.86-6.12-2.01-7.84-4.05 2.2 1.16 5.1 1.77 7.5 2.78.91-1.47-.02-3.69 0-5.32-5.67-4.96-15.09-7.04-18.6-13.68 5.7.05 8.14 4.82 13.71 5.83.12 2.22 1.14 2.85 3.92 4.05 3.36 1.45 9.17 4 11.43.25 2-7.15-3.07-12.73-6.86-19.5-1.45-2.61-3.61-8.42-5.22-11.92-.7-1.5-1.5-4.44 2.6-4.05 5.1.48 3.98 10.47 7.2 12.16 2.27 9.05 8.08 15.35 15.01 20.78 3.98.89 2.67-2.62 2.94-4.56 1.67-.36 1.4.77 2.29 1.01 2.7.6 6.8-3.47 3.27-2.28.26-1.66-2.64-2.98-1.64-5.07 2.8.2 3.03 2.38 3.92 4.06 2.53-.15.5-3.84 2.61-4.31-.23 1.39-.65 1.23-.65 2.53 2.57-1.02 2.25-6.97 6.86-4.05.95 3.87-.67 7.03 1.3 10.64 1.15-.12.8-1.41 1.64-1.77 2.86.25.56 2.6.98 4.05-.76.34-1.86.42-2.62.76-1.2 2.17.6 2.96 1.31 4.31.5.95-.6 2.63 1.3 2.79.5 0-1.28-1.84.33-2.03 1.13-.08 1.2 1.33.66 1.78 4-1.2 5.6-4.27 9.47-5.58 4.42.35 7.16-4.6 10.45-1.27-.1 2.24-2.43 3.3-4.58 4.31-4.34 2.03-6.84 5.88-11.75 7.86-.56 4 3.87 3.7 7.83 3.04-.22 1.18-2.75.56-3.26 1.52.4 1.2 1 .88 2.29.5.6.49-.2.46 0 1.27 2.28.17 3.1-.8 5.55-.5.18.36.5.61.98.76-3.8 5.57 7.06 4.8 6.2 8.36-.7 2.9-9.66.38-9.47 4.56-1.42.16-3.1.13-3.92.76.25.65.8 1.07 1.63 1.27-1.09.91-1.41-.92-2.6-.76-2.22 1.42 1.69 1.9 2.93 2.28.8-.03.07-.84-.33-.76 1.4-.49 2.9 1.12 3.6 2.02zm-66.95-4.81c-1.82-.58-4.52 1.37-6.53 0-1.25.97-1.31 2.27-.65 3.04 2.28-1.1 6.2-.93 7.18-3.04zm-2.6-3.3c-1.17-.05-1.97.18-2.3.76 1.3.16 1.7-.37 2.3-.76zm4.89-3.29c-2.08-1.89-5.95.33-7.51 1.27.24.57.29 1.3.65 1.77 2.02-.46 4.74-.37 5.88-1.52-.57-.14-1.92.3-1.96-.25 1.4-.1 2.37-.53 2.94-1.27zm1.63-3.04c-.6-.55-1.75-.67-2.28-1.27.12-3.58-6.55-4.5-6.2-.25 2.13.28 3.1 1.48 4.24 2.53.64-.93 3.84.11 4.24-1.01zm-8.16 21.54h-.02.02zm-.02 0c-.22.14-3.18 3.05-4.88 2.53 1.2-1.18 2.96-1.91 4.88-2.53zm13.73 4.3c-.68.66-.79 1.76-1.96 2.03.69-.65.8-1.75 1.96-2.02z"/></defs><g><g clip-path="url(#clip-4801)" transform="translate(-648 -2531)"><use fill="#111" xlink:href="#9hjna"/></g></g></svg>