<svg id="Слой_1" width="320px" data-name="Слой 1" xmlns="http://www.w3.org/2000/svg" viewBox="0 0 462.78 189.53">
    <defs>
        <style>.cls-1{fill:none;stroke:#00a19a;stroke-miterlimit:10;}</style>
    </defs>
    <title>ruki</title>
    <path class="cls-1"
          d="M.17,78.77S40.12,64.67,61.1,49.56s34.16-21.2,64.11-10.4,51,11.32,51,34.2,2.7,16.57-2.27,20.3,1.11,12.94,3,15.25,20,14.17,15.51,21.59-18.86,20.09-34.92,9.28S132,119.16,116.69,120.6,82.46,145.77,66.4,145.36s-11.51,2.08-7.7,3,23.9-1.68,25.91-5,4.92,5.39-3.37,12.25S45.29,176,34.6,177.41s.46,2.07,6.73.58,41.1-13.63,41.88-17.85,2.66,2.89,6.49-.41,11.88,6.16,17.38,5.48,14.16,10.42,19.83,10.53,7,.84,9.4,2.32,21.46,13.62,29.1,10.44,13.6-7.65,4.45-16.58-32.68-22.57-39.33-26.77S106.46,132.65,109,129.4s8-1.72,9.53,1.34,12.41,9.09,13.44,7.77,11.38,13.39,15.36,14,16.12,23.18,31.17,22.51,12.27-7.11,10.8-12.12-21.4-13.42-23.73-29.14,2.58,1.44,10.69,2.07,16.57-3.14,11.31-11.58-13.09-14-14.52-12-5.46,12-4.31,12,9.15,1.85,8.2-5-4.1-6.3-11-15.52-26.07-15.82-40.15-19.26S103.6,72.8,103.33,71.12s10.26-.29,11.44,1.78,12.69,10.53,15.5,6.5,2.26-3,5.36.38,5.52,2,10.94-3.17,2.53.63,3,4.55,3.2,19.83,19.19,17.59,24.79-12.94,24.47-6.87,1.55,23,11.57,19.4,5.15-17.4,2-23,20.71-7.74,19.81-6.21,4.11,23,9.3,22,2.08-7.47,13.66-7.26,6.16,17.17,4.79,18.43-11.06-.66-13.24,1.5-5.28,14.52-1.78,17,11.89,10.62,5.21,10.77-25.41,4.51-24.93-3,4.29-14.08-6-15.09-15.24,8-10.74,13.34,9,12.26,1.44,13.84-15.14,3.1-16.16-5.38,8.68-3.57,26.89-6.71,51-12.2,58-18.22,16.31-1.74,15.76.9-1.11,19.8,7.16,18.64,14.76-4.93,10.05-13.48-2-10.64,2.5-12.17,15.8.44,15-2.94,1.19-24.47-4-36.25-3.36-24.18-10.94-23.1-25.26,9-23.76,3,5.68-17.57-5.06-16.92-12.87,9.35-8.47,15.74S272,66.31,264.9,68s-14.18-.86-13.84,5.86,4.39,19.06,10.29,16.09,19.06-10.57,20.25,2.2-9,15.28-15,13.18-7.18,5.72-5.69,11.31,2.46,4.82,11.16,2.63,36.58-8,41.57-9.1-5.59,12.83,0,14.08,14.45,3.5,24.63-10,13.52-14.78,15.22-15.79-7.94-4.59-16.6-1.7-26.05,9.46-35.77,3.77-12.42-11-7.57-16.08,14.09-8,14.14-5.5,2.32,15.59,3.88,16.11-12.61,7.53-15.32-1.54-2.57-16.81,9-21.19,46.39-6.49,53.51-8.82,16-8.65,10.6-11.32-13.4-12.16-10.71-17,7.26-.93,4.36,3.53-9.71,8.78-17,7.49-12.75-5.82-12.43-8.44,7.65-.09,5.15,7.16-14.79,19.63-17,16.6S310.43,77,298.28,74s-6.9-15.48-2.35-20.94,22.37-30.08,30-34.13S374.37,6.4,380.74,4.78s17.2-5.58,19-3.85S388.6,4.32,383,16.84,376.66,50.13,377.46,68s-3,20.53-14.22,28.81-36,21.81-28,29.63,22-2,23-5.79,10.72-5.41,14.32-8.6,9.8-2.13,2.64-9.29,14.13,4.16,23,11.54,23.83,29.8,35.68,32.14,19.89,6.52,25.82,3.45,3-8-22.13-21.47-41.87-43.35-50.41-69-1.25-48.54,11-51.38"/>
</svg>
