<svg width="300px" height="150px" viewBox="0 0 618 398" version="1.1" xmlns="http://www.w3.org/2000/svg"
     xmlns:xlink="http://www.w3.org/1999/xlink">
    <!-- Generator: Sketch 50 (54983) - http://www.bohemiancoding.com/sketch -->
    <desc>Created with Sketch.</desc>
    <defs></defs>
    <g id="Page-1" stroke="none" stroke-width="1" fill="none" fill-rule="evenodd">
        <g id="Desktop-HD-1440-+" transform="translate(0.000000, -1412.000000)" stroke="#65C8CE" stroke-width="1.5">
            <g id="Corp_prod" transform="translate(-203.000000, 1353.000000)">
                <path data-200-top="stroke-dashoffset: 5806; stroke-dasharray: 5806"
                      data-100-top="stroke-dashoffset: 0;" d="M28.8483974,142.050354 C28.8483974,142.050354 116.504859,136.463241 181.89696,105.049603 C224.784195,84.4469116 252.955222,100.424509 287.012731,115.56118 C321.070241,130.697851 387.503409,166.01675 384.560167,187.460367 C384.560167,187.460367 373.628127,236.654548 376.571368,242.961495 C379.51461,249.268441 362.696087,244.363318 362.976115,250.109367 C363.256984,255.855415 370.82532,278.700857 370.544451,281.784533 C370.264422,284.867368 392.548966,304.910003 390.726679,319.345341 C388.905233,333.781521 372.366738,344.01307 360.734206,343.872635 C349.100833,343.7322 302.569866,325.512694 291.917854,307.992838 C281.266683,290.473823 287.153166,296.921204 281.126248,292.29611 C275.09933,287.671016 252.534758,274.216197 233.754354,272.534345 C214.973109,270.852493 197.594529,285.989164 178.253227,291.314749 C158.911925,296.640335 124.013489,303.367744 104.11129,300.284909 C84.2090899,297.201232 100.327122,303.367744 118.2666,304.769568 C136.206919,306.171392 158.351027,310.235588 166.900724,305.610494 C175.449579,300.9854 171.105355,316.122071 167.881244,318.364821 C164.657974,320.606731 147.418987,339.107106 108.31592,346.956311 C69.2128535,354.804675 55.7580348,352.141462 51.4129693,353.543286 C47.0687447,354.94511 57.4398871,356.206499 66.2696119,356.066064 C75.0993367,355.92563 127.377194,352.561925 145.316672,344.713561 C163.25615,336.865197 158.351027,336.444734 164.938002,338.827078 C171.525818,341.209422 179.794645,335.322938 181.616932,337.706123 C183.438378,340.088467 203.708062,359.520589 213.011228,361.532084 C218.19722,362.653039 217.075425,368.679957 231.231576,379.752432 C245.386886,390.824066 257.860344,394.46864 260.243529,396.150492 C262.625872,397.832344 288.974612,425.302039 305.793136,427.824817 C322.611659,430.347596 327.377188,426.703863 330.179994,424.321519 C332.983642,421.938334 339.150154,419.135527 331.722253,404.980217 C324.293511,390.824066 302.990329,368.119059 274.678867,342.331217 C246.368247,316.542534 224.363732,294.678454 224.92463,291.735212 C225.484686,288.791971 231.511604,278.280394 237.257653,288.651536 C243.004542,299.023519 253.41689,310.529071 267.951458,315.001117 C269.773745,315.561174 271.315163,321.86812 278.323441,331.538771 C285.330879,341.209422 302.609389,361.602722 309.858173,363.493965 C313.081443,364.334891 310.558664,372.184096 320.929807,386.759869 C331.30179,401.335643 340.271108,414.08997 349.381703,413.949535 C358.491456,413.809942 371.105348,412.128089 372.366738,403.858421 C373.628127,395.589594 375.029951,389.98314 371.385377,387.880824 C367.741644,385.778509 351.764046,368.679957 348.400342,361.252056 C345.036637,353.823314 335.225551,317.944358 336.627375,313.879321 C338.029199,309.815125 339.570617,314.160191 343.634813,319.345341 C347.69985,324.531333 356.109112,336.304299 364.938837,334.762882 C373.768562,333.220623 380.778522,330.234494 382.598286,322.148989 C385.121065,310.93608 369.983553,291.891625 359.332382,283.746414 C356.950038,281.924127 357.370501,295.659815 350.782686,300.284909 C344.195711,304.910003 344.336146,306.731449 350.082194,306.731449 C355.828243,306.731449 370.175284,305.566766 364.518374,284.026442 C360.8738,270.15116 361.575132,272.673939 355.268186,266.227399 C348.96124,259.780018 341.532498,249.128006 339.430182,243.802421 C337.327867,238.476835 331.441384,236.37452 321.911167,230.62763 C312.380951,224.881582 278.743904,209.324448 259.962659,193.907748 C241.182255,178.490208 232.212096,169.100426 235.996263,168.959992 C239.780431,168.819557 260.663992,177.930151 260.103094,182.694839 C259.542196,187.460367 280.285322,199.794231 283.649027,198.251973 C287.012731,196.710555 293.880575,192.785953 296.262919,181.433449 C298.645263,170.080946 295.00153,206.381206 302.990329,208.203493 C310.979127,210.024939 327.797651,195.869629 331.161355,193.767314 C334.52506,191.664998 319.949287,212.547718 326.81629,227.544795 C333.684134,242.541031 341.112035,251.791219 356.950038,253.052609 C372.787201,254.313998 379.234582,253.332637 384.419732,250.670265 C389.605724,248.007052 407.405608,242.541031 407.826071,251.511191 C408.246534,260.480509 400.117301,281.924127 409.087461,286.269192 C418.056779,290.614258 426.606476,293.697093 430.110615,291.875647 C433.613913,290.05336 445.247286,285.848729 444.545954,275.337152 C443.845462,264.825575 432.913422,251.650785 435.156172,248.28708 C437.398081,244.923375 448.610991,239.036892 464.728182,241.84054 C480.846213,244.643347 478.183,246.325199 478.323435,250.950293 C478.46387,255.575387 476.501148,283.886848 481.967168,287.250553 C487.433188,290.614258 488.835012,291.875647 492.759614,288.791971 C496.683376,285.708294 509.01724,278.700857 517.846965,285.148238 C526.67669,291.594778 531.722247,305.750929 524.013477,317.383461 C516.305547,329.015992 499.487024,322.849481 497.244274,319.626211 C495.001524,316.4021 486.592262,319.626211 485.191279,323.410378 C483.789455,327.194546 476.782017,343.031709 484.770816,355.505167 C492.759614,367.979465 501.028442,372.604559 491.637819,374.846468 C482.248037,377.089219 446.368241,376.248292 443.985897,365.736715 C441.602712,355.225138 450.292843,352.141462 449.731945,347.797237 C449.171047,343.452172 440.90222,325.933157 433.613913,324.671768 C426.326447,323.410378 407.685637,327.754603 408.666998,338.967513 C409.647517,350.179581 418.337649,363.354371 417.356288,367.138539 C416.374927,370.922707 406.704276,380.452923 389.885752,376.668755 C373.067229,372.884588 372.787201,373.725514 373.348098,366.577641 C373.908155,359.429769 371.946275,350.880073 375.169545,351.160942 C378.393655,351.44097 482.107603,364.334891 520.369743,354.94511 C558.631884,345.554487 571.017886,334.799041 584.560161,352.001868 C589.746152,358.588843 584.000104,362.092982 582.457845,366.85767 C580.916428,371.623198 581.196456,385.778509 590.867107,393.346844 C600.537758,400.91518 613.852983,393.767307 617.917179,386.759869 C621.981375,379.752432 620.439958,373.585079 616.094892,365.036224 C611.750667,356.486527 610.208409,352.70236 617.637151,350.600044 C625.065052,348.497729 640.550707,343.113279 657.020246,346.956311 C661.224877,347.936831 660.804414,344.713561 661.504905,339.107106 C662.206238,333.501492 676.322865,283.553842 661.504905,227.40436 C660.173719,222.358803 659.753256,229.086213 643.98589,229.506676 C628.218525,229.927139 607.826065,231.819223 607.826065,221.517877 C607.826065,211.216532 618.968337,206.381206 615.184169,196.290092 C611.400001,186.198978 598.365646,179.6818 586.802911,184.727357 C575.240176,189.772914 575.029944,200.915186 580.495965,211.426763 C585.961985,221.93834 586.382448,223.830424 579.234575,226.773666 C572.086703,229.716907 547.011966,234.912149 537.818961,230.557834 C533.824562,228.66575 528.14831,259.359555 532.14271,264.19488 C536.137109,269.030206 542.444055,277.439467 551.484012,274.075763 C560.523968,270.712058 558.00119,265.45627 571.245777,269.240437 C584.490364,273.024605 586.802911,287.740813 582.177817,295.729612 C577.552723,303.71841 568.302535,315.701608 560.7342,311.286746 C553.165864,306.871883 540.551971,302.667253 536.767804,308.763967 C532.983636,314.860682 529.070806,330.680185 534.665488,337.565689 C537.398498,340.929393 555.898874,336.094068 593.53032,333.991752 C631.161766,331.889437 649.45191,335.883836 648.821216,337.355457 C648.190521,338.827078 633.894776,351.651202 635.156166,357.117222 C636.417555,362.583242 636.417555,373.935745 654.707699,373.515282 C672.997843,373.094819 699.697249,352.492128 699.697249,347.026108 C699.697249,344.713561 726.606886,337.145226 727.02735,333.361058 C727.447813,329.57689 712.521373,316.542534 700.117712,317.803924 C687.714051,319.065313 633.684545,329.787122 619.599031,311.707209 C605.513518,293.627296 605.303287,286.899887 606.564676,283.536182 C607.826065,280.172478 612.661391,270.712058 626.326441,270.501827 C639.991491,270.291595 641.673343,272.39391 640.622186,275.547384 C639.571028,278.700857 638.309639,294.468222 642.51427,300.775169 C646.7189,307.082115 646.088206,308.763967 643.144964,308.763967 C640.201723,308.763967 622.332041,310.44582 618.547874,302.877484 C614.763706,295.309149 609.718149,276.178078 625.065052,266.507427 C640.411954,256.836776 669.423907,249.688904 690.447061,252.842377 C711.470215,255.99585 741.953789,267.932797 758.351849,261.964744 C774.74991,255.99585 781.477319,256.416313 776.641994,247.376357 C771.806668,238.336401 759.82347,222.148572 762.766712,211.0063 C765.709953,199.864028 766.971343,210.375605 765.499722,213.108616 C764.028101,215.841626 760.243933,220.046256 756.039302,221.307646 C751.834672,222.569035 724.714803,224.881582 719.248782,217.313246 C713.782762,209.744911 716.936236,199.653797 717.777162,202.80727 C718.618088,205.960743 722.192024,215.841626 716.305541,223.409961 C710.419058,230.978297 699.907481,237.705706 691.70845,240.018253 C683.50942,242.3308 678.0434,242.751263 677.412706,240.438716 C676.782011,238.126169 668.39125,247.586588 663.327192,250.950293 C658.263135,254.313998 630.32084,264.405112 621.701347,256.626545 C613.081854,248.847978 612.871622,235.393159 622.12181,226.142971 C631.371998,216.892783 648.821216,205.330048 653.866773,200.07426 C658.91233,194.818471 692.96984,161.812119 712.731605,159.079109 C732.49337,156.346099 848.541181,155.505173 855.899285,156.766562 C863.257389,158.027951 838.239835,162.653045 827.728258,173.795317 C817.216681,184.937589 797.454916,201.966344 793.88098,233.501075 C790.307044,265.035806 793.040054,284.166877 776.852225,303.928642 C760.664396,323.690407 757.09046,330.628048 731.021749,338.196383 C704.953038,345.764719 676.992242,363.213937 678.463863,374.776672 C679.935484,386.339406 687.293588,392.015658 697.174471,389.282648 C707.055353,386.549638 725.76596,375.407366 727.237581,374.145977 C728.709202,372.884588 754.988145,367.418568 760.243933,362.793474 C765.499722,358.16838 773.908984,367.208336 776.22153,362.793474 C778.534077,358.378611 762.684301,338.187133 757.931386,340.088467 C752.675598,342.190783 772.437363,350.600044 794.091212,366.787873"
                      id="Page-1"
                      transform="translate(443.040464, 261.964175) rotate(-14.000000) translate(-443.040464, -261.964175) "></path>
            </g>
        </g>
    </g>
</svg>
