<svg width="320px" height="160px" viewBox="0 0 320 160" version="1.1" xmlns="http://www.w3.org/2000/svg"
     xmlns:xlink="http://www.w3.org/1999/xlink">
    <!-- Generator: Sketch 50 (54983) - http://www.bohemiancoding.com/sketch -->
    <desc>Created with Sketch.</desc>
    <defs></defs>
    <g id="Page-1" stroke="none" stroke-width="1" fill="none" fill-rule="evenodd">
        <g id="Mobile-Portrait-320" transform="translate(0.000000, -1798.000000)" fill="#65C8CE">
            <g id="Corp_prod" transform="translate(-56.000000, 1734.000000)">
                <g id="Page-1" transform="translate(0.000000, 64.000000)">
                    <path d="M86.1902154,31.9128285 C88.4545742,34.9757149 102.03311,46.1074103 109.059547,49.6196216 L110.654639,50.4154598 C114.945495,52.5540801 119.309753,54.7293941 122.743338,56.8420519 C121.305435,52.0182134 122.553256,46.575082 123.666393,43.2224537 C119.086779,47.5928133 115.646616,49.1464112 113.193906,47.9680584 C110.942704,46.8866324 110.133213,43.7046644 109.916472,40.5739292 C109.154415,41.988368 108.147572,42.928904 106.900443,43.3858445 C106.310463,43.602199 105.69417,43.6980873 105.066451,43.6980873 C100.261786,43.6987796 94.7431904,38.0822185 94.4810926,37.8125543 C94.3273655,37.6543559 94.258119,37.4321167 94.2951659,37.2143776 C94.3263268,37.030909 94.4298502,36.869249 94.5797688,36.763668 C94.5039439,36.5161585 93.8021312,35.1605682 87.3854091,32.3714999 C86.851519,32.1392218 86.4658162,31.9983318 86.1902154,31.9128285 M243.852259,66.0601355 C252.101243,69.1804857 258.187659,66.5063449 261.888882,63.6380043 C261.367456,60.6076576 260.575623,57.7905497 259.434095,55.3552642 C257.273606,55.9011697 249.501385,57.7012386 243.935701,56.8732069 C242.614133,58.8657447 242.140487,60.5076153 242.08509,61.8008956 C241.973949,64.3805328 243.510182,65.7807787 243.852259,66.0601355 M268.159148,64.430727 C270.013221,64.430727 271.817091,64.6450044 273.897254,65.0233651 C276.527927,65.501768 278.887846,66.1407924 281.169516,66.7590469 C285.044548,67.8086255 288.704222,68.8000481 293.095486,68.8287799 C300.583797,68.8782818 305.195957,68.462189 308.112271,66.1297151 C308.67109,65.6824672 308.233452,64.9350924 306.541415,62.7642786 C304.685264,60.3840336 301.954184,56.8804765 301.727402,52.0680615 C299.799927,53.7784731 296.98402,54.4829231 293.352044,54.1620262 C287.83241,53.6753153 285.459334,52.9307099 284.330963,51.4681539 C283.616686,54.4171514 281.590881,57.6243895 276.603059,59.5888878 C269.893079,62.2318736 268.363425,62.5448086 267.419596,62.1030994 C266.885359,61.853513 266.682813,61.3809949 266.540166,60.9652482 C265.900328,61.772856 264.848129,62.9685172 263.399839,64.1852945 C263.435501,64.4092646 263.469086,64.6335809 263.501978,64.859628 C265.19263,64.565386 266.691469,64.430727 268.159148,64.430727 M131.630427,86.9752053 C132.967922,87.3469887 135.229165,87.708041 136.588473,86.4514545 C137.414237,85.6878098 138.101854,84.1227884 137.742465,80.9359741 C137.244929,80.4492632 136.717617,79.9497441 136.157414,79.4349936 C135.483299,81.1557902 133.901364,84.72685 131.630427,86.9752053 M243.531648,74.3761077 C241.901933,76.5614605 241.640528,78.9230125 241.713237,80.5361511 C241.884968,84.3512587 243.939856,87.2466003 245.278736,87.5636893 C249.112566,88.472378 252.865723,88.4550696 253.249695,87.8042755 C253.278432,87.7558121 253.261467,87.4380307 252.65556,86.771659 C249.750672,83.5765367 250.891161,76.6057699 251.366191,74.3165669 C248.243177,73.8374717 245.602463,73.8606648 243.531648,74.3761077 M238.406372,79.78393 C240.125416,86.8931637 244.771506,91.1143252 252.607434,92.6886932 C255.426111,93.2550226 258.387089,93.4135671 261.237273,93.359565 C262.364605,85.7234651 263.3299,75.4578798 262.296397,66.4924982 C259.200042,67.1557544 255.356518,68.3354918 249.846232,70.1777931 C247.833584,70.8507419 246.304276,71.718929 245.146822,72.6826582 C247.190631,72.4649191 249.585173,72.5936933 252.3211,73.069673 C252.510489,73.1029051 252.677719,73.2129862 252.782628,73.3743001 C252.887882,73.5356139 252.92112,73.7329292 252.874379,73.9195133 C252.852566,74.006055 250.748167,82.6148845 253.680754,85.8401234 C254.620428,86.8737783 254.876986,87.7713896 254.442465,88.507687 C253.086273,90.8069289 245.290854,88.9895516 244.95951,88.9113178 C242.627982,88.358489 240.507656,84.5520356 240.329346,80.5984612 C240.274295,79.3712988 240.393399,77.2998349 241.455294,75.157753 C241.019733,75.3928004 240.626414,75.6624646 240.278104,75.9667455 C238.525823,77.4964579 238.411912,79.4253009 238.406372,79.78393 M129.623319,101.235559 C136.774399,103.523723 142.06829,102.28583 146.548189,97.5263784 C147.790471,96.2074817 148.389452,94.5988432 148.3299,92.7461569 C148.120776,86.2756016 140.204522,78.8136237 140.124543,78.7388516 C139.984319,78.6080004 139.904685,78.424878 139.904685,78.2327553 C139.904685,74.5055741 138.240693,69.0042867 137.403503,66.4724205 C134.686619,66.2553737 132.321507,65.7378539 130.314745,64.9215919 C132.618574,68.5826551 137.169104,73.3687614 137.224501,73.4269175 C137.294094,73.4996126 137.346721,73.5865005 137.379267,73.6816965 C138.23273,76.1848307 138.788432,78.385415 139.046375,80.2761796 C144.599941,85.7850828 147.181448,90.3880667 146.727191,93.9857813 C146.420083,96.4186437 144.793484,97.5018005 144.429248,97.7157318 C142.015663,99.6328051 139.614889,100.415489 137.29167,100.041628 C132.907678,99.3361399 129.910345,94.7310791 128.119632,91.9800892 C127.879001,91.6103827 127.622789,91.2164445 127.39843,90.8931245 C127.432707,92.9258177 128.492178,97.2802536 129.623319,101.235559 M253.773198,103.520262 C255.507129,103.584649 257.352547,103.768463 259.28106,104.090399 C259.58436,102.732385 260.315256,99.2977154 261.02711,94.7421564 C251.228045,94.8750846 240.018084,92.528764 237.040833,80.028324 C237.030446,79.9843608 237.024213,79.9390129 237.022482,79.893665 C237.018327,79.7780452 236.945619,77.0377865 239.367167,74.923744 C240.283297,74.124098 241.417208,73.5279983 242.763359,73.1375218 C244.123013,71.4814584 246.214256,69.9323606 249.406863,68.8647813 C249.47611,68.841242 249.545702,68.8183949 249.614256,68.7952017 C247.650081,68.6456575 245.533217,68.18664 243.261587,67.3170682 C243.20619,67.2956059 243.153909,67.2672202 243.105436,67.2326035 C243.001567,67.1578314 240.564784,65.3646858 240.699815,61.7822025 C240.762137,60.119562 241.352809,58.3821493 242.466984,56.5765417 C241.555701,56.3366479 240.738247,56.001212 240.058593,55.5480793 C238.621036,54.5898888 237.873521,53.6760076 237.705252,52.6710846 C237.48401,51.3466493 238.322931,50.2465302 239.211016,49.0820241 C240.04232,47.9912516 240.902361,46.8637854 241.045008,45.4368846 C241.263135,43.2549934 240.639917,41.1766061 239.334967,39.7351664 C238.066026,38.3331896 236.2168,37.592392 233.987064,37.592392 C228.791157,37.592392 226.072541,40.7075497 226.072541,43.784629 C226.072541,45.3936137 227.085963,47.1196028 227.980627,48.6420457 C228.934843,50.2666079 229.759222,51.6696232 229.501625,52.9566724 C228.984701,55.5401175 220.824699,59.0613292 209.482131,57.051483 C208.760583,59.172795 206.363617,66.9688241 208.588506,70.9826316 C209.265044,72.2028706 210.297162,72.9367449 211.744066,73.2261406 C215.995452,74.0759808 216.575737,73.314067 217.136634,72.5763849 C217.892112,71.58427 218.704027,70.8749736 221.651502,71.5063824 C227.392032,72.7366603 229.613805,75.5333443 229.0813,80.8584327 C228.614579,85.5233805 224.940708,90.5178793 220.215331,90.5178793 C217.919465,90.5178793 216.474291,89.5970749 215.313028,88.8573158 C214.117488,88.0957482 213.253639,87.5456887 211.776266,87.9157413 C210.541602,88.22383 209.195105,90.0491691 208.424738,92.4567612 C207.675838,94.7968508 207.380848,98.1840958 208.903231,100.284984 C213.035513,99.8595446 245.839286,96.6263439 256.146966,99.9232393 C256.392099,100.001819 256.573524,100.209866 256.617842,100.463606 C256.66216,100.717 256.562099,100.974203 256.358168,101.131709 C256.330816,101.152479 255.102037,102.108938 253.773198,103.520262 M277.012652,104.613803 C276.668497,105.051359 276.313263,105.483721 275.946949,105.910545 C281.587073,102.529531 287.908927,100.293638 288.35522,100.137863 C288.408886,100.11917 288.464284,100.1074 288.520719,100.102208 C296.817136,99.3437556 303.891353,93.724079 309.547057,83.3982607 C313.067893,76.9699377 313.393697,71.7213522 313.738198,66.1643318 C314.114207,60.1043306 314.502679,53.8380138 318.876977,45.4275381 C325.263577,33.1472603 335.839587,28.5657388 340.663641,27.0540271 C338.458488,26.5853169 336.734251,26.6957442 333.6559,26.8927133 C332.475248,26.9681777 331.137407,27.0540271 329.502152,27.1249914 C325.784657,27.2866514 323.649442,27.2866514 321.584167,27.2866514 C319.53378,27.2866514 317.413454,27.2866514 313.726426,27.4469268 C311.29276,27.5525077 308.0361,27.3891169 304.264938,27.1997635 C296.776281,26.823826 287.458133,26.3561543 281.697174,28.062758 C273.264688,30.5606998 258.622873,44.4973871 258.476417,44.6379309 C258.440062,44.6722015 258.400592,44.7026642 258.358352,44.7282805 C251.306986,49.0318299 247.185437,52.6568917 244.854255,55.6103894 C250.868656,56.2282976 259.517191,53.9037856 259.627293,53.8740152 C259.944788,53.7871273 260.280979,53.9373638 260.42882,54.2322982 C261.663138,56.6997772 262.534259,59.5452708 263.122507,62.6026185 C265.065563,60.8409742 266.075868,59.2659139 266.103221,59.2216045 C266.227864,59.0222123 266.444952,58.8996691 266.68039,58.8962075 C266.918597,58.9059001 267.136031,59.0090579 267.266561,59.2046423 C267.560858,59.6460054 267.697966,60.0589827 267.808414,60.3913031 C267.868659,60.573387 267.951754,60.8236658 268.006113,60.848936 C268.74705,61.1940646 273.709597,59.2402975 276.095137,58.3008 C282.069028,55.9479023 283.314079,51.7277792 283.333468,48.6707776 C283.287419,48.3737662 283.245871,48.060485 283.205016,47.7309339 C283.103916,46.9115564 282.989659,45.9827901 282.756299,44.9314806 C282.676665,44.5742362 282.888906,44.2169917 283.240678,44.115911 C283.59245,44.0155225 283.962572,44.2048759 284.084446,44.5496583 C284.098641,44.5898137 284.620413,46.1184876 284.666462,48.2418766 C285.054242,51.0749081 285.723855,52.0992165 293.473918,52.7828965 C296.856261,53.0816387 299.395874,52.4242674 301.024204,50.8312064 C301.323695,50.5380029 301.578868,50.225414 301.795956,49.904171 C301.956608,48.4298453 302.358237,46.8478617 303.078054,45.1544122 C303.203044,44.8594779 303.51396,44.6888175 303.829378,44.7424734 C304.144795,44.7947446 304.383003,45.0567931 304.406201,45.3759592 C304.415203,45.504041 304.573777,48.0352148 303.141068,50.3763429 C302.702392,55.5882347 305.579236,59.2780298 307.633431,61.9130537 C309.275611,64.0191343 310.693778,65.8378962 308.977159,67.2107949 C305.738849,69.8008171 300.890905,70.2636426 293.086484,70.2134483 C288.515526,70.183678 284.77137,69.1690622 280.807704,68.095598 C278.553386,67.4846131 276.222204,66.8535505 273.649698,66.3855326 C270.048537,65.7312768 267.357274,65.5761939 263.682018,66.2214494 C264.770226,75.3114511 263.822589,85.6047297 262.681061,93.3152556 C265.986886,93.1757503 269.077009,92.7904663 271.536297,92.4837623 C273.47312,92.2421376 275.002774,92.0513996 276.027275,92.0513996 C282.324547,92.0513996 288.450088,97.1480177 288.707685,97.3647183 C288.866259,97.4979927 288.956626,97.6960002 288.954202,97.9030082 C288.951432,98.1103623 288.856218,98.3052543 288.694182,98.4347208 C284.229863,102.006127 278.204384,104.20048 277.012652,104.613803 M158.399026,107.08059 C161.926787,107.364101 165.834364,107.634804 169.893244,107.840427 C170.232552,107.185825 170.72524,106.781502 171.189538,106.401064 C171.871269,105.841658 172.46021,105.358409 172.617053,103.94847 C172.80298,102.27406 171.701962,100.005627 169.876971,98.3031773 C168.035708,96.5854962 165.823977,95.76058 163.960901,96.1005161 C159.617418,96.8901232 156.395034,100.020512 156.777275,103.078899 C156.936195,104.347947 157.650126,105.758232 158.399026,107.08059 M252.59497,104.880006 C251.382464,106.416988 250.367658,108.230211 250.458717,109.923314 C250.532118,111.276482 251.315642,112.39114 252.853951,113.330983 C260.131753,117.777153 269.977906,111.402486 276.047357,103.59988 C276.131491,103.491876 276.245748,103.410873 276.375931,103.367602 C276.439638,103.346486 282.515321,101.306523 287.129558,97.8915847 C285.398743,96.6048816 280.663325,93.436068 276.027275,93.436068 C275.08864,93.436068 273.596725,93.6219597 271.707682,93.8576995 C269.177763,94.1730577 265.945685,94.5759962 262.469167,94.7054627 C261.557537,100.512762 260.596051,104.576417 260.482486,105.047551 C260.396967,105.404795 260.04381,105.630842 259.685806,105.566802 C257.12161,105.100514 254.739186,104.893853 252.59497,104.880006 M170.875159,109.311637 C170.81353,109.785886 170.83742,110.397563 170.975566,111.226287 C171.22797,112.73973 175.161514,114.40964 180.32903,115.196824 C186.19282,116.090281 190.442128,115.415602 191.01722,114.278096 C191.313594,113.690997 190.514144,112.762231 190.011069,112.260635 C189.135101,111.386909 188.425325,110.488259 187.854388,109.58684 C182.299784,109.713883 176.458154,109.578186 170.875159,109.311637 M142.665887,114.301982 C151.416215,117.014547 155.627437,115.732691 157.372794,114.708382 C158.600187,113.988701 159.165238,113.093167 159.284689,112.49499 C159.452265,111.657958 158.562102,110.125476 157.701368,108.643881 C157.660167,108.573263 157.618965,108.501952 157.577417,108.430296 C150.548903,107.845273 145.114442,107.215249 143.057476,106.965663 C143.199085,110.173939 142.845582,113.081397 142.665887,114.301982 M81.7504794,82.0741715 C81.9284427,82.2431011 82.2954489,82.5657288 82.7479745,82.9624363 C85.0479952,84.9809366 90.4336377,89.7078483 94.6580173,94.9872427 C99.7105844,101.302023 108.649262,108.139515 108.738936,108.20771 C108.762134,108.225365 108.783946,108.244058 108.80472,108.264482 C112.078346,111.482105 114.920913,114.463642 117.323072,117.195247 C116.085638,114.630841 115.327736,112.562839 115.068754,111.822387 C106.578101,107.202441 99.0755944,94.148826 97.9475698,92.1220177 C92.3358376,90.2627542 87.3487085,84.5004567 87.1357756,84.2522549 C87.0963052,84.2062147 87.0630669,84.1553281 87.0370994,84.1002875 C85.5711521,81.0398243 84.0629645,79.4658025 83.000724,79.8898572 C82.1358359,80.2353319 81.6805405,81.6684637 81.7504794,82.0741715 M62.6997428,99.8906996 C62.892248,99.8906996 63.0805983,99.9706642 63.2149364,100.119862 C63.2907613,100.203981 70.8843267,108.569801 77.0379124,109.800425 C77.2120672,109.835388 77.3664867,109.935776 77.4686253,110.08082 C77.5489511,110.195056 85.6192784,121.522681 95.1527832,124.008854 C95.2739644,124.040701 95.3847588,124.105088 95.4727017,124.194745 C95.6039238,124.328712 108.725087,137.607336 118.402278,137.656837 C118.419936,137.657184 118.437594,137.657184 118.455252,137.657184 C120.743154,137.657184 122.670283,136.890077 124.183664,135.376981 C124.274377,135.286631 124.388287,135.22259 124.512931,135.193166 C124.52955,135.187974 125.211281,134.986851 125.45399,134.043891 C125.915171,132.251438 125.121607,126.249939 107.864007,109.281521 C107.233172,108.797233 98.5697491,102.092669 93.5763878,95.8519681 C89.4285255,90.6677697 84.1065898,85.9976294 81.8342676,84.0030146 C81.2688703,83.506611 80.8952857,83.1787907 80.7162837,83.0001685 C80.0539414,82.3379509 80.4929639,81.0391319 80.6432287,80.6569634 C81.0531676,79.6143081 81.9602961,78.4840726 83.2766711,78.4366477 C84.9496653,78.3843765 86.6188509,80.0518634 88.2447575,83.4166075 C88.8201955,84.0674017 93.5978542,89.3388342 98.6244538,90.8851626 C98.7975699,90.9381262 98.9429875,91.0572077 99.0295455,91.2164445 C99.1102177,91.3652964 107.211706,106.147324 115.95684,110.726768 C116.115414,110.810195 116.235557,110.951431 116.292339,111.121053 C116.363663,111.334984 123.56287,132.471254 135.747128,131.309518 C136.079511,131.22436 138.74273,130.47837 140.186518,128.130665 C141.18159,126.512334 141.400755,124.469602 140.839512,122.056817 C139.352098,120.834155 130.072728,112.937737 129.58281,105.876621 C129.421812,105.376063 128.993522,104.026358 128.487677,102.296561 C126.009693,101.449144 123.342666,100.218174 120.461667,98.6053812 C109.749242,92.6073439 105.087571,85.9474352 105.044984,83.8302772 C104.647164,82.4964954 94.8017037,75.8712033 84.9898282,74.5917698 C81.9921495,74.2009471 77.9367312,75.9608606 72.8041845,78.1891382 C64.8017188,81.6639635 53.8313502,86.4268766 38.9783334,86.4272228 C38.873425,86.4272228 38.7688629,86.4268766 38.663262,86.4265304 C46.2222043,87.5491503 54.2513299,88.0479771 58.5508419,86.1786748 C58.743347,86.0949024 58.9632045,86.1035565 59.148785,86.2008295 C59.3343655,86.2981024 59.4659337,86.4746477 59.5064429,86.6799247 C59.5324103,86.8128529 60.1092332,89.9754355 56.993143,93.8168518 C52.6576229,99.1609794 41.4414295,105.496183 13.032728,107.274098 C24.0636872,107.55657 40.5367247,106.585571 53.7828777,99.9633947 C53.9985804,99.8557368 54.2551385,99.8678526 54.4597617,99.9955883 C54.586829,100.073822 57.6935709,101.918893 62.4338365,99.9440094 C62.5200483,99.9076618 62.6104149,99.8906996 62.6997428,99.8906996 M380.306886,162 C380.166662,162 380.025053,161.957768 379.902833,161.869841 C376.514258,159.429017 372.235174,158.7803 372.192587,158.774069 C372.156233,158.76853 372.120571,158.760568 372.085602,158.749837 C368.879837,157.747683 367.078045,158.146814 365.4878,158.497135 C364.61668,158.689604 363.794032,158.870996 362.884134,158.777531 C344.263418,156.851457 334.066532,140.108047 327.974229,130.104164 L327.593028,129.47864 C320.08325,117.164438 311.323921,109.916391 305.294979,106.00228 C307.406649,108.175863 308.968849,110.186401 309.0928,110.347023 C309.21502,110.505567 309.2628,110.709114 309.223676,110.905737 C309.184552,111.102013 309.061986,111.271635 308.888177,111.371331 C306.772006,112.580493 303.124449,111.599802 301.933064,111.226634 C297.229153,115.049703 288.87076,116.392139 287.551269,116.583569 C280.158865,121.587415 274.607723,123.489603 271.047763,122.233709 C269.178109,121.574607 268.502956,120.22767 268.32984,119.796346 C267.099331,118.131629 266.757599,116.351637 267.314341,114.505182 C267.48261,113.947853 267.730858,113.39814 268.048353,112.857081 C262.796356,116.184785 256.990042,117.480142 252.131711,114.512798 C250.201466,113.333406 249.173503,111.813733 249.075865,109.996009 C248.982382,108.250635 249.787372,106.473067 250.857576,104.911507 C245.811934,105.135131 242.374886,106.46372 241.449408,107.851504 C240.681811,109.00251 241.786984,110.773847 242.856149,112.487028 C243.741811,113.905967 244.578308,115.246326 244.578308,116.503605 C244.578308,119.078742 242.466292,124.886733 236.191871,125.36929 C230.320811,125.818961 228.756534,121.887195 227.100159,117.721421 L226.888957,117.191093 C225.805943,114.484412 227.37022,111.7445 228.512094,109.743654 C228.905067,109.054781 229.494008,108.023896 229.463886,107.696768 C229.454884,107.692267 229.442766,107.686383 229.426147,107.679805 C228.849324,107.449258 228.413418,106.958739 227.908957,106.390679 C226.134171,104.392603 223.164537,101.04759 210.148974,106.386871 C205.318688,108.368332 197.799217,109.269059 189.498645,109.541492 C189.923126,110.127899 190.416853,110.70946 190.989175,111.280289 C192.354368,112.641765 192.779542,113.859927 192.253269,114.902236 C191.037301,117.309482 184.957463,117.302558 180.120252,116.565569 C175.329437,115.835848 170.052165,114.109513 169.60968,111.454065 C169.459762,110.557146 169.434487,109.835042 169.496462,109.24275 C165.904303,109.056166 162.440942,108.819041 159.256644,108.566686 C160.174505,110.167016 160.88255,111.567608 160.642611,112.766731 C160.411674,113.922237 159.451226,115.094705 158.073914,115.902659 C155.65202,117.323675 150.840777,118.396446 141.675317,115.440872 C141.345704,115.334945 141.145581,115.000893 141.206518,114.660265 C141.213789,114.619071 141.934991,110.520453 141.627883,106.225904 C141.612995,106.019242 141.691936,105.816388 141.842547,105.674113 C141.993504,105.531146 142.199859,105.462951 142.405867,105.489606 C142.576906,105.511761 148.432039,106.243904 156.742998,106.944547 C156.105584,105.743347 155.557152,104.482952 155.403079,103.250597 C154.923201,99.4116044 158.573181,95.6723074 163.712999,94.7383486 C166.039333,94.3149862 168.629843,95.2454834 170.821839,97.2906386 C172.98406,99.3077542 174.228764,101.981203 173.993327,104.101476 C173.774508,106.071513 172.827909,106.84762 172.067929,107.471413 C171.882695,107.623034 171.70854,107.766347 171.552735,107.920738 C176.674549,108.155093 181.994061,108.277982 187.074327,108.189363 C185.173512,104.276983 185.606995,100.533186 185.979887,98.7992348 C186.67893,95.5469949 188.39728,92.8908548 190.255509,92.1898664 C192.16948,91.468108 192.822128,91.9222792 193.599766,92.6963089 C194.191477,93.2854853 195.00166,94.0927469 197.885775,94.2983702 C199.606895,94.4236827 201.073535,93.9328177 202.242069,92.8448146 C204.185124,91.0357453 204.890399,87.989821 204.890399,86.3832595 C204.890399,83.7804291 203.575409,79.2802569 198.646793,78.9233586 C193.483432,78.5481135 191.073309,81.6103076 191.049419,81.6411165 C190.94278,81.7802757 190.786975,81.874087 190.613859,81.9028188 C189.171109,82.1427126 187.934368,81.7775063 186.942759,80.8165465 C183.264041,77.2520639 184.298583,66.0809055 184.602229,63.4361889 C176.772533,60.5242313 170.846075,61.3986494 168.613916,63.4874216 C167.738295,64.3067992 168.058906,65.0185187 169.278682,67.007941 C170.325342,68.7152371 171.62856,70.8400108 171.843917,73.8558185 C172.30856,80.3609906 164.541186,82.7218502 164.462592,82.7446972 C164.366339,82.7727367 164.265586,82.7800062 164.166563,82.7654672 C159.707784,82.1098267 156.848252,80.8002766 155.423853,78.7620448 C153.721083,76.3253746 154.33149,73.3926469 154.921816,70.5558076 C155.279474,68.8360494 155.617743,67.2111411 155.405849,65.8351269 C155.28813,65.0704438 154.947783,64.555001 154.365075,64.2597204 C152.052936,63.0869063 146.669024,65.3664166 144.790022,66.3436464 C144.707619,66.3862249 144.617598,66.4125336 144.525501,66.4194569 C142.517007,66.5804246 140.638005,66.6271572 138.892648,66.5596546 C139.76827,69.261835 141.210327,74.2414487 141.286152,77.9336669 C142.634034,79.24114 149.50432,86.2153685 149.714137,92.7015014 C149.786153,94.9356638 149.06045,96.8783536 147.556764,98.4759147 C142.907211,103.415027 137.325947,104.853697 130.07896,102.795388 C130.370834,103.774348 130.659246,104.702768 130.927229,105.533569 C130.945233,105.589302 130.955967,105.647112 130.959429,105.705615 C131.366598,112.627572 141.785072,121.042202 141.890327,121.12632 C142.008738,121.22117 142.092527,121.352021 142.129573,121.498796 C142.852853,124.391368 142.592832,126.871655 141.356783,128.87077 C139.506864,131.863731 136.15499,132.638107 136.013035,132.669608 C135.986375,132.675839 135.959369,132.679993 135.932016,132.682762 C132.023054,133.074277 128.62617,131.489871 125.773909,129.036238 C126.815375,131.278363 127.156068,133.09574 126.775905,134.460677 C126.439713,135.668454 125.604947,136.264207 125.041281,136.475715 C123.278267,138.178857 121.063765,139.041852 118.455944,139.041852 C118.43517,139.041852 118.414742,139.041852 118.393968,139.041506 C108.569282,138.989927 96.1298505,126.816961 94.6178543,125.299711 C85.3173639,122.768191 77.7158351,112.774 76.4957127,111.100283 C70.6430029,109.766155 64.0621667,103.053282 62.5138161,101.402065 C58.2132655,103.029397 55.1002914,101.859352 54.0806374,101.361564 C31.786051,112.313598 0.898672902,107.768078 0.588102582,107.721692 C0.231829607,107.666997 -0.0229973214,107.348524 0.00193139991,106.989202 C0.026513889,106.629881 0.322888686,106.349831 0.682970216,106.344639 C37.7682517,105.829542 51.189252,98.7732722 55.9173995,92.9445107 C57.7070739,90.7387339 58.1080109,88.8445076 58.1724101,87.8035831 C47.4921841,91.3656426 21.4766399,84.3484894 20.3416906,84.0393621 C19.9753769,83.9389737 19.757943,83.5633824 19.8538493,83.1960991 C19.9497557,82.8288158 20.3240327,82.6065765 20.6917314,82.6993493 C44.9667662,88.7669662 61.3868302,81.6369625 72.2526366,76.9190511 C77.5811507,74.6056164 81.7906423,72.7782003 85.1688303,73.2185249 C94.5184857,74.4380716 106.429567,81.2856029 106.429567,83.8015453 C106.429567,84.9362811 110.107939,91.2212909 121.138205,97.3969119 C123.608226,98.7801956 125.896129,99.8733913 128.024418,100.676845 C126.868003,96.5422253 125.61118,91.2770238 126.168267,89.6067675 C126.354886,89.0466692 126.736781,88.917895 126.947982,88.890894 C127.699652,88.793621 128.194418,89.5565733 129.280203,91.2247525 C130.945926,93.7836197 133.733442,98.0667452 137.511874,98.6746146 C139.446274,98.9878958 141.497007,98.287946 143.607293,96.6000352 C143.642608,96.5719957 143.680348,96.5470717 143.720511,96.5263016 C143.772792,96.4979159 145.126214,95.7432717 145.358189,93.7732347 C145.604706,91.6758083 144.615175,88.0999022 139.213259,82.4248388 C139.236111,84.7244268 138.673483,86.4119914 137.525031,87.4716089 C134.848309,89.941165 130.190101,87.9642047 129.992749,87.8790476 C129.766313,87.7810823 129.609469,87.5699203 129.580386,87.3251802 C129.551649,87.0800939 129.655518,86.8381231 129.852524,86.6903098 C133.085641,84.2661016 135.18554,78.0752492 135.206314,78.0129392 C135.280407,77.7920846 135.460794,77.6228088 135.686191,77.5636143 C135.91055,77.5037274 136.151181,77.5615373 136.325336,77.7173125 C136.678839,78.0340554 137.02334,78.3480289 137.359186,78.6595793 C137.084624,77.3933001 136.680917,75.9404368 136.116904,74.271219 C135.254786,73.3587226 129.807168,67.513345 128.146638,63.8398197 C126.614214,62.9110534 125.365355,61.7482782 124.404906,60.3525324 C124.110955,59.9260546 123.850242,59.4867685 123.619998,59.0374436 C120.055537,56.6481983 114.849243,54.0533298 110.036615,51.654738 L108.440138,50.8582075 C104.363599,48.820668 97.8637816,44.024869 93.5362248,40.5375817 C83.7797465,32.6750884 84.3413352,31.4728501 84.5809279,30.9591381 C85.0524962,29.9490225 86.5610301,30.5032361 87.9376495,31.101759 C95.0876915,34.2096472 95.9480786,35.8245167 95.9733536,36.7685143 C95.9782008,36.9516367 95.9473861,37.1143353 95.8940664,37.2569561 C97.421643,38.7042807 102.780972,43.4218459 106.42472,42.0856409 C108.235168,41.4210001 109.42136,39.2861876 109.962867,35.7265514 C110.052888,34.5391982 110.171991,33.662357 110.216309,33.3584223 C110.269629,32.9901005 110.603397,32.7294367 110.974904,32.7692459 C111.345026,32.8087089 111.617511,33.1334137 111.592582,33.504851 C111.537878,34.3051893 111.458244,35.0587951 111.354028,35.7663606 C111.07358,39.6015459 111.220729,45.4846557 113.793927,46.720126 C115.314579,47.4505386 118.498184,46.8544388 125.028124,39.8694792 C125.261485,39.6202389 125.641648,39.5783527 125.923827,39.7701292 C126.206007,39.9625981 126.306068,40.3319584 126.159265,40.6400471 C126.106984,40.7497821 121.326209,50.9682886 124.715477,58.1232163 C127.041465,59.7315087 128.690569,61.2902991 129.200569,62.7542397 C129.214765,62.7947413 129.229999,62.8362813 129.245579,62.8778214 C131.2745,64.016365 133.83558,64.7388157 136.913931,65.0420581 C136.847454,64.7845098 136.934012,64.5096531 137.141059,64.3372619 C139.145398,62.6670056 141.589105,62.3371084 142.841427,62.286568 C142.617415,59.1745258 143.470531,55.437652 144.370042,51.5000013 C145.302792,47.4155757 146.360185,42.7862831 146.360185,38.1909149 C146.360185,30.0729504 121.22511,16.1452634 109.758936,11.0382603 C108.736513,10.5827044 107.64692,10.0828391 106.501584,9.55770359 C99.3300751,6.26877001 90.4052467,2.17569027 82.0066912,1.44562386 C75.3981565,0.871678816 65.8338371,4.42300705 55.7100064,8.18342022 C51.0975005,9.89660118 46.3278051,11.6682844 41.8129367,13.0363367 C27.7188609,17.306654 1.04893769,20.7707482 0.781300172,20.8053649 C0.398713547,20.8541744 0.0549049326,20.5865873 0.00573995455,20.2075343 C-0.0430787913,19.8281352 0.224904963,19.4809296 0.604029265,19.43212 C0.870974322,19.3978495 27.4273334,15.9479482 41.4113073,11.7112091 C45.8853203,10.3556187 50.634588,8.59120506 55.2277049,6.88529361 C65.5014541,3.06914754 75.2059976,-0.535836596 82.1268338,0.0661479836 C90.7642895,0.816984415 99.8102992,4.96579706 107.079099,8.2993862 C108.219242,8.82209851 109.304334,9.31988679 110.322603,9.77336569 C110.69688,9.94021823 147.745114,26.9463692 147.745114,38.1909149 C147.745114,42.9424045 146.669371,47.652354 145.720348,51.80809 C144.772364,55.9582873 143.877354,59.8782835 144.295602,62.8868217 C144.32434,63.0941758 144.257517,63.3036069 144.114177,63.4562666 C143.97049,63.6092725 143.764482,63.6885447 143.556743,63.6722749 C143.528006,63.6701979 140.68163,63.4849985 138.405153,65.1095607 C138.410347,65.1240997 138.41554,65.139331 138.42108,65.1545624 C140.216294,65.249066 142.167659,65.2141031 144.277598,65.0503661 C145.467599,64.4449198 151.776642,61.3951877 154.991409,63.0245962 C155.972977,63.5223845 156.589617,64.4213805 156.774505,65.6243111 C157.024484,67.248181 156.644668,69.0728277 156.277662,70.8379338 C155.722651,73.5041127 155.198802,76.0221322 156.559148,77.9689759 C157.737723,79.655502 160.241674,80.7694677 164.21192,81.3721447 C165.20526,81.0460553 170.821147,78.9749375 170.46245,73.9544761 C170.27133,71.275489 169.066096,69.3106445 168.09803,67.7314302 C166.96412,65.8825518 165.89357,64.1361388 167.667664,62.4766137 C170.340576,59.9759026 176.924182,58.9630177 185.606302,62.3367622 C185.904408,62.452382 186.084449,62.7573552 186.041862,63.0740981 C185.548828,66.7524697 184.92284,76.9315132 187.907015,79.8227007 C188.520193,80.4170696 189.257321,80.6600789 190.145061,80.5697293 C190.876303,79.7635062 193.644084,77.1717531 198.746854,77.5421519 C204.689584,77.9727838 206.275328,83.3023724 206.275328,86.3832595 C206.275328,87.9738974 205.629605,91.5833817 203.185552,93.8583918 C201.724452,95.2181362 199.907771,95.8284288 197.786752,95.6795769 C194.389868,95.4369138 193.326242,94.3783348 192.622352,93.6776926 C192.105081,93.1632883 191.965896,93.0248214 190.744735,93.4855699 C189.551618,93.9352409 187.997036,96.004974 187.333655,99.0903613 C186.978767,100.742617 186.562942,104.412334 188.619215,108.155785 C197.12164,107.932161 204.820806,107.075744 209.62374,105.105707 C223.548855,99.3946422 226.926004,103.19798 228.944884,105.471259 C229.332664,105.907776 229.667471,106.284752 229.940994,106.394487 C230.45965,106.601495 230.677084,106.95597 230.767797,107.216634 C231.064518,108.066128 230.498428,109.057551 229.714905,110.430449 C228.656819,112.283482 227.340098,114.590339 228.174864,116.676688 L228.387104,117.210132 C229.975964,121.205939 231.224131,124.362636 236.085924,123.988776 C241.108369,123.602453 243.193379,118.922967 243.193379,116.503605 C243.193379,115.642687 242.424744,114.411371 241.681383,113.219864 C240.440487,111.23148 239.033745,108.977932 240.297147,107.08336 C241.635681,105.075937 245.986781,103.561109 251.939206,103.495684 C252.843218,102.418758 253.786009,101.516646 254.477088,100.902546 C242.635599,98.1543255 209.019219,101.664806 208.668485,101.701846 C208.439972,101.724001 208.216999,101.63642 208.069157,101.462991 C205.934289,98.963318 206.171458,94.9536645 207.105247,92.0347836 C207.841683,89.7338109 209.367182,87.0901328 211.440074,86.5722668 C213.497733,86.0578625 214.798181,86.887625 216.057081,87.689348 C217.171257,88.3993367 218.323171,89.133211 220.215331,89.133211 C224.13191,89.133211 227.305128,84.699849 227.703295,80.7206582 C228.085189,76.9000119 227.153132,74.1015971 221.361359,72.8605881 C219.038487,72.3627998 218.703334,72.8041629 218.239037,73.4151478 C217.295208,74.6551183 216.197305,75.5288441 211.472274,74.5838079 C209.627895,74.21514 208.249544,73.2289099 207.376347,71.6521188 C204.489462,66.4419578 208.218037,56.4411904 208.378343,56.0181742 C208.497447,55.7031622 208.824982,55.5200398 209.156673,55.5830422 C220.400565,57.7448557 227.839365,54.2052971 228.143703,52.6849312 C228.29743,51.915748 227.563417,50.6660847 226.786472,49.3433803 C225.80248,47.6686239 224.687612,45.7702435 224.687612,43.784629 C224.687612,40.0193695 227.881951,36.2077236 233.987064,36.2077236 C236.619122,36.2077236 238.823236,37.1060273 240.361546,38.8060539 C241.928939,40.5368893 242.679917,43.0040222 242.423013,45.5746591 C242.241587,47.3916902 241.216393,48.735857 240.312381,49.9214793 C239.580446,50.8807083 238.948572,51.7094324 239.071485,52.4429604 C239.169122,53.0276367 239.759794,53.685008 240.826882,54.3960352 C241.495457,54.8415523 242.33507,55.1551796 243.285823,55.3646107 C245.975355,51.6948934 250.749552,47.755858 257.573097,43.5852368 C258.714278,42.4993106 272.729067,29.2750352 281.303508,26.7352072 C287.290902,24.9617932 296.740273,25.4353498 304.334184,25.8168259 C308.071415,26.0044485 311.298646,26.1661085 313.666182,26.0636431 C317.383678,25.901983 319.518892,25.901983 321.584167,25.901983 C323.634554,25.901983 325.754881,25.901983 329.441908,25.7417077 C331.062967,25.6710896 332.393538,25.5859325 333.567265,25.5108142 C337.736594,25.2435732 339.63914,25.1217224 343.534945,26.4201952 C343.836859,26.5209298 344.030749,26.8137872 344.006167,27.1308762 C343.981585,27.4476191 343.743723,27.7072444 343.430383,27.7598618 C343.279079,27.7854782 328.208975,30.4855815 320.105755,46.0665625 C315.866488,54.2167206 315.487364,60.3341856 315.120357,66.2501812 C314.766162,71.9654 314.431355,77.3638759 310.76164,84.0635938 C304.890926,94.7823118 297.479825,100.639113 288.734345,101.472683 C287.440475,101.936547 270.703262,108.061974 268.640064,114.905697 C268.203119,116.354753 268.483221,117.708266 269.49595,119.04274 C269.545115,119.10782 269.582855,119.181207 269.606398,119.259787 C269.619901,119.29925 270.005604,120.418755 271.557071,120.944929 C273.7231,121.680187 278.144139,121.304942 286.906238,115.347753 C286.995566,115.287174 287.097359,115.248403 287.203998,115.23421 C287.298866,115.221748 296.716036,113.923621 301.330274,109.925045 C301.518624,109.762001 301.780722,109.711806 302.01616,109.796271 C303.020579,110.153516 305.656792,110.849311 307.408727,110.46195 C305.837525,108.548339 301.42895,103.452759 297.98567,102.07813 C297.634244,101.937932 297.460436,101.541917 297.59512,101.188826 C297.730151,100.83539 298.122778,100.655383 298.478705,100.784503 C298.648705,100.846121 315.632435,107.206249 328.775757,128.75792 L329.156959,129.384136 C335.115962,139.168549 345.089181,155.545022 363.026781,157.400132 C363.711975,157.470404 364.396822,157.319821 365.189002,157.145353 C366.85334,156.778069 368.922424,156.321129 372.447761,157.412594 C372.670042,157.44721 373.467068,157.583254 374.565663,157.891343 C365.565356,151.09089 347.755516,137.211667 340.898733,128.86627 C334.921379,121.590184 327.90706,105.887006 323.841948,90.6785009 C320.859849,79.52292 316.849095,58.7103157 323.491561,44.6611241 C327.911908,35.3104585 336.206593,30.569354 348.145373,30.569354 C348.391891,30.569354 348.619365,30.7002051 348.743317,30.9130979 C348.81464,31.0346026 355.88955,43.1653361 359.687718,49.5791201 C361.2745,52.2584534 362.908024,55.8620529 364.637454,59.6771604 C368.635051,68.4950749 373.610062,79.4699565 380.722019,84.7860446 C381.028434,85.014861 381.091102,85.4486084 380.861896,85.7549663 C380.633037,86.060978 380.199554,86.1239804 379.892792,85.8948178 C372.495541,80.3658369 367.438819,69.2116407 363.375783,60.2483361 C361.662626,56.4692299 360.044337,52.8992087 358.495986,50.2846086 C355.056861,44.4769632 348.934437,33.9884464 347.748591,31.9560994 C336.605107,32.058911 328.866816,36.5313899 324.743536,45.2527237 C313.594858,68.8339724 331.655024,115.433256 341.968937,127.987352 C351.005252,138.985081 380.420104,160.532598 380.716133,160.748952 C381.024279,160.973961 381.091795,161.405977 380.868129,161.714412 C380.732406,161.900996 380.521204,162 380.306886,162"
                          id="Fill-1"></path>
                </g>
            </g>
        </g>
    </g>
</svg>
