<svg width="320px" height="183px" viewBox="0 0 320 183" version="1.1" xmlns="http://www.w3.org/2000/svg"
     xmlns:xlink="http://www.w3.org/1999/xlink">
    <!-- Generator: Sketch 50 (54983) - http://www.bohemiancoding.com/sketch -->
    <desc>Created with Sketch.</desc>
    <defs></defs>
    <g id="Page-1" stroke="none" stroke-width="1" fill="none" fill-rule="evenodd">
        <g id="Mobile-Portrait-320" transform="translate(0.000000, -1744.000000)" fill="#65C8CE">
            <g id="Corp_prod" transform="translate(-83.000000, 1630.000000)">
                <g id="Page-1"
                   transform="translate(231.159431, 213.758970) rotate(-13.000000) translate(-231.159431, -213.758970) translate(15.159431, 121.758970)">
                    <path d="M97.6127448,36.1421394 C100.177192,39.610941 115.555251,52.2178863 123.51288,56.1955605 L125.319365,57.0968686 C130.178875,59.5189139 135.121515,61.9825157 139.010142,64.3751577 C137.381679,58.9120304 138.79487,52.7475372 140.055527,48.9505951 C134.868991,53.9001453 130.972913,55.6596369 128.195154,54.3251205 C125.645607,53.1003764 124.728836,49.4967118 124.483371,45.9510697 C123.62032,47.5529598 122.480043,48.6181422 121.067636,49.1356397 C120.399468,49.3806669 119.7015,49.489263 118.990591,49.489263 C113.549178,49.4900471 107.29922,43.1291401 107.002387,42.8237381 C106.828287,42.6445742 106.749863,42.3928822 106.79182,42.1462868 C106.82711,41.9385037 106.944354,41.7554194 107.11414,41.6358461 C107.028267,41.3555349 106.233445,39.8202923 98.9663339,36.6615972 C98.3616889,36.3985359 97.9248702,36.2389742 97.6127448,36.1421394 M276.169264,74.8148861 C285.51146,78.3487669 292.404491,75.3202303 296.596226,72.0717572 C296.005697,68.6398077 295.108924,65.4493571 293.816114,62.6913305 C291.369301,63.3095832 282.567051,65.3482098 276.263764,64.4104416 C274.767052,66.6670444 274.230636,68.5265071 274.167897,69.9911819 C274.042027,72.9126906 275.781852,74.4985069 276.169264,74.8148861 M303.697471,72.969537 C305.797259,72.969537 307.840191,73.2122119 310.196032,73.6407156 C313.175339,74.1825198 315.848011,74.9062322 318.432065,75.6064221 C322.820642,76.7950982 326.965323,77.917911 331.938547,77.9504506 C340.419261,78.0065128 345.642656,77.5352765 348.945461,74.8936868 C349.578338,74.3871665 349.082702,73.5407445 347.166424,71.0822392 C345.064283,68.3865475 341.971262,64.4186745 341.714425,58.9684847 C339.531507,60.905572 336.342417,61.7033807 332.229106,61.3399563 C325.977971,60.788743 323.290399,59.9454573 322.012488,58.2890732 C321.20355,61.6288924 318.909272,65.2611761 313.260429,67.4860234 C305.661195,70.4792762 303.92882,70.8336836 302.859908,70.3334359 C302.254871,70.0507725 302.025482,69.515633 301.86393,69.0447887 C301.139297,69.9594264 299.947653,71.3135449 298.307426,72.6915781 C298.347814,72.9452303 298.385849,73.1992745 298.4231,73.455279 C300.337809,73.1220419 302.035285,72.969537 303.697471,72.969537 M149.075011,98.501767 C150.58976,98.9228218 153.150678,99.3317232 154.690131,97.9086051 C155.625331,97.0437569 156.404076,95.2713279 155.997058,91.6621747 C155.433586,91.1109615 154.836391,90.5452426 154.201945,89.9622738 C153.438493,91.9111224 151.646908,95.955444 149.075011,98.501767 M275.806163,84.2329489 C273.960467,86.7079201 273.664418,89.3824413 273.746763,91.2093644 C273.941253,95.5300767 276.26847,98.8091292 277.784788,99.1682411 C282.126703,100.197355 286.377255,100.177753 286.812113,99.4407114 C286.844659,99.3858253 286.825445,99.0259293 286.13924,98.2712454 C282.849375,94.6526831 284.14101,86.7581016 284.678995,84.1655175 C281.142096,83.6229291 278.151417,83.6491961 275.806163,84.2329489 M270.00165,90.3574537 C271.948513,98.4088527 277.210336,103.189432 286.084736,104.972446 C289.276963,105.61383 292.630351,105.793385 295.858261,105.732227 C297.134995,97.0841374 298.228218,85.4580851 297.057748,75.3045485 C293.551042,76.055704 289.198147,77.3917885 282.9576,79.4782444 C280.678222,80.2403772 278.946239,81.2236224 277.635391,82.3150718 C279.95006,82.0684764 282.661943,82.2143166 285.760455,82.7533765 C285.974943,82.7910127 286.164335,82.9156825 286.283147,83.0983748 C286.402351,83.2810671 286.439994,83.504532 286.387058,83.7158435 C286.362355,83.8138544 283.979065,93.5635861 287.300299,97.2162561 C288.364506,98.3868982 288.655065,99.4034672 288.162958,100.237344 C286.627034,102.841297 277.798512,100.783069 277.423255,100.694467 C274.782737,100.068373 272.38141,95.757462 272.17947,91.2799323 C272.117123,89.8901378 272.252012,87.544149 273.454636,85.1181833 C272.961352,85.3843809 272.515907,85.6897829 272.121437,86.0343892 C270.136931,87.7668298 270.007924,89.9512966 270.00165,90.3574537 M146.801906,114.652002 C154.900698,117.24341 160.896173,115.841462 165.969779,110.451255 C167.376696,108.957569 168.055059,107.135743 167.987615,105.037525 C167.750776,97.7094469 158.785405,89.2585556 158.694826,89.1738742 C158.536018,89.0256817 158.445831,88.8182906 158.445831,88.6007064 C158.445831,84.3795732 156.561315,78.1492167 155.613175,75.28181 C152.536231,75.0359987 149.857677,74.4498935 147.584965,73.5254548 C150.194114,77.6717076 155.347712,83.0921021 155.410451,83.1579655 C155.489266,83.2402946 155.548868,83.3386975 155.585727,83.4465095 C156.552296,86.2813766 157.181645,88.7735977 157.473772,90.9149397 C163.763335,97.1539212 166.686962,102.366925 166.172504,106.441434 C165.824696,109.196716 163.982528,110.42342 163.570021,110.665703 C160.836571,112.83684 158.117629,113.723251 155.486522,113.299844 C150.521532,112.500859 147.126972,107.285503 145.098941,104.169933 C144.826419,103.75123 144.536252,103.305085 144.28216,102.938916 C144.32098,105.240996 145.520859,110.172512 146.801906,114.652002 M287.404995,117.23949 C289.368718,117.31241 291.458704,117.520585 293.642798,117.885186 C293.986292,116.347199 294.814052,112.457342 295.620245,107.298049 C284.52254,107.448593 271.826956,104.791322 268.455139,90.6342365 C268.443376,90.5844469 268.436318,90.5330892 268.434357,90.4817315 C268.429652,90.350789 268.347307,87.247372 271.089776,84.8531619 C272.127318,83.9475412 273.411503,83.2724422 274.936055,82.830217 C276.4759,80.9546806 278.844289,79.2002855 282.460003,77.9912231 C282.538426,77.9645642 282.617242,77.9386893 282.694881,77.9124224 C280.470399,77.7430596 278.072994,77.2232098 275.500312,76.2383963 C275.437573,76.2140896 275.378363,76.181942 275.323467,76.1427377 C275.205832,76.0580563 272.44611,74.0272705 272.599036,69.9700116 C272.669617,68.0870262 273.338569,66.1193595 274.600403,64.0744602 C273.56835,63.802774 272.642561,63.4228838 271.872834,62.9096988 C270.244763,61.8245221 269.398182,60.7895271 269.207613,59.6514246 C268.95705,58.1514659 269.90715,56.9055514 270.912931,55.5867168 C271.854405,54.3513875 272.828424,53.0745015 272.989977,51.4584979 C273.23701,48.9874472 272.531199,46.6336176 271.053309,45.0011481 C269.616199,43.4133717 267.5219,42.5743984 264.996664,42.5743984 C259.112159,42.5743984 256.033254,46.1023986 256.033254,49.5872739 C256.033254,51.4094925 257.180981,53.3642217 258.194212,55.0884294 C259.274888,56.9282899 260.208519,58.5172425 259.916784,59.9748605 C259.331353,62.9006818 250.089931,66.888549 237.244166,64.612344 C236.426994,67.0147871 233.712365,75.8440005 236.232111,80.3897458 C236.998309,81.7716994 238.167211,82.6028318 239.805869,82.9305802 C244.620678,83.8930472 245.277867,83.0301592 245.913097,82.1947144 C246.768697,81.0711175 247.688212,80.2678202 251.026307,80.9829077 C257.527613,82.3762306 260.04383,85.5435506 259.440753,91.574357 C258.912179,96.8575362 254.751422,102.513941 249.399804,102.513941 C246.799674,102.513941 245.162976,101.471105 243.847815,100.633308 C242.493834,99.7708121 241.515501,99.1478548 239.842336,99.5669494 C238.444045,99.9158682 236.919101,101.983114 236.04664,104.709777 C235.19849,107.359992 234.864406,111.196138 236.588546,113.575451 C241.268467,113.093629 278.419626,109.431942 290.093351,113.165765 C290.37097,113.254759 290.57644,113.490377 290.626631,113.777745 C290.676822,114.064721 290.5635,114.356009 290.332543,114.534389 C290.301566,114.557912 288.909941,115.641128 287.404995,117.23949 M313.724304,118.477955 C313.334539,118.973499 312.932227,119.463161 312.517367,119.946551 C318.904958,116.117461 326.064629,113.585252 326.570068,113.408832 C326.630846,113.387662 326.693585,113.374332 326.7575,113.368451 C336.153416,112.509484 344.165158,106.145049 350.570395,94.4507807 C354.557837,87.1705315 354.926819,81.2263667 355.316976,74.9328912 C355.742815,68.0697763 356.182771,60.9730035 361.136782,51.4479127 C368.369778,37.5401668 380.347395,32.3514701 385.810766,30.6394158 C383.313371,30.1085888 381.360626,30.2336507 377.874311,30.4567235 C376.537191,30.542189 375.022049,30.6394158 373.170079,30.7197847 C368.959915,30.9028691 366.541727,30.9028691 364.202747,30.9028691 C361.880628,30.9028691 359.479302,30.9028691 355.303644,31.0843852 C352.547451,31.2039585 348.859195,31.018914 344.588253,30.8044661 C336.107147,30.3787068 325.554092,29.8490559 319.029652,31.7818308 C309.479633,34.6108172 292.897383,50.3944916 292.731517,50.5536613 C292.690345,50.5924736 292.645643,50.6269735 292.597805,50.6559847 C284.611943,55.5298705 279.944178,59.6353508 277.304052,62.9802666 C284.115522,63.6800644 293.910222,61.0474918 294.034915,61.013776 C294.394487,60.9153731 294.775233,61.08552 294.942667,61.4195411 C296.340565,64.2140277 297.327132,67.436626 297.99334,70.8991548 C300.193902,68.9040451 301.338101,67.1202468 301.369078,67.0700652 C301.51024,66.8442481 301.756098,66.7054647 302.022738,66.7015442 C302.292514,66.7125215 302.538764,66.8293505 302.686592,67.0508551 C303.019892,67.5507106 303.175171,68.0184186 303.300256,68.3947805 C303.368484,68.6009954 303.462593,68.8844429 303.524155,68.9130621 C304.363286,69.3039295 309.983504,67.0912356 312.685193,66.0272293 C319.450786,63.3625091 320.86084,58.5831058 320.882798,55.120969 C320.830647,54.7845956 320.783592,54.4297962 320.737323,54.0565707 C320.622824,53.1286035 320.493426,52.0767506 320.229139,50.8861143 C320.138952,50.4815253 320.379319,50.0769363 320.777711,49.9624596 C321.176102,49.848767 321.595275,50.0632148 321.733301,50.4536902 C321.749378,50.4991673 322.340298,52.2304317 322.39245,54.635227 C322.831621,57.8437117 323.589976,59.0037686 332.367131,59.7780547 C336.197726,60.1163883 339.073907,59.3718975 340.918034,57.567713 C341.257216,57.2356521 341.546206,56.8816367 341.792064,56.5178203 C341.974006,54.8481067 342.428863,53.0564675 343.244075,51.1385903 C343.385629,50.8045692 343.73775,50.6112917 344.094969,50.6720585 C344.452188,50.7312571 344.721965,51.0280341 344.748237,51.3894982 C344.758432,51.5345544 344.938022,54.401177 343.31544,57.0525677 C342.818627,62.9551758 346.07673,67.1339683 348.403163,70.118204 C350.262975,72.5033971 351.869088,74.5631941 349.92497,76.1180389 C346.257496,79.051309 340.767069,79.5754712 331.928352,79.5186249 C326.751619,79.4849092 322.511262,78.3358295 318.022302,77.1201023 C315.469226,76.4281454 312.8291,75.71345 309.915668,75.183407 C305.837255,74.4424447 302.789327,74.2668092 298.627001,74.9975784 C299.859426,85.2922507 298.786201,96.9496665 297.49339,105.682045 C301.237327,105.524052 304.736974,105.087707 307.522184,104.740356 C309.715688,104.46671 311.448062,104.250694 312.608338,104.250694 C319.740168,104.250694 326.677508,110.022752 326.969244,110.268171 C327.148834,110.419108 327.251176,110.643357 327.248431,110.877799 C327.245294,111.112633 327.137462,111.333353 326.953951,111.479978 C321.89799,115.524691 315.073972,118.009855 313.724304,118.477955 M179.391172,121.271658 C183.386456,121.592742 187.811892,121.89932 192.408684,122.132194 C192.792959,121.390839 193.350942,120.932932 193.876771,120.502076 C194.64885,119.868534 195.315842,119.321241 195.493471,117.724448 C195.704038,115.828133 194.457105,113.259071 192.390254,111.331001 C190.304974,109.385681 187.800129,108.451441 185.690145,108.836428 C180.771033,109.730679 177.121597,113.275929 177.554494,116.739634 C177.734476,118.176866 178.543022,119.774052 179.391172,121.271658 M286.070619,118.779437 C284.697424,120.52011 283.548128,122.573635 283.651255,124.49112 C283.734384,126.023618 284.621746,127.285998 286.363923,128.350397 C294.60623,133.385805 305.757263,126.166322 312.631081,117.32966 C312.726365,117.207342 312.855764,117.115604 313.0032,117.066599 C313.07535,117.042684 319.956225,114.732371 325.181973,110.864861 C323.221778,109.407635 317.858789,105.818868 312.608338,105.818868 C311.545308,105.818868 309.855674,106.029396 307.716282,106.296377 C304.85108,106.653529 301.190665,107.109868 297.253414,107.256492 C296.220969,113.833415 295.132059,118.435615 295.003445,118.969186 C294.906592,119.373775 294.506632,119.629779 294.101183,119.557251 C291.197162,119.029169 288.499002,118.795119 286.070619,118.779437 M193.520729,123.798379 C193.450932,124.335479 193.477988,125.02822 193.634443,125.966772 C193.920296,127.680786 198.375141,129.572005 204.227493,130.463512 C210.868392,131.475376 215.680849,130.711283 216.332156,129.423028 C216.667808,128.758122 215.762409,127.706269 215.192663,127.138198 C214.200606,126.14868 213.396765,125.130935 212.750164,124.110053 C206.459425,124.253933 199.843621,124.100252 193.520729,123.798379 M161.572967,129.450079 C171.482949,132.522133 176.252272,131.070395 178.228936,129.910338 C179.618992,129.09528 180.258928,128.081063 180.394208,127.403612 C180.583993,126.45565 179.575859,124.720073 178.601055,123.042127 C178.554393,122.96215 178.507731,122.881389 178.460677,122.800236 C170.500695,122.137682 164.346021,121.424163 162.016452,121.1415 C162.176828,124.774959 161.776476,128.067733 161.572967,129.450079 M92.5846239,92.951214 C92.7861722,93.1425313 93.2018166,93.5079159 93.714314,93.9571978 C96.3191496,96.2432039 102.418535,101.596559 107.202759,107.575616 C112.924927,114.727275 123.048221,122.470919 123.14978,122.548152 C123.176051,122.568146 123.200755,122.589316 123.224282,122.612447 C126.931752,126.256492 130.151035,129.633163 132.871545,132.726779 C131.470118,129.82252 130.611773,127.480452 130.318469,126.641871 C120.702575,121.409657 112.205784,106.626086 110.928266,104.330671 C104.572828,102.225005 98.9247694,95.6990475 98.6836173,95.4179522 C98.6389159,95.3658104 98.6012726,95.30818 98.5718638,95.2458451 C96.9116389,91.7797878 95.2035757,89.9971657 94.0005597,90.477419 C93.0210505,90.8686785 92.5054162,92.4917389 92.5846239,92.951214 M71.0091507,113.128913 C71.2271679,113.128913 71.4404798,113.219475 71.5926213,113.388446 C71.678495,113.483712 80.2784128,122.958229 87.2475146,124.351944 C87.4447496,124.391541 87.619634,124.505233 87.7353086,124.6695 C87.8262798,124.798874 96.9661432,137.627716 107.763095,140.443373 C107.900336,140.479441 108.025813,140.552361 108.125411,140.6539 C108.274024,140.805621 123.134095,155.844021 134.093775,155.900083 C134.113773,155.900475 134.133771,155.900475 134.153769,155.900475 C136.74488,155.900475 138.927406,155.031707 140.641351,153.318084 C140.744085,153.215761 140.873092,153.143233 141.014254,153.109909 C141.033076,153.104028 141.805155,152.876251 142.080029,151.808324 C142.602329,149.778323 141.703596,142.981463 122.158899,123.764271 C121.444461,123.215802 111.632901,115.622702 105.977784,108.55494 C101.280218,102.683696 95.2529825,97.3946359 92.6795163,95.1356808 C92.0391887,94.5734903 91.616094,94.2022251 91.4133694,93.9999306 C90.6632489,93.2499512 91.1604537,91.7790037 91.3306326,91.3461876 C91.7948996,90.1653524 92.822247,88.8853301 94.3130772,88.8316201 C96.2077883,88.7724215 98.098186,90.6608954 99.9395691,94.471559 C100.591268,95.2086009 106.002096,101.178641 111.694855,102.929899 C111.890914,102.989882 112.055603,103.124745 112.153633,103.305085 C112.244996,103.473664 121.42015,120.214708 131.32425,125.401053 C131.50384,125.495535 131.639905,125.655489 131.704212,125.847591 C131.784988,126.089874 139.938284,150.02727 153.737286,148.711572 C154.113719,148.615129 157.129885,147.770275 158.765015,145.111436 C159.89196,143.278632 160.14017,140.965183 159.504548,138.232639 C157.820012,136.847941 147.310875,127.905035 146.756029,119.90813 C146.573694,119.341235 146.088645,117.812657 145.515761,115.853616 C142.709378,114.893893 139.688898,113.499786 136.426089,111.673255 C124.293978,104.880316 119.01451,97.3377896 118.96628,94.9400511 C118.515737,93.4295072 107.365488,85.9261852 96.2532739,84.4771921 C92.8583218,84.0345749 88.2654512,86.0277244 82.4527036,88.551309 C73.3896952,92.4866424 60.9654568,97.88077 44.1440144,97.881162 C44.0252028,97.881162 43.9067834,97.88077 43.7871876,97.8803779 C52.3478937,99.1517752 61.4410951,99.71671 66.3104084,97.5996747 C66.5284257,97.5048002 66.7774202,97.5146013 66.9875951,97.6247655 C67.19777,97.7349298 67.3467746,97.934872 67.3926523,98.1673538 C67.4220611,98.3178986 68.0753286,101.899609 64.5462725,106.250116 C59.6361789,112.302485 46.9335372,119.477275 14.7599161,121.49081 C27.2527751,121.810718 45.9089346,120.711036 60.9105603,113.211242 C61.1548494,113.089316 61.4454084,113.103038 61.6771498,113.247702 C61.8210568,113.336304 65.3395259,115.425896 70.7080046,113.189288 C70.8056418,113.148123 70.9079844,113.128913 71.0091507,113.128913 M430.707811,183.469372 C430.549004,183.469372 430.388628,183.421542 430.25021,183.321963 C426.412558,180.557664 421.566379,179.822974 421.518149,179.815917 C421.476977,179.809645 421.436588,179.800628 421.396985,179.788474 C417.76637,178.653508 415.725791,179.105534 413.924796,179.502283 C412.938229,179.720259 412.006558,179.92569 410.976074,179.819838 C389.88761,177.638507 378.339362,158.676144 371.439665,147.346476 L371.007944,146.638054 C362.502918,132.691887 352.582741,124.483279 345.754802,120.050442 C348.146326,122.512084 349.915559,124.789073 350.055937,124.970981 C350.194355,125.150537 350.248467,125.381059 350.204158,125.60374 C350.159848,125.826028 350.021039,126.01813 349.824196,126.131038 C347.427575,127.500446 343.296618,126.389787 341.947342,125.967164 C336.620036,130.296893 327.153931,131.817238 325.659572,132.034038 C317.287474,137.701028 311.000657,139.855308 306.968906,138.432974 C304.851472,137.686523 304.086843,136.161081 303.890785,135.672595 C302.4972,133.787257 302.11018,131.771369 302.740705,129.680209 C302.931274,129.049018 303.212422,128.426453 303.571993,127.813689 C297.623965,131.582404 291.048157,133.049431 285.545966,129.688834 C283.359912,128.353141 282.195716,126.63207 282.085139,124.573449 C281.979267,122.596765 282.89094,120.583621 284.102975,118.815113 C278.388648,119.068373 274.496099,120.573036 273.44797,122.144739 C272.578645,123.448284 273.830284,125.454371 275.041142,127.394595 C276.044179,129.001581 276.991534,130.519574 276.991534,131.943476 C276.991534,134.859888 274.599618,141.437596 267.493668,141.984104 C260.844534,142.493369 259.072947,138.040538 257.197058,133.322686 L256.957866,132.722075 C255.731323,129.656686 257.50291,126.553661 258.796113,124.287649 C259.241166,123.507482 259.908157,122.339977 259.874043,121.969496 C259.863848,121.964399 259.850124,121.957734 259.831302,121.950285 C259.178035,121.689184 258.684359,121.133659 258.113044,120.490315 C256.103051,118.22744 252.73986,114.439123 237.999384,120.486003 C232.528955,122.73006 224.01295,123.750157 214.612329,124.058696 C215.093065,124.722818 215.652224,125.381451 216.300394,126.027931 C217.846513,127.569838 218.328033,128.949439 217.732015,130.129883 C216.354899,132.856154 209.469318,132.848313 203.991046,132.013652 C198.565318,131.187224 192.588666,129.232103 192.08754,126.224737 C191.917753,125.208952 191.889128,124.391149 191.959317,123.720362 C187.8911,123.509051 183.96875,123.240501 180.362447,122.954701 C181.40195,124.767119 182.20383,126.353327 181.932092,127.711366 C181.67055,129.020007 180.582816,130.347859 179.022974,131.262889 C176.280113,132.872227 170.83125,134.08717 160.451119,130.739902 C160.077824,130.619937 159.85118,130.241615 159.920192,129.855844 C159.928427,129.809191 160.745207,125.167395 160.397399,120.303702 C160.380538,120.069652 160.469941,119.839915 160.640512,119.678785 C160.811475,119.516871 161.045177,119.439638 161.278487,119.469826 C161.472193,119.494916 168.10329,120.324089 177.515675,121.117585 C176.793786,119.757194 176.172673,118.329763 175.99818,116.934088 C175.454706,112.586325 179.588407,108.35147 185.409389,107.293736 C188.044025,106.814267 190.977848,107.86808 193.460343,110.184274 C195.909115,112.468711 197.318777,115.496464 197.052137,117.897731 C196.804319,120.128851 195.73227,121.007813 194.871573,121.714275 C194.66179,121.88599 194.464555,122.048296 194.288102,122.223148 C200.088694,122.488561 206.113185,122.627737 211.866723,122.527374 C209.713999,118.096497 210.20493,113.856546 210.62724,111.892799 C211.418925,108.20955 213.365004,105.2014 215.469498,104.407511 C217.637122,103.590101 218.376263,104.104462 219.256959,104.981071 C219.927088,105.648329 220.844642,106.562575 224.11098,106.795449 C226.060195,106.937369 227.721204,106.381451 229.0446,105.149258 C231.245163,103.100438 232.043906,99.6508467 232.043906,97.8313725 C232.043906,94.8835968 230.554644,89.7870303 224.972854,89.3828334 C219.125208,88.9578581 216.395679,92.4258756 216.368623,92.4607675 C216.24785,92.618369 216.071398,92.7246128 215.875339,92.7571525 C214.241386,93.0288387 212.840743,92.6152327 211.717719,91.5269197 C207.551472,87.490047 208.723118,74.8384087 209.067005,71.8431958 C200.199664,68.5453252 193.487791,69.5356273 190.95981,71.9012182 C189.968145,72.8291854 190.331246,73.635227 191.712675,75.8883014 C192.898046,77.8218603 194.373976,80.2282238 194.617873,83.6437074 C195.144094,91.0109904 186.347334,93.6847276 186.258323,93.7106024 C186.149314,93.742358 186.035208,93.7505909 185.923063,93.734125 C180.873375,92.9915945 177.634878,91.5084937 176.021707,89.2001411 C174.093274,86.4405463 174.784577,83.1191531 175.453137,79.906356 C175.858194,77.9586835 176.241293,76.118431 176.001317,74.5600578 C175.867997,73.6940335 175.482546,73.1102806 174.822613,72.7758674 C172.204053,71.4476238 166.106628,74.0292308 163.978607,75.1359698 C163.885283,75.1841911 163.783333,75.2139864 163.679029,75.2218273 C161.404357,75.4041276 159.276336,75.4570535 157.299672,75.380605 C158.291337,78.4408971 159.924506,84.080444 160.010379,88.2619808 C161.536892,89.7427294 169.317677,97.6412313 169.5553,104.986952 C169.636861,107.517201 168.814983,109.71735 167.112017,111.526631 C161.846273,117.120309 155.525341,118.749642 147.317933,116.418551 C147.648488,117.52725 147.975121,118.578711 148.27862,119.519615 C148.29901,119.582734 148.311166,119.648206 148.315087,119.714461 C148.776217,127.553764 160.575421,137.08356 160.694624,137.178826 C160.828728,137.286246 160.923621,137.434439 160.965577,137.600665 C161.78471,140.876581 161.49023,143.685573 160.090371,145.949625 C157.995288,149.339234 154.1992,150.216235 154.038432,150.251911 C154.008239,150.258968 153.977654,150.263673 153.946677,150.266809 C149.519672,150.71021 145.672608,148.915827 142.442346,146.137022 C143.621835,148.676288 144.007678,150.734517 143.577133,152.280345 C143.196387,153.648185 142.250992,154.322892 141.612625,154.56243 C139.615964,156.491285 137.107981,157.468649 134.154553,157.468649 C134.131026,157.468649 134.107891,157.468649 134.084364,157.468257 C122.957642,157.409843 108.86965,143.623631 107.157273,141.905304 C96.6242169,139.038289 88.0152804,127.719599 86.6334588,125.824068 C80.0051071,124.313132 72.5521325,116.710623 70.7985837,114.840575 C65.928094,116.683572 62.4025669,115.358465 61.2477813,114.794706 C35.9985605,127.198181 1.01777131,122.050257 0.666042044,121.997723 C0.262553286,121.93578 -0.026045087,121.5751 0.00218736252,121.168158 C0.0300276947,120.761217 0.365680151,120.444054 0.7734822,120.438173 C42.7735642,119.854812 57.9732092,111.863396 63.3279638,105.262166 C65.3548184,102.764065 65.8088903,100.618802 65.8818242,99.4399273 C53.7861801,103.474056 24.3228742,95.5269403 23.0375135,95.1768454 C22.6226533,95.0631528 22.3764036,94.6377855 22.4850201,94.2218273 C22.5936366,93.805869 23.0175155,93.554177 23.4339441,93.6592447 C50.9260761,100.530985 69.5222417,92.456063 81.8280606,87.1129011 C87.8627467,84.4928738 92.6301095,82.4232758 96.4559986,82.9219552 C107.044736,84.3031247 120.534357,92.0581388 120.534357,94.9075115 C120.534357,96.1926303 124.700212,103.310574 137.192286,110.304631 C139.989652,111.871237 142.580763,113.109311 144.991108,114.019244 C143.681436,109.336675 142.25805,103.373693 142.888967,101.482082 C143.100319,100.847756 143.532824,100.701916 143.772016,100.671336 C144.623302,100.561172 145.183638,101.425236 146.413318,103.314494 C148.299795,106.21248 151.456731,111.063235 155.735908,111.751664 C157.926668,112.106463 160.249179,111.313751 162.639134,109.402147 C162.67913,109.370391 162.721871,109.342164 162.767357,109.318641 C162.826566,109.286494 164.359353,108.431839 164.622072,106.200719 C164.901259,103.825327 163.780588,99.7755166 157.662773,93.3483542 C157.688653,95.9526997 157.051462,97.8639121 155.750809,99.0639575 C152.719349,101.860796 147.443802,99.6218355 147.220296,99.5253928 C146.963851,99.4144444 146.786222,99.1752979 146.753284,98.8981231 C146.720738,98.6205562 146.838373,98.3465177 147.061488,98.1791151 C150.72308,95.433634 153.101272,88.4223266 153.124799,88.3517588 C153.208712,88.101635 153.413005,87.9099257 153.668273,87.8428862 C153.922365,87.7750627 154.194887,87.8405339 154.392122,88.0169536 C154.792474,88.3756734 155.182631,88.731257 155.562984,89.0840962 C155.252035,87.6500008 154.794827,86.0045939 154.156067,84.1141597 C153.179695,83.0807329 147.010121,76.460685 145.129526,72.3003186 C143.394014,71.2484657 141.979647,69.9315913 140.891914,68.3508716 C140.559006,67.8678739 140.263742,67.3703706 140.002984,66.861498 C135.966135,64.1556133 130.069867,61.2168546 124.619435,58.5003846 L122.811382,57.5982924 C118.194593,55.2907239 110.833373,49.8593522 105.932299,45.9099052 C94.8828237,37.0054194 95.5188381,35.643852 95.7901833,35.0620594 C96.3242471,33.9180762 98.0327024,34.545738 99.591761,35.2235813 C107.689377,38.7433486 108.663788,40.5722318 108.692413,41.6413347 C108.697902,41.8487257 108.663004,42.0329862 108.602618,42.1945082 C110.33264,43.8336424 116.402224,49.1764122 120.528867,47.663124 C122.579249,46.9104004 123.922643,44.4926676 124.535914,40.4612835 C124.637865,39.116574 124.772753,38.1235277 124.822944,37.7793134 C124.88333,37.362179 125.261332,37.0669702 125.682073,37.1120552 C126.101247,37.1567482 126.409843,37.5244851 126.381611,37.9451478 C126.319656,38.8515526 126.229469,39.7050315 126.111442,40.5063685 C125.793827,44.8498193 125.960477,51.5125999 128.874693,52.9118035 C130.596872,53.7390154 134.202391,53.0639164 141.597725,45.1532611 C141.862012,44.8709897 142.292557,44.8235524 142.612132,45.0407445 C142.931708,45.2587208 143.04503,45.6770313 142.878772,46.0259501 C142.819562,46.1502279 137.405206,57.7229622 141.243643,65.8261109 C143.877887,67.6475454 145.745542,69.4129176 146.323131,71.0708699 C146.339208,71.116739 146.356461,71.1637842 146.374106,71.2108295 C148.671914,72.5002608 151.572406,73.3184557 155.058721,73.6618859 C154.983435,73.3702055 155.081464,73.0589229 155.31595,72.8636852 C157.585918,70.9720749 160.353482,70.5984574 161.771771,70.541219 C161.518071,67.0167473 162.484248,62.7846369 163.502969,58.3251412 C164.559333,53.699419 165.756859,48.4566202 165.756859,43.2522417 C165.756859,34.0584278 137.290708,18.2849465 124.304957,12.5011276 C123.147035,11.9851983 121.913041,11.4190873 120.615917,10.8243572 C112.49399,7.0995512 102.386381,2.46402794 92.8747908,1.63720803 C85.3904468,0.987199781 74.558597,5.00917484 63.0930855,9.26794423 C57.8692981,11.2081679 52.4674895,13.2146469 47.3542791,14.7640031 C31.392358,19.6002527 1.18795024,23.5234328 0.884843528,23.5626371 C0.451553851,23.6179153 0.0621813178,23.3148656 0.00650065343,22.8855779 C-0.0487878936,22.4558981 0.254710939,22.0626784 0.684079443,22.0074003 C0.986401923,21.968588 31.0621952,18.0614817 46.899423,13.2632603 C51.9663635,11.7280177 57.3450372,9.72977156 62.5468661,7.79778081 C74.1821643,3.47589241 85.1728217,-0.606849405 93.0108555,0.0749143764 C102.793007,0.925256896 113.037857,5.62389917 121.269969,9.39927882 C122.561211,9.99126463 123.790107,10.5550233 124.943324,11.0686004 C125.367203,11.2575654 167.325329,30.5174902 167.325329,43.2522417 C167.325329,48.6334319 166.10702,53.9675768 165.032226,58.67406 C163.958609,63.3742704 162.944986,67.8137719 163.418663,71.2210226 C163.451209,71.4558567 163.375531,71.6930431 163.213194,71.8659343 C163.050465,72.0392176 162.817155,72.1289955 162.581885,72.1105695 C162.549339,72.1082172 159.325743,71.8984739 156.747571,73.7383344 C156.753453,73.7548002 156.759334,73.7720502 156.765608,73.7893001 C158.798737,73.896328 161.00871,73.8567316 163.398273,73.671295 C164.745981,72.9856108 171.891143,69.5317068 175.531953,71.377056 C176.643606,71.9408146 177.341967,72.9589518 177.551357,74.3213032 C177.834466,76.1603796 177.404313,78.2268413 176.988669,80.2258715 C176.360105,83.2453912 175.766831,86.0971162 177.30746,88.3019692 C178.642228,90.2120055 181.47802,91.4736018 185.97443,92.1561496 C187.099415,91.7868446 193.459558,89.4412479 193.053325,83.7554399 C192.836876,80.7214146 191.471915,78.4961753 190.375555,76.7076725 C189.091371,74.6137677 187.878944,72.6359079 189.888153,70.756451 C192.915299,67.9243282 200.371411,66.7772087 210.204146,70.5980654 C210.541759,70.7290079 210.74566,71.0743983 210.697429,71.4331182 C210.139054,75.5989732 209.430106,87.1270146 212.809766,90.4013626 C213.504205,91.0745014 214.339023,91.349716 215.344412,91.2473926 C216.172564,90.3343231 219.30715,87.3990929 225.086176,87.8185795 C231.816478,88.3062817 233.612375,94.3421846 233.612375,97.8313725 C233.612375,99.6328127 232.881077,103.720651 230.11312,106.297161 C228.458385,107.837109 226.400945,108.528281 223.998834,108.359703 C220.151771,108.08488 218.947186,106.886011 218.150012,106.092515 C217.564188,105.509938 217.406557,105.353121 216.023559,105.874931 C214.672323,106.384195 212.911716,108.728224 212.160419,112.222508 C211.758499,114.093732 211.287566,118.249786 213.616351,122.489345 C223.245577,122.236085 231.96509,121.266169 237.404542,119.035049 C253.17511,112.567114 256.999823,116.874497 259.286259,119.449047 C259.725431,119.943414 260.104608,120.37035 260.414381,120.494628 C261.001773,120.72907 261.248022,121.130522 261.350757,121.425731 C261.686802,122.387806 261.04569,123.510619 260.158328,125.065464 C258.960018,127.164073 257.468795,129.776651 258.41419,132.139498 L258.654558,132.743637 C260.453985,137.268996 261.867568,140.844042 267.37368,140.420634 C273.061734,139.983114 275.423065,134.683469 275.423065,131.943476 C275.423065,130.968464 274.552564,129.573965 273.710688,128.224551 C272.30534,125.972653 270.712167,123.420449 272.143003,121.274794 C273.658929,119.001334 278.586668,117.285751 285.327949,117.211655 C286.351768,115.992007 287.419503,114.970342 288.202169,114.274856 C274.791364,111.162422 236.719905,115.138136 236.322691,115.180085 C236.063893,115.205176 235.81137,115.105989 235.643935,114.909575 C233.22614,112.078628 233.49474,107.537587 234.552281,104.231876 C235.386314,101.625962 237.113983,98.6319255 239.46159,98.0454283 C241.791943,97.4628515 243.264736,98.40258 244.690475,99.3105529 C245.952309,100.114634 247.256883,100.945767 249.399804,100.945767 C253.835436,100.945767 257.429191,95.9248646 257.880126,91.4183236 C258.312632,87.0913387 257.257052,83.9220584 250.697713,82.5165822 C248.066997,81.9528235 247.687428,82.4526791 247.161599,83.144636 C246.092687,84.5489361 244.849282,85.5384541 239.498057,84.4681751 C237.409248,84.0506487 235.848229,82.9337165 234.859309,81.147958 C231.589834,75.2473101 235.812546,63.9211712 235.994096,63.4420939 C236.128985,63.0853343 236.499928,62.8779432 236.875576,62.9492952 C249.609587,65.3976073 258.034229,61.3889617 258.3789,59.6671063 C258.553,58.7959855 257.721711,57.3807082 256.8418,55.8827097 C255.727402,53.9860029 254.464784,51.8360359 254.464784,49.5872739 C254.464784,45.3230159 258.082459,41.0062241 264.996664,41.0062241 C267.97754,41.0062241 270.473759,42.0235772 272.215937,43.9489032 C273.991052,45.9091211 274.841555,48.7032156 274.550604,51.6145313 C274.345134,53.672368 273.184075,55.1946732 272.160256,56.5374225 C271.33132,57.6237752 270.615706,58.5623275 270.754908,59.3930679 C270.865485,60.0552295 271.534437,60.7997202 272.742943,61.6049777 C273.500121,62.1095378 274.451006,62.4647293 275.52776,62.7019157 C278.573728,58.5458617 283.980634,54.0847978 291.708483,49.3614568 C293.000902,48.1316161 308.873028,33.1547674 318.583814,30.2783436 C325.3647,28.2699044 336.066366,28.80622 344.666676,29.238252 C348.899191,29.4507396 352.554117,29.633824 355.235415,29.5177791 C359.445579,29.3346947 361.863767,29.3346947 364.202747,29.3346947 C366.524866,29.3346947 368.926193,29.3346947 373.101851,29.1531786 C374.937744,29.0732017 376.444651,28.976759 377.773929,28.8916855 C382.495806,28.5890279 384.650491,28.4510285 389.062595,29.921584 C389.404522,30.0356687 389.624107,30.3673375 389.596267,30.7264494 C389.568427,31.0851693 389.299042,31.379202 388.944176,31.4387926 C388.772821,31.4678038 371.705521,34.5257438 362.528406,52.1716252 C357.727321,61.4018992 357.297953,68.3300933 356.882308,75.030118 C356.481172,81.5027575 356.101995,87.6166771 351.945943,95.2042885 C345.297201,107.343526 336.903929,113.976511 326.999437,114.920552 C325.534094,115.44589 306.578749,122.383102 304.242122,130.133803 C303.74727,131.774897 304.064493,133.307788 305.211436,134.819116 C305.267117,134.89282 305.309857,134.975933 305.336521,135.064927 C305.351814,135.10962 305.788633,136.377489 307.545711,136.973395 C309.998797,137.806096 315.005743,137.381121 324.929057,130.634443 C325.030223,130.565835 325.145506,130.521926 325.266278,130.505852 C325.373718,130.491739 336.038918,129.021575 341.264666,124.49308 C341.477978,124.308428 341.774811,124.251581 342.041451,124.34724 C343.178983,124.751829 346.164565,125.539836 348.148678,125.10114 C346.36925,122.933923 341.37642,117.163041 337.476813,115.606236 C337.078813,115.447459 336.88197,114.998961 337.034504,114.599076 C337.18743,114.1988 337.632091,113.994937 338.035188,114.141169 C338.227717,114.210953 357.46225,121.41397 372.347417,145.821819 L372.779138,146.531026 C379.52787,157.612137 390.82281,176.158935 411.137626,178.259896 C411.913626,178.339481 412.689234,178.168942 413.586399,177.971352 C415.471307,177.555394 417.8146,177.037897 421.807139,178.27401 C422.058879,178.313214 422.961533,178.467288 424.205721,178.816206 C414.012631,171.11451 393.842506,155.395915 386.077014,145.944528 C379.3075,137.704165 371.363594,119.919892 366.759744,102.695849 C363.382438,90.0618529 358.84015,66.4910168 366.362922,50.5799283 C371.369084,39.9900471 380.763039,34.6206183 394.28403,34.6206183 C394.563218,34.6206183 394.820839,34.7688108 394.961217,35.0099176 C395.041993,35.1475249 403.054519,48.885908 407.356046,56.1496914 C409.15312,59.1841086 411.00313,63.2652823 412.961756,67.5859946 C417.489143,77.5725206 423.123477,90.0018702 431.17796,96.0224834 C431.524984,96.2816242 431.595957,96.7728548 431.336375,97.1198134 C431.077186,97.4663799 430.586255,97.5377318 430.238839,97.278199 C421.861252,91.016479 416.134378,78.3840508 411.53288,68.2328665 C409.592684,63.9529267 407.759927,59.9097813 406.006378,56.9486762 C402.111477,50.3713611 395.177666,38.4928327 393.834664,36.1911449 C381.214367,36.3075818 372.450544,41.3727848 367.780818,51.2499307 C355.154639,77.9563313 375.608265,130.731277 387.289049,144.94913 C397.522919,157.404354 430.836034,181.807499 431.171294,182.052526 C431.520278,182.307354 431.596741,182.796625 431.343433,183.145936 C431.189723,183.357247 430.950532,183.469372 430.707811,183.469372"
                          id="Fill-1"></path>
                </g>
            </g>
        </g>
    </g>
</svg>
