<svg id="Слой_1" width="320px"  data-name="Слой 1" xmlns="http://www.w3.org/2000/svg" viewBox="0 0 326.47 192.16">
    <defs>
        <style>.cls-1{fill:none;stroke:#00a19a;stroke-miterlimit:10;fill-rule:evenodd;}</style>
    </defs>
    <title>event</title>
    <path class="cls-1"
          d="M.49,191.32a27.26,27.26,0,0,1,13.13-18c7.12-4,20.56,5.36,31,6.11s11-3.53,3.5-7.89-20.28-6-23.06-3.54-6.32,5.56-5.69,1.81,11-8.47,6.12-14.56-19.16-13.74-8-36.32c8.9-18,37.53-9.6,42.44,5.13.31.94.5,3-2.19,4.16s-2.91,1.71-2.87,3.3-.61,9.12-3.23,9.91S47,137,45.24,138.21s-3.14,2.92-1.64,6.23,2.33,7.13,3.58,6.63-2.06-9.38-5-7.33-3.27,10.66-6.39,12.39-12.45,3.62-9.07-1.43c1.73-2.59,7.11-2.59,9.13-5.13s10-14.58,12.46-18.52,9.24-9.69,11.58-1.9c1.62,5.42-1.23,6.54-1,7.06a1.06,1.06,0,0,1-.11,1.25c-.35.57-.79,3.5-.06,4s3.17,2.93,3,3.5-4.16,1.27-4.23,4.39.46,5.31-1,6.46.09,1.94-.31,2.73a5,5,0,0,1-2.71,2.5c-1.64.71-5.18,1.15-7,7s-1.35,9.69,1.65,13.75,6.44,8.51,9.73,9.48c5.79,1.71,18.37-2.93,26.46-2.88s11.61,1.79,11.93.67,2.86-5.18,3.45-11.15.13-15,1.78-20.09,4.35-16.53,14.16-21.66,17.59-4.21,25.47,5.24,6.18,21.5,2.68,26.33-2.43,2.31-2.93,1.18-2.5-3.68-4.59-1.53-3.24,6.05-4.58,7.93-3.21.87-5.54,2.17-11.42,5.2-14.92,3.33-5.29-3.38-9.29-11-16.66-8.7-25.62-8.62-10.93-4.38-10.61-10.55.86-16-3.89-26,2.32-17.08,5.87-19.46,14-5.13,15.25-1.59-.75,6.17-4,9.79-2.29,8.17,3.71,14.46,5.29,9.63,2.83,11.21-10.62-4.66-16.66-10.7-5.17-18.4,3.08-22.81,10.77-2.55,12.71,3.38,2.17,8.32,1.67,8.83-2.05.78-1.75,1.87.7,4.14-.25,4.3-4-.52-4.42,3.68,6.87,7.88,8.83,10.48,4.63,10.43,3.71,17.8-5,7.25-6.12,3,.37-13.71,7.91-16.41,10.34-1.67,8-8.13-4.31-10-.49-16.59,13.88-6.19,19.71-5,5.4,4.6,5,5.83-3.84-.76-4.09,1,2.25,7.72.59,9.64-2.34,3.1-6,3.15-.92,3.07-1.34,6-3.43,7.05-8.58,2.65c-4.13-3.52-1.87-4.73-6.19-5.94s-10.2-.1-11.19-3.24,2.53-15.84,7.26-19.09,5.09-4.82,4.92-5.94-2.93-1.6-2.84-6.44,2.83-8,8.87-8,6.34,3,5.79,3.79-3.12,1.41-4,1.41,0,2.33-.2,4-1.45,1.57-2.71.62-2.34.08-2.29,1.29,3.16,4.92,2.83,5.25-5.5-3.09-7.08-.71,4,6.17,9.08,5.63,5.7-3.81,5.85-6a4.14,4.14,0,0,1,1.86-3.28c.39-.33-1.8-1.5-1.86-5s-3.34-3.9-6.1-3.33-4.5,2.71-5.67,9.83.67,10.83,7.59,10.38,15.87-2.13,16.66,6.16,1.82,8.21,3,9.31,1.45,4.4-1.37,3.63-1-5.7.52-9.52a18.26,18.26,0,0,1,11.67-9.92c.88-.24-2-8.16,2.54-12s6.83-4.84,12.21-1.48,3.89,5.76,2.75,7.86,1.41,4.32,1.7,5-2.25.32-2.2,1.11,1.2,3.69.29,4.57-6-.61-5.92-3.71,1.69-5,3.8-6.61,2-4.5-.86-4.33-3,3.25-3.56,7.58-3.34,4.63-6.34,3-5.89-3.58-6.5-1.77,1.32,4.11,6.77,4.32,8.85.28,7.3,4.75-9.07,10.93-9.4,14.6-2.71,11.66,5.42,15.29,6-16.45,5.77-18.83-.31-7.95,8.73-8.67,4-4.92,3-6.63-4.24-10-.46-15,7.25-7.36,14.33-4,6.09,6.52,5.75,11.06,1.28,9.92-1.37,11.23-3,.52-2.59-.54a6.11,6.11,0,0,0,.55-3.65c-.13-2-1.46-5.2,1.58-6.5s2.46-3.83-1-4.13-3.5,6-5.13,8.78-5.52,9.82-9,9.72-3.72-2.32-2.62-3.45,6-3.21,13.83,1,13.65,11.73,12.5,17.05-4.18,7.58-9.08,8.54-10.88,3.75-12.46,10.25-3.31,12.45-1.54,17,2.54,11-1.13,10.64-3.5-6.64-3.16-11.52.75-8.58-.75-7.87-2.63,1.79-2.88,1.06-1.62-1-1.5-2.45,2.84-8.2,1.25-10.9-8.87-4.48-8.21-8.3,4.25-9.58,7.92-8.37,4.38,6.1,2.92,8.09-3.31,7.7-4.7,8.2a3.5,3.5,0,0,1-4.09-.62c-1.46-1.34-4.36-.92-3.75,4.66s4.23,11.38,2.83,13.59-3.33,1.33-4-1-4.58-12.09-6.89-11.17-1.81,7.46-1.3,12.5-.39,12.91-4.1,15.08-6.34,1.88-6.53,1.11,1.49-5.27,1.07-8.06-7-12.17,6.67-16.55,10.54,14.5,11.54,17.8,4.29,7.18,9.33,4,7-7.1,7.42-10.1,1.5-6,4.58-10.05,1.92-13.16,9.29-13.85,25,7.22,28.59,6.78,3.75-1.71,2.6-3.17-2.64-4.79-12.1-6.91-9.47-4.37-9-9.05-.89-17.88,1.4-21.94,6.52-10.72,17.09-8c7.08,1.79,5.89,3.91,8.84,6.27s5.83,6.6,3.53,10.14-6.29,4.83-7,8.21-1.71,8.46,0,6.83,1.67-6,1.8-7.79.12-6.87,4.12-3.67-3.65,16.05-6.24,17.92-8.41,3.49-7.81.33,9.51-9.75,4.13-10.79-11.29,1.46-16.5,1.09-3.66,5.08.67,6.37,11.06,1.49,18.46,16c2.87,5.62,2.84-.71,15.36,8s14,16.92,12.09,19.37-6.12,3.34-7.91-9.2-10-20.25-11.95-22.75-6.21-10.84-3.5-20.13S227,131,227.85,130s-.81-5.5-2.36-7.06-5.87-6-2.33-12.48,13.5-9,16.71-4.63.7,12.79.58,14.75.72,7.71,0,9-2.24,3.73-5.45,3.87-9.29,1-9.33-1.08-1.71-5.68,4.62-5.24,7.71-.72,7.63-4-.26-5.46.89-6.91,4.25,2.54,4,5.33-.79,4.3-4,2.46c-2.23-1.29-2.47,10-.81,11.25s7.67,2,7.25,3.12-6.71,1.71-10.25,1.09-11.56-2.7-5.46-4.41,13.55-.89,24.25,9.66,13.46,24,11,29.37-6.58,7-7.08,6.33.18-2.73,1.83-4.91,10.59-7,11.42-10.88.17-7.56-5.5-16.45-4.1-15.78-.5-20.49,9.21-4.59,15.38-4.39,13.84.74,16.5,7,4.08,13.33.2,18.71-5.87,6-6.33,6.95-2.67,3.8-1.25,6,4,3.58,3.54,6.28-6.65.77-7.55-1.36-1.37-3.25,1.06-4.37,5.5-2.47,3.78-3.32-3.48,4.42-4.27,4.84-4.35.73-5.19-4.15.34-7.53,3.5-10.22,9.3-6.28,4.73-12.37-10.2-5.37-12.05-2.19-4,7.09-2.34,11.87,4.78,13.19,4.41,14-3.62,2.69-5.72,1.85-8,5.23-5.41,7.85,7.63-.29,8.48-3.29-.89-11.06-3-16.37-4.19-13.47,3.53-12.6,10.78,1,10.94.1-2.13-3.5-7.91-2.57-4.62-1.75-5.37-4.18-1.07-4.28-5.34-6.24c-2.85-1.31-.82-3.26-1.54-6.25s-2.13-8-2.9-12.73-1.19-12.22,3.87-14,6.19-2.1,7.41-.94,2.9,3,3.75,2.9a5.37,5.37,0,0,0,3.56-3c.81-1.9,2.76-7.9.63-10s-3.82-4.15-6.76-2.59-3.87,3.78-3,8.13.53,7.37,2.22,9.28,2.44,5,5.1,5.31,7.27-.18,9.85,5-.68,3.9-.78,2.52-1.06-5.92-4.69-6.08-3.79,4.83-2.11,7.39,4.94,7.11,7.42,6.42,3.29-3.12,3.5-7.37S294,98.83,290.1,96.24s-6-2.53-5.9,0,1.8,7,.5,8.91-.81,3-4.89,3.19-4.82,1-7.48-1.56-5.25-5.34-5.19-6.9.17-1.92-.67-2-57.29,0-72.75,0A3.86,3.86,0,0,1,189.86,94V4.36A3.86,3.86,0,0,1,193.72.5H322.1A3.86,3.86,0,0,1,326,4.36V93.62a3.86,3.86,0,0,1-3.87,3.86H273.5s-1.38-.35-1,1.22,3.21,10,.46,11.2-6.75,7,2,5.67c7.24-1.12,13.2-4,12.54-2.71s2.06,4.21,2.18,6,.41,5.94-3.55,6.6-12.13.94-11.29-1.31,10.08-1.69,11.29-2.2,7.17-2.19,7.12-3.43-1.18-3-2.34-2.81,2.76,11.11,3.34,13.61,3,8-1.54,21.71-5.4,14.1,4.63,18.62"/>
</svg>
