<svg width="414px" height="230px" viewBox="0 0 562 374" version="1.1" xmlns="http://www.w3.org/2000/svg"
     xmlns:xlink="http://www.w3.org/1999/xlink">
    <!-- Generator: Sketch 50 (54983) - http://www.bohemiancoding.com/sketch -->
    <desc>Created with Sketch.</desc>
    <defs></defs>
    <g id="Page-1" stroke="none" stroke-width="4" fill="none" fill-rule="evenodd">
        <g id="Desktop-HD-1440-+" transform="translate(-878.000000, -961.000000)" stroke="#65C8CE" stroke-width="1.5">
            <g id="event" transform="translate(235.000000, 912.000000)">
                <path data-200-top="stroke-dashoffset: 7242; stroke-dasharray: 7242" data-100-top="stroke-dashoffset: 0;" d="M1276,420.624859 C1276,420.624859 1272.46981,398.02035 1250.51386,385.656901 C1236.67852,377.864453 1210.5846,396.06884 1190.31802,397.525191 C1170.0495,398.981542 1168.95821,390.658981 1183.52171,382.198553 C1198.08522,373.738125 1222.89174,370.62736 1228.30548,375.31681 C1233.71728,380.004318 1240.56213,386.117108 1239.3485,378.835354 C1238.13488,371.553599 1217.92461,362.396064 1227.45497,350.558844 C1236.98533,338.719681 1264.66376,323.890145 1242.98938,280.046214 C1225.71123,245.093791 1170.1194,261.395213 1160.58322,289.997946 C1159.97737,291.819355 1159.61232,295.864127 1164.83188,298.089432 C1170.0495,300.314736 1170.49611,301.406028 1170.41456,304.479899 C1170.333,307.555713 1171.5874,322.198836 1176.68463,323.736743 C1181.78186,325.274649 1185.70624,315.080193 1189.10439,317.507444 C1192.50255,319.934696 1195.2133,323.169737 1192.3006,329.602924 C1189.3879,336.03417 1187.76843,343.438258 1185.34118,342.467358 C1182.91393,341.496457 1189.34712,324.262971 1195.05019,328.228129 C1200.7552,332.191345 1201.40182,348.939381 1207.46995,352.296756 C1213.53808,355.656072 1231.63567,359.326076 1225.06849,349.508329 C1221.71112,344.490715 1211.27394,344.490715 1207.34956,339.554656 C1203.42518,334.618597 1187.83834,311.252902 1183.15666,303.590555 C1178.47886,295.928207 1165.20082,284.788093 1160.66477,299.908899 C1157.50934,310.427637 1163.05125,312.612163 1162.68813,313.623842 C1162.32307,314.63552 1162.20268,314.957859 1162.89008,316.051093 C1163.57747,317.142386 1164.42798,322.847398 1163.01047,323.897912 C1161.59489,324.950368 1156.86273,329.602924 1157.14623,330.694217 C1157.42779,331.787451 1165.23577,333.162246 1165.35811,339.230375 C1165.4785,345.298504 1164.46682,349.547165 1167.21835,351.772469 C1169.96988,353.995832 1167.05718,355.533738 1167.82614,357.071645 C1168.59315,358.609552 1169.88833,360.551353 1173.08453,361.926148 C1176.28074,363.300943 1183.15666,364.151452 1186.67714,375.437201 C1190.19569,386.724892 1189.30634,394.249372 1183.48094,402.136969 C1177.65553,410.026507 1170.98156,418.657814 1164.58915,420.543303 C1153.34224,423.861841 1128.91826,414.863534 1113.21297,414.960624 C1097.50769,415.057714 1090.66089,418.436449 1090.0434,416.255806 C1089.42591,414.075163 1084.48985,406.203101 1083.33642,394.612489 C1082.18299,383.021877 1083.09369,365.545666 1079.87807,355.593934 C1076.66245,345.642203 1071.44289,323.494017 1052.38993,313.542286 C1033.33504,303.590555 1018.23753,305.351768 1002.94002,323.707616 C987.642512,342.063463 990.935807,365.452459 997.724344,374.844952 C1004.51094,384.235503 1002.44875,379.320804 1003.41965,377.136277 C1004.39055,374.951751 1008.27415,369.984623 1012.34028,374.167263 C1016.40447,378.349903 1018.62978,385.915161 1021.22014,389.556038 C1023.80856,393.196916 1027.44944,391.255114 1031.97966,393.763922 C1036.51182,396.270787 1054.14921,403.876823 1060.94551,400.235945 C1067.74181,396.595068 1071.22152,393.682366 1078.98873,378.876131 C1086.75593,364.069897 1111.35079,361.98246 1128.74738,362.135863 C1146.14204,362.289265 1149.96739,353.632715 1149.3499,341.657627 C1148.73046,329.68448 1147.67995,310.602399 1156.9035,291.176619 C1166.12706,271.752781 1152.40047,258.014537 1145.49542,253.406643 C1138.58843,248.796806 1118.3102,243.435493 1115.88295,250.313353 C1113.4557,257.189271 1117.3393,262.2865 1123.65016,269.325529 C1129.96101,276.364559 1128.09882,285.18422 1116.44802,297.402034 C1104.79721,309.617906 1106.17394,316.091871 1110.94689,319.165742 C1115.71984,322.239614 1131.57853,310.124716 1143.31089,298.382644 C1155.04132,286.640571 1153.34224,262.657384 1137.32238,254.097924 C1121.30252,245.538464 1116.41889,249.146331 1112.64597,260.668979 C1108.87499,272.191628 1108.4342,276.815057 1109.40704,277.803434 C1110.37989,278.791811 1113.37414,279.329689 1112.80714,281.448195 C1112.24207,283.5667 1111.43234,289.471717 1113.29259,289.795998 C1115.15478,290.120279 1120.98018,288.774611 1121.86952,296.930176 C1122.75887,305.087683 1108.51964,312.229628 1104.71759,317.27637 C1100.91361,322.32117 1095.73676,337.531299 1097.51545,351.852083 C1099.29608,366.172868 1107.30019,365.930142 1109.40704,357.677487 C1111.5139,349.424832 1108.68081,331.059275 1094.03769,325.800877 C1079.39262,320.540538 1073.97111,322.563895 1078.58289,310.023742 C1083.19467,297.481648 1086.954,290.568835 1079.53243,277.803434 C1072.11087,265.038032 1052.58411,265.781742 1041.27118,268.201226 C1029.95825,270.620711 1030.78157,277.127687 1031.65732,279.519986 C1032.53307,281.912285 1039.10025,278.034508 1039.5857,281.448195 C1040.07115,284.859939 1035.21664,296.431133 1038.45363,300.151624 C1041.68867,303.874057 1042.98385,306.182859 1050.18405,306.283833 C1057.38619,306.382865 1051.95885,312.245163 1052.77441,317.952117 C1053.58802,323.659071 1059.43285,331.626281 1069.44089,323.090123 C1077.45082,316.258866 1073.07788,313.907345 1081.45481,311.559707 C1089.8298,309.214011 1101.26313,311.363585 1103.17969,305.272154 C1105.09625,299.180724 1098.28052,274.504313 1089.0958,268.201226 C1079.91108,261.896198 1079.21592,258.839803 1079.53243,256.653334 C1079.84895,254.466866 1085.21803,253.548394 1085.05686,244.163669 C1084.89374,234.778943 1079.55379,228.710814 1067.82337,228.710814 C1056.09101,228.710814 1055.524,234.454662 1056.57646,236.072183 C1057.62891,237.691645 1062.64459,238.823715 1064.34366,238.823715 C1066.04274,238.823715 1064.45434,243.344228 1064.74756,246.672476 C1065.04271,249.998781 1067.55346,249.723046 1070.0079,247.886102 C1072.46039,246.047216 1074.53812,248.047271 1074.45656,250.392967 C1074.37695,252.740605 1068.30882,259.940804 1068.95544,260.587424 C1069.60206,261.235985 1079.63535,254.5892 1082.70922,259.206803 C1085.78503,263.824406 1074.94201,271.187717 1065.07184,270.13526 C1055.20166,269.082804 1054.00745,262.746707 1053.71424,258.552416 C1053.42103,254.358125 1050.86368,252.816335 1050.10443,252.173599 C1049.34519,251.530863 1053.60356,249.260897 1053.71424,242.546148 C1053.82492,235.829458 1060.18821,234.978949 1065.55729,236.072183 C1070.92637,237.165417 1074.29539,241.332522 1076.56148,255.167856 C1078.82562,269.00319 1075.26629,276.203389 1061.83485,275.314044 C1048.40536,274.422758 1031.00876,271.187717 1029.47279,287.287191 C1027.93489,303.388607 1025.94648,303.21967 1023.60661,305.367303 C1021.26674,307.516877 1020.80265,313.91317 1026.27076,312.412158 C1031.73694,310.913087 1028.2747,301.340007 1025.27268,293.922326 C1022.26871,286.502703 1013.90732,277.782074 1002.60992,274.665483 C1000.88365,274.1878 1006.44692,258.808734 997.675799,251.284254 C988.904683,243.759774 984.405529,241.893703 973.968347,248.408446 C963.531166,254.925131 966.40309,259.589338 968.628394,263.663237 C970.85564,267.735194 965.884629,272.05376 965.311797,273.389719 C964.738966,274.72762 969.68085,274.018863 969.599295,275.55677 C969.519681,277.092734 967.259424,282.714249 969.03423,284.434685 C970.807095,286.155121 980.603482,283.250186 980.521927,277.21701 C980.442313,271.187717 977.249992,267.542956 973.137256,264.391412 C969.024521,261.237927 969.337151,255.653307 974.809147,255.975646 C980.279202,256.299926 980.685038,262.2865 981.735552,270.702266 C982.788009,279.116091 988.209518,279.692806 994.034922,276.490776 C999.860325,273.290688 1005.47019,269.527477 1006.65663,273.05573 C1007.84307,276.585924 1004.09539,281.028766 993.522286,281.448195 C982.949178,281.867624 976.333461,281.980248 979.331603,290.669809 C982.327802,299.361311 996.947624,311.883988 997.594243,319.004573 C998.240863,326.123216 1002.85264,341.657627 987.075506,348.696656 C971.298371,355.735686 975.395571,316.757909 975.855778,312.136422 C976.315985,307.514935 976.465504,296.708811 958.919388,295.297121 C941.375213,293.887374 951.152183,285.751226 953.01437,282.432688 C954.874616,279.116091 961.243724,262.971956 953.903715,253.406643 C946.565648,243.839388 939.825656,239.105276 926.071877,245.678274 C912.316157,252.255154 914.257958,258.323283 914.90652,267.141003 C915.55314,275.960664 912.434607,286.411439 917.576497,288.961024 C922.718387,291.512551 923.481514,289.962993 922.59217,287.896917 C921.702825,285.83084 921.263977,284.780326 921.524179,280.815167 C921.782438,276.850009 924.372801,270.717801 918.465842,268.201226 C912.558882,265.684652 913.692894,260.750535 920.489199,260.183529 C927.285503,259.616523 927.285503,271.760548 930.44093,277.21701 C933.596357,282.675413 941.159673,296.295207 947.835586,296.106852 C954.511499,295.916556 955.074621,291.601873 952.932814,289.401813 C950.791007,287.203694 941.282007,283.164747 926.071877,291.254291 C910.859806,299.343835 899.575999,314.029678 901.799362,324.344526 C904.020782,334.657433 909.918033,339.067264 919.436742,340.929451 C928.955452,342.791638 940.553831,348.211206 943.627703,360.832914 C946.703516,373.454622 950.064774,385.010282 946.62196,393.843536 C943.179147,402.678731 941.685901,415.271313 948.806487,414.510126 C955.927072,413.746999 955.602791,401.610741 954.956171,392.144459 C954.30761,382.678178 953.49982,375.477979 956.412522,376.852774 C959.325224,378.229512 961.50975,380.330541 961.995201,378.914967 C962.480651,377.501336 965.150628,376.982875 964.907903,374.167263 C964.665178,371.351651 959.404838,358.244493 962.480651,352.986095 C965.554523,347.725755 979.714137,344.296534 978.418956,336.869145 C977.123774,329.441755 970.166301,318.276397 963.045715,320.622093 C955.927072,322.967789 954.550335,332.463198 957.381481,336.333207 C960.214569,340.201276 963.797192,351.287019 966.496296,352.25792 C969.1954,353.22882 971.622651,353.632715 974.453798,351.044294 C977.286886,348.453931 982.912284,349.263662 981.727785,360.104739 C980.539403,370.945815 973.510082,382.204379 976.238313,386.482167 C978.968486,390.758013 982.706453,389.070588 983.920079,384.61998 C985.133705,380.171313 992.809645,361.157195 997.306857,362.937827 C1001.80213,364.716517 1000.8254,377.41978 999.817606,387.210342 C998.807869,396.998963 1000.57879,412.273171 1007.7887,416.498531 C1014.99861,420.721949 1020.10166,420.149117 1020.45895,418.646163 C1020.8143,417.145151 1017.57926,408.407045 1018.38705,402.987478 C1019.19678,397.565969 1031.90005,379.361582 1005.443,370.866201 C978.985962,362.370821 984.972535,399.02232 983.030734,405.414729 C981.088933,411.805197 974.696523,419.362688 964.907903,413.277083 C955.117341,407.193419 951.233738,399.50777 950.505563,393.682366 C949.777387,387.856962 947.592861,382.00049 941.606288,374.167263 C935.617772,366.335979 937.883854,348.599566 923.56307,347.273316 C909.242286,345.947066 875.060758,361.287296 868.060565,360.429019 C861.060371,359.570743 860.774926,357.112423 863.002172,354.279335 C865.227476,351.448189 868.140178,344.976165 886.507677,340.849837 C904.873233,336.72351 904.888767,332.366107 904.030491,323.29207 C903.172215,314.216091 905.762578,288.570722 901.313911,280.68895 C896.863303,272.805237 888.661134,259.868957 868.140178,265.053567 C854.3864,268.529391 856.699085,272.649893 850.972713,277.21701 C845.2444,281.786068 839.652012,290.038723 844.106504,296.916584 C848.560996,303.792502 856.328201,306.301309 857.623383,312.854888 C858.916622,319.408468 860.939979,329.278643 857.541827,326.123216 C854.143675,322.967789 854.304844,314.553964 854.062119,310.994643 C853.819394,307.433379 853.819394,297.644759 846.052189,303.874057 C838.284984,310.103356 853.131996,335.024433 858.169029,338.665311 C863.206061,342.306188 874.503461,345.444139 873.33838,339.311931 C872.175241,333.179722 854.87185,320.379368 865.309032,318.356011 C875.746214,316.334596 887.235852,321.189099 897.348753,320.460924 C907.461654,319.732748 904.469338,330.3311 896.053572,332.839907 C887.639747,335.346772 874.575308,335.72154 860.211804,363.827172 C854.629125,374.749804 854.691263,362.452376 830.387678,379.361582 C806.084094,396.270787 803.29955,412.211034 806.917126,416.983981 C810.534702,421.756929 818.787357,423.456005 822.265123,399.103875 C825.744831,374.749804 841.727798,359.7824 845.469649,354.927896 C849.207616,350.073393 857.530176,333.890421 852.277604,315.849146 C847.02309,297.805929 836.145119,303.475988 834.515948,301.621568 C832.882893,299.76909 836.100457,290.933894 839.094715,287.896917 C842.088973,284.859939 850.502797,276.203389 843.624937,263.663237 C836.749019,251.121142 817.41062,246.266639 811.181322,254.682406 C804.952023,263.096231 809.816236,279.519986 810.053135,283.323975 C810.291977,287.126022 808.651155,298.291379 810.159934,300.71863 C811.666772,303.145882 814.497918,307.969316 820.729159,308.227576 C826.958457,308.485835 838.780143,310.136367 838.85199,306.14014 C838.925778,302.141971 842.168586,295.102941 829.871159,295.968985 C817.573732,296.835028 814.903755,294.568946 815.064924,288.258092 C815.226094,281.947238 815.565909,277.65974 813.332838,274.828594 C811.099766,271.995506 805.072415,279.762711 805.620003,285.18422 C806.165649,290.605729 807.163735,293.535908 813.332838,289.957168 C817.657229,287.450302 818.138796,309.295567 814.903755,311.802432 C811.668714,314.311239 800.015965,315.74623 800.825696,317.862794 C801.633485,319.981299 813.851299,321.189099 820.729159,319.975474 C827.605077,318.761848 843.178323,314.748145 831.32751,311.427664 C819.476697,308.107184 805.031637,309.699461 784.238829,330.16993 C763.446021,350.638457 758.106068,376.852774 762.879015,387.210342 C767.651963,397.565969 775.661893,400.721396 776.632794,399.50777 C777.603694,398.294144 776.287153,394.204711 773.073472,389.959933 C769.859791,385.717097 752.523389,376.44888 750.903927,368.842844 C749.286406,361.23875 750.581588,354.160885 761.583834,336.906039 C772.588022,319.651193 769.545219,306.260531 762.554735,297.112705 C755.566192,287.966822 744.674628,288.194012 732.69954,288.59014 C720.726393,288.986267 705.826952,290.021247 700.659819,302.093426 C695.494628,314.165604 692.731445,327.985404 700.255924,338.422586 C707.780404,348.859767 711.664007,350.153007 712.553352,351.933639 C713.444639,353.714271 717.732136,359.296949 714.980603,363.584446 C712.231013,367.871944 707.122134,370.532211 708.118278,375.775075 C709.116364,381.01988 721.017664,377.258611 722.773052,373.132283 C724.52844,369.005956 725.439145,366.821429 720.705034,364.636903 C715.972864,362.452376 710.025127,359.842595 713.363083,358.203715 C716.701039,356.564835 720.124435,366.788419 721.658458,367.592324 C723.194423,368.398172 730.111119,369.005956 731.749999,359.539674 C733.38888,350.073393 731.08202,344.914027 724.953695,339.696407 C718.82537,334.476845 706.877467,327.499953 715.763149,315.666617 C724.650774,303.83328 735.573406,305.246911 739.152146,311.427664 C742.732827,317.608418 746.859155,325.193094 743.703728,334.476845 C740.548301,343.762539 734.419976,360.085321 735.148151,361.662063 C735.876327,363.240748 742.171647,366.881625 746.253313,365.242745 C750.334979,363.603864 761.725585,375.408074 756.750691,380.489768 C751.773854,385.571462 741.944456,379.928588 740.274507,374.103184 C738.6065,368.27778 742.004652,352.621036 746.130979,342.306188 C750.257307,331.989398 754.263243,316.152067 739.274479,317.851143 C724.285715,319.550219 718.33992,319.85314 718.035057,318.033672 C717.732136,316.212263 722.161385,311.237368 733.38888,313.056836 C744.614433,314.878245 742.36971,309.658683 743.826061,304.926514 C745.282412,300.192402 745.90573,296.619488 754.19528,292.815499 C759.723588,290.275623 755.77979,286.487169 757.175945,280.68895 C758.570158,274.88879 761.311982,265.05745 762.818819,255.956228 C764.325657,246.853063 765.123738,232.229358 755.29434,228.710814 C745.463,225.190328 743.278473,224.644682 740.913359,226.889404 C738.546304,229.134127 735.268543,232.775004 733.631605,232.532279 C731.992724,232.289554 728.291651,230.347753 726.712967,226.646679 C725.136224,222.945606 721.353595,211.294799 725.489632,207.288862 C729.625669,203.284868 732.911196,199.220678 738.610383,202.253772 C744.311512,205.284924 746.130979,209.595722 744.492099,218.030907 C742.855161,226.46415 743.461003,232.353633 740.185184,236.052765 C736.907423,239.753838 735.451072,245.821967 730.293648,246.367613 C725.136224,246.915201 716.165102,246.023914 711.164964,256.138757 C706.162884,266.251658 712.473738,263.702073 712.675685,261.032096 C712.877633,258.362119 714.737878,249.5444 721.776908,249.220119 C728.815938,248.895838 729.144102,258.604845 725.885759,263.581681 C722.627417,268.556576 716.275785,277.385946 711.46206,276.04222 C706.648334,274.696552 705.06965,269.974091 704.665755,261.721436 C704.261861,253.46878 706.071619,241.031543 713.640761,236.002278 C721.211844,230.974954 725.33623,231.079812 725.093504,236.002278 C724.852721,240.926686 721.607971,249.624014 724.120662,253.305669 C726.631411,256.987324 725.701288,259.131073 733.631605,259.496131 C741.559979,259.859248 742.975552,261.517546 748.154336,256.461096 C753.331179,251.404645 758.348793,246.10547 758.22646,243.070434 C758.106068,240.037341 757.90412,239.349943 759.521641,239.186832 C760.917796,239.047022 870.781028,239.147996 900.789625,239.179065 C904.935371,239.18489 908.290803,235.823632 908.290803,231.677886 L908.290803,57.5934611 C908.290803,53.451599 904.931487,50.0922828 900.787683,50.0922828 L651.501178,50.0922828 C647.357374,50.0922828 644,53.451599 644,57.5934611 L644,230.905049 C644,235.048853 647.357374,238.406228 651.501178,238.406228 L745.878545,238.406228 C745.878545,238.406228 748.558231,237.732423 747.830056,240.786876 C747.10188,243.839388 741.600757,260.265085 746.940711,262.529225 C752.280664,264.795307 760.053694,276.172321 743.057108,273.533413 C729.000409,271.350828 717.433098,265.847763 718.714687,268.275015 C719.998218,270.702266 714.716519,276.446115 714.485444,280.005436 C714.252428,283.5667 713.687364,291.545561 721.373013,292.815499 C729.058663,294.083496 744.917354,294.640792 743.299833,290.275623 C741.680371,285.912396 723.718709,286.982328 721.373013,286.001719 C719.027317,285.023051 707.456124,281.747232 707.537679,279.339398 C707.619235,276.931565 709.842597,273.486809 712.095087,273.880995 C714.345634,274.275181 706.727948,295.460233 705.595878,300.314736 C704.463808,305.169239 699.770474,315.76759 708.590136,342.467358 C717.407855,369.167125 719.075862,369.84093 699.609305,378.633406"
                      id="Page-1"></path>
            </g>
        </g>
    </g>
</svg>
