<svg width="320px" height="230px" viewBox="0 0 320 230" version="1.1" xmlns="http://www.w3.org/2000/svg"
     xmlns:xlink="http://www.w3.org/1999/xlink">
    <!-- Generator: Sketch 50 (54983) - http://www.bohemiancoding.com/sketch -->
    <desc>Created with Sketch.</desc>
    <defs></defs>
    <g id="Page-1" stroke="none" stroke-width="1" fill="none" fill-rule="evenodd">
        <g id="Mobile-Portrait-320" transform="translate(0.000000, -570.000000)" fill="#65C8CE">
            <g id="Event_blok" transform="translate(0.000000, 570.000000)">
                <g id="Page-1">
                    <path d="M346.860931,108.694727 C347.023898,108.694727 347.186865,108.749855 347.320795,108.859747 C347.933826,109.364665 348.485518,109.93676 349.018336,110.490235 C350.029166,111.538772 350.983375,112.528894 351.920888,112.529624 L351.921251,112.529624 C352.503431,112.529624 353.139328,112.16417 353.865601,111.412451 C355.074242,110.161655 355.729739,108.52423 355.959126,107.731256 C355.883269,107.549807 355.880002,107.33842 355.967474,107.145288 C355.97183,107.135431 355.976185,107.125208 355.98163,107.114255 C357.949209,102.774075 356.760531,98.6719324 354.81981,96.6927838 C353.232608,95.0743433 351.172112,94.7121748 349.017247,95.6716292 C344.589195,97.6438412 345.2309,101.150523 345.973869,105.21068 C346.189827,106.393569 346.412319,107.607491 346.495798,108.793666 C346.608677,108.727585 346.734623,108.694727 346.860931,108.694727 Z M350.983012,117.031539 L354.982777,117.031539 C354.580986,116.284566 354.032924,115.803744 353.360368,115.640914 C352.460965,115.42113 351.486068,115.894651 351.092988,116.736912 C351.047981,116.833296 351.011686,116.931505 350.983012,117.031539 Z M357.905292,117.031539 L364.064276,117.031539 C363.6741,116.693466 363.253798,116.369632 362.801556,116.061497 C359.547663,113.842485 358.556433,113.999473 358.281313,114.169239 C357.783702,114.47628 357.803301,115.864714 357.905292,117.031539 Z M366.168327,117.031539 L406.730736,117.031539 L406.730736,1.46035687 L244.81139,1.46035687 L244.81139,117.031539 L333.602545,117.031539 C334.015951,115.423321 334.66564,113.980853 335.608235,112.77898 C337.63788,110.189767 340.81664,108.956131 345.060311,109.103627 C344.995705,107.933881 344.767406,106.687466 344.545641,105.475005 C343.799405,101.397323 342.954083,96.775659 348.429623,94.3361329 C351.134727,93.1309734 353.84092,93.6158119 355.852781,95.6668831 C358.544092,98.4108936 359.190153,103.124926 357.490797,107.283292 C357.49733,108.31832 356.423709,110.860071 354.90692,112.429954 C353.892823,113.479586 352.916474,113.989981 351.921977,113.989981 L351.919799,113.989981 C350.368166,113.988885 349.206347,112.782996 347.975929,111.506279 C347.644188,111.162365 347.305188,110.810054 346.956025,110.481473 C346.706675,111.158349 347.006476,112.147375 347.247841,112.758535 C347.726942,113.970266 348.584242,115.304667 349.619753,116.535748 C349.672381,116.360505 349.730817,116.21885 349.778727,116.11626 C350.469794,114.635093 352.121239,113.839929 353.700094,114.221082 C354.247793,114.35361 355.56532,114.858163 356.423709,116.700038 C356.313008,114.999087 356.479967,113.567207 357.522374,112.924285 C358.708148,112.193377 360.587893,112.787377 363.616027,114.852687 C364.597094,115.52153 365.442054,116.250978 366.168327,117.031539 Z M351.520186,118.491896 C352.962206,119.770803 354.501499,120.698495 355.763857,120.854753 C355.75442,119.970872 355.66731,119.177898 355.509062,118.491896 L351.520186,118.491896 Z M144.877515,121.53893 C145.578744,121.53893 146.12354,122.180392 146.481413,122.60134 C146.743467,122.910206 147.10243,123.332614 147.331091,123.332614 L147.333269,123.332614 C147.402593,123.331884 147.668277,123.282962 148.153548,122.686771 C148.494362,122.267648 148.174962,121.123824 147.893309,120.114352 C147.621092,119.138469 147.339076,118.129362 147.452681,117.253513 C147.498777,116.896456 147.796763,116.626655 148.154636,116.617893 C149.745831,116.578828 150.851756,116.422205 151.620495,116.228343 C151.293835,116.188548 150.942494,116.172484 150.586435,116.169563 C148.57639,116.173214 146.488673,116.847534 145.730822,117.737987 C145.108717,118.46853 144.531982,120.060684 144.036911,121.835383 C144.099339,121.796318 144.164308,121.757619 144.231455,121.720015 C144.459391,121.592233 144.674986,121.53893 144.877515,121.53893 Z M357.047629,125.413622 C356.810982,125.777251 356.648378,126.221565 356.561995,126.73269 C356.801182,126.381474 356.955438,125.932049 357.047629,125.413622 Z M335.092838,117.031539 L336.713796,117.031539 C337.054611,117.031539 337.350056,117.270307 337.42301,117.605459 L337.616102,118.492991 C337.650946,118.65217 337.631346,118.818651 337.560933,118.966147 C337.068766,119.993508 338.871564,122.227124 340.064234,123.70537 C340.652947,124.434453 341.208632,125.123011 341.545091,125.691455 C341.771212,126.072973 342.94392,126.836375 343.720281,127.342024 C343.729718,127.348595 343.739155,127.354437 343.748954,127.361008 C343.276024,125.787109 343.229566,123.929535 343.188552,122.278236 C343.145723,120.563777 343.105072,118.944241 342.640489,118.122791 C342.512729,117.8968 342.513818,117.619333 342.644119,117.394438 C342.773694,117.169908 343.012881,117.031539 343.271305,117.031539 L348.145792,117.031539 C347.151295,115.76906 346.355335,114.453644 345.8991,113.297406 C345.444318,112.146645 345.351401,111.260209 345.445406,110.583333 C341.467782,110.355518 338.540912,111.396387 336.748277,113.683306 C336.002404,114.634728 335.462327,115.76687 335.092838,117.031539 Z M146.070185,111.883781 C145.342823,111.883781 144.607113,111.957529 143.886285,112.12328 C139.722827,113.080178 138.155224,115.581405 137.573044,117.511266 C136.59488,120.756179 137.70153,124.814146 140.32751,127.608904 C140.456359,127.746177 140.527498,127.927992 140.526046,128.116013 C140.524232,128.331415 140.514432,128.539881 140.49701,128.742141 C140.665784,128.722061 140.837825,128.711108 141.01168,128.708187 C141.035998,128.585882 141.061042,128.463212 141.086086,128.341273 C141.136537,128.096663 141.193884,127.809703 141.258127,127.489885 C141.87515,124.408167 143.023903,118.67152 144.627802,116.788024 C145.845879,115.35724 148.496903,114.712857 150.583895,114.709206 C151.644087,114.714318 152.579059,114.854512 153.380827,115.137091 C153.392078,114.895402 153.22403,114.627061 153.063604,114.427723 C152.073462,113.199928 149.146956,111.883781 146.070185,111.883781 Z M344.313712,118.491896 C344.572136,119.548464 344.605165,120.867531 344.639646,122.241362 C344.71623,125.297889 344.795354,128.457736 347.090319,129.275901 C348.701114,129.849456 352.704508,129.136802 355.035043,127.923611 C354.948296,125.492482 355.956223,124.255194 356.671244,123.687846 C356.807352,123.580144 356.949994,123.482665 357.098079,123.395774 C357.058517,123.392853 357.018592,123.390298 356.97903,123.387377 C355.439738,123.284787 353.84818,123.178181 352.121602,121.881019 C350.635301,120.763846 349.934072,119.670039 349.642982,118.731394 C349.564947,118.651805 349.488,118.572581 349.411054,118.491896 L344.313712,118.491896 Z M142.463864,128.853128 C143.373429,129.039323 144.272469,129.386158 145.042659,129.796518 C144.300053,128.968131 143.435131,127.850593 142.906669,126.661497 C142.823189,127.068937 142.748057,127.445344 142.681274,127.778305 C142.616668,128.101409 142.558595,128.390925 142.507781,128.637725 C142.4929,128.710013 142.478382,128.781935 142.463864,128.853128 Z M365.614458,131.114855 C365.692856,131.117046 365.770528,131.119602 365.847475,131.121062 C365.786861,130.850531 365.696848,130.565396 365.581792,130.27223 C365.60248,130.545316 365.613369,130.82607 365.614458,131.114855 Z M139.049182,132.36054 C139.361324,132.766154 139.927533,133.19915 140.61243,133.616082 C140.484307,132.531037 140.567423,131.375894 140.748538,130.182783 C140.550727,130.201402 140.361991,130.237181 140.184506,130.291214 C139.925356,131.075426 139.531912,131.750841 139.049182,132.36054 Z M204.641336,128.463212 C204.070045,128.463212 203.396037,128.649408 202.723845,129.012307 C200.653912,130.129845 200.666978,131.759968 200.860433,134.327275 C200.889833,134.717191 200.919595,135.115868 200.937017,135.518197 C201.592877,134.427675 202.700253,133.782562 203.772059,133.15826 C204.967633,132.46167 206.000603,131.859637 206.16974,130.809276 C206.28153,130.114511 206.284071,129.192661 205.660151,128.745061 C205.396646,128.555945 205.044579,128.463212 204.641336,128.463212 Z M142.301986,134.50909 C143.267809,134.95888 144.258677,135.333461 145.024875,135.55142 C147.045446,134.679587 150.035107,134.091063 153.4193,133.912534 C153.553593,133.766864 153.672643,133.612796 153.77427,133.451061 C154.318703,132.583244 154.405449,131.594218 154.497639,130.546777 C154.64391,128.88197 154.808329,127.014173 156.81293,125.407416 C155.801011,123.907264 155.58832,122.309999 155.397405,120.879944 C155.213387,119.498447 155.054413,118.3057 154.253734,117.372167 C154.111455,117.206052 153.9376,117.055635 153.735434,116.922012 C152.759448,117.560188 151.143572,117.938055 148.903776,118.051233 C148.965478,118.552501 149.13026,119.14285 149.291049,119.719691 C149.687033,121.138062 150.096446,122.604626 149.276894,123.611542 C148.635552,124.39977 148.005099,124.785669 147.348513,124.792971 C146.442214,124.804288 145.851686,124.108063 145.377667,123.549842 C145.22813,123.373869 145.011808,123.119402 144.882596,123.027764 C144.275372,123.382996 143.948713,123.82731 143.882292,124.385166 C143.70154,125.905397 145.410333,128.252556 147.184457,129.90422 C147.19462,129.913712 147.205509,129.923204 147.214946,129.933792 C147.643959,130.381756 147.377913,130.74356 146.894819,131.39926 C146.783029,131.550772 146.680313,131.689871 146.645469,131.739523 C146.547471,131.8914 146.395393,132.003118 146.216819,132.049119 C145.984165,132.109359 145.736267,132.049119 145.556241,131.888845 C144.837227,131.249938 143.500826,130.569047 142.206166,130.29377 C141.950645,131.976101 141.931046,133.359059 142.301986,134.50909 Z M345.986572,130.378105 C345.654831,131.778953 344.060007,132.445241 342.736673,132.998351 C340.365487,133.988838 339.401478,134.621902 340.121581,136.521097 C341.208632,139.388872 348.191525,137.491869 353.290681,136.10672 C354.87752,135.67555 356.359103,135.273222 357.644327,135.0005 C356.553284,133.3419 355.726472,131.596773 355.36388,130.13094 C355.305807,129.895823 355.255719,129.668372 355.21398,129.448953 C352.472217,130.729686 348.516732,131.333909 346.605411,130.652287 C346.384734,130.573793 346.178939,130.481791 345.986572,130.378105 Z M185.488197,138.51777 C185.343014,138.829556 185.290023,139.082563 185.283127,139.283727 C185.73791,139.071245 186.202129,138.850731 186.679415,138.616709 C186.684134,138.601375 186.688126,138.586041 186.692481,138.570707 C186.302668,138.504626 185.902691,138.483451 185.488197,138.51777 Z M361.094215,137.043904 C362.112667,138.089885 363.185199,138.905494 364.175704,139.301251 C364.160822,139.163247 364.14703,139.024878 364.133601,138.885779 C364.113638,138.676218 364.184777,138.467752 364.328871,138.31478 C364.472964,138.161442 364.666782,138.078932 364.885281,138.086964 C365.699389,138.119457 366.407877,138.346543 366.967917,138.749236 C367.472425,138.106314 367.839009,137.083699 368.063678,135.687598 C369.029865,129.684801 369.377576,123.136561 365.501579,118.491896 L358.070436,118.491896 C358.110724,118.804047 358.153553,119.122405 358.197107,119.444048 C358.315431,120.319532 358.434843,121.203048 358.515056,122.062468 C359.594484,122.212155 360.751585,122.535989 361.957685,123.397235 C364.161911,124.971499 367.363901,128.877589 367.387856,131.823494 C367.39076,132.203186 367.103662,132.521909 366.728004,132.555863 C366.282658,132.597483 365.865985,132.583974 365.463831,132.570831 C365.26711,132.56499 365.067484,132.556593 364.871851,132.559148 L364.869311,132.559148 C364.670048,132.559148 364.47986,132.477003 364.342663,132.331698 C364.205103,132.185662 364.133601,131.989244 364.144489,131.78808 C364.357544,127.968517 362.626974,125.662248 360.936329,124.777637 C360.142184,124.3618 359.319727,124.224527 358.606521,124.365816 C358.565507,125.607485 358.334667,126.715165 357.757569,127.560712 C357.483538,127.96304 357.071221,128.342368 356.562358,128.691393 C356.609542,129.039323 356.679592,129.402222 356.772509,129.777899 C357.157241,131.333544 358.056281,133.115544 359.187975,134.728874 C359.874323,134.640157 360.469206,134.618982 360.949759,134.690174 C361.178058,134.724127 361.376594,134.864687 361.485118,135.069137 C361.593278,135.273952 361.59836,135.518197 361.499273,135.727393 C361.253189,136.244724 361.126518,136.671513 361.094215,137.043904 Z M188.388208,137.545537 C189.460377,137.962469 190.439993,138.576914 191.358269,139.15266 C193.584999,140.548761 195.343153,141.65133 197.650458,140.084732 C199.73128,138.671107 199.583557,136.709118 199.412605,134.437532 C199.232943,132.052405 199.029688,129.348919 202.037497,127.725367 C203.692209,126.833089 205.403179,126.767373 206.503296,127.555966 C207.059343,127.955008 207.941687,128.938194 207.602687,131.042933 C207.554051,131.345592 207.468031,131.621964 207.352248,131.876432 C207.360233,131.865114 207.368218,131.853796 207.376566,131.842113 C208.019359,130.935232 208.626946,130.078367 208.360174,128.743236 C207.724277,125.556737 203.184798,122.647341 200.289868,121.854367 C196.265422,120.753258 192.708462,122.191345 190.00481,126.013829 C188.251374,128.49315 188.358808,130.877547 188.472776,133.401774 C188.53339,134.742747 188.595092,136.115848 188.388208,137.545537 Z M159.559048,138.312589 C162.544354,138.312589 165.540548,138.874827 168.427856,141.193143 C168.570497,141.307416 168.705879,141.421689 168.835091,141.535232 C169.220913,140.205212 168.847795,139.085848 167.710293,138.136616 C165.624391,136.395141 160.986188,135.316667 155.594853,135.316667 L155.521536,135.316667 C155.015576,135.317397 154.515424,135.32762 154.022531,135.34697 C151.953687,137.10743 148.291108,137.675144 145.411422,137.143574 C145.33012,137.128605 145.243737,137.110716 145.153361,137.090271 C145.004549,137.165479 144.864449,137.242878 144.733785,137.321737 C144.968617,137.45682 145.221233,137.587157 145.492724,137.711653 C148.648981,139.165073 151.886904,138.874462 155.314651,138.565961 C156.718199,138.440006 158.137716,138.312589 159.559048,138.312589 Z M365.864897,140.992709 C365.926599,141.381164 365.994109,141.767794 366.066337,142.152233 C366.340368,141.983196 366.616214,141.813795 366.894237,141.645854 C366.879356,141.313623 366.823098,141.014615 366.726552,140.755036 C366.436188,140.881357 366.145098,140.95547 365.864897,140.992709 Z M363.051269,140.367677 C363.397528,140.838277 363.713299,141.375323 363.922724,142.027007 C364.060284,142.454527 364.142312,142.883506 364.183326,143.309565 C364.370248,143.197483 364.557895,143.08321 364.74518,142.968572 C364.60762,142.28257 364.484578,141.589995 364.379684,140.888659 C363.941598,140.777307 363.496615,140.600238 363.051269,140.367677 Z M206.783497,132.744614 C206.163207,133.452522 205.299374,133.95598 204.499421,134.421834 C203.539405,134.98115 202.632743,135.509434 202.171427,136.286709 C200.938832,138.364432 201.000534,140.919326 202.32895,142.795155 C203.453021,144.382928 205.191213,145.10982 207.137016,144.82067 C207.637531,143.501602 207.208518,142.025547 206.792571,140.594397 C206.733047,140.388852 206.673885,140.185497 206.61799,139.984698 C206.561006,139.779518 206.596212,139.559004 206.714173,139.381936 C206.832133,139.204502 207.021596,139.088039 207.23211,139.063213 C207.66693,139.01137 208.103202,138.762014 208.565244,138.498055 C208.668323,138.43891 208.772128,138.379766 208.877385,138.321717 C208.662153,138.091345 208.447283,137.878133 208.236044,137.668207 C207.311597,136.750008 206.437964,135.88219 206.372995,134.250607 C206.350855,133.692385 206.52834,133.202071 206.783497,132.744614 Z M227.256705,120.326834 C225.149025,120.326834 223.095788,120.939089 221.207332,122.145709 C215.390977,125.861222 214.417169,136.096133 217.460184,142.421303 C217.976669,143.495396 218.654306,144.388404 219.252093,145.175902 C219.58456,145.614374 219.90142,146.032036 220.161659,146.443856 C222.374596,145.76114 224.792966,145.765521 227.228394,146.239041 C228.44756,144.748747 229.461657,143.269771 230.014075,142.294617 C230.74434,141.005487 231.145406,139.334474 231.533042,137.717859 C232.037912,135.612755 232.559842,133.436458 233.837806,131.918417 C235.275834,130.210895 238.103255,129.522336 240.041435,130.264928 C239.871209,129.560306 239.568141,128.787777 239.074159,127.894403 C237.09678,124.316529 233.733275,121.622536 230.077229,120.688273 C229.13282,120.446583 228.189499,120.326834 227.256705,120.326834 Z M303.328824,140.088018 C302.203663,141.510771 302.289684,143.443188 302.380423,145.47783 C302.414903,146.247073 302.450836,147.043698 302.413814,147.829735 C302.819235,147.800893 303.191627,147.794687 303.579989,147.805639 C303.654032,146.283947 304.104459,144.254416 304.748341,141.853225 C304.82311,141.574662 304.899694,141.287336 304.931997,141.147507 C304.760682,140.952915 304.589367,140.813451 304.425674,140.740433 C304.07143,140.582714 303.714645,140.345041 303.369475,140.115035 C303.356046,140.106273 303.342253,140.097145 303.328824,140.088018 Z M239.657065,135.719726 C237.494216,136.446253 237.255029,138.154141 237.078269,140.705749 C237.016567,141.593646 237.16683,142.503449 237.312375,143.383679 C237.406744,143.955408 237.496031,144.496105 237.525067,145.013802 C237.569711,145.811522 237.299309,146.45919 237.060485,147.03092 C236.918932,147.370088 236.782461,147.697573 236.7037,148.057916 C237.730137,147.866244 238.479639,147.475233 238.981243,146.872106 C240.152862,145.465417 239.906052,142.984636 239.667228,140.585635 C239.606615,139.975206 239.543823,139.343966 239.508254,138.748506 C239.438203,137.592268 239.524224,136.604337 239.657065,135.719726 Z M357.081746,147.506631 C358.810864,147.610316 360.51022,147.80929 362.130089,148.154664 C362.200502,147.690636 362.295596,147.222227 362.388513,146.76404 C362.448763,146.467952 362.509377,146.169309 362.56382,145.870666 C361.353365,146.465032 360.082659,146.95133 358.666045,147.247053 C358.147746,147.355484 357.617831,147.439455 357.081746,147.506631 Z M334.750572,118.491896 C333.71615,124.169763 335.449986,131.857082 337.395788,138.022709 C338.095203,140.2388 338.10718,142.004737 338.119158,143.712989 C338.126417,144.749842 338.13295,145.729012 338.285754,146.810041 C338.388108,147.536934 338.47195,148.075805 338.557971,148.481784 C339.78984,148.043677 341.239846,147.788115 342.96606,147.751971 C343.699592,147.736637 344.449095,147.711446 345.219648,147.681144 C347.727668,146.609242 350.537666,146.467222 353.262007,146.329583 C355.063716,146.238676 356.76525,146.152515 358.371326,145.817363 C359.961432,145.485132 361.382764,144.870687 362.762719,144.124445 C362.772156,143.564033 362.71372,143.011288 362.541317,142.476067 C362.268012,141.625774 361.733016,141.014615 361.166443,140.368042 C360.500057,139.606831 359.777414,138.780999 359.654372,137.601396 C359.279077,137.188845 358.916484,136.753293 358.570951,136.302773 C357.195714,136.558336 355.462241,137.029301 353.669243,137.51633 C347.411897,139.216185 340.319392,141.143491 338.764492,137.040984 C337.467654,133.618637 340.303422,132.433558 342.179537,131.649711 C343.825538,130.961883 344.626217,130.537649 344.593914,129.758184 C344.357993,129.497145 343.506863,128.94294 342.930854,128.567993 C341.581749,127.689223 340.669643,127.066381 340.29834,126.439523 C340.015235,125.961621 339.491491,125.312858 338.937259,124.626125 C337.335901,122.6415 335.530199,120.404233 336.149764,118.584994 L336.129801,118.491896 L334.750572,118.491896 Z M305.13017,149.24044 C305.163562,149.304696 305.197317,149.340839 305.224902,149.360919 C305.253575,149.370046 305.411823,149.367491 305.719972,149.214884 C306.349699,148.903097 306.694144,147.915166 306.66547,146.504826 C306.640426,145.276666 306.352603,144.014188 305.953715,142.97989 C304.952322,146.876122 304.921108,148.403655 305.050683,149.001671 C305.078268,149.081261 305.1044,149.16085 305.13017,149.24044 Z M228.778938,146.601575 C231.043415,147.217846 233.29047,148.200301 235.367662,149.372967 C235.263494,149.252123 235.200703,149.09915 235.191629,148.937781 C235.129564,147.884498 235.457675,147.097366 235.721906,146.465397 C235.933872,145.957558 236.101194,145.557055 236.075425,145.095947 C236.050744,144.65711 235.96799,144.154747 235.879792,143.622447 C235.728802,142.704248 235.556762,141.663743 235.630079,140.604254 C235.803208,138.101568 236.016626,135.013278 239.942711,134.129762 C240.07773,133.426965 240.196054,132.769805 240.222186,132.091104 C240.152499,132.007499 240.069019,131.931195 239.971747,131.862923 C238.82372,131.056441 236.180319,131.395974 234.945545,132.862538 C233.890072,134.115889 233.430571,136.031877 232.944211,138.060678 C232.532983,139.775502 232.1076,141.549105 231.275344,143.017859 C231.252114,143.059114 230.268506,144.679015 228.778938,146.601575 Z M118.621707,129.39492 C118.03009,131.324052 116.55613,132.893205 115.11919,134.423294 C112.581408,137.124589 110.184453,139.676198 111.561142,144.275592 C112.137151,146.199977 113.271749,147.840688 114.638638,149.417508 C114.900691,149.092944 115.213196,148.758157 115.58341,148.410957 C116.183738,147.847259 116.955743,147.973215 117.57567,148.073615 C118.320817,148.19592 118.585774,148.188253 118.800281,147.91042 C119.068142,147.563585 119.063786,147.266402 119.057616,146.816613 C119.052172,146.432904 119.046001,145.969971 119.23982,145.465782 C119.186102,145.224458 119.130207,144.898799 119.053624,144.451565 C118.816977,143.070797 118.869968,142.754995 118.892471,142.619912 C119.030394,141.795906 119.86628,141.520263 120.476407,141.319099 C120.676759,141.253018 120.996885,141.147507 121.125734,141.061711 C121.144245,140.153004 120.67204,138.624741 120.214717,137.145764 C119.821274,135.872333 119.414401,134.556186 119.263049,133.46749 C119.211146,133.093639 119.163962,132.731471 119.11823,132.37989 C118.97087,131.246288 118.842747,130.260912 118.621707,129.39492 Z M363.547065,148.501134 C364.568784,148.785904 365.549852,149.138945 366.476476,149.575227 C365.95745,147.874276 365.474357,146.188294 365.074017,144.47566 C364.768772,144.660031 364.464253,144.84075 364.157556,145.016358 C364.082061,145.72171 363.942686,146.407347 363.810934,147.056111 C363.708943,147.559204 363.610945,148.041122 363.547065,148.501134 Z M217.856531,149.204661 C217.949085,149.450731 218.047808,149.677452 218.151976,149.884822 C218.868813,149.368221 219.269878,148.899812 219.346825,148.487991 C219.356261,148.435783 219.36098,148.382115 219.361343,148.327717 C218.835784,148.568676 218.333817,148.859287 217.856531,149.204661 Z M346.650417,149.082721 C349.589265,150.67524 356.071279,150.313437 359.974861,149.232408 C355.95586,148.672361 351.472639,148.869874 347.23913,149.0568 C347.04132,149.065562 346.844961,149.074324 346.650417,149.082721 Z M219.019439,151.055298 C219.333032,151.319988 219.67784,151.472595 220.053135,151.51239 C221.755758,151.692014 224.069959,149.787709 226.087989,147.564315 C224.218408,147.29853 222.410166,147.352929 220.763075,147.814766 C220.825504,148.119981 220.833852,148.432132 220.773601,148.756697 C220.624789,149.555512 220.061483,150.297373 219.019439,151.055298 Z M290.403268,151.662077 C291.361106,151.662077 292.400609,151.836589 293.424143,152.007816 C295.127854,152.292951 296.890364,152.588308 298.105538,152.08704 C301.166338,150.824927 301.056725,148.377369 300.930054,145.543546 C300.82516,143.190181 300.706111,140.52357 302.705993,138.616344 C302.937922,138.394734 303.287084,138.352019 303.566197,138.512658 C303.753119,138.62036 303.959277,138.756903 304.17088,138.897827 C304.465599,139.094245 304.770845,139.29687 305.013299,139.404936 C305.061935,139.426842 305.110208,139.450572 305.158118,139.476129 C305.987107,132.819092 305.91125,126.471286 298.664125,125.408146 C295.018605,124.872925 291.688129,125.677582 289.037468,127.733764 C286.292438,129.863695 284.48347,133.190753 284.074057,136.860264 C283.563742,141.430816 284.418138,142.884967 287.193293,146.195231 C288.881034,148.207968 289.625818,149.839551 290.188398,151.665362 C290.2599,151.663172 290.331403,151.662077 290.403268,151.662077 Z M289.146717,153.309724 C288.957255,153.384933 288.789569,153.485697 288.647654,153.615669 C288.207389,154.019093 287.975098,154.761684 287.952958,155.827745 C288.080355,155.780648 288.20013,155.724424 288.310832,155.657613 C288.544575,155.515958 288.889019,155.436734 289.619648,155.290333 C289.633803,155.287413 289.648684,155.284492 289.663565,155.281571 C289.567019,154.917942 289.47628,154.570377 289.389171,154.23559 C289.305691,153.913217 289.225841,153.605812 289.146717,153.309724 Z M283.259949,156.334488 C283.29697,156.368077 283.333628,156.402395 283.369198,156.437078 C284.231216,156.173119 285.114286,156.13442 285.927668,156.099371 C286.121124,156.090609 286.313127,156.082577 286.500049,156.071259 C286.48916,154.426897 286.874255,153.265914 287.66949,152.53683 C287.985987,152.246219 288.347853,152.042134 288.743474,151.904496 C288.225174,150.269261 287.560966,148.898716 286.083376,147.136431 C285.823137,146.826105 285.577417,146.528557 285.346577,146.241597 C285.755265,147.872085 285.619883,149.815455 285.019555,152.530624 C284.599616,154.430183 283.982592,155.559039 283.259949,156.334488 Z M280.214392,156.712356 C280.089536,156.744849 280.016582,156.794136 279.975931,156.821517 C279.930562,156.852185 279.88737,156.887599 279.845993,156.927758 C279.970487,156.85328 280.093165,156.782088 280.214392,156.712356 Z M302.861338,149.267822 C302.314728,151.022075 301.773199,155.354954 301.668668,158.117949 C302.481324,157.626174 303.115407,156.967188 303.565108,156.145007 C304.540731,154.361911 304.550531,151.875654 303.604307,149.268187 C303.353868,149.257599 303.111051,149.257964 302.861338,149.267822 Z M288.025186,157.331182 C288.181983,159.133627 288.466539,159.151517 291.638767,159.3483 C293.769676,159.480462 296.939726,159.425334 299.21981,159.005116 C299.567521,158.941225 299.898173,158.860176 300.211766,158.763062 C300.213944,156.840867 300.491967,154.208939 300.836775,152.028626 C300.301779,152.573704 299.592202,153.052336 298.65614,153.438601 C297.058775,154.096857 295.089744,153.767181 293.185681,153.448458 C292.267405,153.29439 291.373447,153.145069 290.599263,153.120973 C290.663506,153.364123 290.728112,153.612018 290.793807,153.866485 C290.936086,154.413024 291.087075,154.994611 291.261656,155.62439 C291.363284,155.989844 291.169103,156.372823 290.815585,156.504985 C290.623581,156.576543 290.343743,156.634592 289.903116,156.722943 C289.628721,156.777707 289.174302,156.868614 289.037468,156.921917 C288.718067,157.111763 288.377615,157.24137 288.025186,157.331182 Z M171.636742,159.098214 C172.483153,159.238408 173.324846,159.433001 174.16182,159.680896 C174.022445,158.994163 173.461317,158.354527 172.867522,157.678382 C172.556107,157.32315 172.236706,156.959156 171.96812,156.571796 C171.75688,157.466995 171.632386,158.327876 171.636742,159.098214 Z M299.355918,160.464378 C299.68294,160.49322 300.009963,160.529729 300.338074,160.572809 C300.319564,160.47533 300.302868,160.37055 300.288712,160.258832 C300.027385,160.330025 299.758435,160.39063 299.4815,160.441377 C299.440123,160.449409 299.398021,160.456711 299.355918,160.464378 Z M116.323475,157.66962 C118.103407,158.657551 119.925079,159.911633 121.596124,161.346068 C120.889813,158.058805 118.502295,155.592262 115.980846,152.986985 C115.640394,152.635039 115.297764,152.281633 114.958401,151.923846 C114.778739,152.860664 115.10068,153.800404 115.545663,155.097931 C115.802998,155.84819 116.091184,156.689355 116.323475,157.66962 Z M126.047768,157.786083 C128.400806,160.342438 130.96835,160.534475 134.501355,160.798799 C134.999692,160.836038 135.512911,160.874373 136.042825,160.921104 C137.751618,161.070791 138.938844,161.277066 139.836795,161.593233 C139.535542,160.792958 139.171498,159.951427 138.800195,159.092737 C137.749803,156.664529 136.664204,154.15381 136.708122,151.881495 C136.816645,146.301107 139.017242,140.753941 142.394539,137.379056 C141.83087,136.822295 141.420731,136.216247 141.132907,135.570039 C139.889786,134.944276 138.726515,134.197304 138.051782,133.434632 C137.397737,134.050538 136.66493,134.615331 135.919058,135.190346 C134.306085,136.433475 132.638306,137.718954 131.38466,139.737898 C126.641926,147.374469 124.847113,153.445537 126.047768,157.786083 Z M279.069632,159.302299 C278.973086,160.067891 278.919732,160.934978 278.873636,161.809001 C279.394114,160.330755 279.829297,159.101134 280.98168,157.953294 C280.358123,158.310351 279.721499,158.69552 279.069632,159.302299 Z M171.867581,160.611509 C171.919121,160.757909 171.980097,160.897008 172.051236,161.028075 C172.449398,161.76154 173.16442,162.173725 174.228967,162.280331 C174.374149,161.928385 174.423148,161.61806 174.415163,161.290209 C173.568389,161.003979 172.718348,160.777989 171.867581,160.611509 Z M155.716443,159.744422 C155.785767,160.519141 156.037658,161.397181 156.302252,162.317936 C156.314956,162.362111 156.327296,162.405922 156.339999,162.450098 C157.203833,161.912321 158.082184,161.429308 158.971061,161.0069 C162.645981,159.261044 166.450113,158.560072 170.203795,158.912383 C170.228476,157.619602 170.528277,156.191373 170.963097,154.78724 C170.38745,153.665321 170.314859,153.207499 170.122856,151.63506 L170.044458,151.001265 C169.913068,149.960396 169.916697,149.004227 169.919964,148.160871 C169.926134,146.484381 169.930853,145.153266 168.946156,143.786007 C168.861224,143.783451 168.775567,143.765927 168.693176,143.731974 C167.266399,143.14491 165.904229,143.560747 164.919532,144.101444 C164.984138,145.357351 165.292287,146.635893 165.590636,147.876467 C166.159023,150.236768 166.746648,152.677755 165.736181,155.103408 C164.145349,158.922606 161.740045,159.014973 159.414229,159.104055 C158.209944,159.150056 156.968638,159.197883 155.716443,159.744422 Z M112.214098,124.708635 C107.148697,124.708635 101.286246,129.451874 98.7793154,133.736561 C92.4257866,144.594314 100.95632,153.391139 104.918701,156.66891 L104.956811,156.700308 C116.679897,166.397808 120.11563,166.181675 121.048788,165.639517 C121.635686,165.297794 121.830593,164.471962 121.838215,163.549016 C119.845229,161.630838 117.518686,159.970412 115.345311,158.796285 C115.15839,158.69552 115.024459,158.517357 114.979453,158.308526 C114.754421,157.270212 114.445546,156.368807 114.172967,155.573642 C113.580261,153.84531 113.075027,152.37108 113.829974,150.700067 C112.250756,148.919891 110.85955,146.996601 110.171024,144.696174 C108.551881,139.288108 111.480203,136.170611 114.063717,133.420394 C115.917692,131.446722 117.518686,129.742485 117.436296,127.443518 C117.429762,127.263529 117.417059,127.089747 117.397822,126.922171 C116.878797,126.333647 116.17539,125.818871 115.200492,125.355208 C114.262979,124.909434 113.255053,124.708635 112.214098,124.708635 Z M348.082275,165.372637 C349.585998,165.372637 351.15106,165.651565 352.683457,165.924652 C355.673118,166.456952 358.508886,166.96187 360.89096,165.63112 C359.565448,163.308788 355.601616,163.545731 352.374582,163.737768 C351.591325,163.784499 350.848356,163.828675 350.200844,163.8305 C349.304345,164.216399 348.501851,164.289417 347.806066,164.051379 C347.561797,164.485105 347.348017,164.940371 347.162547,165.410971 C347.465977,165.38432 347.773037,165.372637 348.082275,165.372637 Z M290.010187,163.320471 C293.915221,166.353267 305.284426,167.734399 309.840238,165.666899 C308.919784,164.654507 307.519141,164.418294 305.935205,164.150318 C304.298277,163.873581 302.48205,163.566906 301.239292,162.200012 C297.330628,161.484072 293.533755,161.847701 290.010187,163.320471 Z M73.6954895,164.753811 C75.1255325,164.753811 75.9527071,165.973574 76.689143,167.058254 C77.7293723,168.591994 78.3950319,169.427318 79.9815086,168.783301 C80.9168438,168.403243 82.2782884,165.001706 83.2923849,160.511474 C83.4589813,159.773994 83.4626108,159.075943 83.4662404,158.400528 C83.4709588,157.440709 83.4764031,156.448396 83.9761923,155.485656 C84.818974,153.863565 85.3971614,153.623336 86.1829592,153.441156 C86.5455513,153.357186 86.8878179,153.277961 87.4899604,152.713899 C87.6355054,152.57772 87.7734284,152.448479 87.9044551,152.325079 C87.3055793,151.689093 86.629031,151.272161 85.9274388,151.141459 C81.0892475,150.237498 77.1540885,157.023047 74.5495228,161.512914 C74.1528129,162.196726 73.7778803,162.842569 73.4417838,163.386552 C73.1231093,163.902423 72.8051606,164.42377 72.486849,164.949864 C72.7576135,164.873925 73.0461628,164.816241 73.3521339,164.776446 C73.4704573,164.761113 73.5847881,164.753811 73.6954895,164.753811 Z M141.742672,162.768091 C142.198543,163.221166 142.603238,163.776832 143.080161,164.465025 C143.575232,165.17914 144.191167,166.067767 145.129406,167.138939 C145.855316,167.966961 147.048712,168.84062 148.431571,169.381682 C150.445972,167.016999 152.690486,164.946578 155.068568,163.289073 C155.016302,163.101417 154.961859,162.913031 154.907416,162.723185 C154.576038,161.568772 154.233045,160.375296 154.246112,159.284774 C154.249378,159.016434 154.398916,158.771459 154.635199,158.646963 C156.316044,157.761257 157.932646,157.699557 159.35906,157.644794 C161.568005,157.560093 163.164281,157.499123 164.396876,154.539345 C165.223325,152.55545 164.71664,150.449615 164.179829,148.220381 C163.828489,146.761849 163.465171,145.2533 163.455371,143.695465 C163.453919,143.442458 163.582768,143.20661 163.795823,143.072258 C164.872348,142.393192 165.991338,142.030658 167.077663,141.993419 C163.40238,139.305632 159.532189,139.653562 155.443863,140.020842 C151.978005,140.331898 148.39455,140.654272 144.888404,139.039482 C144.386074,138.808381 143.937461,138.56012 143.537485,138.296525 C140.348924,141.392847 138.262296,146.62348 138.159579,151.909972 C138.121832,153.863565 139.14355,156.225327 140.131514,158.510055 C140.772856,159.993047 141.394598,161.430404 141.742672,162.768091 Z M149.972678,169.816503 C150.31313,169.875282 150.658664,169.909236 151.005649,169.913982 C152.512638,169.939538 153.756485,169.410159 154.729568,168.357241 C155.641674,167.37077 155.689947,166.147356 155.439508,164.810035 C153.500239,166.215263 151.658242,167.907817 149.972678,169.816503 Z M277.431979,161.578995 C276.408808,163.857517 275.743149,167.523378 275.518117,170.011096 C277.077009,168.518611 277.246146,165.204696 277.398224,162.225568 C277.409113,162.00761 277.420364,161.792207 277.431979,161.578995 Z M175.742852,160.217577 C175.865168,160.264674 175.987121,160.3125 176.109074,160.361788 C181.016953,162.338381 185.410161,166.211247 188.621225,171.097601 C188.752978,169.047625 189.238611,166.928282 190.085386,164.791415 C191.253738,161.84332 193.343633,159.446144 195.364567,157.127462 C197.58186,154.58279 199.676837,152.179408 200.625964,149.132739 C201.17076,147.385056 201.261136,146.259851 200.902173,145.692503 C200.437954,144.958308 198.949112,144.756414 196.888616,144.477486 C196.601518,144.438421 196.302806,144.398262 195.993206,144.354451 C195.686871,144.31137 195.268747,144.266099 194.772951,144.212066 C190.720194,143.772134 186.340778,143.137608 184.596053,141.209937 C180.753084,142.986096 177.943086,144.358467 175.260848,148.757427 C174.438755,150.105701 173.308876,152.356841 172.530337,154.641205 C172.655919,154.870846 172.801464,155.132615 172.97169,155.438559 C173.201804,155.852206 173.568026,156.269868 173.956025,156.711626 C174.629669,157.479408 175.393327,158.349781 175.59513,159.445414 C175.620537,159.583417 175.646306,159.71631 175.671713,159.845186 C175.696031,159.969682 175.720349,160.093812 175.742852,160.217577 Z M69.5320317,169.806646 C69.0783378,170.530983 68.6170219,171.251669 68.1433655,171.964323 C68.5981482,171.633187 69.1240701,171.395149 69.7371013,171.27613 C69.634385,170.771941 69.5636088,170.280166 69.5320317,169.806646 Z M282.898808,158.251207 C282.867594,158.272017 282.837106,158.293557 282.806618,158.315462 C281.247363,159.441398 280.867349,160.521332 280.236896,162.310634 L280.038359,162.871776 C279.066366,165.581103 279.08161,168.886986 279.162186,172.138835 C281.530831,167.822386 284.077323,161.88713 283.075204,158.699901 C283.025117,158.541088 282.966318,158.391401 282.898808,158.251207 Z M72.9024326,175.887206 C73.0817324,176.277122 73.2737356,176.67872 73.4777164,177.091636 C73.3053127,176.70099 73.1136724,176.299757 72.9024326,175.887206 Z M203.417089,175.477941 C203.265737,175.851793 203.157939,176.175627 203.107851,176.424983 C203.030905,176.803215 202.977913,177.146034 202.946699,177.458916 C203.146324,176.788612 203.304573,176.119038 203.417089,175.477941 Z M249.396965,171.384196 C250.359522,173.992028 254.404656,174.901466 258.002267,175.709773 C260.001787,176.159198 261.728727,176.547653 262.867317,177.201893 C263.767083,177.719224 264.704596,178.450133 265.636301,179.280711 C265.472609,177.860879 266.211222,176.051132 267.842342,173.884692 C268.447026,173.081496 269.197254,172.268442 269.922801,171.482405 C271.189877,170.10967 272.766554,168.401052 272.534626,167.612459 C272.438443,167.286435 271.91361,166.987427 271.05631,166.770564 C268.804536,166.20139 265.460631,166.724927 262.510532,167.187496 C260.949462,167.432105 259.475139,167.663207 258.1881,167.740971 C257.679963,167.772003 257.063665,167.77748 256.410709,167.782956 C254.274355,167.800845 251.117735,167.828227 249.808193,168.921304 C249.774438,169.754803 249.641234,170.577714 249.396965,171.384196 Z M268.660806,165.0572 C269.644052,165.0572 270.571402,165.141901 271.410554,165.354383 C272.844952,165.717281 273.668135,166.320409 273.926559,167.197718 C274.393682,168.784396 272.814827,170.494839 270.986985,172.475813 C270.285393,173.235563 269.560209,174.021601 268.999806,174.766017 C267.437648,176.841185 266.777432,178.579739 267.188297,179.536273 C267.459425,180.167512 268.19695,180.372693 268.767515,180.434393 C270.96049,180.66878 274.566811,179.182137 276.56996,176.366569 C276.903879,175.897064 277.315107,175.273857 277.768801,174.538202 C277.759001,174.007362 277.744846,173.464109 277.729965,172.903697 C277.699477,171.750015 277.668626,170.583921 277.677699,169.427683 C277.118749,170.639414 276.266893,171.578424 274.944285,172.030039 C274.719615,172.106343 274.472806,172.068008 274.281529,171.927084 C274.090614,171.786524 273.979913,171.560169 273.985357,171.322131 C274.052504,168.333511 275.138829,161.774318 277.063942,159.340633 C277.278449,159.069372 277.491503,158.825857 277.703106,158.604978 C277.926687,157.24137 278.333196,156.172024 279.166541,155.609421 C279.850349,155.147218 280.724344,155.099026 281.76167,155.464116 C281.836439,155.490767 281.909756,155.518514 281.981621,155.547721 C282.669058,154.914656 283.208772,153.993536 283.602578,152.213361 C284.901594,146.339441 283.923068,144.801685 279.509171,141.263606 C278.538266,140.4856 277.694758,139.72877 276.878835,138.996767 C274.772607,137.1067 272.953476,135.474386 270.034591,134.549615 C263.50394,132.48175 258.263958,133.103131 254.460551,136.398792 C248.109563,141.900686 247.316506,153.248389 248.692106,162.033896 C248.780667,162.600515 248.83257,163.160561 248.855799,163.711846 C249.309856,164.886338 249.617279,166.069592 249.74758,167.242624 C251.536948,166.364219 254.178898,166.341584 256.398369,166.322599 C257.031725,166.317123 257.629875,166.312012 258.100628,166.283535 C259.319431,166.209422 260.760726,165.983431 262.286589,165.744298 C264.453794,165.404765 266.670723,165.0572 268.660806,165.0572 Z M248.182517,174.063586 C248.610078,176.049306 250.174778,177.487027 254.414819,178.380401 L254.900816,178.482261 C258.798591,179.301886 262.763875,180.13575 266.224289,181.844732 C264.858852,180.481854 263.437157,179.211709 262.147214,178.469848 C261.19845,177.924404 259.492198,177.541061 257.68577,177.135081 C254.406834,176.397966 250.48583,175.517006 248.699365,173.118735 C248.536761,173.449141 248.363995,173.763848 248.182517,174.063586 Z M203.566989,180.019286 C204.098719,180.584079 204.931337,180.917771 205.977374,181.336893 C206.661181,181.611075 207.436453,181.921401 208.197933,182.34527 C209.041441,182.815505 209.733596,183.317137 210.296903,183.843961 C210.317954,183.786277 210.339005,183.727862 210.360783,183.667623 C210.662035,182.834124 211.003213,181.888908 211.55309,180.820292 C212.072479,179.809725 212.641955,179.003243 213.144285,178.292049 C214.434228,176.465508 215.286446,175.258888 214.316267,172.092104 C213.732635,170.187799 212.562831,168.720505 211.186868,168.167395 C210.155713,167.753019 209.066122,167.861815 207.949309,168.492324 C207.277479,168.871652 206.094609,170.521855 205.062001,172.266617 C205.081601,172.806219 205.08269,173.342535 205.059098,173.871914 C204.977796,175.675455 204.4624,177.954342 203.566989,180.019286 Z M369.086123,153.060368 C369.6458,154.850766 370.208017,156.698847 370.720873,158.643678 C372.180678,164.181351 371.396332,171.344401 368.389249,179.933125 C367.823039,181.551566 367.099307,183.105385 366.393722,184.609918 C366.758492,184.326609 367.125803,184.058633 367.481861,183.798325 C367.837557,183.538746 368.175832,183.291946 368.490151,183.045876 C369.164884,181.572376 370.022184,180.24126 370.852262,178.95213 C372.664497,176.137293 374.376919,173.478713 374.302513,169.439001 C374.216493,164.760382 373.227803,160.160623 371.517922,156.485635 C370.882751,155.120202 370.059568,153.991346 369.086123,153.060368 Z M61.311099,132.159741 C57.0645245,132.159741 52.7326555,133.008208 49.1049194,135.096884 C42.9234314,138.656869 38.6235025,144.126635 37.3081533,150.103146 C35.5376583,158.148252 37.2889166,169.487193 41.2952149,175.916414 C42.4098499,177.704986 43.9937859,179.194185 45.5258193,180.633731 C47.0331718,182.050278 48.5652052,183.489824 49.634108,185.216331 C51.2470804,183.666528 53.3710935,182.684438 55.4344932,181.730094 C57.5182183,180.766624 59.6730827,179.770295 61.2795219,178.202967 C64.9805749,174.591505 67.7789586,169.945745 70.4851517,165.452592 C71.0618873,164.494963 71.6339046,163.545 72.2088254,162.615483 C72.5343961,162.089025 72.9042474,161.451579 73.2955129,160.776529 C76.1051483,155.93362 80.3491821,148.615407 86.192759,149.705198 C87.1970557,149.893219 88.1371094,150.452171 88.9435956,151.301734 C90.2375304,149.907093 89.9010711,149.381364 88.3458085,146.952426 C85.3710286,142.308126 77.7221132,136.090291 72.6062612,134.157874 C69.3861237,132.941762 65.3878105,132.159741 61.311099,132.159741 Z M50.5327848,187.054921 C51.5889841,187.924563 52.9315549,188.401735 54.4614106,188.44372 C57.2507204,188.525135 60.429844,187.165177 62.7567491,184.906736 C63.9381679,183.75999 64.4680823,181.373037 64.9805749,179.064943 C65.3036049,177.611523 65.642242,176.086545 66.1725194,174.769668 C64.9827526,176.359267 63.7036989,177.871831 62.2903518,179.251139 C60.5053387,180.992249 58.2357805,182.04188 56.0409911,183.057194 C53.8592681,184.06557 51.7896982,185.022834 50.3418704,186.570082 C50.409743,186.729261 50.4736231,186.89063 50.5327848,187.054921 Z M112.002495,123.169784 C107.716358,123.169784 102.012519,125.332938 99.5640243,127.129177 C92.6014569,132.236044 89.8063398,139.579814 92.0871495,146.772802 C92.6551743,148.56393 93.4946894,150.336438 94.3066199,152.049801 C95.065559,153.651083 95.8499049,155.306762 96.4400699,157.020856 C97.1282327,159.02045 97.3866568,161.434055 97.6363699,163.768435 C97.8007885,165.304365 97.9710144,166.892503 98.2602896,168.330225 C98.7760488,170.889135 98.4896773,174.143175 98.2127425,177.289879 C97.8272842,181.665474 97.4287595,186.190389 99.2141356,188.506515 C102.229204,192.419176 108.580918,192.428304 114.184218,192.43597 C116.514027,192.439621 118.714623,192.442907 120.571865,192.716724 C121.086172,192.792298 121.612457,192.875173 122.14709,192.96608 C121.418639,191.873368 120.91885,190.434551 120.695269,189.101976 C120.108008,185.597119 121.178726,181.314988 123.633028,177.354135 C124.69322,175.643327 125.820195,174.198304 127.046983,172.988398 C126.96677,172.492607 126.883291,172.001927 126.796907,171.518549 C126.393664,169.257551 124.999554,166.967347 123.139046,164.89437 C122.922725,165.828633 122.467942,166.500763 121.775787,166.903456 C119.101534,168.459466 113.298608,165.491291 104.034542,157.828433 L103.996432,157.797036 C95.0122046,150.36455 92.6544483,141.324575 97.5282092,132.995795 C100.832915,127.348595 109.135513,121.288114 115.416451,123.856152 C115.376526,123.835342 115.336238,123.814532 115.295224,123.794452 C114.399088,123.35671 113.261586,123.169784 112.002495,123.169784 Z M362.438601,191.524343 C362.090527,191.90221 361.765682,192.428304 361.460437,192.977033 C361.601626,192.922269 361.74209,192.868236 361.880739,192.814933 C362.046609,192.751042 362.213205,192.687152 362.378713,192.622531 C362.377261,192.256712 362.398313,191.890162 362.438601,191.524343 Z M127.321377,174.797415 C126.463352,175.753584 125.65251,176.855788 124.86526,178.126664 C122.595702,181.789239 121.597576,185.70117 122.127127,188.859557 C122.508956,191.138443 123.63085,193.079988 124.681242,193.280057 C125.527653,193.43741 126.340673,192.312205 126.750449,191.625472 C128.518403,188.661678 128.266875,181.481834 127.321377,174.797415 Z M345.069022,167.422978 C343.883248,167.913293 343.089465,168.581041 342.655734,169.449953 C341.623126,171.516723 342.749013,174.5926 343.742058,177.306308 C344.033874,178.103298 344.30972,178.856477 344.534026,179.581909 C344.990987,181.057965 345.554656,182.596086 346.151717,184.224384 C347.273248,187.284197 348.413653,190.396582 348.924331,193.299041 C349.273131,193.150815 349.622656,192.981414 349.971093,192.792298 C349.945686,189.784328 348.663729,186.582495 347.42206,183.481062 C346.553508,181.311702 345.65592,179.068959 345.204404,176.917488 C344.651624,174.285925 344.396466,170.731417 345.069022,167.422978 Z M343.102531,193.661575 C343.193633,193.661575 343.285461,193.678734 343.372933,193.713783 C344.540922,194.185478 345.996372,194.197891 347.532761,193.78315 C347.067816,190.946406 345.918337,187.80956 344.789184,184.729667 C344.185952,183.083115 343.61575,181.527835 343.147901,180.016366 C342.934483,179.325982 342.664807,178.589962 342.379525,177.810862 C341.284852,174.81859 340.043183,171.426912 341.358532,168.794253 C342.068472,167.372961 343.46476,166.339028 345.508198,165.721297 C345.789851,164.837416 346.150991,163.988219 346.605774,163.198531 C345.703467,162.124803 345.274092,160.322358 344.825842,158.439593 C344.270158,156.106308 343.640794,153.461966 342.094242,152.522592 C340.893587,151.793509 340.051168,151.536121 339.435959,151.3481 C338.670487,151.113713 338.166342,150.89831 337.799758,150.422234 C334.538243,152.238552 333.397838,155.948954 331.977595,160.570619 L331.687231,161.512184 C329.64452,168.098028 331.900286,171.60325 335.022788,176.454555 C335.96502,177.918563 336.939554,179.432953 337.906466,181.190127 C338.080322,181.50666 338.255992,181.823192 338.431662,182.140089 C340.470381,185.816538 342.6884,189.817551 342.554469,193.875882 C342.607461,193.843389 342.658637,193.810896 342.707999,193.778769 C342.827048,193.701005 342.964245,193.661575 343.102531,193.661575 Z M354.279007,158.355257 C357.308593,158.355257 360.443436,160.613334 362.371454,162.769186 C365.029011,165.739917 366.100454,169.015497 365.238073,171.530597 C364.283138,174.316593 361.862954,176.43411 359.522619,178.48153 C356.297763,181.30294 353.251481,183.967726 353.284873,188.326891 C353.296851,189.95957 354.58643,193.334455 356.342407,194.650602 C356.820056,195.009119 357.287905,195.186553 357.758658,195.186553 L357.767732,195.186553 C358.161175,194.708651 358.680201,194.31691 359.258388,193.982488 C359.43914,193.672528 359.617351,193.337011 359.781043,193.028145 C360.541797,191.59444 361.398734,189.98038 362.817889,189.583894 C363.318404,187.746034 364.177518,185.914017 365.025744,184.104635 C365.732418,182.597181 366.463409,181.03825 367.01982,179.448287 C369.928179,171.140682 370.701273,164.267147 369.317325,159.018259 C368.691591,156.644449 367.986369,154.402071 367.304376,152.233806 C367.230334,151.998689 367.156654,151.764302 367.083337,151.530644 C365.774158,150.73475 364.299108,150.164116 362.71118,149.759962 C358.654431,151.873828 347.437667,152.806266 344.477042,149.170343 C343.976527,149.187502 343.483271,149.202105 342.995823,149.212328 C341.569409,149.242265 340.360043,149.432842 339.323443,149.766168 C339.47044,149.832249 339.645021,149.885552 339.858076,149.950903 C340.546602,150.161195 341.488833,150.448885 342.844833,151.272526 C344.911499,152.527703 345.615995,155.487846 346.237737,158.09933 C346.582908,159.549099 346.936789,161.034647 347.471785,161.917068 C348.747209,160.304834 350.538029,159.069372 352.998139,158.498737 C353.420618,158.400893 353.848905,158.355257 354.279007,158.355257 Z M188.838635,197.436963 C189.465095,197.480773 190.088652,197.575696 190.70495,197.720637 C191.102386,196.85501 191.438845,195.949954 191.712513,195.01204 C191.438482,194.696968 191.146303,194.400881 190.833436,194.125968 C190.689706,194.127429 190.537991,194.13108 190.381194,194.137286 C190.203709,194.144223 190.009165,194.148239 189.80954,194.150429 C189.27527,195.091629 188.97801,196.208802 188.838635,197.436963 Z M126.772589,193.928455 C130.907374,194.96969 134.940531,196.54505 137.355271,198.922511 C137.762506,194.186208 138.84992,189.049403 140.634207,183.395996 C142.099457,178.753522 144.492783,174.333022 147.465385,170.561285 C146.04623,169.930046 144.835775,169.012211 144.040178,168.1046 C143.106294,167.038539 142.482374,166.155388 141.982222,165.434337 C141.963712,165.566499 141.939031,165.697201 141.908542,165.825713 C141.182632,168.886256 138.438329,169.439731 136.016692,169.92822 C134.978278,170.137781 133.904657,170.354279 132.97404,170.745655 C131.343646,171.430928 129.908884,172.331968 128.597528,173.514857 C129.376792,178.640709 130.418473,188.315209 127.995022,192.377191 C127.584157,193.065749 127.172203,193.568112 126.772589,193.928455 Z M192.111401,198.143045 C192.763631,198.382544 193.403158,198.680822 194.025626,199.036784 C194.078617,199.067086 194.130883,199.097753 194.183149,199.128421 C193.76575,198.193427 193.309516,197.287276 192.779601,196.454142 C192.579976,197.030618 192.357122,197.593221 192.111401,198.143045 Z M188.742815,198.895859 C188.726845,199.567988 188.74463,200.263118 188.785281,200.972487 C189.235708,200.366073 189.646936,199.730453 190.019328,199.067086 C189.596485,198.983481 189.170376,198.926161 188.742815,198.895859 Z M358.640276,196.529716 C358.440287,196.971109 358.410162,197.493551 358.580388,198.14268 C359.362556,201.123999 364.94045,201.380656 367.447744,201.336481 C367.449195,201.192635 367.443025,201.054267 367.429596,200.921009 C366.68953,200.345628 365.918614,199.663277 365.128461,198.854969 C363.604775,197.295308 362.813896,195.717757 362.518451,194.132905 C362.478526,194.148239 362.438963,194.163573 362.399038,194.178906 C361.595456,194.488137 360.885516,194.771446 360.297891,195.071915 C359.85182,195.772521 359.360016,196.320885 358.7194,196.507445 C358.693267,196.515112 358.666771,196.522414 358.640276,196.529716 Z M273.747259,191.391085 C273.886996,192.091691 274.118925,192.799599 274.610729,193.572128 C275.755852,195.370193 278.855489,196.40303 281.589992,197.314293 C282.909334,197.75386 284.154996,198.168966 285.127353,198.649424 L285.793012,198.977274 C287.968565,200.048446 290.344832,201.218192 292.538895,202.600784 C291.765075,200.889246 290.895798,199.218963 289.914004,197.644698 C288.266551,195.003278 286.448509,192.978858 284.690355,191.020885 C281.199816,187.133415 278.156074,183.743561 277.81163,177.12997 C277.790578,177.159907 277.770253,177.18875 277.75029,177.216861 C275.411771,180.50376 271.266098,182.171487 268.612896,181.886352 C268.489128,181.872844 268.368627,181.855685 268.251393,181.834145 C268.804173,182.410621 269.338443,182.982715 269.842588,183.523413 C270.351088,184.068856 270.829826,184.581806 271.266824,185.033056 C272.193448,185.989955 272.716829,186.86909 273.032237,187.701859 C273.518234,188.436783 273.963943,189.237789 274.364645,190.111447 C274.483695,190.371756 274.440866,190.678066 274.254307,190.894564 C274.096422,191.078204 273.927284,191.243224 273.747259,191.391085 Z M184.907468,199.34784 C185.531025,199.649038 186.164382,200.097733 186.804998,200.693923 C186.950906,200.829372 187.035111,201.019218 187.038015,201.218922 C187.044548,201.666156 187.200256,202.109374 187.365037,202.578514 C187.371207,202.597134 187.377741,202.615753 187.384274,202.634373 C187.406051,202.611372 187.427828,202.588371 187.449606,202.565371 C187.334912,201.31348 187.264136,200.079113 187.289543,198.895859 C186.490315,198.952813 185.692903,199.102865 184.907468,199.34784 Z M247.129585,175.530514 C244.579825,178.546881 240.891476,179.700563 237.297131,180.824673 C235.764372,181.304035 234.17971,181.799461 232.728979,182.433621 C227.92672,184.530694 224.823817,188.980401 222.963309,196.436983 C222.354633,198.87724 221.923806,201.144809 221.669011,203.263421 C221.739062,203.167038 221.808749,203.070654 221.878073,202.974636 C222.830468,201.662505 223.730233,200.422662 224.372664,198.815539 C224.953029,197.36431 225.409263,195.85211 225.850617,194.390658 C227.491174,188.955575 229.040992,183.822056 236.353811,182.974683 C240.879498,182.452606 245.615336,183.776784 250.19474,185.058978 C252.014234,185.568642 253.732101,186.049465 255.385361,186.39922 C256.739546,186.685815 258.499516,187.388612 260.537145,188.202031 C264.613857,189.829964 269.558757,191.804366 272.16296,190.663462 C272.150619,190.568539 272.139005,190.475076 272.12739,190.382344 C272.038829,189.681737 271.956075,189.026767 271.722332,188.357924 C267.893519,182.706343 261.416223,181.344195 254.603556,179.91195 L254.117196,179.809725 C249.918169,178.924749 247.956396,177.404152 247.129585,175.530514 Z M338.039308,202.19225 C338.00882,202.453654 338.018256,202.701549 338.077781,202.93119 C338.208445,203.437934 338.585918,203.864358 339.229075,204.229813 C343.088376,203.591272 345.565907,202.255775 346.797414,200.150306 C347.615515,198.752379 347.84708,197.079175 347.70952,195.240951 C346.084207,195.644009 344.516241,195.639263 343.186011,195.198966 C342.922506,195.358145 342.638675,195.518054 342.36174,195.674312 C342.350851,195.680518 342.339963,195.68636 342.329437,195.692566 C342.005318,197.172273 341.320059,198.654535 340.153158,200.12621 C339.701279,200.695384 338.959036,201.394895 338.039308,202.19225 Z M51.0049893,189.087737 C51.1033501,189.980746 51.0743137,190.948962 50.886303,192.008086 C50.4079282,194.70646 48.5862566,196.337314 46.8244726,197.914864 C46.0412156,198.615836 45.2314628,199.340903 44.5440258,200.156147 C42.9408532,202.056436 42.1285597,204.477343 42.4878853,204.933339 C42.5735427,205.041406 43.1981884,205.157869 44.8848407,204.287862 C45.2688471,204.089618 45.7330667,203.421505 46.1824051,202.774932 C46.7780144,201.917703 47.4534738,200.9462 48.3510617,200.41171 C50.3302558,199.232471 52.5983621,199.232106 54.5699342,199.323744 C59.7355109,199.564337 65.4034176,201.117062 68.3223024,202.021753 C68.9803399,202.225838 69.6557993,202.421161 70.3399697,202.619039 C71.1783959,202.861458 72.0233554,203.105703 72.8614187,203.371488 C73.0628587,202.573403 73.3158384,201.749031 73.6239873,200.896913 C75.4968355,195.718488 76.6720841,194.717413 80.8856297,192.684231 C81.7327669,192.275696 82.3421685,192.080739 82.8317949,191.924481 C83.7627747,191.626568 84.0763679,191.526533 84.9685115,190.062525 C85.3216668,189.482764 85.1939066,189.160755 85.0004515,188.673726 C84.6560071,187.807004 84.4502116,186.878217 85.95829,185.870936 C86.9099582,184.538361 86.7890942,183.542397 86.6235866,182.176964 C86.5324849,181.428166 86.4297686,180.578603 86.5230481,179.607101 C86.8544261,176.156277 88.1371094,175.461147 91.2363828,173.781372 C91.396446,173.694846 91.5623165,173.605034 91.7336313,173.511571 C91.2828411,173.062876 90.887583,172.614182 90.5024876,172.17717 C89.7751257,171.351703 89.0880517,170.571507 88.1661458,169.981888 C88.018786,169.887695 87.9098995,169.74312 87.8601746,169.574814 C87.2446028,167.501107 87.5200857,165.523419 87.8285975,164.032395 C87.881226,163.779023 88.0623406,163.573842 88.3033428,163.490602 C88.2812025,163.360995 88.285195,163.223722 88.3156833,163.079877 C88.3490751,162.922888 88.4325548,162.781234 88.5541447,162.676818 C90.0426236,161.397181 90.5162799,158.737141 89.7606075,155.900032 C89.521783,155.002643 89.1842348,154.19178 88.7769992,153.502491 C88.6804531,153.593764 88.5813664,153.686861 88.479376,153.782515 C87.5926767,154.613458 86.9658533,154.758763 86.5081669,154.864639 C86.0896797,154.961388 85.8588403,155.014691 85.262868,156.161801 C84.9264087,156.8102 84.9224162,157.550601 84.9176977,158.408195 C84.9140682,159.127056 84.9097127,159.94157 84.7082727,160.834578 C83.8458914,164.653411 82.4202038,169.367443 80.5252153,170.137416 C77.7761935,171.254224 76.455037,169.305013 75.4899394,167.88153 C74.7513258,166.793564 74.2616994,166.132753 73.5368781,166.224755 C72.413895,166.370061 71.6821776,166.808168 71.3003488,167.563903 C70.8753284,168.405433 70.8455661,169.625196 71.2081582,171.213699 C71.3094227,171.222827 71.412502,171.23451 71.517033,171.248383 C71.7235545,171.27613 71.9082986,171.391498 72.0244442,171.566011 C74.5215752,175.320953 75.8412799,178.404132 76.05869,180.991154 C76.0779266,181.220065 75.9893656,181.444595 75.8191397,181.597567 C75.6492767,181.750539 75.4184372,181.81443 75.1934051,181.768794 C75.0779854,181.75273 74.6148547,181.767333 74.3920003,181.775 C74.2206855,181.780842 74.0693332,181.785223 73.9684317,181.784858 C73.5720847,181.782302 73.2512324,181.461389 73.246514,181.062711 C73.2432474,180.724639 73.3902442,180.480759 73.5285301,180.319755 C73.4896939,180.248562 73.4479541,180.171894 73.4029477,180.089383 C72.2062847,177.901404 70.8539141,175.222744 70.1000564,172.705454 C67.9633398,173.092449 67.2396073,175.590389 66.3975515,179.383301 C65.8382378,181.902051 65.2600503,184.506233 63.7646754,185.957827 C61.1677317,188.478038 57.5893575,189.974174 54.4218485,189.903712 C53.1725571,189.869393 52.0212636,189.591925 51.0049893,189.087737 Z M199.476848,207.033698 C200.093509,207.846386 200.810345,208.520341 201.685793,208.993862 C203.304936,207.243624 202.055281,203.226182 200.844826,199.333966 C199.840529,196.106212 198.802478,192.768202 199.230039,190.269166 C199.265609,190.062525 199.297549,189.85625 199.329126,189.65107 C199.586461,187.989184 199.877914,186.105689 202.001201,185.234221 C203.896553,184.456215 204.760386,185.378796 205.33204,185.988495 C205.733105,186.416745 205.963582,186.640544 206.413646,186.652957 C208.404092,186.705165 209.147787,186.314155 209.691856,185.306143 C209.156861,184.711413 208.439298,184.149541 207.494526,183.623082 C206.81326,183.243754 206.115297,182.964096 205.439838,182.693565 C204.53862,182.332492 203.625788,181.966307 202.903144,181.377418 C201.903929,183.191912 200.580595,184.680745 198.978148,185.272555 C197.737931,185.730742 195.861816,185.80449 193.647427,183.872438 C194.280783,187.70551 194.151934,191.365529 193.313145,194.670682 C194.751536,196.554907 195.677798,198.843286 196.566675,201.091506 C198.062775,202.776027 198.899387,204.857036 199.476848,207.033698 Z M45.6227284,205.546324 C48.8454066,206.296218 52.0317893,207.741606 55.1709878,209.165454 L55.3448433,209.244313 C60.308617,211.495453 67.4726245,213.581938 73.4544873,214.052173 C72.3180749,211.286257 71.9191873,208.291065 72.5503662,204.804828 C71.6850812,204.52736 70.8078188,204.273623 69.9389043,204.022077 C69.2456601,203.822008 68.5614898,203.62413 67.8947413,203.417124 C62.9687148,201.891051 58.2125514,200.955327 54.5027875,200.78264 C52.7406405,200.70013 50.7255139,200.694289 49.0907642,201.667982 C48.4632149,202.041833 47.9086195,202.839918 47.3721719,203.611717 C46.8168506,204.410897 46.2912916,205.167362 45.6227284,205.546324 Z M75.0678226,214.139794 C76.0042467,214.165716 76.9011088,214.145636 77.7435275,214.072983 C79.9669904,213.879486 81.3549306,213.298994 81.6518279,212.437018 C81.9654211,211.526121 81.133891,210.049335 79.3702922,208.385258 C77.85314,206.953743 75.9574255,206.015099 73.9393953,205.278349 C73.3688299,208.633519 73.8381308,211.476103 75.0678226,214.139794 Z M333.557901,205.927112 C329.8877,209.013942 325.73513,212.842997 325.921689,215.293111 C330.154472,213.821802 332.707861,210.759798 333.51471,206.184865 C333.529591,206.099434 333.544109,206.013638 333.557901,205.927112 Z M138.721797,200.10613 C141.057776,202.08966 142.127041,204.689825 143.162552,207.207845 C144.547226,210.575428 145.855316,213.75572 150.138549,215.217538 C154.968755,216.865915 159.163064,215.728297 162.97627,214.252607 C163.726135,213.962361 164.498141,213.628304 165.315516,213.274533 C168.194838,212.029213 171.167078,210.74629 173.881256,211.029234 C174.132058,210.729861 174.385763,210.337755 174.643462,209.881394 C174.686653,208.953337 174.910233,207.914658 175.412926,206.693435 C176.382379,204.338244 177.821133,202.308713 179.58074,200.751242 C180.275799,199.954983 181.046715,199.354046 181.921437,199.070007 C182.626659,198.667313 183.364909,198.331431 184.128204,198.067837 C185.196018,197.699097 186.287061,197.485885 187.378467,197.42601 C187.548693,195.775807 187.971898,194.265798 188.81105,192.999303 C188.957321,192.778789 189.208849,192.656119 189.47308,192.676199 C189.761993,192.700295 190.035661,192.688977 190.325662,192.678025 C190.593886,192.667437 190.871546,192.656849 191.157192,192.675469 C191.308907,192.685692 191.454089,192.743376 191.571687,192.840854 C191.764053,193.000398 191.948797,193.165419 192.127008,193.336646 C192.733506,190.375772 192.755283,187.132685 192.152052,183.745022 C192.034817,183.086036 191.895443,182.431796 191.735742,181.783032 C189.998276,179.487716 188.970025,176.835343 188.673853,173.983996 C185.622127,168.460197 181.044174,164.010489 175.837221,161.827256 C175.778422,162.308078 175.621263,162.821394 175.298595,163.396409 C175.167206,163.630431 174.931648,163.774642 174.651084,163.767705 C172.793842,163.728275 171.490471,163.041907 170.776901,161.727951 C170.555861,161.320512 170.404872,160.86488 170.313407,160.374201 C166.746285,159.980269 163.157748,160.633414 159.591351,162.327428 C158.624076,162.787075 157.67023,163.321931 156.734532,163.924328 C157.171893,165.794315 157.287312,167.735129 155.793026,169.351744 C154.546638,170.700384 152.877408,171.415594 150.986412,171.373974 C150.277924,171.364481 149.579598,171.25678 148.908131,171.075696 C145.904678,174.789383 143.482679,179.19674 142.017792,183.838119 C140.131514,189.814265 139.039745,195.190204 138.721797,200.10613 Z M215.848301,201.433594 C215.894759,201.443452 215.948476,201.455865 216.010904,201.471929 C216.206174,201.521581 216.372408,201.650092 216.46968,201.827891 C217.516079,203.738402 217.250759,207.280863 216.943699,211.38264 C216.802147,213.267961 216.653698,215.251856 216.650068,217.083874 C216.893248,216.697244 217.097229,216.321932 217.25584,215.964875 C217.877219,214.566949 218.099711,213.091258 218.335632,211.529041 C218.578086,209.919728 218.828888,208.255651 219.554072,206.688323 C219.690906,206.392966 219.836088,206.107831 219.988166,205.831459 C220.142785,202.884094 220.6629,199.6578 221.555406,196.081021 C223.507379,188.257889 226.972874,183.355106 232.150428,181.094109 C233.673388,180.428551 235.296523,179.921077 236.865941,179.430397 C240.72125,178.224508 244.396533,177.074842 246.660284,173.740117 C246.487154,172.257855 246.728882,170.636858 246.975692,168.983369 C247.211612,167.400708 247.453704,165.777886 247.417045,164.089714 C245.750355,159.936459 242.079065,155.833951 238.168224,152.928936 C235.035921,150.602223 231.334505,148.716902 227.747057,147.877197 C225.496373,150.536872 222.522682,153.238897 219.900331,152.96508 C219.064446,152.875998 218.341076,152.501782 217.734578,151.846447 C216.325224,152.537561 214.688296,152.753693 213.098916,152.963255 C211.318258,153.197642 209.476624,153.440791 207.999397,154.348768 C203.17645,157.311832 203.845739,162.195266 204.553864,167.365294 C204.666743,168.18857 204.781074,169.022799 204.873991,169.857758 C205.727298,168.608423 206.590405,167.585078 207.238643,167.218893 C208.734381,166.374077 210.28674,166.233152 211.725857,166.811454 C213.505063,167.526663 214.99209,169.339696 215.703844,171.662394 C216.8849,175.517371 215.699852,177.195321 214.327882,179.137596 C213.83027,179.842583 213.315237,180.571666 212.842669,181.490961 C212.335984,182.476337 212.011502,183.374456 211.725131,184.167065 C211.608622,184.488343 211.496106,184.799764 211.37742,185.097677 C213.224861,187.829275 212.449589,191.033663 211.743279,193.951821 C211.005754,197.001411 210.306702,199.890362 212.275008,202.262712 C212.914172,202.020658 213.472397,201.981593 213.939883,201.9491 C214.064376,201.939973 214.181611,201.931941 214.289408,201.920623 C214.339133,201.767651 214.400836,201.618694 214.474516,201.475214 C214.568884,201.291575 214.736569,201.156492 214.935106,201.103919 C215.134731,201.051711 215.345971,201.086394 215.518011,201.199937 C215.661379,201.29486 215.767362,201.370069 215.848301,201.433594 Z M216.7448,219.410587 C216.918292,221.255018 217.358194,222.770868 218.277559,223.608748 C218.989314,224.257147 219.983448,224.478391 221.312589,224.284163 C223.284887,222.128311 222.136497,218.294144 221.120586,214.90137 C220.641485,213.301914 220.189243,211.79154 220.068379,210.505331 C220.056402,210.377185 220.045513,210.248673 220.034625,210.119797 C219.936264,210.651002 219.854236,211.193889 219.770756,211.748095 C219.531206,213.337693 219.283307,214.982055 218.581352,216.561066 C218.192264,217.436915 217.55673,218.416449 216.7448,219.410587 Z M200.073184,209.687166 C200.079717,209.719294 200.085887,209.751057 200.092057,209.783185 C200.384236,211.27932 200.212921,213.42495 200.031444,215.6969 C199.844159,218.039312 199.632193,220.693876 200.117464,221.823097 C201.049533,223.990266 202.565596,225.095026 204.624277,225.107804 C208.147845,225.115836 212.572994,222.030467 215.248699,218.948019 C215.096258,216.608893 215.297335,213.918915 215.495508,211.272749 C215.735422,208.077853 215.981505,204.784383 215.414569,203.045463 C215.334719,203.129799 215.234181,203.195515 215.11985,203.233849 C214.759435,203.355424 214.39394,203.38098 214.040784,203.405806 C213.539543,203.440855 213.021243,203.476999 212.431804,203.79134 C212.147248,203.942487 211.798448,203.887724 211.573779,203.656988 C208.631302,200.638795 209.535423,196.902472 210.332835,193.606447 C210.959296,191.016869 211.530587,188.657297 210.569845,186.614258 C209.831957,187.579554 208.666871,188.178665 206.373721,188.112584 C205.299737,188.083012 204.707757,187.451407 204.275478,186.9903 C203.758993,186.439015 203.523435,186.187103 202.549626,186.586511 C201.249521,187.120271 201.033563,188.132299 200.763887,189.8756 C200.730858,190.088447 200.697829,190.302754 200.661171,190.517427 C200.292771,192.668532 201.277832,195.835316 202.230226,198.897685 C203.663172,203.50438 205.145118,208.268064 202.237485,210.449472 C202.027334,210.606826 201.750036,210.638224 201.510123,210.531618 C200.987105,210.299421 200.510545,210.014651 200.073184,209.687166 Z M295.84469,206.988427 C297.019213,210.343231 297.90192,213.656416 298.612586,216.565082 C298.817292,217.401866 298.961386,218.299621 299.114553,219.249583 C299.514529,221.73584 299.928298,224.306799 301.445087,225.873031 C302.703453,227.172749 304.006824,227.733161 305.023461,227.406771 C305.963152,227.106303 306.620464,226.05156 306.873081,224.437136 C307.561606,220.042922 300.229551,211.134015 295.84469,206.988427 Z M176.791793,227.647 C176.830266,227.647365 176.868376,227.647365 176.906486,227.647365 C184.368117,227.647365 186.483782,223.405759 188.095666,214.655665 C188.563878,212.113914 188.177694,208.890541 187.80385,205.773775 C187.750133,205.32435 187.696052,204.8731 187.64415,204.422215 C187.593336,204.469676 187.541796,204.516773 187.490257,204.563869 C187.287728,204.748239 187.000267,204.802638 186.744384,204.704429 C186.489227,204.606585 186.31029,204.372562 186.281616,204.099476 C186.247862,203.783674 186.125546,203.434648 185.995971,203.064813 C185.839537,202.619769 185.665682,202.124708 185.606883,201.573788 C184.497692,200.600461 183.52098,200.212736 182.625207,200.39236 C182.582015,200.400757 182.538823,200.410979 182.495995,200.422297 C181.837231,200.810022 181.209682,201.263463 180.620969,201.775683 C179.394181,203.21523 178.343426,205.502148 177.439667,207.469979 C176.969641,208.492594 176.531191,209.447303 176.090926,210.267293 C176.101815,211.473548 176.482555,212.484845 176.916286,213.637797 C177.2865,214.621347 177.706077,215.735599 177.927479,217.095191 C178.241072,219.022132 177.725676,220.786609 177.226976,222.49267 C176.704683,224.281608 176.208887,225.978177 176.791793,227.647 Z M86.2784164,228.994544 C83.2314084,227.719288 81.9766727,226.051195 80.5237635,224.120238 C79.9542869,223.363408 79.3655738,222.580657 78.6106272,221.73584 C76.7976666,219.705944 75.2663591,217.693573 74.1607979,215.569119 C67.6555539,215.224474 59.9224328,212.922222 54.7481451,210.575793 C47.6349513,207.3495 41.0807084,204.375848 34.4215715,208.475435 C28.4582194,212.146042 20.7966005,222.333492 20.3566989,228.989798 C20.3312921,229.373507 20.0144323,229.67142 19.6322406,229.67142 L0.725910171,229.67142 C0.324844802,229.67142 0,229.344665 0,228.941241 C0,228.538183 0.324844802,228.211063 0.725910171,228.211063 L18.9734771,228.211063 C19.879413,220.985217 27.5671647,210.982503 33.6637212,207.229751 C36.1245567,205.714995 38.5741406,205.080836 41.0070285,205.025707 C40.728642,203.36163 42.1514259,200.735179 43.4370128,199.211296 C44.1901446,198.317923 45.0387336,197.558537 45.8590121,196.823978 C47.5805081,195.282936 49.0668092,193.951821 49.4569859,191.751428 C49.7179506,190.280484 49.6301155,189.024212 49.2896636,187.902293 C48.7107502,187.307197 48.6504997,187.028999 48.7332534,186.776723 C47.7627115,184.734048 46.2107156,183.275882 44.534589,181.700887 C42.934683,180.19745 41.2799708,178.64217 40.0647971,176.692228 C35.8813768,169.978238 34.0480907,158.1603 35.8908136,149.787343 C37.294361,143.409965 41.8479955,137.593729 48.3833647,133.830024 C55.9034312,129.498606 66.224059,130.187894 73.116939,132.79098 C78.5612653,134.847163 86.4014581,141.22016 89.5660635,146.161642 C91.6410777,149.401444 91.7655713,150.416027 89.8400946,152.451765 C90.3994084,153.319217 90.8527393,154.357165 91.1630659,155.52253 C91.9873369,158.617391 91.5071473,161.600535 89.95007,163.342741 C90.1036,163.570922 90.1529619,163.8305 90.0974298,164.119286 C89.4107187,164.720588 89.2862252,164.7487 89.1620945,164.777907 C88.9327069,166.015194 88.8005912,167.43028 89.182057,168.907431 C90.1551396,169.58102 90.8832275,170.407582 91.5891752,171.208588 C92.0573872,171.740158 92.5412064,172.289252 93.1074163,172.811695 C93.3241005,173.011399 93.3948767,173.316978 93.304138,173.584954 C93.2870791,174.223495 93.1571411,174.394357 92.9774784,174.493661 C92.6021828,174.700667 92.2515682,174.890148 91.9249086,175.067216 C88.8622936,176.727277 88.2249445,177.072286 87.9679723,179.74766 C87.8899369,180.559983 87.9788609,181.292352 88.0648813,182.00026 C88.2434552,183.4723 88.4281993,184.994722 87.0453405,186.84901 C86.0994795,187.505076 86.1325084,187.588681 86.3488296,188.131934 C86.5843875,188.725204 86.9400835,189.621498 86.2061883,190.825562 C85.0813905,192.671453 84.4600114,192.935778 83.2713335,193.315836 C82.8248987,193.45895 82.2692145,193.636384 81.513179,194.001108 C77.553702,195.911985 76.7109203,196.632671 74.9883355,201.39599 C74.6834532,202.239346 74.4355549,203.050574 74.2417369,203.834421 C76.4808068,204.633966 78.612805,205.667899 80.3633373,207.319928 C82.660843,209.487462 83.5558903,211.370227 83.0234352,212.915285 C82.5131203,214.395722 80.7789209,215.274857 77.8683841,215.527498 C77.2132501,215.584452 76.5327094,215.612564 75.8332949,215.613659 C76.8332362,217.348198 78.1464077,219.030894 79.6907816,220.759592 C80.4863791,221.650775 81.1211875,222.494496 81.6812272,223.238913 C83.0615454,225.073851 84.1518625,226.522525 86.8359154,227.645905 C89.9958023,228.968623 92.6439227,228.560453 95.7105302,228.088393 C96.3217465,227.994565 96.9456663,227.898546 97.5891857,227.813116 C99.8050265,227.520679 102.129391,227.083302 104.589863,226.620369 C109.945266,225.612723 115.482146,224.570758 120.991078,224.787256 C124.223556,224.914307 128.865388,225.196156 132.533775,226.166928 C135.604012,221.202445 137.76904,212.338809 137.303005,206.460143 C137.170164,204.782558 137.137861,203.054225 137.207548,201.268574 C136.895407,200.954232 136.755306,200.744306 136.765832,200.417916 C133.458222,196.606385 125.161069,194.86929 120.361351,194.161382 C118.607552,193.902899 116.458132,193.899613 114.182403,193.896327 C108.24591,193.888295 101.517086,193.878438 98.0668346,189.401714 C95.9322957,186.632147 96.3565902,181.817351 96.7663665,177.160638 C97.0345903,174.117984 97.3115251,170.97128 96.8378687,168.620471 C96.5344382,167.116303 96.3609457,165.493847 96.1928975,163.924693 C95.9406437,161.567677 95.7025452,159.341728 95.0680997,157.498758 C94.5044304,155.861333 93.7378693,154.243257 92.996352,152.678485 C92.1633701,150.920215 91.3020777,149.102801 90.7039277,147.216385 C88.2238556,139.395444 91.2164203,131.444896 98.7085392,125.949208 C102.137013,123.434474 111.279126,120.207815 115.929669,122.481226 C117.476947,123.237691 118.445311,124.546535 118.770519,126.301519 C120.002388,127.917769 120.259723,129.896918 120.558072,132.190408 C120.603079,132.537973 120.649537,132.895761 120.700714,133.264866 C120.836096,134.236003 121.224821,135.494831 121.601205,136.712038 C122.133297,138.433799 122.63599,140.060271 122.572473,141.220525 C122.519845,142.182535 121.562369,142.497972 120.929012,142.706803 C120.325781,143.417997 120.615419,144.972182 120.697084,145.305873 C120.500363,146.153976 120.503992,146.423411 120.509073,146.796168 C120.517058,147.356945 120.526858,148.054995 119.947219,148.805984 C119.170495,149.812535 118.070741,149.634006 117.344105,149.515717 C116.180471,149.847948 115.869056,150.187846 115.626965,150.511315 C116.079933,150.996154 116.547782,151.479532 117.021075,151.968386 C119.689521,154.725175 122.448705,157.576157 123.108558,161.527517 C123.18986,162.013816 123.243214,162.470178 123.268621,162.896967 C125.773011,165.410971 127.701391,168.321098 128.225862,171.260431 C129.576417,170.828165 130.928425,170.022413 132.414363,169.398111 C133.478185,168.950876 134.623671,168.719775 135.73141,168.49634 C138.369367,167.964405 140.01065,167.533965 140.496647,165.487275 C140.629852,164.924307 140.591378,164.270798 140.438211,163.551937 C139.621199,162.906094 138.467728,162.599419 135.916517,162.37562 C135.393136,162.329618 134.886087,162.292014 134.393557,162.25514 C130.764369,161.983514 127.630252,161.749127 124.856912,158.639662 C123.268258,153.523667 125.051456,147.179146 130.153153,138.964274 C131.546538,136.7208 133.400512,135.291841 135.035988,134.030823 C135.922324,133.348106 136.734981,132.721978 137.395196,132.039261 C137.667775,130.378836 138.30585,129.66034 138.956266,129.256551 C139.01325,128.982734 139.050271,128.693219 139.065878,128.386909 C136.243539,125.231808 135.085713,120.729893 136.184015,117.087398 C137.163993,113.836643 139.784892,111.567979 143.562892,110.699432 C147.721631,109.742168 152.501387,111.412086 154.190942,113.508063 C155.005414,114.5179 154.881283,115.3587 154.699443,115.817252 C154.945163,115.997241 155.164025,116.197675 155.352762,116.417824 C156.436183,117.680668 156.6398,119.208566 156.836522,120.686082 C157.045584,122.256331 157.243395,123.738958 158.393599,125.086137 C158.531885,125.87473 158.413562,126.05983 158.237892,126.174468 C156.223854,127.488789 156.094279,128.96521 155.944015,130.675653 C155.851462,131.725285 155.756368,132.807044 155.214476,133.857771 C161.397053,133.85631 166.26791,135.034453 168.637281,137.012507 C170.43899,138.516674 170.892684,140.516268 169.951541,142.704248 C171.385214,144.533345 171.378681,146.309139 171.371784,148.165982 C171.368518,149.004227 171.365251,149.870949 171.484663,150.81726 C171.625853,151.965101 171.670859,152.333841 171.727843,152.645627 C172.508197,150.701162 173.418851,148.984877 174.023171,147.994025 C176.90939,143.260644 180.012293,141.722888 183.89809,139.925188 C183.716613,139.162152 183.88575,138.33705 184.403687,137.464852 C185.638823,137.002284 186.325897,137.02419 186.978853,137.141748 C187.133109,135.922715 187.078666,134.718651 187.022408,133.467855 C186.90227,130.80745 186.778139,128.056503 188.821576,125.167187 C191.865317,120.863515 196.073782,119.18593 200.670971,120.445488 C203.87659,121.323163 208.989901,124.476438 209.783684,128.455911 C210.173498,130.411329 209.24034,131.72857 208.558348,132.690215 C208.154742,133.25939 207.805942,133.75153 207.823727,134.192192 C207.865466,135.247665 208.418973,135.79749 209.25631,136.629528 C209.685323,137.055222 210.17132,137.538235 210.650421,138.160712 C210.803225,138.359321 210.843513,138.622915 210.757855,138.858398 C209.962984,139.37865 209.632332,139.567401 209.282443,139.76747 C208.957598,139.9533 208.606621,140.154099 208.220436,140.303056 C208.716233,142.010578 209.240703,143.933138 208.288672,145.80422 C205.150199,146.738118 202.665772,145.788521 201.146442,143.642527 C200.378429,142.558212 199.946875,141.296464 199.855048,139.998571 C199.505522,140.459679 199.051102,140.895596 198.463115,141.295003 C195.374367,143.392806 192.832956,141.798096 190.590619,140.391772 C189.7482,139.864219 188.928648,139.350173 188.082962,138.99129 C187.912011,139.545131 187.779169,139.699928 187.603499,139.787185 C187.056888,140.058811 186.529878,140.310723 186.017022,140.550951 C187.873174,141.993784 192.702655,142.518417 194.928658,142.760471 C195.443329,142.815965 195.877423,142.863426 196.195009,142.908332 C199.531292,143.362138 201.300698,143.601637 202.127146,144.908656 C202.754696,145.900604 202.720215,147.294879 202.011727,149.56902 C200.970409,152.910317 198.675444,155.54334 196.455973,158.090202 C194.515978,160.315786 192.509926,162.617309 191.434127,165.332112 C190.310418,168.16703 189.873057,170.963613 190.101356,173.576557 C191.378232,175.940875 192.387973,178.484816 193.067425,181.126237 C193.305523,181.428896 193.557414,181.723523 193.823097,182.011213 C195.473817,183.796499 197.039968,184.433215 198.477633,183.901645 C199.852144,183.393806 201.026667,181.921036 201.904655,180.140861 C201.45568,179.228503 201.313764,177.96639 201.685067,176.133277 C201.865093,175.243919 202.63601,173.574731 203.592033,171.909194 C203.515087,170.479505 203.312921,169.005275 203.115473,167.564633 C202.374682,162.156566 201.608484,156.56413 207.242635,153.102354 C208.982642,152.033007 210.979258,151.769778 212.910179,151.514946 C214.361999,151.323639 215.74631,151.141094 216.899056,150.627414 C216.676564,150.198434 216.479479,149.71104 216.307439,149.165962 C216.217063,148.879001 216.310342,148.566485 216.542271,148.377004 C217.246404,147.804179 217.993002,147.340881 218.77263,146.977982 C218.577723,146.693943 218.346157,146.389093 218.097896,146.061973 C217.458732,145.219347 216.733911,144.264274 216.153183,143.057289 C212.849566,136.190691 213.997593,125.021516 220.428794,120.912802 C223.498668,118.951543 226.957993,118.38456 230.435102,119.272822 C234.471526,120.304199 238.175483,123.261786 240.34305,127.185035 C241.336821,128.982004 241.659489,130.405122 241.679814,131.681474 C242.037688,132.416033 242.133508,133.525174 241.240638,135.106376 C241.037021,136.165865 240.873691,137.275006 240.95717,138.660154 C240.991288,139.227138 241.050087,139.816392 241.112152,140.439964 C241.368036,143.014208 241.658037,145.931271 240.094426,147.81002 C239.200105,148.884113 237.851727,149.477018 235.971619,149.622688 C236.931636,150.280944 238.021953,151.005281 239.030605,151.754079 C242.110642,154.042458 244.965646,156.935425 246.963351,160.043065 C245.998254,151.24697 247.246819,140.720718 253.513239,135.292206 C257.723881,131.644965 263.429535,130.926469 270.4705,133.157165 C273.687371,134.175763 275.613937,135.904826 277.845748,137.906975 C278.646427,138.625471 279.47469,139.368792 280.413655,140.121241 C281.431744,140.937581 282.289044,141.675061 282.99354,142.391001 C282.464714,140.887929 282.35365,139.182962 282.63131,136.6978 C283.084278,132.636547 285.096138,128.948051 288.150405,126.577527 C291.119741,124.273814 294.826238,123.369123 298.873913,123.962758 C308.533963,125.380764 307.190666,135.314842 306.469112,140.651716 C307.43675,142.260299 308.078091,144.57679 308.116928,146.474889 C308.158305,148.50515 307.534748,149.943237 306.361677,150.524824 C305.979122,153.064384 305.747194,155.186283 304.837265,156.848899 C304.134947,158.132188 303.059511,159.116103 301.673386,159.75866 C301.696978,160.097463 301.74017,160.344628 301.804776,160.472775 C306.335907,161.749127 310.741819,163.861168 315.068969,167.163765 C326.541254,175.920795 335.041299,191.272431 335.224228,202.654453 C335.749424,202.221092 336.248487,201.806715 336.706174,201.417165 C337.053522,200.031287 337.999746,198.624233 338.866845,197.335833 C339.309651,196.676847 339.728864,196.05437 339.993821,195.534483 C340.4555,195.101122 340.74042,194.924784 341.039495,194.749906 C341.607882,190.866087 339.431241,186.940648 337.16386,182.851648 C336.987101,182.532925 336.811068,182.214933 336.636123,181.897305 C335.693529,180.183941 334.73315,178.691457 333.803985,177.247894 C330.592558,172.25822 328.055865,168.316716 330.301468,161.077362 L330.590744,160.139083 C332.044742,155.407892 333.35501,151.142555 337.221207,149.071038 C337.086551,148.542754 336.969679,147.874276 336.848089,147.015586 C336.681856,145.837443 336.674597,144.762621 336.667338,143.722846 C336.655723,142.050008 336.644834,140.469902 336.011841,138.464832 C334.044987,132.232394 332.311151,124.475343 333.2973,118.491896 L244.08548,118.491896 C243.684415,118.491896 243.35957,118.164776 243.35957,117.761717 L243.35957,0.730178433 C243.35957,0.327119938 243.684415,0 244.08548,0 L407.456646,0 C407.857711,0 408.182556,0.327119938 408.182556,0.730178433 L408.182556,117.761717 C408.182556,118.164776 407.857711,118.491896 407.456646,118.491896 L367.351561,118.491896 C370.823952,123.43849 370.459182,129.941459 369.496988,135.920525 C369.183032,137.870466 368.600852,139.104833 367.922489,139.87006 C368.23826,140.489616 368.382716,141.244256 368.343517,142.095279 C367.442662,143.014573 366.909118,143.344614 366.380293,143.672464 C366.90077,145.995892 367.586393,148.272588 368.314843,150.603318 C370.194951,151.844986 371.753843,153.547397 372.832908,155.866809 C374.626995,159.723247 375.664321,164.533297 375.754334,169.411984 C375.836362,173.8982 373.922136,176.870757 372.07034,179.7462 C371.201425,181.096299 370.380058,182.371556 369.740168,183.808547 C369.152544,184.383198 368.755471,184.673078 368.335169,184.980119 C366.927266,186.00821 365.473268,187.069889 364.780024,188.576612 C364.804342,189.031514 364.814867,189.452461 364.821401,189.842012 C365.268198,190.069827 365.727337,190.409725 366.203534,190.863896 C366.455787,191.104855 366.502972,191.490755 366.316776,191.786112 C366.006086,192.276792 365.555296,192.665977 365.016308,192.998573 C365.125194,193.581986 365.301953,194.200812 365.591228,194.925514 C365.937488,195.792966 366.481194,196.461444 367.056841,197.169352 C367.753715,198.026582 368.466559,198.903161 368.760915,200.095177 C372.105546,202.528497 374.599411,202.56172 374.701401,202.56172 C374.702369,202.56172 387.559932,202.561598 413.27409,202.561355 C413.674792,202.561355 414,202.888475 414,203.291533 C414,203.694957 413.674792,204.021712 413.27409,204.021712 L374.719912,204.021712 C374.595055,204.026458 372.186848,204.057125 368.862906,201.935227 C368.783055,202.501845 368.494143,202.763249 368.145706,202.777488 C365.215207,202.900158 358.280587,202.721629 357.176841,198.515436 C356.981934,197.772114 356.965601,197.132478 357.085376,196.576082 C356.534047,196.462174 355.992155,196.209533 355.474581,195.821443 C353.273622,194.171605 351.847571,190.287055 351.833053,188.337844 C351.794943,183.30655 355.239023,180.293468 358.569862,177.379691 C360.867368,175.369875 363.037113,173.471411 363.86574,171.054521 C364.543014,169.078658 363.556865,166.278058 361.292388,163.745799 C358.77965,160.936073 355.576935,159.399412 353.324435,159.921855 C351.300598,160.39136 349.800504,161.399371 348.708373,162.728296 C349.841518,162.391684 349.942057,162.360651 350.054573,162.369778 C350.693374,162.374524 351.466105,162.328888 352.288562,162.279601 C356.020103,162.057992 361.129059,161.752777 362.498488,165.67128 C362.607012,165.981606 362.495584,166.32698 362.225909,166.514271 C359.252944,168.57739 355.784908,167.960024 352.430477,167.362373 C350.359818,166.993998 348.390424,166.642782 346.667113,166.943981 C345.817072,170.219927 346.062793,173.939456 346.62501,176.615925 C347.050031,178.64217 347.884828,180.727559 348.768986,182.935619 C350.122446,186.31671 351.522363,189.813535 351.418195,193.244643 C350.421521,194.225638 349.774735,194.538154 349.129401,194.788605 C349.345722,197.027698 349.093468,199.105785 348.04852,200.891072 C346.557138,203.440855 343.666926,205.01731 339.213468,205.71098 C337.646953,205.068057 336.943184,204.293703 336.682945,203.338265 C336.310553,203.64786 335.922191,203.967678 335.523666,204.295894 C335.125504,205.219935 335.05001,205.839126 334.944027,206.440063 C334.016314,211.699903 330.871671,215.300413 325.849824,216.852772 C324.754789,216.351505 324.619044,216.181738 324.567504,215.978384 C323.667375,212.431542 329.040925,207.762781 333.763697,203.858882 C334.245338,192.831727 325.7707,177.165749 314.191344,168.327304 C313.279601,167.631444 312.364591,166.990712 311.448492,166.405474 C306.423016,169.687261 291.720795,167.807052 288.168916,163.570922 C288.061118,162.72647 288.207026,162.53991 288.409555,162.442066 C289.879886,161.731237 291.39595,161.205144 292.946857,160.862325 C292.449971,160.851737 291.979219,160.832753 291.54948,160.805736 C287.968565,160.583762 286.92761,160.403408 286.59478,157.52833 C285.389043,157.584554 284.804322,157.609745 284.254808,157.718177 C285.835478,162.637389 281.769655,170.678114 279.226429,174.91826 C279.230058,175.211061 279.231873,175.501307 279.231147,175.790093 C279.211911,182.740296 282.250208,186.123943 285.767968,190.042081 C287.567863,192.046785 289.428733,194.119032 291.143696,196.868884 C292.573013,199.160184 293.768224,201.638774 294.77978,204.151318 C299.279697,207.815354 309.21777,218.852001 308.307116,224.664586 C307.964487,226.853661 306.954745,228.321685 305.463363,228.798856 C303.905197,229.296108 302.061385,228.602438 300.405221,226.891995 C298.568305,224.995722 298.096827,222.066976 297.681243,219.482875 C297.533157,218.56285 297.39342,217.693573 297.202868,216.913742 C296.331776,213.348281 295.199719,209.167644 293.583843,205.074994 C291.023558,203.177991 287.923559,201.651918 285.154937,200.28904 C283.604393,199.523813 282.404101,199.123675 281.133395,198.700536 C278.169866,197.71297 274.810354,196.593972 273.387933,194.359991 C272.884152,193.568112 272.601047,192.8226 272.424287,192.122359 C269.212135,193.237706 264.187748,191.230811 260.001424,189.559433 C258.107887,188.803333 256.319244,188.089218 255.086286,187.828179 C253.388019,187.468932 251.64765,186.981903 249.805652,186.466032 C245.359816,185.221077 240.762989,183.932678 236.519682,184.425913 C230.153449,185.163028 228.802893,189.635736 227.240009,194.814892 C226.789582,196.307011 226.323547,197.849513 225.71959,199.360253 C225.009287,201.136412 224.013701,202.508782 223.051144,203.835881 C222.468601,204.638347 221.909288,205.409051 221.421839,206.249121 C221.360136,207.691589 221.391351,209.061403 221.513666,210.367692 C221.620738,211.509326 222.053381,212.952159 222.511067,214.480422 C223.671797,218.356575 224.98751,222.750058 222.1688,225.491513 C219.902872,226.019797 218.393705,225.684645 217.303025,224.691238 C216.31869,223.794213 215.760828,222.44886 215.469738,220.832975 C212.54432,223.828167 208.296657,226.567796 204.659484,226.568161 C201.965994,226.551732 199.949779,225.111455 198.785056,222.402858 C198.156055,220.939946 198.364028,218.33613 198.584342,215.580071 C198.749849,213.507095 198.921164,211.363291 198.667459,210.064668 C198.508847,209.253075 198.341162,208.450974 198.144077,207.671874 C196.942696,205.993924 196.120603,203.917296 195.315205,201.879003 C194.753714,201.284273 194.093136,200.755258 193.308064,200.306199 C192.709551,199.963745 192.092527,199.682261 191.463526,199.461747 C190.764475,200.76183 189.927863,201.97064 188.957684,203.07248 C189.043342,203.91109 189.144606,204.757732 189.245508,205.598897 C189.632055,208.824825 190.031668,212.160646 189.523168,214.921815 C188.064815,222.840966 186.063117,229.381904 176.280752,229.09896 C174.579581,226.375029 175.217293,224.192161 175.834317,222.08085 C176.307611,220.460584 176.755134,218.929765 176.494532,217.331404 C176.296722,216.115657 175.921789,215.119329 175.558834,214.155128 C175.302951,213.476062 175.051786,212.808679 174.876116,212.102596 C171.639282,212.128883 168.716042,213.393552 165.889348,214.616236 C165.058181,214.975483 164.273472,215.315016 163.497474,215.61512 C159.429473,217.18975 154.938993,218.39856 149.672152,216.600496 C144.765362,214.925831 143.268535,211.286257 141.82107,207.766067 C140.959415,205.67082 140.136596,203.670496 138.636139,202.040007 C138.601296,203.514968 138.639406,204.948308 138.750107,206.344044 C139.252074,212.675056 136.829349,222.325825 133.459674,227.418089 C129.065014,226.671117 124.246422,226.376855 120.934457,226.246153 C115.590669,226.038052 110.133276,227.062857 104.856998,228.0559 C102.3762,228.522484 100.033325,228.963512 97.7779223,229.261425 C97.1452916,229.34503 96.5315346,229.439588 95.930118,229.531956 C94.3897366,229.769264 92.8910951,230 91.348173,230 C89.7395561,230 88.0823031,229.749549 86.2784164,228.994544 Z"
                          id="Fill-1"></path>
                </g>
            </g>
        </g>
    </g>
</svg>
