<svg width="276px" height="193px" viewBox="0 0 276 193" version="1.1" xmlns="http://www.w3.org/2000/svg"
     xmlns:xlink="http://www.w3.org/1999/xlink">
    <!-- Generator: Sketch 50 (54983) - http://www.bohemiancoding.com/sketch -->
    <desc>Created with Sketch.</desc>
    <defs></defs>
    <g id="Page-1" stroke="none" stroke-width="1" fill="none" >
        <g id="Mobile-Portrait-320" transform="translate(0.000000, -647.000000)" fill="#65C8CE">
            <g id="Event_blok" transform="translate(-72.000000, 594.000000)">
                <g id="Page-1" transform="translate(0.000000, 53.000000)">
                    <path d="M291.564261,91.2090533 C291.701248,91.2090533 291.838234,91.2553132 291.950813,91.3475268 C292.466115,91.7712192 292.929856,92.2512814 293.377732,92.7157193 C294.227415,93.595578 295.029504,94.4264194 295.817558,94.4270322 L295.817863,94.4270322 C296.307232,94.4270322 296.841754,94.1203683 297.452245,93.4895783 C298.468203,92.4399976 299.019201,91.0659843 299.212019,90.4005759 C299.148255,90.2483162 299.145509,90.0709352 299.219036,89.9088721 C299.222697,89.9006005 299.226359,89.8920225 299.230935,89.8828318 C300.884842,86.2408541 299.885664,82.7986216 298.254333,81.1378577 C296.920163,79.779775 295.188152,79.4758684 293.376817,80.2809758 C289.654686,81.9359189 290.19409,84.8784824 290.818615,88.2854839 C291.000145,89.2780821 291.187166,90.2967207 291.257338,91.2920761 C291.352222,91.2366254 291.458089,91.2090533 291.564261,91.2090533 Z M295.029199,98.2047262 L298.39132,98.2047262 C298.053582,97.5779188 297.592892,97.174446 297.027556,97.0378105 C296.271536,96.8533833 295.452057,97.250729 295.121642,97.9574957 C295.08381,98.0383741 295.053301,98.1207842 295.029199,98.2047262 Z M300.847926,98.2047262 L306.025044,98.2047262 C305.697069,97.9210391 305.343772,97.6493001 304.963626,97.3907344 C302.228471,95.5286936 301.395262,95.6604273 301.164002,95.8028836 C300.74572,96.0605302 300.762195,97.2256077 300.847926,98.2047262 Z M307.793666,98.2047262 L341.889604,98.2047262 L341.889604,1.22542989 L205.783488,1.22542989 L205.783488,98.2047262 L280.41953,98.2047262 C280.767031,96.8552215 281.313147,95.6448031 282.105473,94.6362743 C283.811551,92.4635871 286.483553,91.4284052 290.050696,91.5521736 C289.99639,90.5706043 289.804486,89.5246999 289.618075,88.5072867 C288.990804,85.0855801 288.280243,81.2074008 292.882872,79.1603202 C295.156727,78.1490342 297.431498,78.5558769 299.122627,80.2769932 C301.384889,82.579576 301.927954,86.5352636 300.49951,90.0246753 C300.505002,90.8931987 299.602538,93.0260594 298.327556,94.3433966 C297.475127,95.2241743 296.654427,95.6524621 295.818473,95.6524621 L295.816643,95.6524621 C294.512372,95.651543 293.53577,94.6396442 292.501506,93.5683122 C292.222651,93.2797234 291.937694,92.9840885 291.644195,92.7083667 C291.434597,93.2763535 291.686603,94.1062759 291.88949,94.6191183 C292.292212,95.6359187 293.012841,96.7556553 293.88327,97.7886927 C293.927509,97.6416411 293.976629,97.5227744 294.016901,97.436688 C294.597798,96.1937957 295.985969,95.5265491 297.313122,95.8463863 C297.773507,95.9575941 298.880994,96.3809801 299.602538,97.9265536 C299.509485,96.4992341 299.649827,95.2977001 300.526053,94.7582046 C301.522791,94.1448769 303.102866,94.6433205 305.648254,96.3763848 C306.47292,96.9376317 307.183176,97.5497339 307.793666,98.2047262 Z M295.480736,99.4301561 C296.692869,100.503326 297.986767,101.281781 299.047879,101.412902 C299.039947,100.67121 298.966725,100.005802 298.833704,99.4301561 L295.480736,99.4301561 Z M121.7811,101.987016 C122.370539,101.987016 122.828483,102.525286 123.129304,102.878516 C123.349581,103.137694 123.651318,103.49215 123.843526,103.49215 L123.845357,103.49215 C123.903629,103.491537 124.126957,103.450485 124.534866,102.950203 C124.821348,102.598505 124.552867,101.638687 124.316115,100.791609 C124.087295,99.9727151 123.850238,99.1259431 123.945732,98.3909915 C123.984479,98.0913739 124.23496,97.8649757 124.535781,97.8576231 C125.873308,97.8248429 126.802925,97.6934155 127.449111,97.5307397 C127.174528,97.4973468 126.879198,97.483867 126.579902,97.4814162 C124.890299,97.4844797 123.135406,98.050322 122.498372,98.7975279 C121.975444,99.4105492 121.490651,100.746574 121.074505,102.235778 C121.126981,102.202998 121.181592,102.170524 121.238035,102.138969 C121.429633,102.031744 121.610858,101.987016 121.7811,101.987016 Z M300.126992,105.238387 C299.928072,105.543519 299.79139,105.916356 299.718778,106.345257 C299.919834,106.050541 300.049499,105.673415 300.126992,105.238387 Z M281.672241,98.2047262 L283.034785,98.2047262 C283.321267,98.2047262 283.569612,98.4050839 283.630936,98.6863201 L283.793245,99.4310751 C283.822534,99.564647 283.806059,99.704346 283.746871,99.8281144 C283.333166,100.690204 284.848561,102.564499 285.851095,103.804941 C286.345956,104.416737 286.813053,104.994527 287.095874,105.471525 C287.285946,105.791669 288.271701,106.432262 288.924294,106.856568 C288.932226,106.862082 288.940159,106.866984 288.948396,106.872498 C288.550861,105.551791 288.511809,103.993044 288.477333,102.607389 C288.441332,101.168735 288.407162,99.809733 288.016643,99.1204286 C287.909251,98.9307934 287.910166,98.6979617 288.019694,98.5092455 C288.128612,98.3208356 288.329668,98.2047262 288.546894,98.2047262 L292.644289,98.2047262 C291.808335,97.145342 291.139267,96.041536 290.755765,95.0713019 C290.373484,94.1056632 290.295381,93.3618272 290.3744,92.7938405 C287.030889,92.6026734 284.570622,93.4760986 283.063769,95.3951218 C282.436803,96.1934893 281.982825,97.1435039 281.672241,98.2047262 Z M122.783634,93.8850858 C122.172228,93.8850858 121.553805,93.94697 120.947891,94.0860563 C117.448173,94.8890192 116.130478,96.9878743 115.641109,98.6072799 C114.818885,101.330185 115.749112,104.735348 117.956458,107.080515 C118.064766,107.195705 118.124564,107.348271 118.123343,107.506045 C118.121818,107.686796 118.11358,107.861726 118.098936,108.031448 C118.240804,108.014599 118.385418,108.005408 118.531557,108.002957 C118.551999,107.900327 118.57305,107.797391 118.594101,107.695068 C118.636509,107.489808 118.684714,107.249011 118.738715,106.980642 C119.257373,104.394679 120.222991,99.5808839 121.571196,98.0003857 C122.595087,96.7997708 124.823484,96.2590498 126.577767,96.2559863 C127.468942,96.2602753 128.254861,96.3779165 128.928811,96.6150372 C128.938269,96.4122286 128.797011,96.1870558 128.66216,96.0197847 C127.829867,94.9895045 125.369905,93.8850858 122.783634,93.8850858 Z M289.423121,99.4301561 C289.640347,100.316755 289.66811,101.423624 289.697094,102.576447 C289.761468,105.141272 289.827979,107.792796 291.75708,108.479343 C293.111081,108.960631 296.476253,108.362621 298.435253,107.344595 C298.362336,105.304561 299.209579,104.266315 299.810611,103.790236 C299.925021,103.69986 300.044922,103.618063 300.1694,103.54515 C300.136145,103.542699 300.102585,103.540554 300.06933,103.538103 C298.775432,103.452017 297.4376,103.362561 295.986274,102.274072 C294.73692,101.336619 294.147481,100.418772 293.902796,99.6311266 C293.837201,99.5643406 293.772522,99.4978611 293.707842,99.4301561 L289.423121,99.4301561 Z M119.752233,108.124581 C120.516795,108.280823 121.27251,108.571863 121.919917,108.916209 C121.295697,108.221084 120.568661,107.283324 120.124446,106.285517 C120.054275,106.627412 119.991121,106.943267 119.934984,107.222665 C119.880677,107.493791 119.831862,107.736733 119.789149,107.94383 C119.776641,108.004489 119.764437,108.064841 119.752233,108.124581 Z M307.328095,110.022466 C307.393995,110.024304 307.459285,110.026448 307.523964,110.027674 C307.473014,109.800663 307.397351,109.561398 307.300636,109.315393 C307.318027,109.544548 307.327179,109.780137 307.328095,110.022466 Z M116.881921,111.067757 C117.144301,111.408121 117.620246,111.77146 118.195955,112.121321 C118.088258,111.210826 118.158124,110.241511 118.310365,109.240335 C118.14409,109.255959 117.985441,109.285982 117.836251,109.331323 C117.618415,109.989379 117.287695,110.55614 116.881921,111.067757 Z M172.017355,107.797391 C171.537139,107.797391 170.970582,107.953634 170.405551,108.258153 C168.665607,109.195913 168.67659,110.563799 168.839205,112.718105 C168.863917,113.045295 168.888935,113.379837 168.903579,113.717443 C169.454882,112.802353 170.38572,112.26102 171.286658,111.737148 C172.291634,111.152618 173.159927,110.647435 173.3021,109.766044 C173.396069,109.183046 173.398205,108.409494 172.87375,108.033899 C172.652253,107.875206 172.356313,107.797391 172.017355,107.797391 Z M119.616162,112.870671 C120.428013,113.248104 121.260916,113.562426 121.904967,113.745322 C123.603418,113.01374 126.116467,112.519892 128.961151,112.370083 C129.074035,112.247846 129.174105,112.118564 129.259531,111.982847 C129.71717,111.254635 129.790087,110.424713 129.867581,109.545773 C129.990533,108.148783 130.12874,106.581459 131.813767,105.233179 C130.963169,103.974356 130.784385,102.634043 130.623906,101.43404 C130.469224,100.274784 130.335593,99.2739137 129.662559,98.4905577 C129.542962,98.351165 129.396823,98.2249458 129.226886,98.1128189 C128.406492,98.6483318 127.04822,98.9654118 125.165493,99.0603826 C125.217358,99.4810114 125.35587,99.9763914 125.491027,100.460436 C125.823883,101.650635 126.168027,102.881273 125.479128,103.726207 C124.940029,104.387633 124.410083,104.711453 123.85817,104.71758 C123.096354,104.727077 122.599968,104.142853 122.201517,103.674432 C122.075819,103.526768 121.893984,103.313237 121.785371,103.236341 C121.274951,103.534427 121.000367,103.907264 120.944535,104.375378 C120.792599,105.651051 122.228976,107.620623 123.720269,109.006584 C123.728811,109.01455 123.737964,109.022515 123.745896,109.031399 C124.106516,109.4073 123.882883,109.7109 123.476805,110.261118 C123.382836,110.388257 123.296495,110.504979 123.267206,110.546643 C123.184831,110.674088 123.056997,110.767833 122.906892,110.806434 C122.711327,110.856983 122.502949,110.806434 122.351623,110.671944 C121.747234,110.135818 120.623883,109.564461 119.535617,109.333468 C119.320832,110.745163 119.304357,111.905645 119.616162,112.870671 Z M290.829293,109.404236 C290.550438,110.57973 289.209861,111.138832 288.097493,111.602964 C286.104322,112.434112 285.293996,112.965336 285.8993,114.559007 C286.813053,116.965445 292.682731,115.373612 296.968978,114.211291 C298.302843,113.849483 299.548231,113.511877 300.628565,113.283028 C299.711456,111.891246 299.016455,110.426858 298.711667,109.196832 C298.662852,108.999538 298.62075,108.808677 298.585664,108.624557 C296.280994,109.699259 292.956094,110.20628 291.349476,109.634311 C291.163979,109.568444 290.990992,109.491242 290.829293,109.404236 Z M155.917614,116.234476 C155.795577,116.496105 155.751034,116.708411 155.745237,116.877214 C156.127518,116.698914 156.517732,116.513874 156.918929,116.317499 C156.922895,116.304632 156.926251,116.291765 156.929912,116.278898 C156.602242,116.223447 156.26603,116.205679 155.917614,116.234476 Z M303.52847,114.997711 C304.384561,115.875425 305.286109,116.559828 306.118707,116.891919 C306.106199,116.776116 306.094605,116.660007 306.083317,116.543285 C306.066537,116.367435 306.126335,116.192505 306.247456,116.064141 C306.368578,115.935471 306.531498,115.866234 306.715164,115.872974 C307.399486,115.90024 307.995027,116.090795 308.465785,116.428707 C308.889864,115.889211 309.198008,115.031104 309.38686,113.859593 C310.199017,108.822463 310.491296,103.327636 307.233211,99.4301561 L300.986743,99.4301561 C301.020609,99.6920917 301.05661,99.9592354 301.093221,100.229136 C301.192681,100.963782 301.293056,101.705167 301.360482,102.426332 C302.267828,102.551939 303.240463,102.823678 304.254286,103.546375 C306.107114,104.867388 308.798641,108.145107 308.818778,110.617106 C308.821218,110.935717 308.57989,111.203167 308.264119,111.231659 C307.88977,111.266583 307.539524,111.255248 307.201481,111.244219 C307.036121,111.239318 306.86832,111.232271 306.703875,111.234416 L306.701739,111.234416 C306.534244,111.234416 306.374375,111.165485 306.25905,111.043555 C306.14342,110.921012 306.083317,110.756192 306.092469,110.587389 C306.271559,107.382277 304.816877,105.447017 303.395755,104.704713 C302.728212,104.355772 302.036872,104.240581 301.437365,104.359141 C301.40289,105.401063 301.208851,106.330552 300.723753,107.040076 C300.493409,107.377682 300.146823,107.695987 299.719083,107.988865 C299.758745,108.280823 299.817628,108.585343 299.895732,108.900585 C300.21913,110.205974 300.974845,111.701305 301.926124,113.055098 C302.503054,112.980653 303.003101,112.962885 303.407044,113.022624 C303.598947,113.051116 303.765833,113.169063 303.857055,113.340623 C303.947973,113.51249 303.952244,113.717443 303.868954,113.892986 C303.662101,114.327095 303.555624,114.685226 303.52847,114.997711 Z M158.355305,115.418646 C159.256549,115.768506 160.079994,116.284106 160.851878,116.767232 C162.723622,117.938743 164.201491,118.863942 166.140965,117.549362 C167.890061,116.363146 167.765889,114.716781 167.62219,112.810625 C167.471169,110.809192 167.300317,108.540615 169.82862,107.178243 C171.219538,106.429505 172.657745,106.374361 173.582481,107.036093 C174.049883,107.370942 174.791563,108.195962 174.506606,109.962113 C174.465724,110.216084 174.393417,110.447996 174.296092,110.661527 C174.302804,110.65203 174.309517,110.642533 174.316534,110.63273 C174.856853,109.871738 175.367578,109.152717 175.143335,108.032368 C174.608812,105.35848 170.793018,102.917117 168.359599,102.251708 C164.976731,101.327734 161.986823,102.534476 159.714188,105.742039 C158.240285,107.822513 158.330592,109.823333 158.426392,111.941489 C158.477342,113.06674 158.529208,114.21895 158.355305,115.418646 Z M134.122098,116.062303 C136.631486,116.062303 139.150026,116.534094 141.577038,118.479464 C141.69694,118.575354 141.810739,118.671244 141.919352,118.766521 C142.243666,117.65046 141.93003,116.711168 140.97387,115.914639 C139.220502,114.453314 135.321723,113.548334 130.789876,113.548334 L130.728247,113.548334 C130.302948,113.548947 129.882531,113.557525 129.468215,113.573762 C127.729186,115.051017 124.650496,115.527403 122.229891,115.081347 C122.16155,115.068786 122.088938,115.053774 122.01297,115.036618 C121.887882,115.099728 121.770116,115.164676 121.660283,115.230849 C121.857678,115.344201 122.070022,115.453571 122.298232,115.558039 C124.951318,116.777648 127.673049,116.533787 130.554345,116.274915 C131.734138,116.169222 132.927356,116.062303 134.122098,116.062303 Z M307.538609,118.311273 C307.590474,118.637238 307.647222,118.96167 307.707935,119.284265 C307.93828,119.142421 308.170151,119.000271 308.403852,118.859347 C308.391343,118.580562 308.344053,118.329655 308.262899,118.111835 C308.018825,118.217834 307.77414,118.280025 307.538609,118.311273 Z M305.17353,117.786789 C305.464589,118.181684 305.730019,118.632336 305.906058,119.179184 C306.021688,119.537929 306.090639,119.897899 306.125114,120.255418 C306.282237,120.161366 306.43997,120.065476 306.597398,119.96928 C306.481768,119.393634 306.378341,118.812474 306.290169,118.223962 C305.921923,118.130523 305.547879,117.981939 305.17353,117.786789 Z M173.818012,111.390045 C173.296609,111.984073 172.570488,112.40654 171.898064,112.797452 C171.091094,113.266791 170.328972,113.710091 169.9412,114.362326 C168.905105,116.105806 168.956971,118.249696 170.07361,119.82376 C171.018482,121.156109 172.479571,121.766067 174.115172,121.523432 C174.535895,120.416562 174.175276,119.177959 173.82564,117.977037 C173.775604,117.804558 173.725874,117.633917 173.67889,117.46542 C173.63099,117.293248 173.660584,117.108208 173.75974,116.959624 C173.858895,116.810735 174.018153,116.713007 174.195107,116.692174 C174.560608,116.648671 174.927329,116.439429 175.315712,116.217933 C175.402359,116.168303 175.489615,116.118673 175.578092,116.069962 C175.397172,115.876651 175.216557,115.697738 175.038993,115.521582 C174.261922,114.751093 173.527564,114.022882 173.472952,112.65377 C173.454342,112.185349 173.603532,111.773911 173.818012,111.390045 Z M191.027375,100.969909 C189.255702,100.969909 187.529793,101.48367 185.942395,102.496182 C181.053285,105.613982 180.234721,114.202407 182.792619,119.51005 C183.226765,120.411354 183.796373,121.160704 184.298861,121.821517 C184.578326,122.189453 184.844672,122.539926 185.063423,122.885497 C186.923573,122.312608 188.956406,122.316285 191.003578,122.71363 C192.028384,121.463079 192.880813,120.222025 193.345164,119.403744 C193.959011,118.321996 194.296138,116.919798 194.621977,115.563247 C195.046361,113.79679 195.485084,111.970593 196.559316,110.696758 C197.768093,109.263925 200.144765,108.686134 201.77396,109.309265 C201.630871,108.717996 201.376119,108.069743 200.960888,107.320086 C199.298743,104.317783 196.471449,102.057171 193.39825,101.273203 C192.604399,101.070394 191.811463,100.969909 191.027375,100.969909 Z M254.972055,117.55212 C254.026268,118.745995 254.098575,120.367545 254.174848,122.074875 C254.203832,122.72037 254.234036,123.388842 254.202916,124.04843 C254.543705,124.024228 254.85673,124.01902 255.183179,124.02821 C255.245418,122.751312 255.624038,121.048271 256.165273,119.033358 C256.228122,118.799607 256.292496,118.558504 256.319649,118.441169 C256.175646,118.277881 256.031642,118.160852 255.894045,118.09958 C255.596275,117.967234 255.296369,117.767795 255.006225,117.57479 C254.994937,117.567438 254.983344,117.559779 254.972055,117.55212 Z M201.450866,113.886552 C199.632819,114.496204 199.431763,115.929344 199.283183,118.070477 C199.231317,118.815538 199.357626,119.578981 199.479968,120.317609 C199.559292,120.797364 199.634345,121.25108 199.658752,121.685495 C199.696278,122.354886 199.468984,122.898364 199.268233,123.37812 C199.149247,123.662726 199.034532,123.937528 198.968327,124.239903 C199.831129,124.079066 200.461146,123.750957 200.882784,123.244854 C201.867623,122.064459 201.66016,119.98276 201.459409,117.969685 C201.408459,117.457455 201.355678,116.927763 201.325778,116.428094 C201.266896,115.45786 201.339203,114.628857 201.450866,113.886552 Z M300.155671,123.777304 C301.609132,123.864309 303.037576,124.031274 304.399205,124.321088 C304.458393,123.931708 304.538327,123.538651 304.616431,123.154172 C304.667076,122.905717 304.718027,122.655116 304.763791,122.404516 C303.746307,122.903266 302.678177,123.311334 301.4874,123.559483 C301.051728,123.650472 300.606293,123.720934 300.155671,123.777304 Z M281.384539,99.4301561 C280.515024,104.194627 281.972452,110.64529 283.608054,115.819055 C284.195968,117.678645 284.206036,119.160496 284.216104,120.593943 C284.222206,121.463998 284.227697,122.285649 284.356141,123.192773 C284.442177,123.802731 284.512654,124.254915 284.584961,124.595584 C285.620445,124.227955 286.839291,124.013505 288.290311,123.983176 C288.906904,123.970309 289.53692,123.94917 290.184632,123.923742 C292.292822,123.024277 294.65485,122.905104 296.944876,122.789607 C298.459356,122.713324 299.88963,122.641024 301.239665,122.359787 C302.576276,122.081002 303.771019,121.565403 304.930982,120.939208 C304.938914,120.468949 304.889794,120.005124 304.744875,119.556004 C304.51514,118.842497 304.065434,118.329655 303.589184,117.787096 C303.029034,117.148341 302.421594,116.45536 302.318168,115.465519 C302.002702,115.119335 301.697914,114.753851 301.407466,114.375805 C300.25147,114.590256 298.794347,114.985457 297.28719,115.394138 C292.027392,116.820538 286.065576,118.437799 284.758559,114.99526 C283.668462,112.123465 286.052152,111.129029 287.629176,110.471279 C289.012771,109.894102 289.685805,109.538115 289.658652,108.884041 C289.460342,108.664996 288.7449,108.199945 288.260717,107.885316 C287.126688,107.147914 286.35999,106.625268 286.04788,106.099252 C285.809908,105.69823 285.369659,105.153833 284.903783,104.577574 C283.557714,102.912215 282.039878,101.034856 282.560671,99.5082772 L282.543891,99.4301561 L281.384539,99.4301561 Z M256.48623,125.232195 C256.514299,125.286114 256.542672,125.316443 256.565859,125.333293 C256.589962,125.340952 256.722982,125.338808 256.982006,125.21075 C257.511341,124.949121 257.800874,124.120118 257.776772,122.936659 C257.755721,121.906072 257.513782,120.846688 257.178485,119.978777 C256.336735,123.248224 256.310497,124.530024 256.419415,125.031837 C256.442602,125.098623 256.464568,125.165409 256.48623,125.232195 Z M192.306934,123.017843 C194.210407,123.534975 196.099236,124.359383 197.845281,125.343403 C197.75772,125.241999 197.704939,125.113635 197.697311,124.978225 C197.64514,124.094383 197.920944,123.433877 198.143052,122.903572 C198.321226,122.477429 198.461873,122.141355 198.440212,121.754425 C198.419466,121.386183 198.349904,120.964636 198.275767,120.517966 C198.148848,119.747477 198.004234,118.874359 198.065863,117.985309 C198.211392,115.885229 198.390787,113.293751 201.690974,112.552366 C201.804469,111.962628 201.903929,111.411184 201.925896,110.841666 C201.867318,110.77151 201.797147,110.707481 201.715382,110.650192 C200.750374,109.973448 198.528384,110.258361 197.490458,111.488999 C196.603249,112.540724 196.217002,114.148488 195.808177,115.850917 C195.462507,117.289878 195.104939,118.778162 194.405361,120.010638 C194.385835,120.045257 193.559034,121.404565 192.306934,123.017843 Z M99.7110001,108.579216 C99.213699,110.198009 97.9747176,111.514733 96.7668557,112.798677 C94.6336477,115.065416 92.6188156,117.206548 93.7760322,121.06604 C94.2602142,122.68085 95.213934,124.057621 96.362913,125.380779 C96.5831899,125.108427 96.8458747,124.827497 97.1570693,124.536151 C97.6616925,124.063135 98.3106247,124.168828 98.831723,124.253077 C99.4580782,124.355706 99.6807959,124.349273 99.8611057,124.116135 C100.086264,123.825095 100.082603,123.57572 100.077416,123.198288 C100.07284,122.876306 100.067653,122.487845 100.230573,122.064765 C100.185419,121.862263 100.138435,121.588992 100.07406,121.213704 C99.8751399,120.05506 99.9196835,119.790061 99.9385992,119.676709 C100.054534,118.98526 100.757163,118.75396 101.270024,118.585157 C101.438435,118.529706 101.707527,118.441169 101.815834,118.369175 C101.831394,117.606651 101.434469,116.324239 101.050052,115.083185 C100.719331,114.01461 100.377322,112.910191 100.250099,111.996633 C100.206471,111.682923 100.166809,111.379017 100.128367,111.083994 C100.004499,110.132754 99.8968015,109.305896 99.7110001,108.579216 Z M305.590287,124.611821 C306.449123,124.85078 307.273788,125.147028 308.05269,125.513125 C307.616407,124.085805 307.210329,122.671047 306.873812,121.233924 C306.617229,121.388634 306.361256,121.540281 306.103453,121.687639 C306.039993,122.279522 305.922838,122.854861 305.812089,123.399258 C305.726358,123.821419 305.643983,124.225811 305.590287,124.611821 Z M183.12578,125.202172 C183.203578,125.408657 183.286564,125.598905 183.374125,125.772916 C183.976683,125.33942 184.313811,124.946364 184.37849,124.600792 C184.386423,124.556983 184.390389,124.511949 184.390694,124.466301 C183.94892,124.668497 183.526977,124.912358 183.12578,125.202172 Z M291.387307,125.099849 C293.857643,126.43618 299.306293,126.13258 302.587565,125.225455 C299.209273,124.755503 295.440769,124.921242 291.882168,125.078097 C291.715892,125.08545 291.550837,125.092803 291.387307,125.099849 Z M184.103297,126.755098 C184.366897,126.977207 184.656735,127.105265 184.972201,127.138658 C186.40339,127.289386 188.348661,125.691425 190.044977,123.825708 C188.473444,123.60268 186.953472,123.648327 185.568962,124.035869 C185.621438,124.291984 185.628455,124.55392 185.57781,124.826272 C185.452722,125.496582 184.979218,126.1191 184.103297,126.755098 Z M244.107095,127.264264 C244.912234,127.264264 245.78602,127.410703 246.646381,127.554385 C248.078486,127.79365 249.560016,128.041493 250.581466,127.620864 C253.154313,126.561787 253.062175,124.507966 252.955698,122.130019 C252.867526,120.155239 252.767455,117.917604 254.448516,116.317193 C254.64347,116.131234 254.936969,116.09539 255.171586,116.230187 C255.328708,116.320563 255.502001,116.43514 255.67987,116.553394 C255.927605,116.718215 256.184188,116.888243 256.38799,116.978925 C256.428873,116.997306 256.46945,117.01722 256.509722,117.038665 C257.206554,111.452542 257.14279,106.125905 251.051004,105.233792 C247.986653,104.784672 245.187123,105.459884 242.959031,107.185289 C240.651615,108.972579 239.131033,111.764414 238.786888,114.843613 C238.357928,118.678902 239.076116,119.899124 241.408855,122.676867 C242.827536,124.365816 243.453586,125.734928 243.92648,127.267021 C243.986583,127.265183 244.046686,127.264264 244.107095,127.264264 Z M243.050864,128.646856 C242.891605,128.709965 242.750652,128.79452 242.631361,128.903583 C242.261284,129.242108 242.066025,129.865239 242.047414,130.759803 C242.154501,130.720283 242.255182,130.673104 242.348235,130.61704 C242.544715,130.498174 242.834248,130.431694 243.448399,130.308845 C243.460298,130.306394 243.472807,130.303943 243.485316,130.301492 C243.404161,129.99636 243.327888,129.704708 243.254666,129.423778 C243.184494,129.153264 243.117374,128.895311 243.050864,128.646856 Z M238.102565,131.185027 C238.133685,131.213212 238.164499,131.24201 238.194398,131.271114 C238.918994,131.049617 239.661284,131.017143 240.344997,130.987733 C240.507611,130.98038 240.669005,130.973641 240.826128,130.964143 C240.816975,129.584309 241.140678,128.610093 241.809136,127.998297 C242.075177,127.754436 242.379355,127.583182 242.711906,127.467686 C242.276233,126.095511 241.717914,124.945445 240.475881,123.466657 C240.25713,123.206253 240.050582,122.956572 239.856543,122.715775 C240.200078,124.083967 240.086278,125.714708 239.581655,127.993089 C239.228663,129.587067 238.710005,130.534324 238.102565,131.185027 Z M235.542533,131.502107 C235.437581,131.529373 235.376257,131.570731 235.342087,131.593708 C235.30395,131.619442 235.267644,131.649159 235.232864,131.682858 C235.337511,131.620361 235.440632,131.560621 235.542533,131.502107 Z M254.579096,125.255172 C254.119626,126.72722 253.664428,130.36307 253.576561,132.681583 C254.259664,132.26892 254.792661,131.715945 255.17067,131.026028 C255.99076,129.529778 255.998997,127.443483 255.20362,125.255478 C254.993106,125.246594 254.788999,125.2469 254.579096,125.255172 Z M242.108127,132.021383 C242.239927,133.53387 242.47912,133.548881 245.14563,133.714008 C246.936829,133.82491 249.601509,133.77865 251.518101,133.426032 C251.81038,133.37242 252.088319,133.304408 252.351919,133.222917 C252.35375,131.609945 252.587451,129.401414 252.877289,127.571847 C252.427582,128.029239 251.831126,128.430874 251.044292,128.755 C249.701579,129.307362 248.046451,129.030721 246.445935,128.763271 C245.674051,128.633989 244.922607,128.508688 244.271845,128.488469 C244.325846,128.692503 244.380152,128.90052 244.435374,129.114051 C244.554971,129.572668 244.681889,130.060695 244.828639,130.589162 C244.914065,130.895826 244.75084,131.217195 244.45368,131.328096 C244.292286,131.388142 244.057059,131.436853 243.686677,131.510992 C243.456027,131.556945 243.074051,131.633228 242.959031,131.677956 C242.690549,131.837262 242.404372,131.946019 242.108127,132.021383 Z M144.274362,133.504153 C144.985839,133.621795 145.693349,133.785083 146.396892,133.9931 C146.279737,133.416841 145.808063,132.880103 145.308932,132.312729 C145.047162,132.014643 144.778681,131.709205 144.552912,131.38416 C144.375348,132.135348 144.270701,132.857739 144.274362,133.504153 Z M251.632511,134.650543 C251.907399,134.674745 252.182288,134.705381 252.458091,134.741531 C252.442532,134.659734 252.428497,134.571809 252.416599,134.478064 C252.196932,134.537803 251.970858,134.588659 251.738073,134.631242 C251.703292,134.637982 251.667901,134.644109 251.632511,134.650543 Z M97.7791532,132.305376 C99.2753277,133.13438 100.806588,134.186718 102.211235,135.390396 C101.617524,132.631954 99.6106246,130.562202 97.4911457,128.376036 C97.2049688,128.080707 96.9169613,127.784153 96.6316997,127.483923 C96.4806788,128.270036 96.751296,129.0586 97.1253396,130.147394 C97.3416503,130.776959 97.5838939,131.482807 97.7791532,132.305376 Z M105.953196,132.403105 C107.931112,134.54822 110.089338,134.709364 113.05911,134.931166 C113.478002,134.962415 113.909403,134.994582 114.354839,135.033796 C115.791215,135.159403 116.789173,135.332495 117.543972,135.5978 C117.290745,134.926265 116.984737,134.220111 116.672628,133.499558 C115.789689,131.461974 114.877157,129.355154 114.914073,127.448385 C115.005296,122.765711 116.855073,118.110916 119.69396,115.278947 C119.220152,114.811752 118.875397,114.303199 118.633458,113.760946 C117.588516,113.235849 116.610694,112.609042 116.043527,111.969061 C115.49375,112.485886 114.877767,112.959821 114.250802,113.442334 C112.89497,114.485481 111.493069,115.564166 110.439279,117.258323 C106.452633,123.666402 104.94395,128.760821 105.953196,132.403105 Z M234.58027,133.675407 C234.499116,134.317839 234.454267,135.045438 234.41552,135.778858 C234.853023,134.538416 235.218829,133.506604 236.187499,132.543416 C235.66335,132.843034 235.128217,133.166241 234.58027,133.675407 Z M144.468401,134.774005 C144.511725,134.896854 144.56298,135.013577 144.622778,135.123559 C144.957465,135.739031 145.558498,136.084909 146.453334,136.174365 C146.575371,135.879036 146.616559,135.618633 146.609847,135.343524 C145.898066,135.103339 145.183539,134.913704 144.468401,134.774005 Z M130.892082,134.046406 C130.950355,134.696497 131.162089,135.433286 131.384502,136.20592 C131.39518,136.242989 131.405553,136.279752 131.416231,136.316821 C132.142352,135.865557 132.880676,135.460246 133.627848,135.10579 C136.716912,133.640789 139.914588,133.052582 143.069857,133.348217 C143.090603,132.263406 143.342609,131.064935 143.70811,129.886684 C143.224233,128.945248 143.163215,128.561075 143.001821,127.241594 L142.935921,126.709757 C142.825477,125.836332 142.828528,125.033982 142.831274,124.326296 C142.836461,122.919503 142.840427,121.802523 142.01271,120.655215 C141.941319,120.65307 141.869317,120.638365 141.800061,120.609874 C140.600742,120.117251 139.455729,120.466192 138.628012,120.919907 C138.682319,121.973777 138.941342,123.046641 139.192129,124.087644 C139.669904,126.068245 140.163849,128.116551 139.314471,130.15199 C137.97725,133.356795 135.9554,133.434304 134.000366,133.509055 C132.988069,133.547656 131.944652,133.587789 130.892082,134.046406 Z M94.3248939,104.646811 C90.0670204,104.646811 85.1391635,108.627007 83.0318883,112.222419 C77.6912409,121.33349 84.8618342,128.715173 88.192531,131.465651 L88.2245657,131.491997 C98.0787542,139.629465 100.966762,139.448101 101.751155,138.99316 C102.24449,138.70641 102.408324,138.013429 102.414731,137.238957 C100.739468,135.629355 98.7838234,134.236041 96.9569285,133.250796 C96.7998057,133.166241 96.6872265,133.016739 96.649395,132.841502 C96.4602376,131.970221 96.2006037,131.213825 95.9714791,130.546578 C95.4732627,129.096282 95.0485737,127.85921 95.6831665,126.457012 C94.3557083,124.963213 93.186288,123.349322 92.6075272,121.418964 C91.2465087,116.88089 93.7079965,114.264904 95.8796462,111.957113 C97.4380596,110.300945 98.7838234,108.870868 98.7145674,106.941735 C98.7090757,106.790701 98.6983975,106.644875 98.6822276,106.504256 C98.245945,106.010408 97.6546754,105.578444 96.8351965,105.18937 C96.0471421,104.815308 95.1998997,104.646811 94.3248939,104.646811 Z M292.590898,138.769213 C293.854897,138.769213 295.170457,139.00327 296.458558,139.232425 C298.971606,139.679095 301.355295,140.102787 303.357619,138.986114 C302.24342,137.037374 298.911503,137.2362 296.198924,137.397344 C295.540534,137.436558 294.916009,137.473627 294.371724,137.475159 C293.618145,137.798979 292.943585,137.86025 292.358722,137.660505 C292.153395,138.024458 291.973695,138.406486 291.817793,138.80138 C292.072851,138.779016 292.330959,138.769213 292.590898,138.769213 Z M243.776679,137.047177 C247.059171,139.592089 256.615894,140.751039 260.445418,139.016137 C259.671703,138.166608 258.49435,137.968394 257.162926,137.743528 C255.786958,137.511309 254.260274,137.253969 253.215637,136.106966 C249.930093,135.506199 246.738519,135.811331 243.776679,137.047177 Z M61.9469332,138.249937 C63.1489983,138.249937 63.8443045,139.273477 64.4633376,140.183665 C65.3377332,141.470673 65.8972732,142.171619 67.2308333,141.631204 C68.0170571,141.312286 69.1614598,138.457954 70.0138887,134.690063 C70.1539263,134.071221 70.1569772,133.485465 70.1600281,132.918704 C70.1639943,132.11329 70.1685707,131.280611 70.5886833,130.472746 C71.2971085,129.1116 71.7831212,128.910017 72.4436468,128.757144 C72.7484344,128.686682 73.0361368,128.620202 73.5422856,128.14688 C73.6646277,128.032609 73.780563,127.924158 73.8907014,127.820609 C73.3872985,127.286935 72.8186057,126.937074 72.2288616,126.827399 C68.1619762,126.068857 64.8541613,131.762817 62.6648162,135.530402 C62.3313499,136.104209 62.0161892,136.646156 61.7336734,137.102628 C61.465802,137.535511 61.1985408,137.97299 60.9309745,138.414451 C61.1585737,138.350729 61.4011224,138.302324 61.6583155,138.268931 C61.7577757,138.256064 61.8538799,138.249937 61.9469332,138.249937 Z M119.146014,136.583659 C119.52921,136.963848 119.869389,137.430124 120.270281,138.007608 C120.686427,138.606843 121.204169,139.352517 121.992834,140.25137 C122.603019,140.946189 123.606164,141.679302 124.768567,142.133324 C126.461831,140.149047 128.348525,138.411694 130.347492,137.020831 C130.303558,136.863363 130.257795,136.705283 130.212031,136.545977 C129.933481,135.577274 129.645168,134.575792 129.656152,133.660702 C129.658898,133.435529 129.784596,133.229963 129.983211,133.125495 C131.396095,132.382272 132.754978,132.330498 133.953992,132.284544 C135.810786,132.213469 137.152584,132.162308 138.188679,129.678668 C138.883375,128.013921 138.457465,126.246851 138.006233,124.376232 C137.710904,123.152334 137.405506,121.886465 137.397268,120.579238 C137.396048,120.366932 137.504356,120.169025 137.683445,120.056286 C138.58835,119.486461 139.528951,119.182248 140.442093,119.150999 C137.352725,116.895596 134.099522,117.187554 130.662958,117.49575 C127.749628,117.756766 124.737448,118.02728 121.790252,116.672261 C121.368004,116.478337 120.990909,116.270014 120.654697,116.048824 C117.974458,118.647041 116.22048,123.036225 116.134139,127.472281 C116.102409,129.1116 116.961245,131.093426 117.791708,133.010611 C118.330806,134.255035 118.85343,135.461165 119.146014,136.583659 Z M126.063991,142.498196 C126.350167,142.54752 126.640616,142.576011 126.932284,142.579993 C128.199029,142.601438 129.244582,142.15722 130.062535,141.273685 C130.829233,140.445907 130.86981,139.419303 130.659297,138.297116 C129.029186,139.476286 127.480841,140.896559 126.063991,142.498196 Z M233.203692,135.585852 C232.343636,137.497829 231.784096,140.573965 231.594939,142.661485 C232.905312,141.409095 233.047485,138.628288 233.175319,136.128411 C233.184471,135.945516 233.193929,135.764765 233.203692,135.585852 Z M147.725876,134.443445 C147.828692,134.482965 147.931203,134.523098 148.033714,134.564457 C152.159178,136.223076 155.85202,139.472916 158.551174,143.573204 C158.661923,141.853007 159.070137,140.074602 159.781918,138.281492 C160.764012,135.807655 162.520735,133.796112 164.219491,131.850436 C166.083303,129.715124 167.844298,127.698373 168.642115,125.14182 C169.100059,123.675286 169.176027,122.731093 168.87429,122.255013 C168.484077,121.638928 167.232587,121.469513 165.500576,121.235456 C165.259247,121.202675 165.008156,121.168976 164.747912,121.132213 C164.490414,121.096063 164.138947,121.058075 163.72219,121.012734 C160.315525,120.643573 156.634277,120.111124 155.167697,118.493556 C151.937375,119.983985 149.575348,121.135583 147.320713,124.826884 C146.629678,125.958262 145.679924,127.847263 145.025501,129.764141 C145.131063,129.95684 145.253405,130.176498 145.396493,130.433226 C145.589922,130.780329 145.897761,131.130802 146.223905,131.501494 C146.790157,132.145764 147.432072,132.87612 147.601703,133.795499 C147.62306,133.911302 147.644721,134.022816 147.666078,134.130961 C147.686519,134.235429 147.70696,134.33959 147.725876,134.443445 Z M58.447215,142.489924 C58.0658492,143.097738 57.6780764,143.702487 57.2799304,144.300497 C57.6622116,144.022631 58.1042908,143.822886 58.6195924,143.723013 C58.5332512,143.299933 58.4737581,142.88727 58.447215,142.489924 Z M237.798998,132.793404 C237.77276,132.810866 237.747133,132.828941 237.721505,132.847323 C236.410827,133.792129 236.091395,134.698335 235.561449,136.199793 L235.394563,136.670664 C234.577525,138.944143 234.590339,141.71821 234.658069,144.446936 C236.649104,140.824871 238.789634,135.844418 237.947273,133.169917 C237.905171,133.036652 237.855746,132.911045 237.798998,132.793404 Z M61.2803057,147.592308 C61.4310214,147.919498 61.5924155,148.256491 61.7638776,148.602981 C61.6189585,148.275179 61.4578696,147.938492 61.2803057,147.592308 Z M170.988278,147.248881 C170.861054,147.562591 170.770441,147.83433 170.728339,148.043573 C170.663659,148.360959 170.619115,148.648629 170.592877,148.911177 C170.760678,148.348705 170.893699,147.786845 170.988278,147.248881 Z M209.638029,143.813695 C210.447134,146.002006 213.847392,146.765143 216.871471,147.443418 C218.552227,147.820544 220.003857,148.146509 220.960933,148.695501 C221.717258,149.12961 222.505312,149.742938 223.288485,150.439901 C223.150888,149.248477 223.771752,147.729863 225.142839,145.911937 C225.651123,145.237951 226.28175,144.555693 226.89163,143.896105 C227.956708,142.744201 229.282031,141.310448 229.087077,140.648716 C229.006227,140.375139 228.565063,140.124232 227.844434,139.942256 C225.951639,139.464644 223.14082,139.903961 220.661027,140.292116 C219.348824,140.497375 218.109537,140.6913 217.027678,140.756554 C216.600549,140.782594 216.082501,140.787189 215.53364,140.791785 C213.737864,140.806796 211.084473,140.829773 209.983699,141.747007 C209.955325,142.446422 209.843356,143.136951 209.638029,143.813695 Z M225.830823,138.50452 C226.657319,138.50452 227.43683,138.575595 228.142205,138.753895 C229.347931,139.058414 230.039881,139.564517 230.257107,140.300694 C230.649761,141.632123 229.322608,143.067408 227.786162,144.729704 C227.196417,145.367234 226.586842,146.026821 226.115779,146.651484 C224.80266,148.39282 224.247697,149.851694 224.593062,150.654351 C224.820966,151.184043 225.440914,151.356216 225.92052,151.40799 C227.76389,151.604672 230.795291,150.357184 232.479097,147.994555 C232.759782,147.60058 233.105452,147.077627 233.486818,146.460317 C233.478581,146.014873 233.466682,145.559013 233.454173,145.088755 C233.428546,144.120665 233.402613,143.142159 233.41024,142.171925 C232.940397,143.188726 232.224345,143.976677 231.112587,144.355641 C230.923735,144.41967 230.716272,144.387503 230.555488,144.269249 C230.395009,144.151301 230.301956,143.961359 230.306532,143.761614 C230.362974,141.253772 231.276117,135.749754 232.894328,133.707575 C233.074638,133.479951 233.253728,133.275611 233.431597,133.090264 C233.619534,131.946019 233.961237,131.048698 234.66173,130.576601 C235.236525,130.188753 235.971188,130.148314 236.843143,130.454671 C236.905992,130.477035 236.967621,130.500318 237.028029,130.524827 C237.605875,129.993603 238.059547,129.220663 238.390573,127.726864 C239.4825,122.797879 238.65997,121.507501 234.949738,118.538591 C234.133615,117.885743 233.424579,117.250664 232.738731,116.636417 C230.968278,115.050405 229.439154,113.68068 226.985598,112.904677 C221.496066,111.169468 217.091443,111.690888 213.894377,114.456377 C208.555865,119.073185 207.889237,128.595387 209.045539,135.967574 C209.119981,136.443041 209.163609,136.912993 209.183135,137.375593 C209.564806,138.361145 209.82322,139.354049 209.932748,140.338376 C211.436855,139.60128 213.657625,139.582286 215.523266,139.566355 C216.055653,139.56176 216.558446,139.557471 216.954151,139.533575 C217.978652,139.471384 219.190175,139.281749 220.472785,139.081085 C222.294493,138.796172 224.157999,138.50452 225.830823,138.50452 Z M208.617188,146.062052 C208.976588,147.728331 210.291842,148.934766 213.855935,149.684423 L214.264454,149.769897 C217.540844,150.457669 220.873982,151.15739 223.782735,152.591449 C222.634977,151.447817 221.439929,150.381999 220.355629,149.759481 C219.558117,149.301783 218.123876,148.980107 216.60543,148.639438 C213.849223,148.020902 210.553307,147.281662 209.05164,145.269199 C208.914959,145.546453 208.769735,145.810533 208.617188,146.062052 Z M171.114281,151.059662 C171.561242,151.533597 172.261124,151.813608 173.140401,152.165306 C173.715196,152.395381 174.366874,152.655784 175.006958,153.011465 C175.715994,153.406054 176.297806,153.826989 176.771309,154.269063 C176.789005,154.220658 176.8067,154.171641 176.825006,154.121092 C177.078233,153.421678 177.36502,152.628519 177.827235,151.73181 C178.263823,150.883813 178.742513,150.207069 179.164761,149.610285 C180.249061,148.077578 180.965418,147.065067 180.149906,144.407722 C179.659317,142.809762 178.676003,141.578511 177.519397,141.114379 C176.652628,140.766664 175.73674,140.857958 174.79797,141.387037 C174.233243,141.705343 173.238946,143.090079 172.370958,144.554161 C172.387433,145.006957 172.388348,145.456996 172.368517,145.901215 C172.300176,147.414621 171.866945,149.326904 171.114281,151.059662 Z M310.246306,128.437613 C310.716759,129.93999 311.189348,131.490772 311.620444,133.122738 C312.847526,137.769568 312.188221,143.780302 309.660528,150.987362 C309.184584,152.345444 308.576229,153.649302 307.983129,154.911801 C308.289747,154.674067 308.598501,154.449201 308.897797,154.230768 C309.196787,154.012948 309.481134,153.80585 309.745344,153.599365 C310.312511,152.362907 311.03314,151.245927 311.730887,150.164179 C313.254215,147.802163 314.693642,145.571268 314.631098,142.181422 C314.558791,138.255451 313.727719,134.395654 312.290427,131.311859 C311.756515,130.166082 311.064565,129.218825 310.246306,128.437613 Z M51.5368658,110.899261 C47.9672814,110.899261 44.3260003,111.611236 41.276599,113.363907 C36.0805655,116.351198 32.4661325,120.941046 31.3604766,125.956118 C29.8722345,132.707011 31.3443067,142.221862 34.7119197,147.616817 C35.6488594,149.117662 36.9802838,150.367294 38.26808,151.575262 C39.5351299,152.763929 40.8229261,153.971896 41.7214241,155.420661 C43.077256,154.120173 44.8626583,153.296071 46.5971102,152.495253 C48.3486473,151.686776 50.1599825,150.850726 51.5103227,149.535533 C54.6213528,146.505045 56.9736174,142.606647 59.2483884,138.836305 C59.7331807,138.032729 60.2140067,137.235587 60.6972735,136.455601 C60.9709417,136.013834 61.2818311,135.478934 61.610721,134.912479 C63.9724435,130.848647 67.5398922,124.707711 72.4518843,125.622188 C73.2960758,125.779962 74.0862658,126.248996 74.7641818,126.961889 C75.8518372,125.791604 75.5690163,125.350449 74.2616941,123.312253 C71.7611545,119.415079 65.3316314,114.197505 61.03135,112.575955 C58.3245678,111.555478 54.9636668,110.899261 51.5368658,110.899261 Z M42.4768336,156.963477 C43.3646533,157.69322 44.4931911,158.09363 45.7791567,158.128861 C48.123794,158.197178 50.7961008,157.055997 52.75205,155.160869 C53.7451266,154.198601 54.1905619,152.195635 54.6213528,150.258843 C54.8928853,149.039234 55.1775368,147.759579 55.6232772,146.654548 C54.6231834,147.988428 53.5480368,149.257667 52.3600059,150.415086 C50.8595601,151.876105 48.9518155,152.756882 47.1069201,153.608862 C45.273008,154.455022 43.5333695,155.258291 42.3163548,156.556634 C42.3734071,156.690206 42.4271035,156.825616 42.4768336,156.963477 Z M94.1470249,103.355514 C90.5441854,103.355514 85.7496539,105.170682 83.6914987,106.677961 C77.8389058,110.963289 75.4893871,117.12567 77.4065895,123.161525 C77.8840595,124.664515 78.5897389,126.15188 79.2722312,127.589616 C79.91018,128.9333 80.5694853,130.322631 81.065566,131.760979 C81.6440217,133.438899 81.8612477,135.464228 82.0711515,137.423078 C82.2093585,138.711924 82.3524469,140.044579 82.5956058,141.251015 C83.0291425,143.398274 82.7884244,146.128838 82.5556386,148.769333 C82.2316302,152.441028 81.8966385,156.238022 83.3973894,158.181554 C85.9317943,161.464787 91.2709162,161.472446 95.980937,161.47888 C97.9393269,161.481943 99.7891038,161.4847 101.350263,161.714468 C101.782579,161.777884 102.224964,161.847428 102.674365,161.923711 C102.062044,161.006783 101.641932,159.799428 101.453995,158.681223 C100.960355,155.740191 101.860378,152.146925 103.923415,148.823252 C104.81459,147.387661 105.761903,146.175098 106.793116,145.15983 C106.725691,144.743796 106.65552,144.332052 106.582908,143.926435 C106.24395,142.029163 105.072089,140.107382 103.508184,138.367885 C103.326348,139.151853 102.944067,139.715857 102.362255,140.05377 C100.114333,141.359465 95.2365108,138.868779 87.4493252,132.438642 L87.4172905,132.412295 C79.8653314,126.17547 77.8834493,118.589752 81.9802339,111.600819 C84.7581027,106.862082 91.7370978,101.776548 97.0167266,103.931466 C96.9831664,103.914004 96.9493011,103.896542 96.9148257,103.879692 C96.1615518,103.512369 95.2053914,103.355514 94.1470249,103.355514 Z M304.658534,160.713905 C304.36595,161.030985 304.092892,161.472446 303.836309,161.932901 C303.95499,161.886948 304.073061,161.841607 304.189606,161.796879 C304.329034,161.743266 304.469071,161.689654 304.608193,161.635428 C304.606973,161.328458 304.624668,161.020875 304.658534,160.713905 Z M107.023767,146.677831 C106.302527,147.480181 105.62095,148.405074 104.959204,149.471505 C103.05146,152.544883 102.212455,155.827503 102.657585,158.477802 C102.978543,160.390085 103.921584,162.019294 104.804522,162.187178 C105.515999,162.319218 106.199406,161.375024 106.543856,160.798766 C108.029962,158.311756 107.818533,152.28693 107.023767,146.677831 Z M290.058018,140.489716 C289.061281,140.901154 288.394043,141.461482 288.029457,142.190613 C287.161469,143.924903 288.107866,146.505964 288.9426,148.78312 C289.187894,149.451898 289.419765,150.083913 289.608312,150.692646 C289.992424,151.931249 290.466232,153.221933 290.96811,154.588287 C291.910846,157.155869 292.869448,159.767567 293.298713,162.203109 C293.591907,162.078728 293.885711,161.936578 294.1786,161.777884 C294.157244,159.253805 293.079656,156.56705 292.035934,153.964543 C291.305848,152.144167 290.551353,150.262213 290.171818,148.456849 C289.707162,146.248624 289.492682,143.265928 290.058018,140.489716 Z M288.405026,162.507322 C288.481605,162.507322 288.558793,162.52172 288.63232,162.551131 C289.614109,162.946945 290.83753,162.957361 292.128988,162.609339 C291.738164,160.228941 290.771935,157.596718 289.822792,155.012286 C289.315728,153.630614 288.836427,152.325531 288.443163,151.057211 C288.263768,150.477889 288.037085,149.860272 287.797282,149.206506 C286.877122,146.6956 285.8334,143.849539 286.939056,141.640395 C287.535817,140.447745 288.709509,139.580141 290.427181,139.061784 C290.663933,138.320093 290.9675,137.607505 291.349781,136.944854 C290.59132,136.043857 290.230396,134.53137 289.853606,132.951484 C289.386509,130.993554 288.857479,128.774607 287.557479,127.986349 C286.548232,127.374553 285.840112,127.158571 285.32298,127.000797 C284.67954,126.804115 284.255766,126.623364 283.947622,126.223874 C281.206059,127.748003 280.247458,130.861514 279.053631,134.739693 L278.809556,135.529789 C277.092495,141.056171 278.988646,143.997509 281.613358,148.068388 C282.405379,149.296881 283.224553,150.567652 284.037319,152.04215 C284.183459,152.307762 284.331124,152.573374 284.478789,152.839292 C286.192494,155.924312 288.056916,159.281684 287.944336,162.687153 C287.98888,162.659888 288.031898,162.632622 288.073391,162.605662 C288.173461,162.540408 288.288786,162.507322 288.405026,162.507322 Z M297.799745,132.880716 C300.346354,132.880716 302.981439,134.775537 304.602092,136.584578 C306.83598,139.077408 307.736614,141.826048 307.011714,143.936544 C306.209015,146.274358 304.174657,148.051232 302.207419,149.769284 C299.496671,152.136815 296.936028,154.372918 296.964096,158.030826 C296.974164,159.400857 298.058159,162.232825 299.534197,163.337244 C299.935699,163.638087 300.328964,163.786977 300.724669,163.786977 L300.732296,163.786977 C301.063017,163.385955 301.499299,163.057233 301.985312,162.77661 C302.137248,162.516512 302.287048,162.23497 302.424645,161.975791 C303.064119,160.772726 303.784443,159.418319 304.977356,159.085615 C305.398078,157.543411 306.120233,156.00611 306.833234,154.487802 C307.42725,153.222852 308.041707,151.914706 308.509414,150.580519 C310.954121,143.609355 311.603969,137.841562 310.44065,133.437061 C309.91467,131.445125 309.321875,129.563477 308.748606,127.74402 C308.686367,127.546726 308.624434,127.350044 308.562805,127.153976 C307.462336,126.486116 306.222439,126.00728 304.887658,125.668142 C301.477637,127.441952 292.049053,128.224389 289.560412,125.173375 C289.139689,125.187773 288.725069,125.200028 288.315329,125.208606 C287.116315,125.233727 286.099746,125.393646 285.228401,125.67335 C285.351964,125.728801 285.498713,125.773529 285.677803,125.828367 C286.256564,126.004829 287.048584,126.246238 288.188411,126.937381 C289.925608,127.990638 290.517793,130.474584 291.040417,132.665959 C291.33056,133.882505 291.628025,135.129073 292.077732,135.869539 C293.149828,134.516665 294.655155,133.479951 296.723073,133.001114 C297.078201,132.919011 297.43821,132.880716 297.799745,132.880716 Z M158.733925,165.675364 C159.260515,165.712127 159.784664,165.79178 160.302712,165.913404 C160.636788,165.18703 160.919609,164.42757 161.149649,163.640538 C160.919304,163.376151 160.673704,163.127696 160.410714,162.897008 C160.289898,162.898234 160.162369,162.901297 160.030569,162.906505 C159.881379,162.912326 159.717849,162.915696 159.550048,162.917534 C159.100951,163.707324 158.851081,164.644778 158.733925,165.675364 Z M106.562466,162.731269 C110.038082,163.605 113.428272,164.926933 115.458054,166.921933 C115.800368,162.947557 116.714425,158.637108 118.214261,153.893162 C119.44592,149.997521 121.457701,146.288144 123.95641,143.123165 C122.763498,142.593473 121.746014,141.82329 121.077251,141.061686 C120.292247,140.167122 119.767793,139.426043 119.347375,138.820987 C119.331815,138.931889 119.311069,139.041565 119.285441,139.149402 C118.675256,141.717597 116.36845,142.182035 114.332872,142.591941 C113.460002,142.767791 112.557538,142.949461 111.77528,143.277876 C110.404804,143.852909 109.198772,144.608999 108.096472,145.601597 C108.751506,149.902856 109.627122,158.021023 107.590019,161.429556 C107.244654,162.007346 106.898373,162.428894 106.562466,162.731269 Z M161.484946,166.26786 C162.033197,166.46883 162.570771,166.719124 163.094004,167.017823 C163.138548,167.04325 163.182481,167.068984 163.226415,167.094718 C162.875558,166.310137 162.492057,165.549758 162.046621,164.85065 C161.87882,165.334388 161.691493,165.806485 161.484946,166.26786 Z M158.653381,166.899569 C158.639956,167.463573 158.654906,168.046877 158.689076,168.64213 C159.067696,168.13327 159.413366,167.599902 159.726391,167.04325 C159.370959,166.973095 159.01278,166.924996 158.653381,166.899569 Z M301.465739,164.914066 C301.297633,165.284452 301.27231,165.72285 301.415399,166.267553 C302.072873,168.769268 306.761538,168.984638 308.869118,168.947568 C308.870338,168.826864 308.865152,168.710754 308.853863,168.598934 C308.231779,168.116114 307.583762,167.543532 306.919576,166.865257 C305.638797,165.556498 304.974,164.232727 304.725654,162.902829 C304.692094,162.915696 304.658839,162.928563 304.625279,162.94143 C303.949803,163.200915 303.353042,163.438648 302.859097,163.690781 C302.484138,164.278681 302.070738,164.738829 301.532249,164.895378 C301.510282,164.901812 301.488011,164.907939 301.465739,164.914066 Z M230.106391,160.602085 C230.223852,161.189984 230.418806,161.784012 230.832207,162.432264 C231.794774,163.941075 234.400266,164.80776 236.698834,165.572428 C237.807846,165.941283 238.854924,166.289611 239.672267,166.692777 L240.231807,166.967886 C242.060533,167.866739 244.057975,168.848309 245.90226,170.008484 C245.251802,168.572281 244.521105,167.170695 243.69583,165.849682 C242.311014,163.633185 240.782805,161.934433 239.304936,160.291438 C236.370859,157.029344 233.812352,154.184815 233.522819,148.635149 C233.505124,148.66027 233.488039,148.684472 233.471259,148.708062 C231.505546,151.466198 228.020778,152.865639 225.79055,152.626374 C225.686514,152.615039 225.585223,152.60064 225.486678,152.582565 C225.951334,153.066303 226.400431,153.546366 226.824204,154.000081 C227.251639,154.457779 227.654056,154.888211 228.021388,155.266869 C228.80029,156.069832 229.240233,156.807541 229.505359,157.506342 C229.913878,158.12304 230.288532,158.795188 230.625354,159.528302 C230.725424,159.746734 230.689424,160.003768 230.532606,160.185438 C230.399891,160.339536 230.257717,160.47801 230.106391,160.602085 Z M155.429466,167.278839 C155.953615,167.531584 156.486002,167.908098 157.024491,168.408379 C157.147138,168.522038 157.217919,168.681344 157.22036,168.848921 C157.225852,169.224209 157.356737,169.596127 157.495249,169.989797 C157.500435,170.005421 157.505927,170.021045 157.511419,170.036669 C157.529724,170.017369 157.54803,169.998068 157.566335,169.978768 C157.469926,168.928268 157.410433,167.892473 157.431789,166.899569 C156.759975,166.94736 156.089687,167.073273 155.429466,167.278839 Z M207.732115,147.292997 C205.588839,149.824122 202.488487,150.792212 199.467154,151.735487 C198.178747,152.137734 196.846713,152.553461 195.627257,153.085604 C191.590576,154.845321 188.982339,158.579206 187.418434,164.836251 C186.906793,166.883944 186.544648,168.786731 186.330473,170.564523 C186.389356,170.483645 186.447934,170.402766 186.506207,170.322194 C187.30677,169.221146 188.063095,168.180756 188.603109,166.83217 C189.090952,165.614399 189.474453,164.345466 189.845446,163.119117 C191.224465,158.558374 192.527211,154.250681 198.674218,153.539626 C202.478419,153.101534 206.459268,154.212693 210.308622,155.28862 C211.838052,155.716296 213.282056,156.119768 214.671753,156.413259 C215.810054,156.653749 217.289448,157.243488 219.002238,157.926052 C222.429039,159.2921 226.585622,160.948881 228.774662,159.991514 C228.764289,159.911861 228.754526,159.833434 228.744763,159.755619 C228.67032,159.167719 228.600759,158.618114 228.404279,158.056867 C225.185857,153.314453 219.741173,152.171433 214.014583,150.969593 L213.605759,150.883813 C210.076142,150.141202 208.427116,148.865223 207.732115,147.292997 Z M284.148983,169.66567 C284.123356,169.885022 284.131288,170.093039 284.181323,170.285738 C284.291157,170.710962 284.608453,171.068788 285.149077,171.375451 C288.393128,170.839632 290.47569,169.718977 291.51087,167.952213 C292.198549,166.77917 292.393198,165.375134 292.277568,163.832624 C290.911363,164.170843 289.593362,164.16686 288.475198,163.797393 C288.2537,163.930965 288.015118,164.065149 287.782332,164.19627 C287.773179,164.201478 287.764027,164.20638 287.755179,164.211588 C287.482731,165.453255 286.906716,166.697066 285.925843,167.931993 C285.546003,168.409605 284.922088,168.996586 284.148983,169.66567 Z M42.8737591,158.669275 C42.9564393,159.418626 42.9320318,160.231086 42.7739938,161.119829 C42.3718817,163.384117 40.8406215,164.752616 39.3597016,166.076386 C38.7013116,166.664593 38.0206499,167.273018 37.4428043,167.957115 C36.09521,169.551705 35.4124125,171.583162 35.7144543,171.965802 C35.7864562,172.056484 36.3115207,172.154212 37.7292864,171.424162 C38.0520744,171.25781 38.4422879,170.697176 38.8199927,170.154617 C39.3206498,169.43529 39.8884273,168.620072 40.6429215,168.171565 C42.3065918,167.18203 44.213116,167.181724 45.8703794,167.25862 C50.2124585,167.460509 54.9767858,168.763448 57.4303411,169.522601 C57.9834741,169.693855 58.5512516,169.857756 59.1263513,170.023802 C59.8311154,170.227224 60.5413712,170.432177 61.2458302,170.655205 C61.4151566,169.985508 61.6278062,169.293752 61.8868299,168.578714 C63.4611081,164.23334 64.4489982,163.393307 67.9908192,161.687203 C68.7029055,161.344389 69.2151561,161.180794 69.6267261,161.049673 C70.4092888,160.799685 70.6728889,160.715743 71.4228067,159.48725 C71.7196619,159.000754 71.6122693,158.730547 71.4496549,158.321866 C71.1601219,157.594573 70.9871344,156.8152 72.2547945,155.96996 C73.0547475,154.851755 72.9531516,154.016012 72.8140294,152.870235 C72.7374511,152.241895 72.6511099,151.529002 72.7295187,150.713784 C73.0080683,147.818094 74.0862658,147.234789 76.6914522,145.825238 C76.8259981,145.752631 76.9654255,145.677267 77.1094292,145.59884 C76.7305041,145.222327 76.3982582,144.845813 76.0745548,144.479103 C75.4631491,143.786429 74.8856087,143.131743 74.1106732,142.636976 C73.9868056,142.557936 73.8952778,142.436618 73.8534801,142.295387 C73.3360429,140.555277 73.5676083,138.895738 73.8269371,137.644575 C73.8711755,137.431962 74.0234167,137.25979 74.2259983,137.18994 C74.2073876,137.081183 74.2107436,136.965993 74.2363714,136.845288 C74.26444,136.713554 74.3346113,136.594687 74.4368173,136.507069 C75.6880024,135.433286 76.0861484,133.201166 75.4509454,130.820462 C75.2501944,130.067435 74.9664582,129.387015 74.6241442,128.808612 C74.5429896,128.885202 74.4596993,128.963323 74.3739682,129.043588 C73.6286268,129.740858 73.1017318,129.862788 72.7170099,129.951632 C72.365238,130.032817 72.1711991,130.077545 71.6702369,131.04012 C71.387416,131.584211 71.38406,132.205504 71.3800938,132.925138 C71.3770428,133.528356 71.3733817,134.211839 71.2040553,134.961189 C70.4791551,138.165689 69.280751,142.121376 67.6878621,142.767484 C65.3770902,143.704632 64.2665528,142.068989 63.4553114,140.874501 C62.8344478,139.961556 62.4228777,139.407049 61.8136077,139.484251 C60.8696509,139.606181 60.2545841,139.97381 59.9336266,140.60797 C59.576363,141.314124 59.5513454,142.337665 59.856133,143.670626 C59.9412539,143.678285 60.0279002,143.688088 60.1157669,143.69973 C60.2893646,143.723013 60.4446568,143.819822 60.5422865,143.966261 C62.6413241,147.117148 63.7506411,149.704336 63.9333916,151.875186 C63.9495615,152.067272 63.8751189,152.255682 63.7320304,152.384045 C63.5892471,152.512409 63.3952081,152.566022 63.2060507,152.527727 C63.1090312,152.514247 62.7197329,152.526502 62.532406,152.532935 C62.3884023,152.537837 62.2611786,152.541513 62.1763629,152.541207 C61.8432016,152.539062 61.5734997,152.269774 61.5695335,151.935232 C61.5667877,151.651545 61.6903502,151.446898 61.8065905,151.311794 C61.7739456,151.252054 61.73886,151.187719 61.7010285,151.118483 C60.6951379,149.282482 59.5583626,147.034737 58.9246851,144.922403 C57.1286045,145.247142 56.5202496,147.343239 55.8124346,150.525987 C55.3422868,152.639547 54.8562742,154.824795 53.5992923,156.042873 C51.4163542,158.157658 48.4084455,159.413111 45.7459016,159.353984 C44.6957726,159.325187 43.7280186,159.092355 42.8737591,158.669275 Z M167.676191,173.728277 C168.194544,174.410229 168.797102,174.975764 169.532986,175.37311 C170.894004,173.904432 169.84357,170.533275 168.826086,167.267198 C167.981894,164.558691 167.109329,161.757665 167.468728,159.660648 C167.498628,159.48725 167.525476,159.314158 167.552019,159.141985 C167.768329,157.747446 168.013319,156.166947 169.798111,155.435672 C171.391305,154.782824 172.117426,155.55699 172.597947,156.068607 C172.935074,156.427964 173.128808,156.615761 173.507123,156.626177 C175.180251,156.669986 175.805386,156.341877 176.26272,155.496024 C175.813013,154.996968 175.209845,154.525484 174.415689,154.083717 C173.84303,153.765411 173.256337,153.530741 172.688559,153.30373 C171.931014,153.000743 171.163706,152.693466 170.556266,152.199312 C169.716346,153.721908 168.603978,154.971234 167.256994,155.46784 C166.214492,155.852318 164.637468,155.914202 162.776098,154.292959 C163.308485,157.509406 163.200177,160.580639 162.495108,163.354094 C163.70419,164.935205 164.482786,166.855453 165.229958,168.742003 C166.48755,170.155536 167.190789,171.901774 167.676191,173.728277 Z M38.3495398,172.480176 C41.0584577,173.109435 43.7368663,174.322304 46.3756129,175.517098 L46.5217523,175.583271 C50.6941998,177.472271 56.7161192,179.223104 61.7443516,179.617693 C60.7891064,177.296729 60.4538096,174.783372 60.9843658,171.857964 C60.2570248,171.625133 59.5196158,171.412214 58.7892239,171.201134 C58.2064969,171.03325 57.6313972,170.867204 57.0709419,170.6935 C52.9302241,169.412925 48.9322896,168.627731 45.8139373,168.482824 C44.3327123,168.413587 42.6388378,168.408686 41.2647003,169.225741 C40.7371951,169.539451 40.2710135,170.209149 39.8200865,170.856788 C39.3532947,171.527405 38.9115205,172.162177 38.3495398,172.480176 Z M63.1004886,179.691219 C63.8876277,179.71297 64.6415117,179.69612 65.3496318,179.635155 C67.2186296,179.472786 68.385304,178.985677 68.6348698,178.262367 C68.8984699,177.498006 68.1995026,176.25879 66.7170572,174.862412 C65.4417698,173.661185 63.8482707,172.873539 62.1519554,172.25531 C61.6723497,175.070735 62.0668346,177.456035 63.1004886,179.691219 Z M280.382004,172.799707 C277.296907,175.38996 273.806342,178.603037 273.963159,180.659002 C277.52115,179.424381 279.667477,176.854961 280.345698,173.015996 C280.358207,172.944308 280.370411,172.872314 280.382004,172.799707 Z M116.606728,167.915144 C118.570304,169.579584 119.469107,171.761462 120.339537,173.874409 C121.503465,176.700251 122.603019,179.368931 126.203418,180.595586 C130.263591,181.97879 133.789242,181.02418 136.994546,179.785883 C137.624868,179.542329 138.2738,179.262012 138.960868,178.965151 C141.381169,177.920166 143.879573,176.843626 146.161056,177.081053 C146.371875,176.82984 146.585134,176.500812 146.80175,176.117865 C146.838056,175.339104 147.025993,174.467517 147.448547,173.442752 C148.263449,171.46644 149.472837,169.763398 150.951926,168.456477 C151.536178,167.788312 152.184195,167.284047 152.919469,167.045701 C153.512264,166.707789 154.132822,166.42594 154.774432,166.20475 C155.672015,165.895329 156.589123,165.716416 157.506537,165.666174 C157.649626,164.281438 158.005364,163.014343 158.710738,161.951589 C158.83369,161.766549 159.04512,161.663613 159.267227,161.680463 C159.510081,161.700682 159.740121,161.691185 159.98389,161.681995 C160.209353,161.67311 160.442749,161.664226 160.682857,161.67985 C160.810386,161.688428 160.932423,161.736833 161.031273,161.81863 C161.192972,161.952508 161.348264,162.090982 161.498065,162.234663 C162.007875,159.750104 162.02618,157.028731 161.519116,154.18604 C161.420571,153.633065 161.303416,153.084072 161.169175,152.539675 C159.708696,150.613605 158.844369,148.387918 158.595413,145.995267 C156.030194,141.360078 152.18206,137.626193 147.8052,135.794175 C147.755775,136.197648 147.62367,136.628387 147.352443,137.1109 C147.241999,137.307275 147.043994,137.428286 146.808157,137.422465 C145.246998,137.389379 144.15141,136.813427 143.551598,135.710846 C143.365796,135.368951 143.238878,134.986617 143.161995,134.574873 C140.163544,134.244313 137.147092,134.792386 134.149252,136.213885 C133.33618,136.599589 132.534396,137.048403 131.747867,137.553893 C132.115504,139.123056 132.212523,140.751652 130.956457,142.108203 C129.908769,143.239887 128.505647,143.840042 126.916114,143.805117 C126.320574,143.797152 125.733575,143.706776 125.169154,143.554823 C122.644512,146.671091 120.608628,150.369439 119.377274,154.264161 C117.791708,159.278927 116.873989,163.79004 116.606728,167.915144 Z M181.437702,169.02906 C181.476754,169.037331 181.521907,169.047747 181.574383,169.061227 C181.738523,169.102892 181.878256,169.210729 181.960021,169.359926 C182.839603,170.963094 182.61658,173.935681 182.358472,177.377607 C182.239485,178.959637 182.114703,180.624384 182.111652,182.161685 C182.316064,181.837253 182.487526,181.522317 182.620851,181.2227 C183.14317,180.049657 183.330192,178.81136 183.528502,177.500456 C183.732304,176.150033 183.943123,174.753655 184.552698,173.438463 C184.667718,173.190619 184.789755,172.951354 184.917589,172.719442 C185.047559,170.246218 185.484756,167.538937 186.234979,164.537553 C187.875768,157.972925 190.788793,153.85885 195.14094,151.961578 C196.421109,151.403089 197.785483,150.977252 199.104704,150.565507 C202.345398,149.553609 205.434767,148.588889 207.33763,145.79062 C207.192101,144.546808 207.395292,143.186581 207.602755,141.799088 C207.801066,140.471029 208.004562,139.10927 207.973748,137.692673 C206.572762,134.20755 203.48675,130.765011 200.199376,128.327325 C197.566426,126.374909 194.455091,124.792879 191.439555,124.088256 C189.547676,126.320071 187.048051,128.587422 184.843757,128.357654 C184.141128,128.282903 183.533078,127.968886 183.023269,127.418975 C181.838594,127.998909 180.462626,128.180273 179.126625,128.356122 C177.62984,128.552804 176.0818,128.756838 174.840073,129.518749 C170.786001,132.005146 171.348592,136.102984 171.943828,140.441312 C172.038712,141.132148 172.134816,141.832175 172.21292,142.532814 C172.930193,141.484459 173.655703,140.625739 174.200598,140.318463 C175.457885,139.609551 176.762767,139.491297 177.972459,139.976568 C179.468024,140.576722 180.717988,142.098093 181.316275,144.047139 C182.309047,147.281968 181.312919,148.689987 180.159669,150.319809 C179.741387,150.911385 179.30846,151.523181 178.911229,152.294589 C178.48532,153.121448 178.212567,153.875087 177.971849,154.540189 C177.873914,154.809784 177.779336,155.071107 177.67957,155.321094 C179.232492,157.613261 178.580814,160.302161 177.987104,162.750876 C177.367155,165.30988 176.779547,167.734086 178.434064,169.724797 C178.971333,169.521682 179.440565,169.488902 179.833525,169.461636 C179.938171,169.453977 180.036716,169.447237 180.127329,169.43774 C180.169127,169.309377 180.220992,169.184383 180.282926,169.063984 C180.36225,168.909886 180.503203,168.796534 180.670089,168.752419 C180.83789,168.70861 181.015454,168.737714 181.160068,168.832991 C181.280579,168.912644 181.369666,168.975753 181.437702,169.02906 Z M182.191281,184.114101 C182.337115,185.661819 182.706887,186.933816 183.479687,187.636906 C184.077974,188.180997 184.913623,188.36665 186.030872,188.203667 C187.688746,186.394627 186.723433,183.17726 185.869478,180.33028 C185.466756,178.988128 185.08661,177.720727 184.985015,176.64143 C184.974946,176.533899 184.965794,176.426061 184.956641,176.317917 C184.873961,176.763667 184.80501,177.21922 184.734839,177.684271 C184.533477,179.018151 184.325099,180.397985 183.73505,181.722981 C183.40799,182.457933 182.873773,183.27989 182.191281,184.114101 Z M168.177459,175.954883 C168.18295,175.981842 168.188137,176.008495 168.193324,176.035455 C168.438923,177.290908 168.294919,179.091371 168.142373,180.997833 C167.984945,182.963423 167.806771,185.190948 168.21468,186.138512 C168.998158,187.95705 170.27253,188.884087 172.003016,188.89481 C174.964856,188.90155 178.684546,186.312523 180.933689,183.725947 C180.80555,181.763114 180.974571,179.505872 181.141152,177.285393 C181.342818,174.604459 181.549671,171.840808 181.073116,170.381628 C181.005996,170.452396 180.921485,170.507541 180.825381,170.539708 C180.522424,170.641725 180.215196,170.66317 179.91834,170.684003 C179.497007,170.713413 179.061335,170.743742 178.565865,171.007516 C178.326672,171.134348 178.033478,171.088394 177.844625,170.894777 C175.371239,168.362119 176.131225,165.226857 176.801514,162.461062 C177.328104,160.288068 177.808319,158.30808 177.000739,156.593703 C176.380486,157.403712 175.401138,157.906445 173.473563,157.850994 C172.570793,157.826179 172.073187,157.296181 171.709822,156.909252 C171.275675,156.446652 171.07767,156.235265 170.259106,156.57042 C169.166264,157.018315 168.984734,157.867538 168.75805,159.330395 C168.730287,159.509001 168.702523,159.688833 168.671709,159.868971 C168.36204,161.674029 169.190061,164.331374 169.990625,166.901101 C171.19513,170.766719 172.440824,174.764071 169.996726,176.594557 C169.820078,176.726597 169.586987,176.752944 169.385321,176.663488 C168.945682,176.468644 168.545095,176.229686 168.177459,175.954883 Z M248.681044,173.690288 C249.668324,176.505407 250.410309,179.285601 251.007681,181.726351 C251.179753,182.428523 251.300875,183.181856 251.429624,183.978998 C251.765836,186.065292 252.113642,188.222662 253.388624,189.536935 C254.44638,190.627568 255.541968,191.097826 256.396533,190.823943 C257.186418,190.571811 257.738941,189.686744 257.951285,188.332031 C258.530046,184.644713 252.366869,177.168978 248.681044,173.690288 Z M148.607594,191.025526 C148.639934,191.025832 148.671968,191.025832 148.704003,191.025832 C154.976098,191.025832 156.754484,187.466571 158.1094,180.124102 C158.50297,177.991241 158.178351,175.286411 157.864106,172.671037 C157.818952,172.293911 157.773493,171.915253 157.729865,171.536902 C157.687152,171.576728 157.643829,171.616248 157.600506,171.655768 C157.430264,171.810479 157.188631,171.856126 156.97354,171.773716 C156.75906,171.691612 156.608649,171.495237 156.584547,171.266082 C156.556173,171.001083 156.453357,170.708205 156.344439,170.397865 C156.212944,170.024415 156.066805,169.608994 156.01738,169.146701 C155.085017,168.329952 154.264012,168.0046 153.511043,168.155328 C153.474737,168.162374 153.438431,168.170952 153.40243,168.180449 C152.848687,168.505801 152.321182,168.886297 151.826322,169.316116 C150.795108,170.524084 149.911865,172.443107 149.152184,174.094374 C148.757089,174.952481 148.388537,175.753606 148.01846,176.441685 C148.027613,177.45389 148.347655,178.3025 148.712241,179.269977 C149.023435,180.095304 149.376122,181.030307 149.562229,182.171182 C149.825829,183.788137 149.392597,185.268763 148.9734,186.700371 C148.534372,188.201523 148.117615,189.625166 148.607594,191.025526 Z M76.7854208,193 C75.43325,193 74.0401968,192.789839 72.5238862,192.156292 C69.9626332,191.086185 68.9079278,189.686438 67.6866418,188.066113 C67.2079513,187.431034 66.713091,186.774203 66.0784982,186.065292 C64.5545603,184.361945 63.2673743,182.673302 62.338062,180.890608 C56.8698859,180.601407 50.3695812,178.669516 46.02018,176.700557 L45.8740406,176.634384 C40.0409736,173.993276 34.53161,171.497994 28.9340746,174.938082 C23.9214018,178.0182 17.4812004,186.566799 17.1114281,192.152309 C17.0900716,192.474291 16.8237257,192.724278 16.5024631,192.724278 L0.610185361,192.724278 C0.273057949,192.724278 0,192.450088 0,192.111563 C0,191.773345 0.273057949,191.498848 0.610185361,191.498848 L15.9487199,191.498848 C16.7102312,185.435421 23.1723993,177.041839 28.297041,173.892791 C30.3655694,172.621714 32.4246399,172.089571 34.4696762,172.043311 C34.2356701,170.646933 35.4316334,168.442998 36.5122717,167.164262 C37.145339,166.414605 37.8586457,165.777381 38.5481551,165.16099 C39.9952097,163.867855 41.2445642,162.750876 41.5725389,160.904459 C41.7919005,159.670145 41.7180681,158.615969 41.4318911,157.674532 C41.3165661,157.567307 41.2049022,157.455487 41.0965943,157.338765 C40.9452683,157.17517 40.8946229,156.941725 40.964184,156.730032 C40.9657095,156.725437 40.967235,156.721454 40.9687604,156.717165 C40.9419123,156.641495 40.9306239,156.562149 40.934285,156.484027 C40.1483662,155.015962 38.8437899,153.792371 37.4348719,152.470744 C36.0900234,151.209164 34.6991059,149.904082 33.6776556,148.267826 C30.1611573,142.633912 28.6201342,132.717121 30.1690897,125.691119 C31.3488831,120.339666 35.1765759,115.459085 40.6700747,112.300846 C46.99129,108.666221 55.6666003,109.244624 61.4606154,111.428953 C66.0370056,113.154358 72.6273126,118.502134 75.2874157,122.648683 C77.0316306,125.367299 77.1362774,126.218666 75.5177607,127.926915 C75.9879085,128.654821 76.3689693,129.525795 76.6298235,130.503688 C77.322689,133.10068 76.9190514,135.603927 75.6102038,137.065865 C75.739258,137.257339 75.7807506,137.475159 75.7340714,137.717488 C75.6870871,137.958591 75.5015908,138.148533 75.2617879,138.199694 C75.156836,138.222058 75.0521893,138.245648 74.9478476,138.270156 C74.755029,139.308402 74.6439753,140.495844 74.9646277,141.735366 C75.7825811,142.300595 76.3945971,142.994189 76.9880023,143.666337 C77.3815719,144.112394 77.7882604,144.573155 78.264205,145.011553 C78.4463453,145.17913 78.5058384,145.435551 78.4295652,145.660418 C78.475024,145.776527 78.484787,145.904891 78.455193,146.028047 C78.4152259,146.196237 78.3060027,146.339612 78.1549818,146.422942 C77.839516,146.596646 77.5447965,146.755646 77.270213,146.904229 C74.695841,148.297237 74.1600983,148.586744 73.9440926,150.831732 C73.8784977,151.513377 73.9532454,152.12793 74.0255524,152.721958 C74.175658,153.957191 74.3309502,155.234702 73.168547,156.790691 C73.1240035,156.850737 73.0684766,156.901899 73.0053225,156.941725 C72.3734755,157.341216 72.401239,157.411371 72.5830742,157.867231 C72.7810793,158.365062 73.0800702,159.11717 72.4631728,160.127537 C71.5176906,161.67648 70.9953719,161.898283 69.9961934,162.217201 C69.6209294,162.337293 69.1538325,162.486183 68.5183244,162.792234 C65.1900684,164.395709 64.4816432,165.000459 63.0336733,168.997505 C62.7773954,169.70519 62.5690171,170.385917 62.4060976,171.043666 C64.2882144,171.714589 66.0803288,172.582193 67.5517908,173.968461 C69.4830275,175.787305 70.235386,177.367191 69.7878151,178.663696 C69.3588547,179.905975 67.9011219,180.643684 65.4545837,180.855683 C64.9038914,180.903475 64.3318426,180.927065 63.7439291,180.927984 C64.5844594,182.383488 65.6882847,183.79549 66.9864541,185.246092 C67.6552172,185.993911 68.1888243,186.701903 68.6595823,187.326566 C69.8198498,188.866319 70.7363482,190.081945 72.9925086,191.024607 C75.6486454,192.13454 77.8746016,191.792032 80.4523297,191.395912 C80.9661058,191.317178 81.4905601,191.236606 82.0314894,191.164919 C83.8940802,190.919526 85.8478938,190.55251 87.916117,190.164049 C92.4177596,189.318502 97.0719484,188.444158 101.702645,188.625828 C104.419801,188.73244 108.321631,188.968948 111.405203,189.783553 C113.985982,185.617704 115.805859,178.179957 115.41412,173.246989 C115.302456,171.839277 115.275303,170.38898 115.333881,168.890586 C115.296355,168.860563 115.262489,168.825945 115.23259,168.787343 C115.203301,168.763754 115.178589,168.740471 115.158453,168.719332 C115.071501,168.626812 114.953736,168.450657 114.962583,168.176773 C112.182274,164.978401 105.207855,163.520752 101.173309,162.926725 C99.6991015,162.709824 97.8923426,162.707067 95.9794115,162.704309 C90.9893156,162.69757 85.3332024,162.689298 82.4329914,158.932743 C80.6387413,156.608715 80.9953947,152.568472 81.3398443,148.660883 C81.5653078,146.1077 81.7980935,143.467205 81.3999476,141.494569 C81.1448901,140.232376 80.9990558,138.870924 80.8577979,137.554199 C80.6457585,135.576355 80.4456177,133.708494 79.9123157,132.162001 C79.4385067,130.787988 78.794151,129.430212 78.1708466,128.117163 C77.4706589,126.641746 76.746674,125.116698 76.2438813,123.533749 C74.159183,116.97096 76.6746721,110.299413 82.9723952,105.687814 C85.8543007,103.577624 93.5389752,100.870036 97.4481277,102.777724 C98.7487378,103.412497 99.562725,104.510788 99.8360881,105.983449 C100.871573,107.339693 101.087883,109.000457 101.33867,110.924995 C101.376501,111.216647 101.415553,111.516877 101.458571,111.826605 C101.572371,112.641516 101.899125,113.697836 102.215506,114.719232 C102.662772,116.164014 103.085325,117.528836 103.031934,118.502441 C102.987695,119.309692 102.182861,119.574385 101.650474,119.749622 C101.495182,119.800477 101.249888,119.881356 101.139749,119.946916 C101.14341,120.346406 101.386874,121.65057 101.45552,121.930581 C101.506165,122.086823 101.492436,122.258996 101.414333,122.406967 C101.29016,122.642249 101.293211,122.868341 101.297482,123.181132 C101.304194,123.651697 101.312432,124.237452 100.825199,124.86763 C100.1723,125.712257 99.2478694,125.562449 98.6370738,125.463189 C98.4198479,125.427651 98.0570927,125.368831 97.9893621,125.43194 C97.6589467,125.741974 97.3971772,126.027193 97.1936804,126.298626 C97.574436,126.705468 97.9677005,127.111086 98.3655414,127.521298 C100.608583,129.834603 102.927897,132.226949 103.482556,135.542656 C103.550897,135.950724 103.595745,136.333671 103.617102,136.691803 C105.722241,138.80138 107.343199,141.243356 107.784058,143.70984 C107.810295,143.856585 107.838974,144.019874 107.869483,144.197255 C108.919307,143.347113 110.055778,142.670982 111.304827,142.14711 C112.199054,141.771822 113.161926,141.577898 114.093069,141.390407 C116.310483,140.944045 117.690112,140.582849 118.098631,138.865409 C118.2106,138.393006 118.17826,137.844626 118.049511,137.241408 C117.362747,136.699462 116.393163,136.442121 114.248666,136.254324 C113.808723,136.215723 113.382508,136.184168 112.968497,136.153226 C109.917876,135.925296 107.2834,135.728615 104.952187,133.119368 C104.892084,133.051663 104.84754,132.971704 104.821608,132.885005 C103.616797,128.826381 105.115717,123.502501 109.4041,116.609151 C110.57535,114.726585 112.133764,113.527502 113.508511,112.469343 C114.253548,111.896454 114.93665,111.371051 115.491614,110.798163 C115.486122,110.690019 115.493444,110.582487 115.513886,110.476181 C115.720738,109.404849 116.257091,108.801938 116.803818,108.463106 C116.851717,108.233338 116.882837,107.990397 116.895956,107.733363 C114.523555,105.085821 113.550309,101.308127 114.47352,98.2515989 C115.29727,95.5237919 117.500344,93.6200866 120.676054,92.8912621 C124.171806,92.0879929 128.189571,93.4892719 129.609778,95.2480702 C130.294406,96.095455 130.190064,96.8009962 130.037213,97.1857812 C130.24376,97.3368154 130.427731,97.5050057 130.586379,97.6897392 C131.497081,98.7494297 131.668238,100.031536 131.833598,101.271364 C132.009332,102.589008 132.175607,103.833126 133.142446,104.963585 C133.257161,105.097769 133.308721,105.27515 133.283704,105.45008 C133.258686,105.625317 133.159226,105.78064 133.011561,105.876836 C131.318602,106.979723 131.209684,108.218633 131.083375,109.653918 C131.005577,110.534695 130.925642,111.442433 130.470139,112.324129 C130.576921,112.323517 130.685229,112.322904 130.791707,112.322904 C135.667088,112.322904 139.761432,113.31152 141.753077,114.971364 C143.267557,116.233557 143.648922,117.911477 142.857817,119.747477 C144.062933,121.282328 144.057442,122.772451 144.051645,124.330585 C144.048899,125.033982 144.046153,125.761275 144.146529,126.555353 L144.213039,127.092091 C144.26521,127.518541 144.303041,127.827962 144.350941,128.089591 C145.00689,126.457931 145.772368,125.017745 146.280347,124.186291 C148.706444,120.214366 151.314681,118.923988 154.581003,117.415484 C154.428457,116.775197 154.57063,116.082829 155.005998,115.350941 C155.098746,115.195312 155.255563,115.088699 155.434043,115.060208 C156.044228,114.962786 156.621768,114.981168 157.17063,115.079815 C157.300294,114.056887 157.254531,113.04652 157.207241,111.99694 C157.106256,109.764513 157.001914,107.456109 158.719586,105.031596 C161.278093,101.420254 164.815642,100.012542 168.679946,101.069475 C171.374525,101.805958 175.672671,104.451968 176.339908,107.791264 C176.667578,109.432115 175.883185,110.537453 175.309915,111.344398 C174.970652,111.822009 174.677458,112.234979 174.692408,112.604753 C174.727493,113.490432 175.19276,113.951807 175.896609,114.649995 C176.257228,115.007208 176.665747,115.412519 177.06847,115.934859 C177.196914,116.101517 177.230779,116.322707 177.158777,116.520308 C177.08647,116.718215 176.918669,116.86496 176.713342,116.909075 C176.490624,116.956867 176.212685,117.115254 175.918575,117.283138 C175.645517,117.439074 175.350493,117.60757 175.025874,117.732564 C175.442631,119.165398 175.88349,120.778677 175.083232,122.348759 C174.999331,122.514192 174.845259,122.631833 174.664339,122.669515 C172.445095,123.132421 170.356736,122.335585 169.079618,120.534816 C168.434042,119.624934 168.071286,118.566163 167.994098,117.477062 C167.700294,117.863992 167.318318,118.229782 166.824068,118.564937 C164.227729,120.325268 162.09147,118.987098 160.206607,117.807009 C159.498487,117.364323 158.809588,116.932971 158.098722,116.631822 C158.069738,116.733839 158.038924,116.836469 158.005669,116.939098 C157.955023,117.096566 157.843359,117.226462 157.695695,117.299681 C157.236225,117.527611 156.79323,117.738998 156.362134,117.940581 C157.922378,119.151306 161.981942,119.591541 163.853075,119.794656 C164.285697,119.841223 164.650587,119.881049 164.917543,119.918731 C165.175347,119.954881 165.424302,119.988581 165.663495,120.021055 C167.721955,120.299533 169.209282,120.500504 169.903978,121.597264 C170.431483,122.429637 170.4025,123.599616 169.806959,125.507917 C168.931648,128.3117 167.002547,130.521151 165.136905,132.6583 C163.506185,134.525855 161.819937,136.457133 160.915643,138.735207 C159.971076,141.114073 159.603439,143.460771 159.795342,145.653372 C160.868658,147.637343 161.717426,149.772041 162.28856,151.988538 C162.488701,152.242508 162.700435,152.489739 162.923763,152.731148 C164.311324,154.229236 165.627799,154.763524 166.836271,154.317467 C167.991657,153.891324 168.978937,152.655478 169.716956,151.161679 C169.339557,150.396092 169.220266,149.337014 169.532375,147.798793 C169.683701,147.052506 170.331718,145.65184 171.135332,144.254237 C171.070653,143.054541 170.900716,141.81747 170.734746,140.608583 C170.112051,136.07051 169.468001,131.377726 174.203954,128.472845 C175.666569,127.575523 177.344884,127.35464 178.967977,127.140802 C180.188347,126.980271 181.351971,126.827092 182.320945,126.396047 C182.133923,126.036077 181.968258,125.62709 181.823644,125.169698 C181.747676,124.928901 181.826085,124.666659 182.021039,124.50766 C182.612919,124.026985 183.240495,123.638217 183.895834,123.333698 C183.731999,123.095352 183.53735,122.839543 183.328666,122.565047 C182.791398,121.857974 182.182128,121.056543 181.69398,120.043725 C178.917026,114.281754 179.882034,104.909359 185.287972,101.461612 C187.868445,99.8158601 190.776284,99.340087 193.699072,100.085455 C197.092007,100.950915 200.205478,103.432716 202.027492,106.724834 C202.862835,108.232725 203.134063,109.426907 203.151148,110.497932 C203.451969,111.114324 203.532514,112.045038 202.781986,113.371872 C202.77924,113.375855 202.776799,113.38045 202.774359,113.385045 C202.610829,114.260921 202.473537,115.191635 202.543708,116.353956 C202.572387,116.829729 202.621812,117.32419 202.673983,117.847448 C202.889073,120.007575 203.132842,122.455371 201.818503,124.031887 C201.066755,124.93319 199.933335,125.430715 198.352955,125.552951 C198.30109,125.556934 198.247698,125.553871 198.196748,125.54468 C199.159926,126.105314 200.076424,126.713127 200.924277,127.341466 C203.513293,129.261715 205.913152,131.689292 207.592382,134.297006 C206.781141,126.915936 207.83066,118.083037 213.098085,113.527808 C216.637465,110.467297 221.433522,109.864385 227.352015,111.736229 C230.056051,112.590967 231.675483,114.041876 233.551498,115.72194 C234.224532,116.324852 234.920754,116.948595 235.710029,117.579998 C236.565814,118.265014 237.286443,118.883856 237.878627,119.484623 C237.434107,118.223349 237.340749,116.792659 237.574145,114.707284 C237.954901,111.299364 239.646029,108.204234 242.213384,106.215055 C244.709347,104.281939 247.824954,103.522786 251.227348,104.020923 C259.347389,105.210815 258.218241,113.546802 257.611717,118.025136 L257.598293,118.124702 C258.425094,119.374947 258.964193,121.318785 258.996838,122.911537 C259.031618,124.615191 258.507469,125.821933 257.52141,126.309961 C257.262081,126.438325 257.031736,126.510319 256.827629,126.540954 C257.199842,128.440983 257.004888,130.221533 256.24002,131.616685 C255.649666,132.693531 254.745676,133.519165 253.580527,134.058354 C253.600358,134.342654 253.636664,134.550058 253.690971,134.657589 C253.750464,134.774005 253.814839,134.882149 253.883179,134.982941 C257.499748,135.728615 261.203268,137.500893 264.840583,140.272203 C274.483952,147.620493 281.628918,160.502518 281.782685,170.053519 C282.224154,169.689873 282.643656,169.342157 283.028378,169.015273 C283.320352,167.85234 284.115728,166.671639 284.844595,165.590503 C285.216808,165.037528 285.56919,164.515189 285.791908,164.078935 C285.835841,163.992543 285.89991,163.918098 285.977709,163.861422 C286.179985,163.715289 286.419483,163.567318 286.67088,163.420573 C287.148655,160.161542 285.319014,156.867587 283.4131,153.436383 C283.26452,153.168933 283.11655,152.902096 282.969495,152.635565 C282.177169,151.197829 281.369894,149.94544 280.588857,148.734102 C277.889397,144.547115 275.757104,141.239679 277.644713,135.164917 L277.887871,134.377578 C279.110073,130.407492 280.211457,126.828318 283.461305,125.090045 C283.348115,124.646746 283.249875,124.085805 283.147669,123.365253 C283.007937,122.376637 283.001835,121.474721 282.995733,120.602215 C282.98597,119.198485 282.976817,117.87257 282.444736,116.190054 C280.791438,110.960226 279.334011,104.451049 280.162948,99.4301561 L205.173302,99.4301561 C204.836175,99.4301561 204.563117,99.1556598 204.563117,98.8174411 L204.563117,0.612714946 C204.563117,0.274496296 204.836175,0 205.173302,0 L342.499789,0 C342.836917,0 343.109975,0.274496296 343.109975,0.612714946 L343.109975,98.8174411 C343.109975,99.1556598 342.836917,99.4301561 342.499789,99.4301561 L308.788268,99.4301561 C311.70709,103.580993 311.400472,109.037833 310.591671,114.055049 C310.327766,115.691304 309.838397,116.727099 309.268179,117.369224 C309.53361,117.889113 309.655037,118.522354 309.622087,119.236473 C309.612629,119.442652 309.500355,119.630142 309.323401,119.735529 C308.864847,120.007881 308.41636,120.284828 307.97184,120.559937 C308.409343,122.509596 308.985663,124.420041 309.597984,126.375828 C311.178364,127.417749 312.488737,128.846294 313.395778,130.792583 C314.903851,134.028637 315.775806,138.064897 315.851469,142.158752 C315.92042,145.923273 314.311361,148.417635 312.754778,150.830507 C312.024386,151.963416 311.333962,153.033523 310.796083,154.239346 C310.756116,154.328803 310.695403,154.407536 310.619129,154.468502 C310.302138,154.721553 309.968367,154.964801 309.615069,155.222447 C308.431615,156.08515 307.209414,156.976037 306.626687,158.240375 C306.647128,158.622096 306.655976,158.975326 306.661467,159.30221 C307.037036,159.493377 307.422979,159.778596 307.82326,160.159704 C308.0353,160.3619 308.074962,160.68572 307.918449,160.933563 C307.65729,161.345308 307.278365,161.671885 306.825302,161.950976 C306.91683,162.440536 307.06541,162.959812 307.308569,163.567931 C307.599627,164.295837 308.056656,164.856777 308.540533,165.450804 C309.126311,166.170132 309.725513,166.905696 309.972943,167.905953 C312.784372,169.947826 314.880664,169.975704 314.966395,169.975704 C314.967615,169.975704 314.968531,169.975398 314.968836,169.975398 L347.389815,169.975398 C347.726637,169.975398 348,170.249894 348,170.588113 C348,170.926638 347.726637,171.200828 347.389815,171.200828 L314.981955,171.200828 C314.877003,171.20481 312.852713,171.230544 310.058674,169.449995 C310.051962,169.510653 310.043725,169.571925 310.034572,169.634422 C309.991554,169.925461 309.7487,170.144813 309.455811,170.156761 C306.992493,170.259697 301.163392,170.109889 300.235605,166.580344 C300.07177,165.9566 300.058041,165.419862 300.158722,164.952973 C299.695286,164.85739 299.239783,164.64539 298.804721,164.319732 C296.954639,162.935303 295.755929,159.67566 295.743726,158.040017 C295.711691,153.818105 298.606715,151.289736 301.406551,148.844697 C303.337788,147.1582 305.161632,145.565141 305.858158,143.537054 C306.427461,141.879048 305.598524,139.528979 303.695051,137.404084 C301.582894,135.046357 298.890757,133.756898 296.997351,134.195296 C295.296155,134.589271 294.035207,135.435124 293.117183,136.550266 C293.364308,136.541994 293.653231,136.460503 293.987917,136.305486 C294.069682,136.267804 294.154193,136.241764 294.248772,136.249423 C294.785735,136.253405 295.435277,136.215111 296.126617,136.173752 C299.263275,135.987793 303.557759,135.731678 304.708874,139.019813 C304.800097,139.280217 304.706433,139.570031 304.479749,139.727193 C301.980735,141.458419 299.065575,140.940368 296.245908,140.438861 C294.505354,140.129746 292.849922,139.83503 291.401342,140.087775 C290.686814,142.836721 290.893362,145.957891 291.365951,148.203798 C291.723214,149.904082 292.424927,151.653995 293.168133,153.506845 C294.305824,156.344022 295.482566,159.278314 295.395005,162.157461 C295.388293,162.368542 295.273883,162.561547 295.092048,162.668159 C294.55722,162.980644 294.013545,163.242886 293.47109,163.453047 C293.652926,165.331938 293.440886,167.075724 292.562524,168.573812 C291.308898,170.713413 288.879445,172.036264 285.135958,172.618344 C285.01087,172.638257 284.881206,172.617118 284.767711,172.559829 C283.819178,172.078848 283.227604,171.429064 283.008852,170.627326 C282.695827,170.887118 282.369378,171.155487 282.034386,171.430902 C281.937061,171.510861 281.838517,171.592046 281.738751,171.67415 C281.699699,172.206293 281.63624,172.725875 281.547153,173.23014 C280.767336,177.643832 278.124013,180.665129 273.902751,181.967761 C273.633659,182.050478 273.342906,181.938351 273.199207,181.695409 C273.190359,181.683768 273.15863,181.648537 273.135748,181.626785 C272.982286,181.547132 272.868182,181.404676 272.824858,181.234035 C272.068229,178.257772 276.585126,174.340073 280.554992,171.064192 C280.95985,161.810971 273.836241,148.665172 264.102869,141.248564 C263.336476,140.664647 262.567337,140.126989 261.797283,139.635898 C261.761893,139.674806 261.721315,139.70973 261.674941,139.739447 C257.57297,142.389745 245.214581,140.812004 242.228944,137.257339 C242.107517,137.112432 242.059312,136.91912 242.098669,136.73408 C242.138331,136.548734 242.260979,136.392185 242.43122,136.310081 C243.667151,135.713603 244.941523,135.272142 246.245184,134.984473 C245.827512,134.975588 245.431807,134.959658 245.070577,134.936987 C242.060533,134.750722 241.185527,134.599381 240.905757,132.186816 C240.736126,132.197232 240.566494,132.204279 240.397778,132.211937 C239.892239,132.233995 239.400735,132.255134 238.938825,132.346122 C239.003504,132.490723 239.060862,132.642063 239.110592,132.80045 C240.267503,136.473983 236.849855,143.2212 234.712071,146.779235 C234.715121,147.024934 234.716647,147.268488 234.716037,147.510817 C234.699867,153.342944 237.253798,156.182265 240.210756,159.470094 C241.723711,161.152303 243.287921,162.891188 244.729484,165.198672 C245.930939,167.121372 246.935609,169.201232 247.785902,171.309585 C247.947906,171.433659 248.10747,171.559572 248.264287,171.68763 C251.568441,174.384188 259.922184,183.645375 259.156706,188.522892 C258.868699,190.359811 258.019931,191.591675 256.766305,191.992084 C255.456542,192.409343 253.906671,191.827264 252.514534,190.391979 C250.970459,188.800758 250.574144,186.343158 250.224813,184.17476 C250.100335,183.402739 249.982874,182.673302 249.822701,182.018923 C249.090478,179.027036 248.138894,175.518936 246.780622,172.084669 C244.628498,170.492836 242.022701,169.212261 239.695454,168.068629 L239.134084,167.792294 C238.392098,167.426504 237.383157,167.090736 236.315027,166.735667 C233.823946,165.906971 231.000008,164.967985 229.80435,163.093383 C229.380881,162.428894 229.142909,161.803312 228.994329,161.215719 C226.294258,162.151641 222.07086,160.467594 218.551921,159.065089 C216.960253,158.430623 215.456756,157.831388 214.420356,157.612342 C212.992828,157.310886 211.529908,156.902205 209.981563,156.469322 C206.244483,155.424643 202.380484,154.343508 198.813645,154.757397 C193.46232,155.375932 192.32707,159.129118 191.013341,163.475105 C190.634721,164.727188 190.242982,166.021548 189.735308,167.289255 C189.138241,168.779685 188.301372,169.931282 187.492266,171.044892 C187.002592,171.718265 186.532445,172.364986 186.122705,173.069915 C186.070839,174.280333 186.097077,175.429786 186.199894,176.525933 C186.289896,177.483913 186.653566,178.694638 187.038288,179.97705 C188.013975,183.229647 189.119936,186.916353 186.750586,189.216792 C186.663024,189.301959 186.551971,189.358635 186.431764,189.379774 C184.845892,189.660091 183.577317,189.378855 182.660513,188.545256 C181.833102,187.792536 181.364175,186.663608 181.11949,185.30767 C178.660443,187.821027 175.089944,190.119933 172.03261,190.12024 L171.995389,190.12024 C169.768517,190.106454 168.073727,188.897873 167.094685,186.625007 C166.565959,185.397433 166.740777,183.212491 166.925969,180.899799 C167.065091,179.160301 167.209095,177.36137 166.995835,176.271657 C166.862509,175.590624 166.721556,174.917557 166.555891,174.26379 C165.546034,172.855771 164.854999,171.113209 164.177999,169.402816 C163.70602,168.903759 163.150752,168.459847 162.490836,168.083028 C161.987738,167.795664 161.469081,167.559463 160.940355,167.374423 C160.352747,168.465362 159.649508,169.479711 158.833995,170.404298 C158.905997,171.108001 158.991118,171.818444 159.075934,172.524292 C159.400858,175.231267 159.736765,178.030455 159.30933,180.347436 C158.083467,186.992636 156.400881,192.481337 148.178023,192.24391 C147.946763,192.23717 147.738995,192.100228 147.64167,191.889761 C146.748054,189.958177 147.284102,188.126465 147.802759,186.3548 C148.2006,184.995186 148.576779,183.710629 148.357723,182.369396 C148.191447,181.349225 147.876287,180.513176 147.571194,179.704086 C147.356104,179.134261 147.14498,178.574239 146.997315,177.981744 C146.936906,178.049143 146.875888,178.112559 146.813954,178.172298 C146.675442,178.305564 146.482318,178.365916 146.293466,178.334668 C144.276498,178.003802 141.819282,179.065024 139.44322,180.091015 C138.744558,180.392471 138.084947,180.677383 137.432659,180.929209 C134.01318,182.250529 130.238574,183.264879 125.811374,181.756068 C121.686826,180.350806 120.428624,177.296729 119.211914,174.34283 C118.487624,172.584644 117.795979,170.906112 116.534726,169.537919 C116.505437,170.775603 116.537472,171.978363 116.630525,173.149568 C117.052468,178.462112 115.015974,186.560366 112.183494,190.83344 C112.035829,191.055855 111.761551,191.15726 111.505883,191.082509 C108.489432,190.206633 104.439021,189.959708 101.655051,189.850032 C97.1631711,189.675409 92.5757976,190.535354 88.1406653,191.368646 C86.0553568,191.760171 84.0859835,192.130251 82.1901376,192.380239 C81.6583611,192.450395 81.1424494,192.529741 80.6369108,192.60725 C79.3420974,192.806382 78.0823698,193 76.7854208,193 Z"
                          id="Fill-1"></path>
                </g>
            </g>
        </g>
    </g>
</svg>
