<svg width="288px" height="174px" viewBox="0 0 288 174" version="1.1" xmlns="http://www.w3.org/2000/svg"
     xmlns:xlink="http://www.w3.org/1999/xlink">
    <!-- Generator: Sketch 50 (54983) - http://www.bohemiancoding.com/sketch -->
    <desc>Created with Sketch.</desc>
    <defs></defs>
    <g id="Page-1" stroke="none" stroke-width="1" fill="none" fill-rule="evenodd">
        <g id="Mobile-Portrait-320" transform="translate(0.000000, -1248.000000)" fill="#65C8CE">
            <g id="Spaces" transform="translate(-27.000000, 1164.000000)">
                <g id="Page-1" transform="translate(0.000000, 84.000000)">
                    <path d="M120.661441,1.09762478 C119.206109,1.09762478 117.514028,1.39081725 115.571756,1.97637939 C113.741686,2.5279323 110.220633,4.40419957 110.187439,5.69161347 C110.178386,6.04843611 110.520752,6.35698759 110.934994,6.59889195 C110.924843,6.15841757 111.095204,5.72699404 111.442508,5.3367107 C113.453363,3.07372559 122.100588,2.14286006 124.058771,2.93467172 C125.18271,3.38913377 126.122297,4.08056335 126.886038,4.94341042 C126.496212,4.16092387 126.031768,3.47388257 125.501484,2.91465016 C124.351209,1.70238568 122.750206,1.09762478 120.661441,1.09762478 Z M241.354156,5.245928 C242.433653,5.32601425 243.523575,5.45190325 244.621178,5.62414355 C252.201524,6.81336951 259.585449,10.1701353 264.95221,14.8560038 C263.768741,13.3543866 262.295577,11.819583 260.579355,10.1868657 C255.827098,5.66473521 248.888689,5.1277185 242.731303,5.20039951 C242.267956,5.20588487 241.809547,5.22096961 241.354156,5.245928 Z M171.772817,8.9669217 C170.443129,8.9669217 169.041566,9.3061912 167.607906,9.98363311 C165.693616,10.8884432 165.62037,11.3404368 165.620095,11.3450994 C165.955055,12.1566583 171.50891,12.5381651 173.599595,12.6816072 C176.058709,12.8505563 176.883351,12.9246087 177.240532,13.155268 C178.367214,13.8848209 179.118884,14.8837049 179.578939,16.0408415 C178.959497,13.2570215 177.358769,10.9635926 175.199775,9.81440977 C174.138384,9.24914346 172.985365,8.9669217 171.772817,8.9669217 Z M125.503678,10.886249 C125.621367,10.886249 125.740976,10.9070934 125.86223,10.9526219 C127.225387,11.465503 126.832543,14.6574338 126.81526,14.7931964 C126.695926,15.7237877 126.322011,16.4848813 125.960441,17.2207423 C125.541262,18.07399 125.185453,18.7988803 125.253487,19.6658414 C125.468564,19.5863037 125.683914,19.5117028 125.89954,19.4420387 C127.146928,17.9308221 127.968553,15.6966352 128.211337,13.0688736 C128.264283,12.499219 128.288424,11.9303872 128.285132,11.3678636 C127.929598,8.04373568 126.446832,5.08328709 123.647547,3.9516574 C122.055048,3.30849898 113.93125,4.18780213 112.262761,6.06544073 C112.002695,6.35808466 111.965934,6.60382878 112.136294,6.91402586 C112.980963,8.45184643 114.933111,8.19403453 117.000478,7.92113789 C118.873893,7.6734739 120.811501,7.41758188 122.066845,8.56018229 C122.853629,9.27684452 123.246747,10.4391922 123.26211,12.1034503 C123.383091,12.1119526 123.505168,12.1234719 123.6256,12.1344426 C123.688697,12.1404765 123.75097,12.1462361 123.811872,12.1514472 C124.256564,11.5335215 124.848299,10.886249 125.503678,10.886249 Z M119.026147,24.7680486 C122.498095,25.1484583 124.993695,23.0944654 126.510752,20.4121246 C126.510203,20.4123988 126.509654,20.4126731 126.508831,20.4126731 C126.15796,20.8029564 125.779108,21.147437 125.374742,21.4403552 C125.240868,21.5371718 125.070782,21.5689869 124.911121,21.5262011 C124.751459,21.4836896 124.61978,21.371514 124.55202,21.2209408 C124.542967,21.2009193 124.534463,21.1814463 124.525958,21.161699 C122.55982,22.0484073 120.637574,23.3328043 119.026147,24.7680486 Z M180.963494,21.0843554 C180.808222,22.8476242 180.385202,24.5423261 179.701017,26.1503593 C179.71199,26.1369201 179.722964,26.1232067 179.733937,26.1094933 C180.827974,24.7269084 181.233985,22.539347 181.002175,21.0769502 C180.989555,21.0794186 180.976662,21.081887 180.963494,21.0843554 Z M111.35335,21.536349 C107.272659,22.6073655 104.499161,24.1940058 104.091778,27.4687655 C104.193281,27.3522016 104.299173,27.2367347 104.409729,27.1226393 C106.077668,25.4027048 108.710708,23.308943 111.35335,21.536349 Z M172.296792,31.7086742 C172.859447,31.7086742 173.426766,31.733084 173.990244,31.8186556 C174.069252,31.8307234 174.149631,31.8427912 174.230285,31.8551333 C174.270612,31.8186556 174.311487,31.7813552 174.352363,31.7435062 C175.498797,30.6826377 176.472676,29.5457969 177.269885,28.3434061 C177.126684,28.3066541 177.002686,28.2128545 176.92889,28.0814801 C176.837538,27.919662 176.83452,27.7227376 176.920661,27.5581768 C179.006957,23.5692233 180.656242,16.6971648 176.662788,14.088602 C176.355536,13.9706668 174.852745,13.8672677 173.524703,13.7762108 C167.526704,13.3642602 164.806152,12.9432589 164.541147,11.5376355 C164.383131,10.7008439 165.184181,9.91561465 167.139072,8.99188009 C171.01374,7.16031851 173.941962,7.90193913 175.715519,8.84596952 C178.221818,10.180009 180.056277,12.8456195 180.702878,16.0512637 C180.844708,13.734522 180.34076,11.5417495 179.206122,9.83991669 C177.712109,7.59969582 175.292225,6.41321253 172.207085,6.40882424 L172.195563,6.40882424 C168.676979,6.40882424 164.889,8.62408673 163.568091,11.4561779 C162.632344,13.4618997 162.987878,15.5318001 164.595739,17.4426251 C164.781736,17.6636851 164.764453,17.9908868 164.555961,18.1911025 C164.347743,18.3915923 164.019641,18.3957064 163.806485,18.2012504 C163.532702,17.9519408 163.500056,17.9489238 163.34259,17.9354847 C163.218317,17.924514 163.051797,17.9099778 162.811757,17.848816 C161.623898,19.5254162 162.420833,20.4697208 163.415288,21.6482504 C163.904696,22.2277786 164.410565,22.8276027 164.598208,23.5242434 C164.833585,24.3997067 164.775701,25.2833982 164.719737,26.1377429 C164.634145,27.4473726 164.552394,28.6950176 165.517221,29.9050879 C165.544105,29.9179785 165.570715,29.9305949 165.597326,29.9437597 C166.565444,30.416872 167.365397,30.9985944 168.074271,31.5476789 C169.053911,31.7915031 170.101311,31.7613336 171.184375,31.7300671 C171.550883,31.7196449 171.922877,31.7086742 172.296792,31.7086742 Z M169.816829,32.8457892 C170.802779,33.4590524 171.697925,33.6216934 172.984817,32.8213794 C172.411737,32.792307 171.825215,32.8093116 171.215923,32.8268647 C170.751753,32.8400296 170.285114,32.8534687 169.816829,32.8457892 Z M104.094795,29.2953902 C104.130458,29.6187522 104.183953,29.9550047 104.255828,30.3055192 C104.457188,31.2887699 105.083763,32.2657125 105.747647,33.299977 C106.055722,33.7802202 106.367363,34.2654003 106.640049,34.7601797 C106.870763,34.5797114 107.057308,34.3123001 107.292685,33.9746762 C107.727228,33.3520879 108.32198,32.4993888 109.521909,31.691121 C110.616494,30.9538887 111.882537,30.8186746 112.999069,30.699368 C114.918023,30.4944898 115.930034,30.2975654 116.155261,28.3664446 C116.2521,27.5367839 116.185986,26.9748088 115.958839,26.6958783 C115.699046,26.3766304 115.125418,26.3256165 114.399535,26.2614378 C113.43416,26.1758662 112.232585,26.069176 111.16845,25.2101686 C111.010435,25.0823598 110.935817,24.8774816 110.974772,24.6778145 C111.014001,24.4781474 111.160495,24.3166035 111.355271,24.2579102 C113.227588,23.6951123 115.559686,22.6098339 116.312453,20.6043864 C116.121243,20.4305005 115.940459,20.2834929 115.758028,20.1537641 C112.221337,22.0185121 107.641087,25.3665014 105.197611,27.8862013 C104.770475,28.32695 104.413569,28.8041763 104.094795,29.2953902 Z M101.90727,32.9162761 C102.319592,33.1444671 102.677047,33.5202142 103.00652,33.8668889 C103.340382,34.2179519 103.68604,34.5810828 103.963116,34.6644602 C104.631938,34.8649501 105.132594,34.9779485 105.522146,35.0136034 C105.306246,34.6436159 105.066754,34.2706114 104.82397,33.8921216 C104.180936,32.8902206 103.5176,31.8562304 103.235038,30.7602555 C103.225711,30.7769859 103.216384,30.7937162 103.207056,30.8107208 C102.813938,31.519155 102.411219,32.2456909 101.90727,32.9162761 Z M227.833969,31.5882705 C228.277838,31.5882705 228.757097,31.6861842 229.278054,31.9300084 C230.968763,32.7212716 231.361606,34.3133972 231.708637,35.7181978 C232.007933,36.9321079 232.266903,37.9806344 233.226517,38.5275247 C234.138945,39.0480854 234.97895,39.053845 235.78823,38.5428837 C235.609914,38.074434 235.461501,37.5601816 235.347927,36.98751 C234.980596,35.1367497 235.324335,33.2939431 235.656825,31.5114755 C235.8933,30.2421633 236.117155,29.0433379 236.054058,27.9599794 C235.888087,25.0930562 233.990532,23.2861787 232.42821,22.275227 C229.127719,20.1397765 224.22074,19.5470834 220.758942,20.8660381 C219.37137,21.3945525 218.574161,21.9562533 218.45318,22.4897045 C218.291599,23.202527 219.257522,24.2159472 220.279958,25.2888835 C222.034587,27.1297702 224.414967,29.6272545 222.992829,32.8586798 C223.697588,33.525151 224.200988,33.2511573 225.226442,32.5931884 C225.946838,32.1304983 226.791232,31.5882705 227.833969,31.5882705 Z M182.699742,37.5774604 C182.548585,37.631217 182.448454,37.7063664 182.400171,37.8018117 C182.208962,38.1816728 182.5014,38.9710161 182.930181,39.8237152 C183.046772,39.0749636 182.993826,38.322098 182.699742,37.5774604 Z M100.417921,34.4450458 C100.359763,34.5594156 100.333427,34.6672029 100.339188,34.7678592 C100.364701,35.2198529 101.013771,35.7269744 101.535002,36.1345366 C101.974482,36.4776458 102.353883,36.7741295 102.550854,37.1290323 C103.507999,38.8519838 104.657176,40.0466951 105.278813,39.9666088 C105.662604,39.9180634 106.03789,39.297395 106.308656,38.2636789 C106.498768,37.5379659 106.370655,36.8240463 106.076022,36.1060127 C105.485934,36.1515412 104.716706,36.0355259 103.647908,35.7151809 C103.091563,35.5481517 102.643852,35.0777821 102.211231,34.6224972 C101.846643,34.2393448 101.433499,33.8049044 101.144078,33.7999675 C101.142432,33.7999675 101.140238,33.7996933 101.13914,33.7999675 C100.905958,34.0311755 100.664271,34.2440074 100.417921,34.4450458 Z M237.471533,39.4649727 C238.007852,40.2962789 238.693957,40.971801 239.499945,41.7002567 C239.977831,41.1618687 240.265331,40.647342 240.204704,40.2795486 C240.135572,39.8601929 239.420114,39.5552069 238.241583,39.4424827 C237.974658,39.4172501 237.718157,39.4257524 237.471533,39.4649727 Z M94.5779378,41.9095232 C94.5477612,42.4114336 94.6380165,42.8370975 94.848978,43.1845951 C94.9524012,43.3543669 95.0849036,43.5063114 95.2431933,43.6426226 L94.5779378,41.9095232 Z M236.415902,39.8374286 C235.110904,40.5606733 234.064876,42.1445709 232.976874,43.7926472 C232.660295,44.2717933 232.336309,44.762733 231.997508,45.2374909 C233.873392,44.0987302 235.913875,43.3464132 237.956552,43.0543178 C238.219362,42.8678155 238.473942,42.6695198 238.711514,42.4662872 C237.832005,41.6670703 237.035893,40.8689505 236.415902,39.8374286 Z M108.534587,44.3260984 C113.012237,44.3260984 116.512167,45.0227391 119.010784,46.4080666 C119.006669,46.3970959 119.002554,46.3858509 118.998714,46.3748802 C118.899131,46.0912871 118.912299,45.8362179 118.972378,45.6456017 L118.932874,30.0943328 C118.9326,29.924561 119.010784,29.7643885 119.144933,29.6601666 C119.279081,29.5556705 119.454379,29.5191929 119.618156,29.5617044 L137.784432,34.2278256 C137.772636,33.0953731 136.985851,30.0589523 136.664883,28.8206323 C136.435815,27.9358438 136.254756,27.237009 136.203456,26.8908828 C135.668508,23.2831618 134.175318,21.0456836 131.76531,20.2407071 C130.604885,19.8534407 129.292206,19.8262882 127.925208,20.0706609 C126.153297,23.8201785 122.761179,26.8541309 117.723069,25.6517401 C117.529116,25.6053888 117.37549,25.4575584 117.321995,25.265845 C117.268226,25.0735832 117.323093,24.8676079 117.464922,24.7277313 C119.299107,22.9175626 121.694302,21.2050333 124.203892,20.0926024 C123.983329,18.7569173 124.504286,17.6965973 124.975589,16.7372079 C125.312469,16.0512637 125.63042,15.403717 125.72671,14.653594 C125.885823,13.4122571 125.695162,12.2318078 125.485298,11.9953888 C125.393945,12.0329635 125.089711,12.2098663 124.541321,13.0247165 C124.435977,13.1813235 124.25821,13.2732033 124.06947,13.2666208 C123.903773,13.261684 123.71613,13.2446794 123.524372,13.226852 C123.244004,13.2007965 122.953212,13.1739183 122.761179,13.1939398 C122.602615,13.2092988 122.445972,13.1569137 122.329929,13.0483035 C122.214161,12.9396934 122.151065,12.7861033 122.1571,12.6273022 C122.217727,11.0228345 121.938732,9.92768244 121.328068,9.37146698 C120.449931,8.57252435 118.844265,8.78425923 117.144228,9.00861044 C115.458457,9.23159031 113.602874,9.47623734 112.275655,8.63807439 C112.258646,9.70141136 112.123126,10.8281042 111.981845,12.0025197 C111.618904,15.0235815 111.243069,18.1474938 112.963954,20.3479459 C112.990565,20.3819551 113.012511,20.4184327 113.030069,20.456556 C113.901073,19.9195393 114.750406,19.435182 115.542128,19.0292654 C115.714135,18.9417739 115.919335,18.950002 116.083111,19.0520296 C116.50284,19.3139556 116.885807,19.6222328 117.325287,20.0514622 C117.468763,20.1916131 117.524178,20.3989597 117.470135,20.5920444 C116.846578,22.8127922 114.811033,24.12873 112.864098,24.8966803 C113.396028,25.0711148 113.951825,25.1202087 114.496374,25.1687542 C115.402219,25.2488404 116.257587,25.3248126 116.809817,26.0033516 C117.242988,26.5354315 117.381251,27.3266946 117.245182,28.4937049 C116.907754,31.3853122 114.893333,31.6003383 113.11566,31.7901318 C112.077313,31.9012103 111.003851,32.0158543 110.135041,32.6008679 C109.104924,33.2950402 108.620179,33.9894867 108.192769,34.6022014 C107.847385,35.0972551 107.537938,35.5048173 107.125617,35.7716801 C107.474019,36.6490633 107.625999,37.5640213 107.370047,38.5415124 C106.956903,40.1191018 106.317709,40.9413572 105.416253,41.0549042 C103.779039,41.2603309 102.196417,38.7505046 101.591514,37.6616607 C101.502631,37.5014882 101.160813,37.2343512 100.859322,36.998755 C100.273348,36.5407275 99.566394,35.9883518 99.3258047,35.2587989 C99.2177179,35.3347712 99.1099053,35.4096463 99.0026414,35.4839729 C97.8723929,36.270025 96.804692,37.0121941 96.02504,38.2779409 C95.617931,38.9389267 95.2964137,39.5478016 95.0602137,40.1037428 L96.6875522,44.343103 C98.7590345,44.9171459 101.950341,44.6826468 104.291217,44.5101322 C104.936995,44.4626839 105.546835,44.4179782 106.095225,44.3900028 C106.9377,44.3474913 107.751643,44.3260984 108.534587,44.3260984 Z M141.094799,42.832435 C140.937058,43.194743 140.813334,43.5510171 140.728291,43.8990632 C140.468498,44.9624001 140.57878,45.8622734 141.06572,46.6379032 C141.147471,46.6066367 141.229496,46.5739988 141.311795,46.5397153 L141.094799,42.832435 Z M222.680365,43.9947827 C223.173614,43.9947827 223.677288,44.0778859 224.163404,44.3505083 C224.830032,44.723787 225.093939,45.4047944 225.326847,46.0057155 C225.564968,46.6206243 225.736151,47.004051 226.100464,47.1455732 C226.805498,47.4190184 227.425214,47.4683867 227.997197,47.3287843 C228.073461,47.2758505 228.149451,47.2248367 228.224892,47.176017 C228.647913,46.9028461 229.086844,46.6623131 229.536474,46.4459156 C230.353436,45.7062149 231.14461,44.5759565 232.061153,43.1881605 C232.80624,42.0589993 233.563396,40.9125591 234.434401,40.0173484 C233.857755,39.9943099 233.270135,39.8154872 232.682516,39.480606 C231.314147,38.7003136 230.957515,37.2554698 230.64313,35.9809465 C230.313657,34.64581 230.028626,33.4927874 228.81306,32.9239556 C227.614229,32.3633519 226.742401,32.9236813 225.819273,33.5163744 C224.749104,34.2034157 223.41777,35.0580348 221.919916,33.3191758 C221.773697,33.1494039 221.745441,32.9074995 221.84859,32.7086552 C223.253719,29.9994361 221.251917,27.8988177 219.485767,26.0455889 C218.200795,24.697836 217.091395,23.5335685 217.38301,22.2472516 C217.597538,21.2996558 218.546179,20.5349966 220.368567,19.8408244 C224.131033,18.4069514 229.4539,19.0438016 233.024059,21.3542351 C235.570685,23.0017628 236.997212,25.2639252 237.149741,27.8963492 C237.21997,29.1132763 236.984867,30.3757318 236.735499,31.7125139 C236.422212,33.3926796 236.098226,35.1301673 236.424407,36.7741295 C236.49491,37.1295808 236.57913,37.4587024 236.677067,37.765334 C239.147154,34.9820625 240.331446,28.1549839 239.792383,25.7189357 C238.361741,19.2530681 232.557969,18.6661346 226.945133,18.0983999 C226.596456,18.0632936 226.252444,18.0246218 225.912272,17.9864985 C223.184313,17.6806897 220.828074,17.4165697 218.427942,19.1008493 C217.129253,20.0119676 215.832211,21.6619638 216.002571,22.7381913 C216.086791,23.2730139 216.570438,23.6797533 217.439523,23.9474388 C217.716324,24.0327362 217.879003,24.3185234 217.811243,24.5999224 C217.658166,25.2362241 217.349268,25.878834 217.05052,26.5003252 C216.725162,27.1772186 216.388831,27.8771505 216.281018,28.5211317 C216.209692,28.9473441 216.327929,29.3335135 216.464546,29.7805703 C216.633535,30.3332203 216.825293,30.9596483 216.675508,31.7462489 C216.397884,33.2028861 215.833034,34.0865776 215.420438,34.7316559 C214.798527,35.7050329 214.540929,36.1079326 215.749088,37.7902924 C215.867325,37.9551275 216.2267,38.1778331 216.574553,38.3928592 C217.254074,38.8141348 218.100115,39.3379866 218.652071,40.2142728 C218.849042,40.5269383 218.88443,40.9827717 218.929421,41.5601058 C218.998278,42.4416031 219.084144,43.538675 219.747205,44.0024622 C220.166933,44.2962032 220.777322,44.208986 221.482905,44.1075068 C221.864226,44.0526532 222.268592,43.9947827 222.680365,43.9947827 Z M97.1637929,45.5841656 L98.3601555,48.7001242 C98.5985501,48.5306266 98.8427058,48.3674371 99.0934454,48.2105558 C103.362877,45.5375401 107.965897,46.0224459 112.416936,46.4914441 C114.071982,46.6658785 115.77339,46.8449755 117.432551,46.8532036 C114.731202,45.7004553 110.962427,45.2418792 106.150641,45.4857034 C105.61487,45.512856 105.011065,45.5572874 104.371596,45.6041872 C102.004933,45.7783474 99.2934335,45.9774659 97.1637929,45.5841656 Z M135.229303,51.0818673 C137.433836,51.6690751 139.623555,52.3550193 141.706011,53.2803995 L141.379281,47.6921893 C141.262416,47.7357979 141.14555,47.7766639 141.02841,47.8145129 C140.811688,47.8849997 140.57247,47.8136901 140.429818,47.6345931 C139.544548,46.5229849 139.286401,45.1785233 139.662236,43.6387828 C139.892949,42.6950267 140.353005,41.7205526 140.972995,40.747724 L140.841864,38.5072289 C138.414025,37.8873833 126.007078,34.7187653 122.93977,33.9299706 L122.61496,45.6047357 C122.729631,45.8603535 122.774622,46.2136106 122.605084,46.5707076 C122.462706,46.8707567 122.199347,47.118695 121.805681,47.3178135 C122.338159,47.5682202 123.029202,47.8449566 123.926543,48.1417146 C124.803308,48.4318901 125.701472,48.6960101 126.608963,48.9431256 C126.723085,48.9631472 126.838304,48.983443 126.953524,49.0037388 C127.418242,49.0860192 127.892288,49.169671 128.376759,49.2522256 C130.751653,49.6581422 133.024769,50.3161111 135.229303,51.0818673 Z M158.525591,50.8843944 C161.013784,50.8843944 163.06524,51.5404434 165.05552,52.1767451 C166.452419,52.6235276 167.897052,53.0853949 169.461294,53.2990497 C170.00941,53.3733763 170.462332,53.220609 170.940493,53.0585167 C171.474893,52.8772255 172.052362,52.6813982 172.733254,52.8157895 C173.395492,51.8443323 174.638491,51.3372108 176.015639,51.4897038 C176.050753,51.4938178 176.085868,51.4979318 176.121531,51.5028687 C176.761822,49.5075691 178.280251,47.3806209 179.127937,46.2915028 C179.286776,46.0868988 179.453844,45.8759868 179.62585,45.6584923 C180.665569,44.3450229 181.840259,42.8606846 182.489329,41.3206699 C181.599396,39.7543254 180.913291,38.3141442 181.420257,37.3081293 C181.678678,36.7949739 182.196343,36.4919078 182.958163,36.407159 C183.184213,36.3827491 183.403953,36.4998616 183.50765,36.7033684 C184.289771,38.2384463 184.208295,39.7705072 183.699134,41.2233047 C183.760859,41.329995 183.821761,41.4347653 183.881016,41.5365188 C184.508688,42.6157633 185.101795,43.6352174 185.25789,44.4053618 C185.427153,45.2394108 185.499851,46.1241993 185.497382,47.0254439 C186.467695,44.8192322 187.589439,42.7729188 188.653848,41.0255575 C188.798695,40.7872186 188.943268,40.549154 189.087292,40.3110894 C188.933392,39.9561867 188.757545,39.6108833 188.558654,39.2762763 C186.002976,34.9727374 179.111477,33.7182357 174.565519,33.0163839 C171.456238,35.5958743 169.752909,34.2582693 167.796372,32.7229172 C167.726143,32.6677893 167.654817,32.6118386 167.582942,32.5556137 C166.826608,32.3381192 166.088655,31.968406 165.387187,31.3485603 C165.181164,31.1667207 164.99791,30.9835096 164.834682,30.7994758 C161.584943,29.3834302 156.629133,30.0507242 153.512993,31.4398916 C150.813016,32.6433795 144.874822,36.959809 142.090625,41.063955 L142.381417,46.0331423 C142.921028,45.7517434 143.472984,45.4327697 144.040303,45.1047452 C146.865376,43.4720279 150.066833,41.6212676 153.468826,43.7350509 C154.787266,44.5545636 156.450817,46.9527629 157.288627,49.3671439 C157.614259,49.8567122 157.894901,50.3679478 158.125615,50.890154 C158.260037,50.8863142 158.393637,50.8843944 158.525591,50.8843944 Z M144.655082,50.3536858 C145.915364,51.1372694 147.406085,51.2431369 148.970327,51.354764 C151.329858,51.522616 153.766202,51.6956791 155.515618,54.2085223 C155.795163,54.1114314 156.023133,53.9715548 156.20282,53.784504 C156.357269,53.3347045 156.528453,52.8860021 156.714998,52.4425108 C156.772334,51.6718177 156.593195,50.7521972 156.271678,49.8158463 C155.718075,49.0201949 155.028679,48.2892707 154.23339,47.6801215 C152.151483,46.0844304 148.243621,45.8633704 146.796519,46.5643994 C146.675813,46.6230927 146.394348,46.7772313 146.391879,46.9450834 C146.391056,47.015296 146.445922,47.6636655 148.654845,48.8142196 C148.885284,48.9340748 148.999955,49.1992919 148.929177,49.4494243 C148.858948,49.6995567 148.625491,49.8663116 148.36323,49.8479357 C146.88842,49.745908 145.665721,49.9115658 144.655082,50.3536858 Z M75.8333689,46.9502944 C81.101644,47.3932372 86.8099479,49.490016 89.4704213,54.2375947 C92.4263505,53.2480358 94.4701252,52.0088931 95.777318,51.0138489 C96.2966288,50.4359662 96.8537975,49.8956583 97.4526646,49.3984104 L95.8533081,45.2317313 C95.0078163,44.915226 94.3302158,44.4432108 93.9113106,43.7542497 C93.3374077,42.8102193 93.3256114,41.6028916 93.88278,40.0982575 L93.0326246,37.8835435 L70.7541087,32.8520974 L75.8333689,46.9502944 Z M76.2396548,48.0896036 C78.026929,52.3399345 82.8955021,53.9806056 87.5596977,54.7960043 C87.8375962,54.7274373 88.1168664,54.653385 88.3972339,54.5727502 C85.9781727,50.4803976 80.9806635,48.5819147 76.2396548,48.0896036 Z M176.939041,52.8626893 C176.891581,53.2960327 176.933828,53.6704085 177.085808,53.9611326 C177.351362,54.4679798 177.987538,54.748556 178.980895,54.7981985 C178.458292,53.8086396 177.698118,53.1918109 176.939041,52.8626893 Z M242.24601,44.2309274 C246.448779,48.2969502 249.717721,51.9998423 252.194117,55.5011473 C251.236972,51.7913986 249.534193,48.560796 246.923922,46.4755366 C245.4439,45.2926188 243.857711,44.5737624 242.24601,44.2309274 Z M173.326909,54.2888828 C173.227326,55.0735635 173.509889,56.0554429 174.159507,57.1525148 C174.476361,57.0688631 174.669216,56.9235011 174.73341,56.7183486 C174.89993,56.1873658 174.39269,55.2104232 173.578197,54.4945838 C173.491234,54.4177888 173.407288,54.349496 173.326909,54.2888828 Z M157.172036,54.3398967 C156.786599,55.4992274 156.519948,56.6558155 156.395676,57.7243636 C157.275459,56.7764934 157.746213,55.6119516 157.769806,54.3012249 C157.776115,53.9515332 157.750328,53.5963562 157.695187,53.238985 C157.586826,53.6641004 157.411254,54.0318937 157.172036,54.3398967 Z M184.611563,52.8895676 C184.128464,54.84071 183.872238,56.819005 183.969077,58.7394294 C184.424194,58.2608317 184.868064,57.7476763 185.299039,57.2013345 C188.671954,52.9219312 190.904743,46.6181559 189.556126,41.6536312 C187.815763,44.5178117 185.924243,48.1894372 184.843374,52.0165726 C184.769853,52.3147019 184.692491,52.6059745 184.611563,52.8895676 Z M181.991416,58.6335619 C182.274253,58.6771705 182.568611,58.7509486 182.876686,58.8579131 C182.847059,58.3118456 182.84459,57.7622125 182.866262,57.2101111 C182.592204,57.7103759 182.300863,58.1848595 181.991416,58.6335619 Z M105.459324,58.020573 C104.58777,58.020573 104.453347,58.2309365 104.45225,58.2336792 C104.39464,58.3699904 104.401499,58.9177035 106.273816,60.7347289 C106.409336,60.4209664 106.548422,60.1091237 106.691075,59.7992008 C106.431008,59.1815493 106.119367,58.5894048 105.749567,58.0274297 C105.644772,58.0227671 105.548207,58.020573 105.459324,58.020573 Z M107.127263,61.5320259 C107.188988,61.5879766 107.252633,61.6450244 107.317375,61.7028949 C107.285827,61.5742632 107.252359,61.4470029 107.217244,61.3200168 C107.186793,61.3905037 107.156891,61.4609905 107.127263,61.5320259 Z M177.21255,62.8954121 C177.212001,62.8959606 177.211453,62.8967834 177.210904,62.8976062 C177.157409,62.9661732 177.10364,63.0352888 177.049597,63.10413 C178.987479,62.5937173 180.90753,61.5306546 182.696999,59.9626646 C182.139556,59.7479127 181.640271,59.6686493 181.181588,59.7007386 C180.056826,61.0471202 178.735642,62.1110057 177.21255,62.8954121 Z M221.551488,60.4132868 C221.938845,61.1123959 222.226619,62.1463862 222.430448,63.3048942 C222.782691,62.2174216 222.90614,60.9535948 223.026846,59.7139035 C223.149747,58.4539164 223.277037,57.1514177 223.646288,56.0444722 C224.456666,53.6158292 225.80638,51.210499 227.438656,49.2212333 C224.87996,51.7047299 222.297397,56.3483611 221.551488,60.4132868 Z M158.350293,62.7130239 C160.36636,62.7130239 162.981843,62.8959606 166.27136,63.2560745 C166.5937,63.291455 166.849378,63.3194304 167.021384,63.3358865 C168.404841,63.4675351 169.699689,63.4968818 170.907848,63.4217323 C170.929794,63.332321 170.974511,63.2481207 171.039527,63.1784566 C171.183552,63.0248666 171.40192,62.9667218 171.602731,63.0287063 C171.895444,63.1192148 172.190351,63.1949127 172.487453,63.2563487 C173.954855,63.0361116 175.281251,62.638423 176.473225,62.0594433 C177.671782,60.5249139 178.910117,59.0016295 180.626888,58.6563262 C181.604059,57.3946934 182.412516,55.8796371 183.065427,54.1029291 C183.240725,53.6257028 183.410537,53.1051422 183.56718,52.5538636 C183.632472,52.2927605 183.702152,52.0313831 183.775124,51.7716513 C184.336957,49.5015352 184.634881,46.8534778 184.182508,44.6234049 C184.078261,44.109701 183.633295,43.3003361 183.155134,42.4720468 C182.423215,43.8922065 181.382125,45.2075957 180.48643,46.3392254 C180.316619,46.5542515 180.151196,46.7629694 179.99373,46.9651049 C178.782279,48.5223985 177.684676,50.3199509 177.193072,51.7817992 C178.42839,52.2601226 179.687575,53.3130373 180.330335,55.1602322 C180.387122,55.3228731 180.363804,55.5030672 180.268062,55.6459608 C180.172045,55.7891287 180.014579,55.8788143 179.842298,55.8884137 C177.917035,55.9937326 176.661965,55.5170548 176.113575,54.4698997 C175.826898,53.9227351 175.769837,53.2729942 175.867499,52.5771764 C175.003353,52.4885878 174.230011,52.7472225 173.773247,53.262572 C173.943608,53.3747476 174.120003,53.5096875 174.303257,53.6706828 C175.292499,54.5406608 176.133327,55.9221487 175.780262,57.0466474 C175.62499,57.5422496 175.181395,58.1626438 173.950466,58.303069 C173.741151,58.3258332 173.539516,58.2301137 173.426492,58.0540337 C172.21751,56.1709097 172.095706,54.7924388 172.289659,53.8733668 C171.954974,53.8673329 171.659244,53.9732004 171.29301,54.0974438 C170.742426,54.2842203 170.117497,54.4959551 169.312881,54.3859737 C167.653994,54.1594283 166.162999,53.6827506 164.721109,53.2217061 C162.731377,52.5856787 160.840954,51.981192 158.536838,51.981192 L158.529157,51.981192 C158.762614,52.7623072 158.880577,53.5524733 158.86686,54.3209722 C158.829551,56.404586 157.867742,58.1760829 156.084857,59.4434753 C155.917241,59.5627818 155.696952,59.5781408 155.514521,59.4835184 C155.33209,59.3891702 155.217693,59.2004738 155.218242,58.9947728 C155.222083,57.8672572 155.408903,56.5938309 155.749349,55.2855727 C155.631386,55.3215018 155.50876,55.3522198 155.38147,55.3774524 C155.157615,55.4218839 154.928822,55.3231474 154.808116,55.1286914 C153.34181,52.7655985 151.180621,52.6117341 148.892417,52.4488189 C146.947127,52.3105879 144.935449,52.16742 143.274094,50.6855501 C143.14598,50.5714546 143.078769,50.4038769 143.092486,50.2327336 C143.105928,50.0618647 143.198927,49.9069033 143.343225,49.814475 C144.24084,49.2390608 145.285771,48.8934831 146.505727,48.7717081 C145.68465,48.1395204 145.286046,47.530097 145.294824,46.9289015 C145.299488,46.6071852 145.438574,46.0032471 146.318083,45.5770347 C148.189029,44.6711275 152.343241,45.0109455 154.704692,46.66533 C154.094029,45.7440639 153.439747,45.0090257 152.889711,44.6670135 C150.046532,42.9001792 147.395934,44.4322401 144.589791,46.0545352 C143.85897,46.4769079 143.15229,46.8852929 142.451097,47.2273051 L142.848879,54.0255856 C143.953614,54.4594775 145.076182,54.8873356 146.209448,55.2861212 C152.150934,57.3774146 156.112839,59.8650252 158.05758,62.7143952 C158.153596,62.7135724 158.251259,62.7130239 158.350293,62.7130239 Z M108.70385,63.0926108 C108.868998,63.2961176 109.019332,63.4982531 109.15595,63.6995658 C114.750406,60.8403221 120.564327,57.2112082 121.833662,53.5733177 C122.210046,52.4946217 122.15079,51.4976576 121.652603,50.5256519 C121.430394,50.0923084 121.164841,49.6863918 120.856217,49.307902 C117.516223,49.2171193 114.706238,50.1515503 111.702849,53.7310217 C110.179757,55.5464015 108.934838,57.6272727 107.887163,59.8326615 C108.27891,60.8696688 108.542817,61.9623524 108.70385,63.0926108 Z M106.687509,62.6112705 C106.324019,63.5355535 105.986864,64.4710816 105.671931,65.4077068 C106.345416,65.0892817 107.03838,64.7563203 107.742042,64.4090971 C107.719546,64.1202929 107.690741,63.8342314 107.655353,63.5506383 C107.533275,63.4102131 107.402418,63.2686908 107.263058,63.1255229 C107.209837,63.0709436 107.041123,62.9225646 106.862258,62.7654091 C106.803277,62.7135724 106.745118,62.6622843 106.687509,62.6112705 Z M172.362357,64.3717966 C172.548354,64.8133681 172.742856,65.2527454 172.945587,65.68938 C173.109089,65.5848839 173.265184,65.4773709 173.413598,65.3673894 C173.746637,65.1202739 174.060199,64.8454574 174.35977,64.5517164 C173.7107,64.5476024 173.065196,64.4853436 172.425453,64.36302 C172.404879,64.366037 172.383206,64.3687797 172.362357,64.3717966 Z M125.484201,61.3351015 C124.436252,62.4242197 123.95425,64.3032296 123.793491,66.5198635 C124.483163,65.5843354 125.333592,64.5190785 126.219411,63.5665458 C126.226269,62.6735293 126.026555,61.8814434 125.484201,61.3351015 Z M157.460908,63.8191466 C154.338185,63.9222714 153.9928,64.5437626 153.961252,64.6238489 C153.93958,64.6787025 153.801316,65.2006345 155.612183,66.5549698 C156.331482,67.0928093 157.255433,67.4932405 158.30832,67.7699769 C158.342337,67.5505625 158.360443,67.3251142 158.36154,67.0928093 C158.367027,65.9578884 158.066084,64.8660275 157.460908,63.8191466 Z M159.385348,68.0028304 C163.370023,68.6975512 168.661067,67.9076594 171.987619,66.2321563 C171.719597,65.6570164 171.464468,65.0774881 171.224427,64.4924745 C169.883217,64.5955993 168.449009,64.5736579 166.917412,64.4277473 C166.741565,64.4110169 166.48095,64.3824931 166.152025,64.346564 C164.691755,64.1866657 161.653526,63.8539787 158.965071,63.8095473 C158.873718,63.8081759 158.783189,63.8070788 158.695128,63.806256 C159.209227,64.858348 159.464356,65.9556942 159.458869,67.0980204 C159.457223,67.4104116 159.432533,67.7118321 159.385348,68.0028304 Z M123.728749,68.4792339 C123.729298,69.2924385 123.759474,70.1303272 123.809403,70.974524 C124.084832,70.5425519 124.373704,69.9942902 124.653523,69.3058776 L124.66477,69.2784508 C125.052676,68.323724 125.624384,66.916455 125.955778,65.5100087 C125.074074,66.5601808 124.261776,67.6490247 123.728749,68.4792339 Z M236.104261,60.9637427 C234.103008,62.2207128 234.725468,65.7744031 235.382219,69.5272119 C235.483722,70.1070144 235.585773,70.6906566 235.678772,71.2701849 C235.779452,70.8511034 235.894397,70.4037723 236.015377,69.9320314 C236.810118,66.8330775 237.886049,62.6376002 236.104261,60.9637427 Z M96.4993603,51.8550288 C92.2548929,56.6692546 90.7109514,64.2930817 90.033351,71.7342463 C90.8044987,71.4731432 91.5841507,71.2279476 92.3739531,70.9791866 C94.512921,70.3061329 96.7243127,69.6100408 98.938722,68.5173572 C99.6508884,68.1662941 100.645342,67.714849 101.796989,67.1923685 C102.563199,66.8445967 103.40869,66.4608958 104.307128,66.0453798 C104.760599,64.6334483 105.258787,63.2154828 105.82007,61.8224757 C104.033894,60.1469726 103.019139,58.8068993 103.441336,57.8069182 C103.831162,56.8837322 105.142744,56.8757784 106.0955,56.950105 C106.25955,56.9627214 106.409336,57.0485673 106.503432,57.1840556 C106.803003,57.6149306 107.070202,58.0622617 107.306951,58.5227577 C108.303051,56.5515937 109.468688,54.6871199 110.862296,53.026153 C113.782836,49.5451438 116.661404,48.3838932 119.778091,48.2371598 C119.626934,48.1140135 119.469193,47.9949812 119.305417,47.8800629 C119.087872,47.8987131 118.859079,47.9135236 118.619038,47.9253171 C116.524237,48.0270705 114.377863,47.801348 112.301991,47.5824821 C107.839429,47.1126611 103.624316,46.6686212 99.6758526,49.1403243 C99.2703896,49.3942964 98.8813866,49.6669188 98.5088435,49.9573686 C98.3431469,50.1693777 97.7198642,50.9173065 96.4993603,51.8550288 Z M184.276878,60.8334654 C185.372835,65.0272971 189.394545,70.0110206 193.638463,72.2046159 C193.562473,72.0565112 193.482368,71.9015498 193.398423,71.7394574 L193.164966,71.286641 C191.586459,68.2162109 187.820152,63.4039049 184.487291,60.9829414 C184.416239,60.9313791 184.346284,60.8817366 184.276878,60.8334654 Z M122.69534,70.6237353 C122.321151,71.6873465 122.343646,72.221072 122.411406,72.3861813 C122.490414,72.3702738 122.62319,72.3039009 122.793276,72.1703324 C122.754321,71.6549829 122.720853,71.138262 122.69534,70.6237353 Z M73.6565431,47.9557609 C67.0193504,47.9557609 59.2354493,50.5983329 56.7535661,56.5170359 C54.578112,61.7045405 56.1187614,66.6457525 61.3324444,71.2032635 C61.902781,71.7018827 62.6761234,72.2339626 63.5523404,72.7910008 C65.2180854,70.9547767 66.6662849,68.6651876 68.0865026,66.4194814 C69.501508,64.1822774 70.8380543,62.0693169 72.3715712,60.381746 C75.7529896,56.6607523 79.4238284,56.1264783 83.310018,55.5609377 C83.8024443,55.4890795 84.2998085,55.416947 84.8018364,55.337135 C80.5310331,54.2650215 76.5224913,52.2518945 75.0262836,47.9933356 C74.5857062,47.9692 74.149518,47.9568579 73.7199138,47.9557609 C73.6990646,47.9557609 73.6776667,47.9557609 73.6565431,47.9557609 Z M218.515728,58.733944 C217.962674,58.733944 217.290835,59.4264707 216.518315,60.2226706 C216.265381,60.4832252 215.999279,60.7574932 215.715071,61.0323097 C215.225662,61.505422 214.765881,61.9009164 214.360144,62.2500595 C212.635418,63.7343978 211.921605,64.3487581 212.730611,67.3445873 C213.00851,68.3728179 213.414521,69.2825648 213.80709,70.1624165 C214.239438,71.131131 214.659166,72.0713217 214.902773,73.1184768 C216.367981,72.3296821 218.700902,71.8118642 220.290657,72.2043416 C220.533167,72.2641321 220.78226,72.3329733 221.036841,72.4094941 C221.364393,71.6717132 221.557797,70.9103453 221.637902,70.2521021 C221.758334,69.2606234 221.770131,67.8157797 221.67384,66.3336355 C221.57508,66.3734044 221.465622,66.3838265 221.359455,66.3618851 C221.19513,66.3281501 221.055495,66.2214599 220.980054,66.0719838 C220.259383,64.6477102 220.07174,62.764312 220.399567,60.614051 C219.693162,59.431956 219.087162,58.8016882 218.595833,58.7391551 C218.569223,58.7355896 218.542338,58.733944 218.515728,58.733944 Z M195.174449,72.8683444 C195.939287,73.1327388 196.701108,73.292637 197.443725,73.3280176 C197.802003,69.254041 196.149426,65.6331551 194.404399,61.8076653 C192.693663,58.058422 190.924769,54.181644 191.001034,49.6526569 C191.174412,39.3549912 196.567782,28.2435725 204.116855,22.6315011 C207.159748,20.3693388 210.575732,18.7396384 213.879514,17.1636946 C216.439308,15.9423793 218.857272,14.7890824 221.085946,13.3749567 C222.460625,12.5025103 223.580449,11.510483 224.663238,10.5510936 C225.645347,9.68111553 226.646111,8.79413288 227.833146,8.00862938 C226.218701,8.59528859 224.659397,9.33663494 223.177455,10.2461076 C221.153432,11.4882673 218.970022,12.7030001 216.858487,13.8779642 C212.384404,16.3669461 207.758615,18.9409511 204.002459,22.093113 C198.522399,26.6928613 195.016982,32.5484827 191.306091,38.7477619 C190.976618,39.298492 190.646048,39.8505935 190.313009,40.4035177 C192.449233,46.0597463 189.828812,53.2263687 186.160717,57.8801478 C185.645521,58.5340026 185.111945,59.142329 184.562732,59.7048527 C184.74818,59.8241592 184.938293,59.9541622 185.132246,60.095136 C188.595689,62.6112705 192.504923,67.6029477 194.140765,70.7850048 L194.373399,71.2356271 C194.703146,71.8730259 194.977479,72.4034602 195.174449,72.8683444 Z M215.115106,75.1582078 C215.362828,75.2509104 215.71754,75.3499211 216.22286,75.4363155 C217.350914,75.630223 218.373075,75.3916098 219.263557,74.7289784 C219.758727,74.3603622 220.168305,73.8993178 220.500796,73.3954875 C220.340311,73.3496847 220.18257,73.3074475 220.028121,73.2693242 C218.573063,72.9114045 216.230541,73.5125999 215.087947,74.2778076 C215.112089,74.5611264 215.122239,74.8540446 215.115106,75.1582078 Z M174.727923,65.8032012 C174.861523,65.8032012 174.994849,65.8517467 175.100192,65.9488375 C175.862013,66.6517864 176.664709,67.4293361 177.51459,68.2524143 C180.370388,71.0181326 183.607233,74.1530156 186.668231,75.7769564 C188.836553,76.9272363 190.418901,76.9530175 192.506569,75.8740472 C193.807452,75.2012679 194.340205,74.7714899 194.406319,74.3406149 C194.432381,74.1711173 194.400558,73.9643193 194.322373,73.7161067 C189.304015,71.7202586 184.419256,65.9161996 183.18531,60.9911695 C180.913017,62.9184506 178.439638,64.0967058 175.961321,64.4439291 C175.541318,64.9282864 175.096077,65.3942677 174.605571,65.8171889 C174.645898,65.8078638 174.687048,65.8032012 174.727923,65.8032012 Z M181.235631,73.2202302 C183.375971,75.4678563 185.693529,77.9247489 187.614952,80.0163165 C187.565572,79.3232414 187.776808,78.6778888 188.237137,78.127433 C188.369091,77.9697289 188.521345,77.8199786 188.693077,77.678182 C187.888461,77.5366597 187.059429,77.2261884 186.153859,76.7459451 C184.51829,75.8784355 182.857209,74.6198197 181.235631,73.2202302 Z M191.233667,77.5577784 C190.216718,77.9055502 189.498242,78.330117 189.079063,78.8314789 C188.725448,79.2541258 188.624768,79.7105078 188.762483,80.267546 C188.92626,80.9301775 189.418686,81.4038383 189.890537,81.7181494 C190.288867,81.6139275 190.691861,81.5247904 191.092386,81.4364762 C191.679183,81.3064731 192.28628,81.1723561 192.884873,80.9929848 L208.014018,76.4988297 C200.342044,76.1935694 194.922064,76.4892303 191.800438,77.3808755 C191.609777,77.448894 191.420762,77.5078616 191.233667,77.5577784 Z M64.4993351,73.3814998 C64.8301797,73.5844581 65.1692542,73.7901591 65.5124438,73.9980542 C69.4027484,76.3570331 73.8107178,79.0300489 74.0285375,82.3495143 C76.0251271,81.0141035 77.8453211,79.4930132 79.8076191,77.8534392 C80.6640842,77.1375998 81.5501771,76.3973505 82.4875701,75.6417422 C84.567831,73.9654163 86.6961,72.9467851 88.8959698,72.1355004 C89.4682267,65.4828562 90.6977835,58.6077807 93.8857977,53.5349201 C92.8008139,54.1210308 91.5018511,54.7063187 89.9639449,55.2293477 C89.9952188,55.3009317 90.025944,55.3730642 90.0558462,55.4457452 C90.1307389,55.6270363 90.1033057,55.8346572 89.9834225,55.9898928 C89.8638137,56.1454028 89.6709582,56.224392 89.4756336,56.198885 C88.8594836,56.1160561 88.2309886,56.0230793 87.5972812,55.9158405 C86.1789839,56.252093 84.8062257,56.4517601 83.4680333,56.6464904 C79.6221706,57.2062713 76.3005566,57.6898058 73.1838687,61.1195269 C71.7145456,62.7363367 70.4026892,64.8100769 69.0140197,67.0061406 C67.603678,69.2359393 66.1664517,71.5079752 64.4993351,73.3814998 Z M39.7617055,83.0705648 C40.7945661,83.7534921 41.9750175,84.2954456 43.2182909,84.53735 C43.2896173,83.0231164 43.2550514,80.9128986 42.3810291,80.3122517 C42.002725,80.0527942 41.4227868,80.103808 40.6552054,80.4641962 C39.9430391,80.7985288 39.645663,81.6701525 39.7617055,83.0705648 Z M44.311779,84.6676272 C45.1103599,84.7024593 45.9232062,84.5998831 46.7305657,84.3217753 C46.8518206,84.2800866 46.9686861,84.2315412 47.0811623,84.1772361 C47.061136,84.0252916 47.0501627,83.8727986 47.0485167,83.7192086 C47.0304108,82.1471045 47.6377822,81.1764701 48.1255449,80.396452 C48.7943667,79.3268068 49.1301493,78.7903387 47.3159906,77.0608048 C46.7549813,76.5262565 46.0902744,76.1960378 45.3866124,75.8468947 C44.6409776,75.4769072 43.8701042,75.0943034 43.1774154,74.4442882 C42.6816972,73.9785812 42.2830925,73.3203381 41.8979301,72.6837621 C41.456804,71.9544835 41.0003153,71.2002466 40.4700312,70.8782559 C39.2821729,70.1572054 38.2696128,69.9440992 37.4592355,70.2446969 C36.5317185,70.588629 35.7827916,71.619328 35.2333043,73.307996 C34.3790339,75.9330148 35.4401507,79.1282368 38.0021389,81.6462912 C38.2109057,81.8514436 38.4328404,82.0538534 38.6665714,82.2507778 C38.7241812,80.9943562 39.1447324,79.9611887 40.1888407,79.4710718 C41.3339032,78.9335066 42.2806235,78.9121137 43.0026658,79.4079902 C44.3603357,80.3413241 44.4083439,82.8344201 44.311779,84.6676272 Z M173.423474,66.6866184 C175.266438,70.4155659 177.643251,73.9785812 179.959438,77.4497168 C181.832578,80.2571238 183.754549,83.1377604 185.407675,86.1204247 C185.418923,85.6791276 185.511921,85.2603204 185.69737,84.8694885 C186.322573,83.5505338 187.212781,82.7951997 188.21766,82.3089226 C183.399564,76.9532917 173.991616,67.2642268 173.888467,67.1578108 C173.785318,67.0519433 173.729629,66.9087755 173.733469,66.760945 C173.737584,66.6131146 173.801229,66.4732379 173.909591,66.3728558 C173.925227,66.3583196 173.94059,66.3440577 173.956501,66.3295215 C173.786415,66.4515707 173.608648,66.570603 173.423474,66.6866184 Z M239.423132,85.8604187 C239.309284,85.8604187 239.228905,85.8861999 239.180348,85.9289857 C238.879405,86.1950256 238.917263,87.0907849 239.158675,88.1746919 C240.030229,87.8469417 240.8738,87.4558355 241.679788,87.0164582 C241.499826,86.859577 241.311909,86.7169576 241.116036,86.589423 C240.282889,86.048018 239.730658,85.8604187 239.423132,85.8604187 Z M77.9254261,84.5016951 L77.9097891,84.5016951 C77.5356,84.5033407 77.0415278,84.5642282 76.8113631,84.84645 C76.5329159,85.1884621 76.5587032,85.4196701 76.6124723,85.583408 C76.992971,86.741916 80.1318798,88.0339924 82.8869978,88.743798 C83.5947748,88.9261862 84.3343743,89.0251969 85.0495583,89.1206422 C85.1634062,89.1357269 85.2778027,89.1510859 85.3919249,89.1667192 C85.2632631,88.4363436 85.0506557,87.7734379 84.6460157,87.2852409 C83.9171151,86.4067605 80.1250214,84.5016951 77.9254261,84.5016951 Z M217.591777,78.6792601 C221.761078,85.484123 227.076538,89.1458748 232.980715,89.2758779 C234.74906,89.3148239 236.475158,89.0386361 238.112921,88.5326116 C237.790855,87.1694998 237.709927,85.7646992 238.453093,85.1075531 C239.467299,84.2101483 241.158557,85.3083173 241.71408,85.6695282 C242.055075,85.8911367 242.373574,86.1494971 242.670676,86.4402212 C245.38437,84.763621 247.610575,82.5554895 249.029421,80.4109882 C252.288488,75.484861 253.985781,66.257389 252.768843,58.3247362 C252.465432,57.8508011 252.15626,57.3820771 251.842149,56.9196613 C249.196764,53.0212162 245.537722,48.8693475 240.65598,44.2265391 C240.575052,44.1494698 240.494399,44.0734976 240.414294,43.9988967 C239.73587,43.9692758 239.059093,43.9994452 238.388076,44.083097 C237.849837,44.4481477 237.323668,44.7435343 236.895984,44.9352476 C235.854893,45.402326 234.722999,45.7591486 233.628413,46.1047263 C232.987848,46.3065875 232.338778,46.5114657 231.700407,46.7402052 C231.20414,47.0860571 230.729271,47.4568674 230.280463,47.8476993 C227.859756,49.955723 225.768796,53.1498479 224.687379,56.3916954 C224.357357,57.38098 224.241589,58.566092 224.118963,59.8203195 C223.928302,61.7755759 223.732429,63.7845889 222.691887,65.2878517 C222.875964,67.2469479 222.867734,69.2282598 222.727001,70.3845736 C222.639215,71.1067212 222.430722,71.9383017 222.079303,72.755346 C222.546765,72.923198 223.026846,73.1107973 223.513512,73.3132071 C225.585268,73.3864366 227.45347,74.6505378 229.066818,75.9442598 C229.15625,75.989514 229.245134,76.034494 229.333469,76.0789254 C231.025001,76.9343672 232.486094,77.6732452 233.179606,77.8646842 C233.710438,78.0116919 234.107946,77.9812481 234.392977,77.7725302 C234.448118,77.7319385 234.499418,77.6847644 234.547426,77.632105 C235.349025,75.7007099 234.817094,72.6623692 234.30135,69.7161825 C233.572998,65.5560858 232.819956,61.2539182 235.934998,59.8098973 C236.113314,59.7276169 236.322081,59.7462671 236.482565,59.8595398 C239.233019,61.8024542 238.038303,66.4611701 237.078415,70.2043795 C236.783782,71.3530138 236.505609,72.438018 236.419743,73.1996601 C236.390938,73.4580206 236.378868,73.7981129 236.364877,74.192236 C236.318789,75.4870551 236.258436,77.1910821 235.494146,78.2061479 C235.420077,78.3690631 235.337503,78.5267671 235.245876,78.6784373 C234.822307,79.3800148 234.291748,79.7886741 233.66874,79.892896 C232.360724,80.1136817 230.978913,78.9579164 229.37791,77.6216828 C229.081357,77.3737445 228.778495,77.1211437 228.470145,76.8718341 C226.844727,76.0506758 225.018223,75.1373634 223.28609,74.4067135 C223.084456,74.4089077 222.88145,74.4250895 222.677073,74.4574531 C220.954541,74.7284299 219.244903,76.1485895 217.591777,78.6792601 Z M105.206938,66.8371915 C104.733715,68.3396315 104.309597,69.8338435 103.911816,71.2800585 C102.151426,77.6820218 102.203001,83.0264076 102.268566,89.7923245 L102.270761,90.0402627 C102.271584,90.1126695 102.271584,90.1842534 102.271035,90.2558374 C103.442708,88.3861525 104.31481,85.9970042 104.877465,83.1051226 C105.137806,81.768889 105.472491,80.3325475 105.826929,78.8117316 C106.791755,74.6727535 107.898137,69.9268203 107.801297,65.6007914 C106.909718,66.0366033 106.038164,66.4499251 105.206938,66.8371915 Z M185.47955,89.7155294 C184.99069,89.8233168 184.07881,91.0545057 183.344697,92.5443294 C184.266179,91.5997505 185.042265,90.6326816 185.47955,89.7155294 Z M72.1414065,84.7759631 C71.002928,85.3922433 69.7826984,85.9544926 68.4362761,86.4544831 C68.2105007,86.5381349 67.8829481,86.6530532 67.4810515,86.7943012 C65.9842951,87.3197986 63.479368,88.1991018 61.3604263,89.1804326 C57.8887526,90.7887401 57.8404702,91.5863113 57.8465055,91.671883 C57.8618681,91.8896517 58.3943468,92.3605699 60.2946458,92.743448 C61.9466742,93.0772321 65.710786,91.1902684 68.8634113,88.4495084 C70.3160002,87.1867787 71.4440541,85.9095127 72.1414065,84.7759631 Z M39.9825429,84.4951127 C40.279096,85.8823601 40.8442203,87.6116198 41.6770927,89.6771319 L41.7563747,89.8737821 C42.1511387,90.8559357 42.7094047,91.992228 43.3891998,93.1543014 C43.0281787,91.1952052 42.9741353,88.9396253 43.118434,86.0929979 C43.1247436,85.9660119 43.1357169,85.8107762 43.1486105,85.6335991 C42.0833787,85.4473711 41.0132089,85.0636702 39.9825429,84.4951127 Z M86.6546759,90.4944505 C86.6640032,90.6022378 86.6727818,90.7089281 86.6815604,90.8147955 C86.7611168,91.7750077 86.8335405,92.6507454 87.094979,93.2437128 C87.1989509,92.3901908 87.3243207,91.5544963 87.4527082,90.7347093 C87.2022429,90.6373441 86.935592,90.5597263 86.6546759,90.4944505 Z M88.4745955,94.4049634 C88.5258957,94.4049634 88.5777444,94.4120944 88.6290445,94.4271791 C88.9475442,94.5204302 89.2624775,94.6054533 89.5727472,94.6816998 C89.6794624,94.0421069 89.6355693,93.3981256 89.3988206,92.7546929 C89.1686559,92.1290877 88.8548199,91.6743514 88.4699319,91.3361789 C88.3119166,92.3655067 88.1640515,93.4175987 88.0630973,94.4897122 C88.0584336,94.5385319 88.0474603,94.5865288 88.0304517,94.6315087 C88.1341493,94.4883409 88.3003946,94.4049634 88.4745955,94.4049634 Z M90.657731,94.9161989 C93.8578158,95.5121832 96.5887926,95.1375332 98.7946976,93.7949914 C99.6174198,93.2944523 100.367993,92.6625389 101.045593,91.9006225 C101.134751,91.3208199 101.179742,90.7070082 101.173432,90.0509592 L101.171237,89.8027467 C101.107592,83.2225093 101.052726,77.5394024 102.853717,70.9893345 C103.171119,69.8349405 103.505255,68.6509257 103.867648,67.4551173 C103.299232,67.7153976 102.757975,67.9611417 102.25046,68.1912525 C101.107592,68.7098933 100.120545,69.1577729 99.4245643,69.5011564 C97.1344393,70.6311405 94.8818978,71.3401232 92.703426,72.0255189 C91.7649356,72.3211798 90.8412592,72.6116296 89.9315737,72.9300547 C89.7041523,75.7871043 89.5911275,78.5923172 89.4866069,81.1761958 C89.4402448,82.3234588 89.3960773,83.4188851 89.3439542,84.4460187 C89.243823,86.4265078 88.9489159,88.3014037 88.6616901,90.1148636 C89.402387,90.5745368 90.0229263,91.272823 90.4286636,92.3762031 C90.7477119,93.2431642 90.803127,94.0909266 90.657731,94.9161989 Z M88.8339707,95.6240846 C88.8257407,95.741197 88.847413,95.8281399 88.8707312,95.8928672 C88.9074917,95.9948949 88.9694908,96.0955512 89.0531621,96.194562 C89.1307981,96.0423432 89.2015758,95.8890274 89.2649465,95.7357116 C89.1220195,95.7003311 88.9785437,95.6630306 88.8339707,95.6240846 Z M239.440689,89.2341891 C239.671128,89.9843121 239.969053,90.7555536 240.297703,91.4288815 C241.3975,93.6806217 242.933486,95.2817981 244.560002,96.9770485 C244.96327,97.3975013 245.371202,97.8226167 245.775568,98.2622683 C245.186028,94.2990959 244.326819,90.1856248 242.453679,87.8324055 C241.496809,88.3710678 240.488364,88.8455514 239.440689,89.2341891 Z M89.946662,96.8709068 C90.4895654,97.1824752 91.1685375,97.4825244 91.836262,97.7776368 C93.3733452,98.4572728 95.1559557,99.245519 96.1690644,100.507426 C96.4571132,100.134422 96.7465336,99.7682738 97.0340337,99.4048687 C98.4676937,97.5922316 99.7765325,95.9372986 100.523539,93.9156693 C100.153465,94.2154442 99.7672052,94.4875181 99.3650342,94.7321651 C96.8976906,96.233508 93.8753731,96.6501211 90.3609036,95.9770675 C90.2459584,96.2782137 90.106872,96.576343 89.946662,96.8709068 Z M45.5871492,96.3873724 C47.9326893,99.347821 50.8713356,101.625068 53.5735075,100.717515 C55.7132985,99.9986589 57.6945255,97.4079235 57.1425691,95.0174038 C56.7321682,93.2382274 55.2697034,92.3992416 53.7216469,91.5106134 C53.0300555,91.1137476 52.3148715,90.7034427 51.6748545,90.1979668 C50.1054002,88.9580013 48.1217042,87.2054289 47.3629014,85.2540122 C47.2734691,85.2918612 47.1818422,85.3266932 47.0880206,85.3590568 C46.1802554,85.6714481 45.2189955,85.7998055 44.2399039,85.7545513 C44.229205,85.9053986 44.2198777,86.0381443 44.214391,86.1489486 C43.9801114,90.7659758 44.2632222,93.7033859 45.5871492,96.3873724 Z M188.978657,83.161896 C188.021512,83.5584875 187.242957,84.1709279 186.688806,85.3393095 C184.970664,88.961841 194.644988,96.9573012 200.523378,101.199678 L189.396739,83.6391223 C189.264237,83.4866293 189.124327,83.3267311 188.978657,83.161896 Z M194.596431,85.7981599 L204.613671,102.452534 C208.893801,101.872458 223.618306,97.8319418 227.14128,96.8566449 L212.547357,76.7327803 C212.134762,76.7072734 211.727104,76.6828635 211.324659,76.6600993 L193.198709,82.044254 C192.661292,82.2055236 192.129911,82.3294927 191.611972,82.4449595 C192.668699,82.7038685 193.741612,82.6904294 194.409062,82.467998 C194.425248,82.4625127 194.441982,82.4578501 194.458716,82.4540104 L207.105155,79.5242798 C207.328736,79.4724431 207.559724,79.5651457 207.685917,79.7554877 L218.944235,96.7162197 C219.040525,96.8610332 219.062472,97.0428728 219.002942,97.2063366 C218.943686,97.3698003 218.810361,97.4956893 218.643841,97.5450575 L205.689053,101.399894 C205.446269,101.471478 205.184556,101.368627 205.05754,101.148665 L196.12693,85.7134111 L194.596431,85.7981599 Z M182.440773,94.9071481 C182.430897,94.9460941 182.420746,94.9844916 182.411419,95.0231634 C181.58129,98.4111958 181.324789,101.932248 181.248799,105.539969 C181.606803,104.075378 182.034761,102.589943 182.559833,101.13166 C182.912898,100.1517 183.485155,99.104271 184.090881,97.9954055 C185.125936,96.1013109 186.195831,94.1430375 186.162637,92.5059319 C186.149469,91.8433004 186.105302,91.3370017 186.046869,90.9500096 C185.200829,92.3048935 183.859619,93.6630685 182.440773,94.9071481 Z M95.8862279,102.744356 C95.2824228,103.620368 94.7148295,104.555073 94.2278899,105.590983 C93.8227013,106.452733 93.5269712,107.312289 93.340974,108.153194 C94.9502065,106.539402 95.7902117,104.803285 95.8834846,102.922904 C95.8862279,102.862291 95.8873252,102.803049 95.8862279,102.744356 Z M110.555592,104.779698 C110.648591,104.779698 110.74159,104.803285 110.825261,104.850459 C111.320156,105.129664 111.671576,105.482373 112.043844,105.855652 L112.063322,105.875125 C112.825142,106.639235 113.180128,107.543497 113.121147,108.541009 C113.471469,108.524828 113.818774,108.504806 114.160866,108.485607 C114.584983,108.461472 114.99703,108.438159 115.390148,108.422526 C115.487536,108.418686 115.582729,108.414572 115.676002,108.410732 C115.655702,108.152372 115.676551,107.909919 115.746231,107.689682 C115.805487,107.501534 115.961034,107.359737 116.153889,107.318323 C116.500371,107.243722 116.828198,107.251401 117.117892,107.259355 C117.333243,107.265115 117.536798,107.270326 117.730202,107.242625 C118.345529,107.155682 118.924918,107.21081 119.464255,107.40746 C120.078485,106.739069 120.386834,105.604971 120.79943,103.643132 C122.219922,96.8887342 123.733961,89.0896499 123.716678,82.0121647 C123.713661,80.8237615 123.518062,79.1032784 123.291189,77.1112701 C123.157041,75.9327406 123.013291,74.6683652 122.895054,73.3768373 C122.765843,73.4292224 122.638553,73.4635059 122.514006,73.4780421 C122.118694,73.5276846 121.763708,73.373546 121.539853,73.0628004 C120.89819,72.1700581 121.565366,70.2932423 122.238302,68.8760997 C122.307434,68.7304634 122.446795,68.4902046 122.642942,68.182476 C122.6808,64.735476 123.265402,61.6699827 125.121808,60.1826275 C125.309177,60.0323286 125.57281,60.0213579 125.772524,60.156572 C126.635024,60.73994 127.07231,61.5835883 127.234166,62.5462689 C128.403918,61.4587964 129.550626,60.7207413 130.399136,60.8762512 C131.338449,61.047943 131.96036,61.4640075 132.246763,62.1129255 C132.888426,63.5654488 131.552703,65.7030934 130.479241,67.4202852 C130.031805,68.1363989 129.609059,68.8127438 129.509202,69.1681951 C129.193995,70.2924195 129.314426,71.1975039 129.877356,71.9358333 C131.898636,74.5863591 138.999724,74.5498814 142.812392,74.5271172 C143.089742,74.5257458 143.352278,74.5241002 143.596983,74.523826 C147.863671,74.516695 156.170175,73.0765138 157.999696,68.8377022 C156.828572,68.5187285 155.787481,68.0560384 154.955158,67.4334501 C153.867156,66.6199713 152.474646,65.4016729 152.940462,64.2212235 C153.268838,63.3879974 154.472333,62.9052857 156.73283,62.760198 C154.803178,60.3480111 151.163887,58.1930875 145.845135,56.3212086 C143.972818,55.6621426 142.140279,54.92875 140.367818,54.2197673 C138.537474,53.4874718 136.752943,52.7735522 134.949758,52.1430101 C133.580566,51.7779595 132.202321,51.4507578 130.840811,51.1273958 C129.364904,50.7768813 127.857723,50.4192359 126.368648,50.0146906 C124.897953,49.7560559 123.543849,49.5251223 122.272868,49.4000561 C122.400433,49.6024658 122.519218,49.8109095 122.629226,50.0253871 C123.262659,51.2612386 123.343587,52.5766278 122.869541,53.9345286 C121.489101,57.8913928 115.462298,61.6932955 109.703242,64.6482587 C110.590981,66.500939 110.47247,68.3879027 110.316649,70.8741419 L110.298817,71.1580093 C109.963858,76.5366787 108.692328,81.9422263 107.462497,87.169774 C107.193103,88.3162142 106.925355,89.4541521 106.669677,90.5824905 C106.498219,91.3397444 106.277108,92.1822957 106.043377,93.0742151 C104.79544,97.8327646 103.08635,104.350195 106.575032,107.262921 C106.796967,107.448326 107.035911,107.608773 107.289119,107.747826 C108.14339,106.545436 109.111233,105.521045 110.283455,104.852105 C110.367949,104.803834 110.461771,104.779698 110.555592,104.779698 Z M108.323077,108.179798 C109.43906,108.525376 110.723484,108.599154 112.018057,108.578036 C112.088561,107.84766 111.845777,107.21081 111.286139,106.649932 L111.266661,106.62991 C111.009063,106.371824 110.792067,106.154055 110.547362,105.975232 C109.709003,106.51746 108.984766,107.278828 108.323077,108.179798 Z M247.411685,102.115733 C247.617159,103.628321 247.824555,105.018586 248.081604,106.06245 C248.196275,106.526511 248.296955,107.104668 248.40367,107.716286 C248.639047,109.066507 248.924627,110.703887 249.489751,111.93151 C249.494689,111.921088 249.499352,111.910392 249.504016,111.899695 C250.604911,109.438963 249.84117,105.895146 247.411685,102.115733 Z M250.162962,113.004721 C250.477347,113.357429 250.849341,113.605093 251.294857,113.702184 C253.197899,114.117975 255.890195,111.78176 257.499153,110.386284 C257.713681,110.199782 257.910926,110.028913 258.087321,109.880809 C263.187979,105.589886 265.427627,100.296788 264.743991,94.1477 C263.343251,81.5497488 259.694908,70.0293965 254.132549,60.5476782 C254.204972,61.4294497 254.240361,62.246494 254.253529,62.9694644 C254.377527,69.7885893 252.685995,76.8721084 249.944594,81.0162976 C248.478288,83.2326572 246.190906,85.5134697 243.4004,87.2687848 C245.656233,90.2223767 246.488557,95.2933174 247.101141,99.7976204 C247.412782,100.188178 247.715096,100.594369 248.004242,101.021678 C250.899818,105.300807 251.811424,109.428815 250.505603,112.347575 C250.404374,112.574394 250.289978,112.793534 250.162962,113.004721 Z M89.3650778,97.8042408 C87.9547361,99.817642 85.6862833,101.660174 83.6833841,103.286858 C82.5413392,104.214706 81.4626651,105.090718 80.7428175,105.846327 C78.2993408,108.412103 77.4107789,111.064823 78.4793027,112.604564 C79.5629148,114.165697 82.4209074,114.254834 85.7614503,112.830012 C88.3670573,111.719227 90.4602118,110.54344 92.0521614,109.291681 C92.1789029,107.940637 92.5733926,106.531174 93.2345331,105.124453 C93.8874437,103.736383 94.6649011,102.536461 95.4796676,101.422384 C94.7258028,100.254825 93.0386599,99.5088163 91.3923926,98.7811833 C90.648678,98.452336 89.9494053,98.1429617 89.3650778,97.8042408 Z M117.099238,109.406051 C117.916748,111.052207 120.001123,113.29901 121.16923,113.854677 C121.368121,113.9493 121.586763,114.025272 121.821317,114.085062 C121.816654,113.864825 121.804309,113.630052 121.784008,113.378822 C121.656992,111.809187 120.997772,109.800997 119.810463,108.852029 C119.741605,108.796627 119.671651,108.745613 119.600873,108.698714 C118.982528,109.083237 118.182301,109.289487 117.099238,109.406051 Z M122.919743,114.244961 C125.088614,114.368655 127.951819,113.622647 129.716597,112.925457 C132.058297,112.000351 134.3369,110.865156 136.540062,109.766713 C139.23565,108.423348 142.02259,107.034455 145.026253,105.968924 C148.41453,104.767082 151.82585,104.766533 155.124421,104.765985 C157.954431,104.765711 160.62725,104.765162 163.206521,104.044934 C167.124533,102.950057 172.880296,101.068304 177.611429,97.3799482 C177.810045,97.2249868 178.022927,97.060426 178.247057,96.8873629 C179.181981,96.1646668 180.345698,95.265342 181.479787,94.284834 C182.076185,92.3616669 183.788567,88.725422 185.484488,88.6146178 C183.659356,84.9720647 181.316834,81.4611603 179.046735,78.0583174 C176.720672,74.5723714 174.333982,70.9950941 172.465506,67.2258292 C168.872577,69.0519055 163.356306,69.8878743 159.093184,69.0875603 C157.076843,74.3452775 147.277423,75.614864 143.598903,75.6208979 C143.35557,75.6211721 143.094132,75.6228178 142.818428,75.6241891 C138.531988,75.6483247 131.357653,75.6864479 129.004705,72.6012074 C128.229443,71.584496 128.04372,70.32972 128.452749,68.8719857 C128.594853,68.3648642 129.015953,67.6915363 129.548706,66.8391114 C130.385419,65.5001351 131.649816,63.4771345 131.242982,62.5561426 C131.112125,62.2596589 130.761803,62.0577977 130.201891,61.9554957 C129.617564,61.8474341 128.486218,62.7670547 127.293147,64.0127798 C127.157353,66.058819 126.245747,68.3020568 125.681171,69.6914984 L125.670198,69.7189252 C125.171736,70.9451773 124.556958,71.9511923 123.928189,72.614098 C124.055753,74.1239432 124.225565,75.6162353 124.38166,76.987301 C124.611824,79.0116729 124.810989,80.7601313 124.814007,82.009422 C124.831564,89.1935975 123.305455,97.0596032 121.873166,103.86858 C121.460022,105.834259 121.072665,107.110428 120.430728,107.943928 C120.452674,107.960933 120.474346,107.977663 120.495744,107.995216 C122.037491,109.227502 122.742251,111.618022 122.877771,113.290234 C122.905478,113.631697 122.919195,113.949025 122.919743,114.244961 Z M222.577216,113.681614 C225.798973,113.681614 228.835281,114.258674 231.771459,114.816535 C231.960748,114.852464 232.149763,114.888393 232.337955,114.924048 C232.361547,114.548027 232.087489,114.088354 231.828794,113.743324 C231.076575,112.740326 225.57018,112.197002 223.760685,112.018453 C223.423256,111.985267 223.142614,111.957566 222.93906,111.934253 C218.764822,111.458124 214.136563,111.280672 211.46594,113.576021 C211.422595,113.613047 211.379799,113.650896 211.337827,113.689294 C213.467742,114.112489 215.715619,113.98468 218.23975,113.840964 C219.618269,113.762798 221.044248,113.681614 222.577216,113.681614 Z M107.684706,109.117795 C106.977203,110.231323 106.327585,111.490487 105.662329,112.780918 C105.034657,113.998119 104.396561,115.235068 103.685766,116.381234 C106.696013,115.005506 110.541053,112.303143 111.709159,109.67593 C110.325702,109.67977 108.925511,109.560189 107.684706,109.117795 Z M93.1135526,109.840765 C93.0435979,111.383249 93.3744425,112.815202 94.1077324,114.017592 C95.3370149,116.033462 97.6076623,117.202118 100.501592,117.307711 C100.860419,117.32307 101.339952,117.236127 101.898766,117.069647 C102.944795,115.656344 103.826224,113.947106 104.687078,112.278185 C105.32106,111.048916 105.964095,109.801819 106.679827,108.662236 C106.395894,108.501789 106.125402,108.316932 105.871645,108.104923 C101.848289,104.745689 103.65943,97.8390728 104.981986,92.7961074 C105.213248,91.9132388 105.43189,91.0794641 105.599507,90.3403119 C105.855733,89.2092308 106.12403,88.0680017 106.394522,86.9188188 C107.613654,81.7357025 108.874485,76.3759576 109.203409,71.0899908 L109.221241,70.8055749 C109.360053,68.5944265 109.458812,67.0223224 108.899998,65.5555372 C109.003147,70.0192486 107.878385,74.8458166 106.895727,79.0604926 C106.543484,80.5714349 106.210994,81.998177 105.954767,83.3146633 C105.201177,87.1878757 103.901117,90.2242965 102.075436,92.3879967 C101.499887,95.5269937 99.738949,97.7535012 97.8948881,100.085328 C97.5185044,100.560908 97.13828,101.0417 96.7638165,101.535931 C96.9259469,101.967903 97.0057775,102.445404 96.9794416,102.976935 C96.8537975,105.511994 95.5789759,107.78595 93.1135526,109.840765 Z M210.5066,114.625645 C209.959033,115.393046 209.573048,116.316507 209.34398,117.40727 C212.164115,115.768245 217.102917,116.08667 221.547921,116.373554 C223.63751,116.50822 225.611055,116.635206 226.956929,116.505477 C227.145944,116.487101 227.356357,116.469274 227.582955,116.450349 C228.535985,116.369989 230.196518,116.230112 231.282599,115.840103 C228.484411,115.309395 225.593498,114.778686 222.577216,114.778686 C221.075521,114.778686 219.665454,114.858772 218.301749,114.93639 C215.533189,115.093546 212.976138,115.239182 210.5066,114.625645 Z M269.256481,21.6153382 C269.538221,24.0327362 269.056493,26.6958783 267.478535,29.7221512 C263.640353,37.0832295 265.237515,44.3762894 271.750984,49.2313812 C272.945975,50.1222037 274.311326,50.9461047 275.631687,51.7434017 C280.009205,54.3859737 284.535961,57.1185056 284.776276,63.0446139 C284.893141,65.9181195 284.184815,68.2639335 283.559887,70.3332855 C282.545406,73.6936168 281.669464,76.5959206 284.389742,80.8904086 C285.048687,81.9304328 285.767986,82.9589377 286.463693,83.9537077 C289.06107,87.6670219 291.747056,91.5064994 291.627996,96.5171011 C291.555024,99.6061814 290.087072,102.183203 288.667403,104.675751 C287.248831,107.166653 285.908719,109.519598 285.898843,112.305886 C285.893356,113.770203 286.829103,115.670057 288.039182,117.51972 C291.959115,110.571415 293.546401,101.278668 292.970303,89.1680906 C292.679511,83.0546572 292.317667,75.4461892 290.466474,69.35744 C289.017177,64.5898397 286.256023,60.89545 283.333288,56.9841143 C282.447744,55.7992766 281.532023,54.5741215 280.647028,53.3078263 C276.987162,48.0717762 275.648695,42.1613012 274.354396,36.4452822 C273.166812,31.2007299 272.024219,26.1577645 269.256481,21.6153382 Z M292.609282,124.396441 C292.570876,124.452666 292.545911,124.510811 292.531646,124.567859 C292.547009,124.50752 292.57307,124.449375 292.609282,124.396441 Z M200.58812,127.237858 C201.192748,127.294905 201.796554,127.435605 202.37704,127.570819 C203.5745,127.849475 204.812287,128.138279 205.963385,127.732637 C208.280394,126.915867 208.517966,125.486382 208.347332,123.541548 C207.899073,123.102445 207.560273,122.643046 207.349311,122.163077 C206.845637,121.019105 207.038767,119.836462 207.923214,118.64751 C207.972319,118.581412 208.023071,118.517233 208.075743,118.4547 C208.247749,116.818417 208.694636,115.428701 209.410369,114.298991 C207.88371,113.764992 206.383387,112.892271 204.87895,111.499538 C204.02221,110.706629 203.136941,109.633419 202.199822,108.496852 C199.399713,105.101963 196.244345,101.275102 192.484348,103.152466 C193.223124,103.678787 194.299878,103.844719 195.427383,104.01833 C197.121385,104.279159 199.04171,104.575094 199.645241,106.405285 C199.881441,107.121673 199.841114,107.706138 199.525632,108.142224 C198.931428,108.963382 197.600094,108.963656 196.190301,108.963656 L196.189753,108.963656 C195.254554,108.963656 194.218402,108.963656 193.576739,109.229422 C194.296038,110.149043 194.975558,109.923869 195.9445,109.603524 C197.223985,109.180328 198.97587,108.600526 200.21448,112.029424 C201.091245,114.456421 200.907443,116.981881 200.729676,119.424237 C200.661367,120.364976 200.590589,121.337805 200.581262,122.292806 C200.570289,123.417579 200.57605,124.590349 200.581811,125.724173 C200.58428,126.22718 200.586749,126.732108 200.58812,127.237858 Z M102.556889,118.01834 C102.149506,118.541369 101.715238,119.026549 101.24613,119.457972 C97.919578,122.51798 96.110906,126.064265 96.9459731,127.890067 C97.5596542,129.23206 99.5965706,129.746587 102.836982,129.375777 C108.685744,128.70766 111.463083,125.938102 114.979473,122.431311 C115.775859,121.636757 116.599679,120.815599 117.504975,119.972225 C118.209186,119.315901 118.85222,118.816185 119.419814,118.375711 C120.728104,117.358725 121.544791,116.724343 121.763982,115.198042 C121.381837,115.116036 121.023559,115.000295 120.697653,114.845059 C119.396495,114.226585 116.809269,111.639689 115.951981,109.494913 C115.784638,109.503964 115.612083,109.511644 115.433493,109.518775 C115.04641,109.534134 114.640673,109.557172 114.222865,109.580759 C113.794907,109.605169 113.350489,109.630402 112.897017,109.648504 C112.848461,109.792768 112.792223,109.937856 112.728303,110.08459 C111.290528,113.37608 106.058465,116.872174 102.556889,118.01834 Z M198.008301,129.286365 C198.402516,129.472319 198.908933,129.560085 199.482013,129.586414 C199.486951,129.173641 199.489694,128.760868 199.490792,128.348369 C198.952552,128.451494 198.464515,128.727681 198.008301,129.286365 Z M205.54448,129.157185 C206.54881,129.157185 207.420912,129.301724 208.043097,129.754815 C209.082267,128.803105 210.055872,128.013488 210.88655,127.453158 C211.752068,126.869516 212.496331,126.515162 213.1358,126.328659 C211.703511,125.755439 210.458318,125.132302 209.475934,124.456232 C209.45289,126.224986 208.857041,127.876079 206.328247,128.76745 C204.875109,129.278686 203.415936,128.939142 202.127947,128.639093 C201.572424,128.509913 201.061892,128.39088 200.588395,128.333833 C200.587023,128.747429 200.584554,129.161299 200.579616,129.574895 C201.266544,129.538418 202.000108,129.456411 202.724894,129.375502 C203.712215,129.265247 204.67759,129.157185 205.54448,129.157185 Z M209.399395,123.044849 C213.579395,126.680819 227.633432,129.300079 240.363268,130.604497 C242.349982,130.808278 244.327917,131.04552 246.240835,131.275357 C258.008588,132.688385 269.122607,134.023248 279.38702,126.962218 C282.665564,124.706913 285.33509,121.929401 287.418094,118.569892 C285.969895,116.430876 284.794656,114.138545 284.801514,112.302046 C284.812487,109.227502 286.287572,106.63759 287.713825,104.132974 C289.128281,101.649478 290.464553,99.3033895 290.531216,96.4913199 C290.641497,91.8402835 288.175526,88.3148429 285.564432,84.5823299 C284.861593,83.5776863 284.135161,82.5384849 283.462773,81.4773421 C280.47365,76.7593843 281.462617,73.484076 282.509469,70.0165059 C283.138512,67.9326178 283.788954,65.7779686 283.680044,63.0890453 C283.463322,57.7526132 279.383728,55.289961 275.064642,52.6824953 C273.721512,51.8717591 272.332842,51.0335962 271.09533,50.1109587 C267.663434,47.5528612 265.435857,44.2536917 264.653188,40.5697241 C263.882863,36.9433529 264.523428,33.0169325 266.505478,29.215304 C268.519625,25.3522394 268.714127,22.1633256 267.497189,19.0896044 C266.638255,18.0065201 265.658615,16.9585421 264.532207,15.9489617 C257.253077,9.42741764 245.256805,5.15816225 234.318907,6.48205379 C233.329391,6.76948664 232.305309,7.1090304 231.228555,7.50425056 C228.715947,8.42661378 227.100953,9.85746984 225.391041,11.3722519 C224.275881,12.3601652 223.122588,13.3818134 221.67384,14.3011597 C219.389476,15.7509402 216.828585,16.9722555 214.352189,18.153802 C211.095866,19.7072559 207.728712,21.3133692 204.771686,23.5119013 C197.477468,28.9341793 192.265979,39.6912438 192.098362,49.6710328 C192.026213,53.9520817 193.74271,57.7142156 195.402694,61.3523804 C197.200667,65.293337 199.06009,69.3681364 198.480426,73.9506059 C198.446409,74.2191142 198.221457,74.4231696 197.950691,74.4300263 C197.148818,74.4547104 196.33268,74.3392436 195.510232,74.1154409 C195.516816,74.2481866 195.510506,74.3781897 195.491028,74.5065471 C195.421622,74.9596378 195.191458,75.3375791 194.815348,75.6894649 C199.50588,75.070442 205.749131,75.2407625 211.199289,75.5528794 L212.347095,75.2119643 C212.569304,75.1455915 212.81099,75.2270491 212.947608,75.4157454 L213.132508,75.6705404 C213.417539,75.6889163 213.67157,75.7053724 213.892133,75.7188115 C213.709154,75.5572677 213.584607,75.3751538 213.514378,75.1705499 C213.430158,74.9239829 213.364867,74.4261866 213.878143,73.8658571 C213.892682,73.8502238 213.907496,73.8343162 213.922859,73.818683 C213.733569,72.6900702 213.289426,71.695026 212.804955,70.6094733 C212.395103,69.6912241 211.97126,68.7414341 211.67114,67.6303745 C210.681898,63.9677999 211.860429,62.9538312 213.644412,61.4187533 C214.038627,61.0792095 214.485514,60.6946858 214.951879,60.2437892 C215.227582,59.9772008 215.485729,59.7114351 215.730708,59.4588343 C216.746011,58.4127762 217.61921,57.5096117 218.734919,57.6508597 C219.401547,57.7358828 220.033334,58.1914419 220.707093,59.0929608 C220.983895,57.9824497 221.383871,56.8184564 221.905102,55.6231966 C223.147278,52.7760206 224.90657,50.1523731 226.66888,48.4406667 C226.359982,48.3877329 226.039014,48.2983216 225.70378,48.1683186 C224.86158,47.8416654 224.552133,47.0432713 224.303588,46.4020328 C224.113476,45.9116416 223.949425,45.4881718 223.627085,45.3074292 C223.059492,44.9895526 222.369272,45.0885634 221.638725,45.1933338 C220.821216,45.3109947 219.893973,45.4440147 219.118161,44.9012384 C218.030434,44.1406932 217.917684,42.6985922 217.835384,41.6454031 C217.810969,41.3327377 217.777774,40.9048796 217.720713,40.7940753 C217.306472,40.1369293 216.610491,39.7060543 215.996536,39.3256446 C215.517277,39.0288866 215.103584,38.7727203 214.857508,38.4301596 C213.295187,36.2541174 213.702296,35.3824938 214.495939,34.1411569 C214.900853,33.5075979 215.359536,32.7901128 215.597382,31.5410964 C215.696416,31.0210844 215.566108,30.5948719 215.415226,30.1011895 C215.260228,29.5948909 215.08493,29.0211222 215.198778,28.3403891 C215.332103,27.5425435 215.703,26.7710277 216.061278,26.0250188 C216.264832,25.6020976 216.460431,25.1956324 216.601438,24.808366 C215.390536,24.2899996 215.013055,23.507513 214.91841,22.9093345 C214.638317,21.135095 216.486767,19.1225165 217.797801,18.2026217 C220.537556,16.2800032 223.20818,16.5797781 226.03435,16.8962833 C226.370681,16.9341323 226.710853,16.9719813 227.055689,17.0070876 C232.77716,17.585793 239.262099,18.2415678 240.864199,25.4822425 C241.447703,28.1215233 240.241465,35.1485432 237.615557,38.3410225 C237.850934,38.3240179 238.093718,38.3264863 238.346104,38.3506219 C240.134475,38.5212166 241.124266,39.1103442 241.287493,40.1012744 C241.41204,40.8568827 240.98079,41.6744756 240.316083,42.4284382 C240.507567,42.5987587 240.702068,42.7731931 240.900136,42.9544842 C243.360073,43.1472946 245.644985,44.0490877 247.609204,45.6184491 C251.483597,48.7138376 253.13974,53.6641004 253.818713,57.9297903 C260.169502,67.9169846 264.313839,80.350375 265.834736,94.0264736 C266.561168,100.56228 264.192309,106.179014 258.793727,110.720069 C258.621172,110.865156 258.428316,111.03246 258.218178,111.214574 C256.454496,112.745263 253.504877,115.307201 251.060577,114.774298 C250.43702,114.638261 249.92539,114.331081 249.501273,113.906788 C248.168567,115.41965 246.028227,116.404547 243.201783,116.787699 C239.634642,117.272331 236.212348,116.758352 232.893477,116.144266 C231.834555,117.193341 229.46844,117.392734 227.675131,117.543307 C227.45347,117.562232 227.247447,117.579511 227.062547,117.597612 C225.62779,117.735569 223.611997,117.606115 221.477418,117.468432 C216.922132,117.174417 211.311765,116.811835 209.133842,118.926715 C209.120125,119.109926 209.109701,119.296977 209.102568,119.487593 C209.070471,120.348795 209.183222,121.254702 209.292406,122.130714 C209.329715,122.43186 209.367847,122.737394 209.399395,123.044849 Z M200.560961,130.673338 C200.489361,133.836471 200.250417,136.990279 199.521791,140.004209 C201.542522,136.653478 204.522867,133.134619 207.215437,130.533736 C206.321388,130.07708 204.559079,130.274004 202.846697,130.465718 C202.079116,130.551563 201.302756,130.638232 200.560961,130.673338 Z M181.228499,111.246663 C181.31025,119.826314 181.894029,127.069457 183.13593,135.085487 L183.267884,135.933798 C183.660453,138.447739 184.08896,141.190967 184.285382,143.963816 C185.096034,143.803095 185.93549,143.654442 186.781531,143.513468 C187.031996,143.471505 187.252285,143.435028 187.434441,143.402664 C187.654181,143.364266 187.929885,143.309961 188.247287,143.247428 C191.490717,142.610578 195.081451,142.035438 196.639932,143.294054 C196.817425,143.437222 196.975989,143.580115 197.116995,143.721638 C197.353195,143.264159 197.581165,142.653912 197.857418,141.830834 C199.034029,138.324318 199.3742,134.516107 199.463084,130.680195 C198.421445,130.633844 197.507644,130.411687 196.86653,129.837095 C196.666816,129.657724 196.625666,129.360692 196.769416,129.134421 C197.571015,127.87224 198.512797,127.373895 199.490792,127.246634 C199.489694,126.740061 199.486951,126.234037 199.484482,125.729932 C199.478721,124.591994 199.47296,123.415111 199.483933,122.28211 C199.493535,121.292551 199.565684,120.302443 199.63509,119.344425 C199.812583,116.909748 199.979652,114.609737 199.182442,112.402154 C198.306774,109.977899 197.547422,110.22858 196.289335,110.644919 C195.164848,111.016552 193.623924,111.527788 192.338952,109.35202 C192.209467,109.13288 192.247873,108.853949 192.431676,108.677595 C193.276619,107.866584 194.757464,107.866584 196.189753,107.866584 L196.190576,107.866584 C197.161986,107.866584 198.370968,107.86631 198.636521,107.49934 C198.764634,107.322711 198.670538,106.953272 198.603053,106.748668 C198.236545,105.63706 197.095597,105.385282 195.260041,105.102512 C193.783036,104.875144 192.109061,104.617057 191.146978,103.377092 C191.052883,103.25614 191.014202,103.101178 191.039166,102.950057 C191.064679,102.799209 191.152191,102.665366 191.280304,102.581715 C196.129674,99.4147423 199.965112,104.063036 203.046411,107.799115 C203.959388,108.90606 204.821889,109.951844 205.62431,110.694562 C207.112288,112.071935 208.586549,112.897208 210.106624,113.375805 C210.307161,113.15118 210.521963,112.940542 210.750756,112.743892 C213.741525,110.173452 218.653168,110.341579 223.063332,110.844312 C223.262772,110.867076 223.537927,110.893954 223.868223,110.926592 C228.548056,111.38846 231.841962,111.932059 232.706383,113.084807 C233.268489,113.834381 233.507707,114.51868 233.421841,115.126184 C236.637563,115.714214 239.749038,116.148655 243.054467,115.701049 C245.755541,115.334627 247.68876,114.433657 248.822026,113.017886 C247.963641,111.579899 247.610027,109.553333 247.322801,107.904708 C247.219652,107.312289 247.121716,106.752508 247.016098,106.324924 C246.684156,104.978543 246.450425,103.219114 246.179659,101.181577 C246.138509,100.874945 246.097359,100.563377 246.054838,100.249614 C245.321822,99.3557747 244.536135,98.5370848 243.768005,97.7364966 C242.154931,96.0552338 240.486718,94.3163748 239.311753,91.9102218 C239.300231,91.8871833 238.810548,90.8575813 238.406731,89.5852522 C236.668014,90.1214461 234.839041,90.4171069 232.956574,90.3724013 C228.50526,90.2747619 222.032118,88.2141865 216.474422,78.9532539 C216.367981,78.7758025 216.37045,78.5533711 216.481006,78.3783882 C216.915548,77.6897013 217.353108,77.0728726 217.795332,76.5270793 C217.229933,76.6236216 216.640668,76.6211532 216.037411,76.5177542 C215.650877,76.4513813 215.310979,76.3737635 215.015249,76.2835293 C215.009763,76.3180871 215.00455,76.3531934 214.998789,76.3880254 C214.954073,76.6631162 214.709369,76.854281 214.431745,76.8479728 C214.305552,76.8422132 214.15028,76.8337109 213.968123,76.8227402 L228.493189,96.8517081 C228.598533,96.9967958 228.625966,97.1846694 228.566985,97.354167 C228.508003,97.5236646 228.36974,97.6536676 228.19691,97.7019388 C227.403816,97.9235473 208.72783,103.139576 204.382409,103.585261 C204.173093,103.606106 203.966247,103.504626 203.856239,103.322238 L193.187187,85.5836823 C193.087879,85.4188472 193.082392,85.2142433 193.172373,85.0444715 C193.262354,84.8744253 193.434909,84.7641696 193.626667,84.7534731 L196.402634,84.5990603 C196.607835,84.5872667 196.804531,84.6928599 196.908228,84.8722312 L205.79083,100.22493 L217.620033,96.7052489 L206.982255,80.678948 L194.730854,83.5170731 C193.558633,83.897757 191.837198,83.7608973 190.428503,83.2170239 L202.910891,102.917967 C203.049703,103.137107 203.016234,103.423443 202.830237,103.60446 C202.644514,103.785477 202.357563,103.811807 202.141663,103.667267 C200.691269,102.694987 190.983476,96.0683987 187.053394,90.3534768 C187.20263,91.0314672 187.246249,91.8068228 187.259966,92.4839904 C187.298921,94.4126429 186.157699,96.5014678 185.054061,98.5211773 C184.469185,99.5919195 183.91668,100.60342 183.592419,101.503567 C182.410047,104.785458 181.728606,108.231087 181.228499,111.246663 Z M180.275469,117.161252 C179.852723,119.872665 179.464817,122.623847 179.212706,125.362688 C179.033841,127.309716 178.625086,129.374131 178.229774,131.370528 C177.583447,134.636237 176.9149,138.01275 177.188134,141.080711 C177.350539,142.903222 178.201517,144.341758 179.181981,145.419631 C180.269159,144.928691 181.661395,144.531825 183.19985,144.191184 C183.011932,141.406267 182.57931,138.635612 182.183723,136.103022 L182.051495,135.253339 C181.095448,129.083133 180.526757,123.368759 180.275469,117.161252 Z M198.245049,145.994222 C198.916614,146.233384 199.513287,146.599532 200.016686,147.073467 C201.140351,143.92679 203.441724,140.376665 205.187299,137.684725 C206.062968,136.333407 206.819576,135.166671 207.085404,134.555876 C207.671651,133.207849 207.925409,132.157677 207.83872,131.461859 C203.637871,135.5586 198.701538,141.934782 198.245049,145.994222 Z M184.350947,145.067745 C184.396212,146.033168 184.409106,146.998043 184.378381,147.955787 C186.912387,146.814558 189.185503,145.929221 192.29259,145.503282 C192.813546,145.431699 193.278814,145.377393 193.696347,145.328299 C195.100379,145.164013 195.881129,145.072682 196.448173,144.608072 C196.306618,144.454207 196.140647,144.300892 195.950535,144.147302 C194.660076,143.105358 190.31438,143.959154 188.458797,144.324204 C188.133165,144.388109 187.850054,144.443511 187.624553,144.48328 C187.439379,144.515643 187.216347,144.553218 186.962315,144.595455 C186.326139,144.701597 185.386551,144.858478 184.350947,145.067745 Z M180.030764,146.246823 C180.246938,146.434148 180.462015,146.60584 180.670233,146.76135 C181.443026,147.33841 182.323907,147.84416 183.266512,148.267081 C183.309583,147.287396 183.303273,146.295094 183.2613,145.300873 C182.133246,145.557588 180.977485,145.871899 180.030764,146.246823 Z M178.956754,146.755864 C178.511513,147.016693 178.183137,147.300012 178.025122,147.607192 C177.766701,148.108554 177.385654,149.004039 177.735976,149.370187 C178.314817,149.975222 180.621127,149.565191 182.15821,148.959608 C181.392824,148.572615 180.670781,148.131044 180.013207,147.640379 C179.635177,147.357608 179.282661,147.062496 178.956754,146.755864 Z M184.934178,148.908868 C187.387805,149.707262 190.054862,149.968365 192.24705,149.526245 C193.960255,149.181216 196.647613,147.828526 197.025917,146.28522 C197.084624,146.046059 197.081332,145.804703 197.01659,145.562524 C196.290432,146.097073 195.335208,146.241063 193.823912,146.417966 C193.412962,146.465963 192.954828,146.51972 192.441552,146.590206 C189.507295,146.992558 187.403716,147.798905 184.934178,148.908868 Z M200.452326,149.857012 C200.390875,150.527872 200.449583,151.128793 200.663287,151.631526 C200.671243,151.650999 200.679747,151.669924 200.688252,151.688848 C200.702242,151.157317 200.648473,150.619752 200.520086,150.103579 C200.500883,150.025961 200.478387,149.943133 200.452326,149.857012 Z M201.688192,152.748894 C202.033028,152.942527 202.451659,153.086792 202.947377,153.183883 C205.338182,153.652607 207.581122,150.394303 208.771175,147.461282 C210.239401,143.843413 211.152378,142.613869 213.576651,139.589791 C215.709035,136.92994 217.050245,129.620698 215.287113,127.706582 C214.571654,126.930129 213.297656,127.150366 211.499957,128.362905 C210.703571,128.900196 209.75493,129.673632 208.737158,130.610257 C209.172797,131.580891 208.96211,132.992274 208.091654,134.993333 C207.789614,135.687506 207.047546,136.832026 206.107958,138.281258 C204.367595,140.965519 201.815208,144.90291 200.834196,148.063848 C201.167236,148.586329 201.421816,149.182313 201.585043,149.838636 C201.822889,150.795557 201.848402,151.800475 201.688192,152.748894 Z M191.849818,159.862583 C190.400521,160.177717 188.916932,160.410844 187.449529,160.641504 C184.337505,161.130524 181.39831,161.592665 178.887074,162.756384 C177.391963,163.449459 174.267868,166.281276 174.445361,167.676752 C174.502971,168.128471 174.996495,168.442234 175.912215,168.609537 C177.50636,168.903552 180.201948,166.649618 182.36588,164.840546 C183.654692,163.763496 184.767109,162.833453 185.660609,162.378443 C186.501163,161.950311 188.941348,160.861192 191.849818,159.862583 Z M184.257126,149.848784 C183.998156,152.466672 183.346343,154.978967 182.061371,157.206023 C181.130836,158.818719 178.727687,160.510129 176.182981,162.301374 C172.914313,164.601659 169.209732,167.209125 169.604496,169.225817 C170.14685,171.997295 175.249703,172.945714 179.456313,172.902105 C181.081731,172.888118 183.17077,172.225486 185.191227,171.584522 C187.340071,170.902692 189.376164,170.254322 190.84631,170.394473 C193.574818,167.649325 196.132143,166.464213 199.84276,165.264839 L200.055642,165.196546 C201.534018,164.721788 204.009317,163.92696 204.7042,162.438233 C204.975515,161.856785 204.958232,161.207319 204.65098,160.452807 C204.435903,159.924841 204.012609,159.549643 203.357229,159.30527 C199.297387,157.794328 188.774005,162.024363 186.158797,163.355934 C185.375852,163.75472 184.255754,164.69107 183.070091,165.682275 C180.607959,167.740108 177.81855,170.070837 175.714971,169.688782 C173.921661,169.361031 173.442952,168.489133 173.356811,167.815257 C173.064647,165.520183 177.008447,162.418212 178.425373,161.761066 C181.07597,160.532619 184.229418,160.037017 187.278895,159.557597 C191.636387,158.873024 196.142019,158.164864 199.235937,155.319882 C199.799964,154.800693 200.218595,154.051393 200.458635,153.206922 C200.110234,152.886851 199.841114,152.503973 199.652922,152.059933 C199.21015,151.016069 199.268308,149.710279 199.642497,148.276406 C199.245539,147.77861 198.691936,147.323325 197.92024,147.0422 C197.086819,148.902834 194.326488,150.226451 192.464047,150.601924 C189.958846,151.105755 186.972466,150.79638 184.257126,149.848784 Z M179.244254,174 C176.663611,174 169.347172,173.62343 168.527468,169.436181 C167.996086,166.721751 171.836737,164.018565 175.551194,161.403969 C177.886584,159.760555 180.301256,158.060916 181.11081,156.658036 C182.31019,154.579084 182.921677,152.20694 183.165284,149.717959 L183.013304,149.787897 C182.075636,150.219869 178.297808,151.543212 176.943156,150.128812 C176.316855,149.474409 176.352519,148.456874 177.049322,147.104733 C177.270434,146.675504 177.661632,146.29482 178.186704,145.953905 C176.964279,144.537859 176.250193,142.918032 176.095195,141.178076 C175.807969,137.953782 176.491879,134.498828 177.153294,131.157696 C177.561226,129.097943 177.946114,127.152286 178.120315,125.262031 C178.487097,121.273078 179.136716,117.276993 179.765211,113.412283 L180.038446,111.725535 C180.068348,111.539581 180.099073,111.351708 180.130347,111.161914 C180.124037,110.484198 180.121294,109.798528 180.121294,109.103259 C180.121294,104.644484 180.198107,100.285817 181.051829,96.0766267 C180.304548,96.683856 179.572904,97.2491224 178.918347,97.7551468 C178.695315,97.9273871 178.483805,98.0911251 178.286012,98.2449894 C173.401802,102.052652 167.509421,103.981578 163.501976,105.10114 C160.777858,105.862234 157.90368,105.862783 155.124695,105.863057 C151.918575,105.863605 148.603545,105.864154 145.39331,107.002915 C142.452469,108.045956 139.695705,109.420038 137.029745,110.748592 C134.805459,111.857184 132.505458,113.003624 130.119866,113.946009 C128.3806,114.632776 125.33661,115.494251 122.851983,115.341484 C122.581766,117.30826 121.525587,118.128595 120.093025,119.241849 C119.543812,119.668336 118.921352,120.15187 118.253079,120.774733 C117.361499,121.60549 116.544538,122.420066 115.754461,123.208038 C112.232036,126.720588 109.189967,129.754266 102.961529,130.465992 C99.1502321,130.900432 96.7901524,130.188158 95.9479527,128.346175 C94.7238825,125.669045 97.3536307,121.54762 100.503238,118.650527 C100.591299,118.569618 100.677988,118.486241 100.763854,118.400669 C100.658236,118.406154 100.557831,118.4078 100.461814,118.404235 C97.1873854,118.284379 94.597964,116.929496 93.1706137,114.588893 C92.4669517,113.434773 92.0826123,112.106767 92.0170469,110.684688 C90.4522562,111.80041 88.513002,112.849485 86.1921518,113.839044 C82.29252,115.501657 78.9920296,115.268254 77.5778472,113.230169 C76.1784788,111.213477 77.0867926,108.094501 79.9480772,105.089895 C80.7162073,104.283548 81.8212173,103.385594 82.9915183,102.435256 C84.9362591,100.856021 87.1514915,99.0568226 88.4671886,97.1649221 C88.1763965,96.8969623 87.9591254,96.6015757 87.8378706,96.2628547 C87.6688819,95.7919366 87.7078371,95.2900262 87.9536387,94.7700141 C87.9119402,94.8251419 87.8595428,94.872316 87.7986411,94.9087937 C87.6488557,94.9984793 87.4650531,95.0119184 87.3040201,94.9436257 C85.8725549,94.3407847 85.7277075,92.5945204 85.5877981,90.9055782 C85.5710638,90.7020714 85.5540552,90.498016 85.5351263,90.2945092 C85.3296515,90.2648882 85.1192387,90.2369129 84.9041623,90.2078405 C84.1568814,90.1082812 83.384362,90.0048822 82.6132143,89.8060379 C80.7181276,89.3178409 76.2388319,87.9624085 75.5697357,85.9256945 C75.4317466,85.5052417 75.3875791,84.8563236 75.9609334,84.1533748 C76.3631043,83.660241 77.0171122,83.4081887 77.9051255,83.4046232 L77.9243287,83.4046232 C80.4202029,83.4046232 84.5179026,85.4125391 85.4906845,86.5850347 C86.1186308,87.3422886 86.3861047,88.33651 86.5306777,89.3491074 C86.9056898,89.4226112 87.2732949,89.5131197 87.6269091,89.6340719 C87.89356,87.9451296 88.1563702,86.2021566 88.2479972,84.3903423 C88.2998459,83.3670485 88.3440134,82.2751876 88.3901012,81.1320387 C88.4891351,78.6858426 88.5958504,76.0443676 88.7985818,73.3461192 C86.8585047,74.0962422 84.9853646,75.0378042 83.1764182,76.4955385 C82.2464322,77.2453871 81.3641799,77.9823452 80.5112811,78.6951677 C78.2584653,80.5774688 76.1883547,82.307277 73.8238857,83.7921638 C73.1034894,86.0167514 70.7258525,88.2843991 69.5832589,89.2775235 C66.6791785,91.8021602 62.4665337,94.2996445 60.0779234,93.819127 C58.6922716,93.5399222 56.8402551,93.0212814 56.7519201,91.7481295 C56.619692,89.8438869 60.7999657,87.9769447 67.1175614,85.7592138 C67.5115024,85.6209827 67.8327453,85.5082586 68.0541314,85.4259782 C69.8515558,84.7586842 71.4226562,83.970438 72.8779884,83.0848267 C72.9270938,82.8544416 72.9465714,82.6383185 72.9345008,82.4381028 C72.7701758,79.6822581 68.4305151,77.0509311 64.9434789,74.936325 C64.5317063,74.6864669 64.1256946,74.4401742 63.7317536,74.1971728 C62.6094607,75.321123 61.3788066,76.2522628 59.9851991,76.8715599 C58.6856876,77.4494425 57.5184042,77.5067645 56.3895273,77.5621667 C54.9783626,77.6312822 53.7595047,77.6913469 52.4720638,78.783482 C51.796658,79.3567021 51.2979221,80.309509 50.7695584,81.3179924 C50.142435,82.5162692 49.4516666,83.8354982 48.3274533,84.6923114 C49.0160271,86.6988559 51.4663621,88.6349136 52.3554727,89.3373139 C52.9312959,89.7923245 53.6108167,90.1823335 54.2678423,90.559452 C55.9522418,91.5256981 57.6937025,92.5254049 58.2119159,94.7705626 C58.9120117,97.8039665 56.5135254,100.887013 53.9230067,101.757265 C52.2298285,102.326097 50.5259514,101.918809 48.9230285,100.950643 C49.2884389,101.341475 49.6793623,101.743003 50.0963472,102.158519 C50.2538139,102.315126 50.3012733,102.550997 50.2165047,102.756423 C50.1317361,102.961576 49.9314736,103.095693 49.7092645,103.095693 L0.548664351,103.095693 C0.245801629,103.095693 0,102.849949 0,102.547157 C0,102.244091 0.245801629,101.998621 0.548664351,101.998621 L48.403992,101.998621 C46.6863983,100.196132 45.4615051,98.5966009 44.6204026,96.903819 C42.8454735,94.6331543 41.4581757,92.0750569 40.7380537,90.2824414 L40.6593204,90.0874368 C40.1016031,88.7040291 39.0306102,86.0485665 38.7362518,83.7027525 C38.216941,83.3264568 37.7138158,82.9013414 37.2329115,82.4285034 C34.3721756,79.6169824 33.2059895,75.9919825 34.1897447,72.9684522 C34.8481419,70.9451773 35.8198265,69.6824475 37.0776395,69.2159177 C38.217764,68.7927222 39.550744,69.0365465 41.0395448,69.9405337 C41.7999936,70.4021267 42.32726,71.2734761 42.8369692,72.1157531 C43.1996363,72.7155772 43.5425515,73.2819405 43.9285369,73.6445228 C44.5029885,74.1837337 45.169067,74.5142266 45.874375,74.8641925 C46.6205585,75.2344543 47.3919806,75.6173324 48.0731474,76.266799 C50.3638211,78.4502464 49.9493052,79.5497867 49.0560796,80.9781744 C48.6432097,81.6380631 48.2174461,82.318522 48.1535267,83.374728 C48.8217999,82.6728762 49.3147748,81.7313142 49.7975995,80.8094996 C50.3512018,79.7519222 50.923733,78.6584158 51.7620922,77.9469646 C53.3334669,76.613748 54.8598511,76.5385985 56.3357582,76.4664661 C57.4111403,76.4135323 58.4272667,76.3638898 59.5394093,75.8693847 C60.720958,75.3438872 61.7881102,74.5559153 62.775706,73.5968002 C61.9354266,73.0564923 61.1873227,72.5340117 60.6101278,72.0293587 C55.0801398,67.1953855 53.3968376,61.6845189 55.7415547,56.0927433 C58.4184881,49.7091561 66.656409,46.8586889 73.6576404,46.8586889 C73.6793127,46.8586889 73.7009849,46.8586889 73.7226571,46.8586889 C74.0255199,46.8595117 74.3322232,46.8658199 74.6408469,46.8773392 L69.3824478,32.2824428 C69.3146877,32.0940207 69.3547402,31.8836572 69.4872427,31.7333583 C69.6200195,31.5833337 69.8238483,31.5169609 70.0194471,31.5616665 L93.5604397,36.8780771 C93.7393043,36.9183945 93.8863464,37.0453806 93.9519117,37.2165238 L94.5200537,38.6964738 C94.689591,38.3764031 94.8799775,38.0450874 95.0906646,37.7028009 C95.9901998,36.2420496 97.2032967,35.3989499 98.3763411,34.5835512 C98.792503,34.2939242 99.1963199,34.013348 99.5801107,33.7108304 C99.6876489,33.5512065 99.8204256,33.3932281 99.978441,33.2379924 C100.161695,33.0580727 100.352081,32.9231328 100.548778,32.8337214 C101.239546,32.0956663 101.729229,31.2125234 102.247442,30.2786409 C102.478156,29.8625764 102.712161,29.4410265 102.968662,29.0227678 C102.572526,23.5201293 106.949222,21.4839638 111.630151,20.3345067 C110.172625,17.8584154 110.553123,14.6933629 110.892472,11.8716939 C111.06201,10.4603109 111.223317,9.12051177 111.169273,7.92854313 C109.765241,7.35642012 109.066517,6.59560074 109.090384,5.66336387 C109.152383,3.26598744 114.253316,1.22790207 115.254902,0.926207293 C120.420577,-0.631086305 124.032709,-0.227638105 126.297596,2.15959041 C128.156745,4.11978367 129.28617,7.45378525 129.375877,11.0261257 C129.654873,13.3713912 129.398098,15.8946566 128.664534,18.1900054 C128.590738,18.4206648 128.511456,18.6505013 128.426413,18.8792408 C129.711934,18.7311361 130.960145,18.8156106 132.112889,19.2001344 C134.061196,19.8509723 136.540885,21.6852765 137.288988,26.7301618 C137.331784,27.0181432 137.515038,27.7260288 137.727371,28.5455416 C138.74871,32.4881438 139.145394,34.4916714 138.637331,35.213819 C138.506475,35.4003212 138.273567,35.4869899 138.052181,35.4293936 L120.032123,30.8008472 L120.069981,45.7506463 C120.069981,45.8268928 120.054344,45.9023165 120.023893,45.9717063 C120.034318,46.02464 120.103998,46.2465228 120.553628,46.5915519 C121.422987,46.3918848 121.588958,46.1461407 121.61063,46.1060976 C121.61694,46.0945783 121.626542,46.0775737 121.607613,46.0446616 C121.512145,45.9398912 121.50995,45.8647418 121.513791,45.7229452 L121.862193,33.2111142 C121.866857,33.0429879 121.948333,32.8863809 122.083305,32.7862731 C122.218276,32.6856167 122.392203,32.6532531 122.553784,32.6968617 C123.113148,32.8482576 141.318105,37.4965514 141.501908,37.5434512 C141.733444,37.6026931 141.899964,37.8045543 141.913955,38.0428932 L141.988847,39.3256446 C145.165888,35.2960994 150.547188,31.5605695 153.066381,30.4379906 C156.07169,29.0981915 160.472526,28.410876 163.920607,29.326931 C163.484419,28.2079177 163.557392,27.0943897 163.624877,26.066159 C163.677,25.2655708 163.726655,24.5094139 163.538188,23.8092078 C163.414465,23.3481633 163.00763,22.8662745 162.576928,22.3555875 C161.536661,21.1230272 160.111779,19.4349077 162.179695,16.8669366 C162.31741,16.6952449 162.543734,16.6236609 162.754147,16.6823543 C161.77094,14.8411933 161.697968,12.868658 162.573362,10.992665 C164.084932,7.75218881 168.219667,5.31175232 172.195014,5.31175232 L172.208731,5.31175232 C176.590913,5.31806048 178.929046,7.44665428 180.119099,9.23131604 C182.01254,12.0710867 182.338721,16.1020032 181.032351,19.9538228 C181.126996,19.934624 181.206552,19.9165223 181.252914,19.9022604 C181.392001,19.8586518 181.543706,19.8723652 181.672917,19.9409322 C181.802402,20.0094992 181.898692,20.1266116 181.941214,20.2664883 C182.52417,22.188284 181.92009,25.1147234 180.594517,26.7902265 C180.0368,27.4950952 179.380597,27.9712244 178.658281,28.2032551 C177.844063,29.5707553 176.823273,30.8633803 175.600025,32.068788 C180.312778,32.8318016 186.856423,34.261012 189.502357,38.7162211 C189.594258,38.8709083 189.68177,39.0269667 189.765167,39.1852194 C189.965155,38.851161 190.165144,38.5176511 190.364583,38.1844155 C194.124306,31.9036787 197.675536,25.9712623 203.296876,21.2530302 C207.133137,18.0331241 211.806112,15.4333379 216.324637,12.9193976 C218.426296,11.7499189 220.599281,10.5409456 222.603552,9.31112802 C225.925714,7.27221985 229.819311,5.9620417 234.033053,5.42228231 C237.063875,4.54325343 239.788816,4.13733682 242.71841,4.10332759 C249.093615,4.02817816 256.298675,4.59892983 261.335963,9.39203707 C264.363493,12.2726737 267.130133,15.1974674 268.475183,18.5712379 C272.649147,23.9479874 274.055923,30.1598829 275.424566,36.2031036 C276.695821,41.8157236 278.010147,47.6197826 281.546563,52.6794783 C282.421408,53.9312374 283.331917,55.1495357 284.212249,56.3275167 C287.194239,60.3178416 290.011356,64.0871065 291.516343,69.0384663 C293.407314,75.2580413 293.772999,82.9419331 294.066535,89.1162539 C294.473644,97.6794488 293.818813,104.719085 292.064184,110.63724 C291.214852,113.503066 290.09201,116.123971 288.70142,118.491452 C290.221221,120.637873 291.959664,122.594501 292.818598,123.56157 C293.038338,123.808685 293.208698,124.000398 293.335714,124.155908 L314.451336,124.155908 C314.754198,124.155908 315,124.401378 315,124.704444 C315,125.007236 314.754198,125.25298 314.451336,125.25298 L293.063028,125.25298 C292.858924,125.25298 292.671556,125.139708 292.576911,124.958691 C292.574716,124.954302 292.572247,124.949366 292.569778,124.944977 C292.487479,124.840756 292.249358,124.572521 291.998344,124.290025 C291.100455,123.279348 289.52524,121.506754 288.077315,119.509535 C285.943833,122.843262 283.247697,125.638327 280.009205,127.865931 C269.403798,135.161734 258.088967,133.803285 246.109978,132.364475 C244.201724,132.135187 242.228178,131.898494 240.251341,131.695809 C234.595983,131.116281 224.141184,129.809943 216.478263,127.486619 C218.221644,130.45557 216.560563,137.621918 214.432842,140.276009 C212.083187,143.206837 211.199014,144.39716 209.788124,147.873781 C208.376959,151.352321 205.785069,154.856369 202.736416,154.260385 C202.242618,154.163843 201.801491,154.023417 201.413037,153.839658 C201.106059,154.739805 200.618297,155.539022 199.978829,156.127053 C198.769847,157.238935 197.386115,158.043912 195.897863,158.653061 C198.878482,157.913086 201.827004,157.564491 203.740197,158.277314 C204.686369,158.629474 205.334616,159.222167 205.667381,160.039211 C206.090126,161.07759 206.100551,162.040819 205.69838,162.90202 C204.80104,164.824913 202.040435,165.711347 200.390875,166.241233 L200.180463,166.308977 C196.467925,167.508625 194.096598,168.618862 191.439417,171.356057 C191.312401,171.487157 191.127775,171.545302 190.948362,171.514309 C189.731699,171.295443 187.592456,171.973708 185.523169,172.630306 C183.425625,173.29568 181.255932,173.983818 179.465914,173.999177 C179.396508,173.999726 179.322713,174 179.244254,174 Z"
                          id="Fill-1"></path>
                </g>
            </g>
        </g>
    </g>
</svg>
