<svg id="Слой_1" width="320px" data-name="Слой 1" xmlns="http://www.w3.org/2000/svg" viewBox="0 0 325.17 219.84">
    <defs>
        <style>.cls-1{fill:none;stroke:#00a19a;stroke-miterlimit:10;}</style>
    </defs>
    <path class="cls-1"
          d="M.29,140.55c3.84-2.78,11.94-10,8.09-19.05S3.52,105.11,8,98.69,19,92.2,18.63,81.16s-1.2-18.12,7.59-23S46.4,49.9,45.48,40.53,40.39,19.69,48.1,10.88s22.36-13.18,34-8.44,17.45,15,24.83,18.18S131.6,34,133.54,53.91,122,88.64,122.36,91.79s3.47,3.48,7,1.1S149.19,82.7,140,60.14,119.47,13.51,95.18,7,52.48,4.74,39.52,20.81,36.75,43.66,24.89,54.67,5.38,73,4.89,85.36-2,124.06,3.23,132.07s9.35,23.08,24.8,24.16,61.86,4.33,70.41-.45,6.85-9.94,0-10.85-25.71-.65-24.09-6.43,28.07-2.61,28.55,5.3S98.47,160,105,159.74s11.49,1.9,9,3.34-12.82-4.87-13,1.22,11.27,19.14,7.72,24.09S101,193.19,98,183.92s-6.89-11.63-6.18-18.18,1.63-11.1,6.66-7.23,12.43,15.76,13.16,20.42,2.86,10.61,10.1,10.56,17-3,17.36-10.67,1.09-38.66-2.13-48.7-3.62-16.73,0-15.38,4.3,15.53-.33,38.59-12,39.74-4.08,48.3,14.74,11.12,9.53,15.82-17.25.15-30.95-8.16-11.67-12.64-4.65-11.64,29.16,20,31.22,16.39-5.56-9.3-14.1-11.29-18.68-9-16.55-14.36,5.38-7.69,8.57-8.58,26.13,6.64,20.76,10.3-24.35-6.57-25.25-17.28,2.15-31.17,4-32.28,8.76-2.11,5.76-3.34-6.45-3.59-2.11-4.6,6.55-5.16,1.54-3-11.06,13.53-26.58,11.6-29.27.37-33-1.05-12.82-5.95-6.34-15.43S70,111.3,70,105.61s-4.15-3.9-7.21,2.38-6.21,29.14-12.86,27.71S34.38,121.62,37,109.45s12.6-36.22,23.34-47,19.49-13.09,21-17.4-2.3-14.47,4.91-19.13S106.78,25,105.89,28s-8.49,7.9-7.45,10.34-1.39,4.11-3.78,2.09S89,39.83,85.94,44.6s-8.43-1.38-10,1.27,6.54,9.84,9.38,9.87S92,60.6,93.51,57.3s7.77-1.23,8.19-2.63.91-4.89,3.69-6.17,3.71-3.78,2.61-6.7-.45-4.86-.22-6.67-2.37-4.11-1.37-4.79,5.34-1.44-1-7.65-26-2.23-27.26,4.88-.23,13.62,5.34,22,9.81,14.5,9.6,20.94,1.6,10.86,2.78,9,.4-21-13.56-26.73-24,1-26.72,18.77,7.93,37.3,21,37.57,21.75-9.59,21.85-11.69-4.34-8.2-8.73-7.1S79.42,97,77,95.57s2.33-16.76,2.4-20S76.19,70,75.51,75s-1.12,19.74,2.62,19.55,15.25-5.84,20.31-4.71,4.77,2.79,3.26,3.88-8.63.62-8.42-8.33,5.39-15.58,7.09-13.13,8.55,5.52,6,10.3-7.83,12-2.73,12,26.67,2.47,28.14,5.15,3.3,5.49-.66,6.46c0,0-4.1.68-13.08-2.76s-7.42-3.16-9.2-1.09S94.81,118.09,94.7,118.87,95.48,121,98,122s9.56,3.43,11.26,3.43,13.18-17.93,14-17.47,2.51,1,2.14,1.93S112,130.24,110.45,129.81s-28.09-11-27.61-12.3,19.38-20.94,20.84-21.94,29.38,9.74,30.8,11.46,2.47,5.69-4.17,10.62-18,13.3-16.58,11.19,22.64-27.36,27.72-30.47,11.39-8.4,9.93-8.58-19.3,17.08-24.25,6.63S143.9,78,146.45,79s7.38,13.29,16.65,13.9,19-1.22,15.24-4.28S157,89.92,147.45,84.17,132.57,60,140,51.94s23.92-3.71,26.64-4.38,5.13-3.25,5.45-7.36,4.08-6,3.74-8.28-.79-3.11-.6-5.84-.81-10.24-6.79-11-14.82-.68-15.9,5.77,4.1,19.59,2.54,19.87-2.88-1.26-3.65-5.62,2.21-13.87,5.73-15.76,14.82-2.06,14.93,1.91-13.53-.35-15.7,2.15-6.7,12.89-.59,20.2,6,5.73,7.89,4.87,8.28-4.48,13.15-2.66,15.72,5.33,19.84,15.41.13,11.48-1.51,8.63S183,60.52,179,66.59s-6.42,14.13-2.47,16.25,2.2-10.32-3.87-10.3-14.16,1.42-15.56.73-5.26,2.58-3.82,4,4.7-3.14,1.77-6.72-9,2.25-7.69,3.33a2.92,2.92,0,0,0,4.6-1.91c.49-2.57-7.52-15.62-6.83-18.09s4-4,2.34,0-10.54,23.28,5.81,30.26c10.38,4.44-23.33,27.25-16.49,34.3S150.88,138,176.39,140.9c11.28,1.28,26.79,16.72,33.22,15.08s9.85-7.53,6.2-8-8.13,5-5.5,11.19,11.51,18.25,18.8,18.17,13.76,3.33,9.59-7.2-11.88-24.6-13.87-23.71-2.84,10.88,3.75,13.28,13.13,7.32,16.13,0,2-12.7-3.19-20.53-1.3-20.54-1.32-23.6-1.14-26.72-9.6-35-15.45-6.75-25.21-4.6-42.26,10.43-32.65,20.37,31.79,9.43,33.42,6.3-1.71-13,.68-13.44,11.31,12.29,10.08,14.09-7.76-9.88-4.27-13.53,4.4,4.43,1,18.72-4.76,41.47,6.25,41.57,14.42-.38,13.8-12.66-5.27-38-.5-41,8.76-6.8,6.43-8.41-5.82,5.26-5.93,13.62-.26,32.62,10.25,34.07,11.63,2.15,9.53,3.51-14.06,2.2-9.53,11.87,17.83,13.13,19.61,9.9.94-7.63-2.44-12.08-11.85-10.78-8.14-15.75,12.39-2.13,15.47-3.86,3.68-5.54-1.57-4.66-7.39,4.78-10.39,9.68-.81-11-.3-20.58-.18-33.27-9.87-36.67-25.22-1.31-25.68-6,1.86-14.45.92-15.19S200,58.57,198.42,59.41s-6.2,18-4,18.66,28.05-2.13,29.15-6.07,2.66-19.5,1.77-19.5-24.06,3.33-23.86,2.17,4.85-15.13,10-16.32,18.08,6.22,16.74,7.52-11.19-.71-11.09-11,2.22-18.76,9.42-19.09S243.41,22,241.85,24,235,18.09,227.32,18.7s-10.72,8.21-9,16.21,2.54,3.21,1.85-.7,1.1-6.11,2.72-4.65,1.33-2.74,4.71-3.62,11.05,2,11.74,0,.32,14.5-2.21,15.54-3-1.71-5.05-.85,1.56,6.61,3.18,6.16-5.06-.52-5.38,2.93,3.94,5.3,7.2,6.2,2,4.65,3.26,5.22,7.48-4.1,8.5-2.11,1.21,3.76-2,5.27-6.78,5.28-6.62-.06,7.91-7,5.72-14.52-8.61-9-8.88-7.15,4.48,4.93,6.25,7.15,6,10.55,8.91,13.38,6.09,8.92,1.52,10.26S217.9,66.59,218.08,79s30.67,26.48,34.91,28,11.38,7.17,14.81,11.44,24.51,15.18,24.75,17.76-3.1,6.13-8.63,1.24-15-12.08-8.78-16.54,25.59-11.43,24.57-19.68-2.13-19.42-19.3-21S258,87.13,259,88s14.58-.9,16.77-4,9.93-19.93,9.73-21-27.42.8-28.77,2.2-9,13.44-7.67,15.05,8.38,6.85,18.77,9.86,18.09,25.43,21.53,26.45,11.75,2.22,12.58,5.63,4.06,10.57,8.18,9.26,16.08-6.57,14.42-12.64-5.45-7.67-8.34-5.12-4.09,6.41-6.73,6.26-4.83.51-4.32,4.2,2.9,6.72-2.33,10.12-15.05,6.12-10.24,11.74,9.73,6.1,15.45-.89,11.79-14.72,8.17-18.79-4,6.9-6.08,12.84-9.44,13-6.75,13.36"/>
</svg>
