<svg width="532px" height="150px" viewBox="0 0 532 376" version="1.1" xmlns="http://www.w3.org/2000/svg"
     xmlns:xlink="http://www.w3.org/1999/xlink">
    <!-- Generator: Sketch 50 (54983) - http://www.bohemiancoding.com/sketch -->
    <desc>Created with Sketch.</desc>
    <defs></defs>
    <g id="Page-1" stroke="none" stroke-width="1" fill="none" fill-rule="evenodd">
        <g id="Desktop-HD-1440-+" transform="translate(-373.000000, -1815.000000)" stroke="#65C8CE" stroke-width="1.5">
            <g id="work_space" transform="translate(0.000000, 1785.000000)">
                <path data-200-top="stroke-dashoffset: 8564; stroke-dasharray: 8564"
                      data-100-top="stroke-dashoffset: 0;" d="M390.1662,287.860179 C383.792117,275.111451 372.572089,259.594977 382.868598,237.91927 C393.16567,216.243563 396.540283,225.99226 395.04083,203.494835 C393.540814,180.997409 395.415412,177.99794 414.163641,162.624325 C432.911308,147.251272 431.786437,131.878218 427.662097,121.004088 C423.537194,110.13052 421.287451,88.0082392 446.784908,74.5097841 C472.281802,61.0113289 505.278214,71.884897 514.651766,82.758465 C524.025881,93.6325955 552.522807,100.756405 563.02123,113.505134 C573.520216,126.253862 588.518687,149.501014 581.769459,167.12381 C575.020232,184.747168 566.770989,207.99432 569.020731,210.244062 C571.270474,212.493805 590.393285,205.744577 593.767899,195.620736 C597.142513,185.496894 602.391724,171.248713 591.518156,150.250741 C580.644588,129.253331 564.896391,105.631035 551.022791,98.1320806 C537.149191,90.6325639 520.276122,79.3838512 511.277152,74.8843662 C502.278182,70.3848811 480.905628,67.3854119 458.783347,76.384382 C436.661067,85.3833521 418.663126,94.0071777 414.913368,122.879248 C411.16361,151.750757 395.04083,168.248681 383.416973,188.496364 C371.793116,208.744046 369.543373,245.490216 374.418003,270.98711 C379.292632,296.484005 387.541313,322.356044 412.288481,327.605818 C437.035649,332.85503 518.02638,328.730689 536.399464,317.856559 C554.772549,306.982991 547.273032,300.608908 541.274094,299.858619 C535.274593,299.108892 497.02897,301.358635 497.404115,295.734278 C497.778697,290.109922 519.90154,283.735839 534.149722,287.860179 C548.397904,291.98452 543.898419,317.856559 547.648177,319.731719 C551.397935,321.606317 568.645586,319.356575 569.770458,321.606317 C570.895329,323.85606 555.522276,323.106333 550.647646,326.105802 C545.773579,329.105271 555.241058,345.744367 558.89689,350.946897 C562.552721,356.149426 571.129865,371.475797 561.849677,374.428584 C552.569489,377.381371 543.851737,355.165164 539.633469,350.946897 C535.415202,346.72863 527.541103,334.636263 530.353281,328.59008 C533.16546,322.543897 536.399464,318.888066 541.883212,321.559635 C547.366959,324.231204 565.646117,345.181932 567.614642,350.52507 C569.583167,355.868209 568.598904,364.304743 573.801434,364.867179 C579.003963,365.429614 592.36181,370.210317 602.063824,362.758045 C611.765839,355.305773 612.609492,350.946897 612.468884,338.854531 C612.328275,326.762165 604.735394,287.110453 601.501389,273.611998 C601.501389,273.611998 590.252676,256.457711 592.36181,247.036914 C594.470943,237.616117 613.171928,211.041034 615.281062,207.103984 C617.390195,203.166935 625.123685,189.949697 623.155161,189.809088 C621.186636,189.66848 616.405933,193.183702 609.09427,188.965435 C601.782607,184.747168 593.776335,180.498529 588.565369,167.73349 C583.354403,154.967888 581.816142,144.111193 592.502419,134.690397 C603.188696,125.2696 630.466824,127.519342 633.419611,124.707164 C636.372398,121.894986 639.184576,115.426976 639.043967,109.521402 C638.903358,103.615828 644.105888,102.912783 643.684061,98.8351251 C643.262234,94.7574668 640.590665,94.1950312 639.606403,95.0386846 C638.62214,95.8823381 644.246497,90.6798085 642.55919,85.6178878 C640.871883,80.5559671 634.122655,71.2757792 622.873943,71.6976059 C611.62523,72.1194326 603.751131,77.3219622 603.610522,85.33667 C603.469913,93.3513777 605.719656,114.020887 608.813052,115.708194 C611.906448,117.395501 604.032349,103.615828 606.282092,97.7102539 C608.531834,91.8046797 608.110007,87.5864125 614.296799,87.4458036 C620.483591,87.3051947 636.231789,85.6178878 636.513007,82.8057096 C636.794225,79.9935315 627.795254,75.3534375 620.764809,76.9001355 C613.734364,78.4468335 605.18478,84.7016801 605.579047,91.8046797 C605.973314,98.9071169 611.906448,115.286367 611.484621,117.114283 C611.062794,118.942199 605.016611,115.708194 604.032349,112.755407 C603.048087,109.80262 601.09981,102.469584 602.907478,101.647303 C604.715146,100.82446 608.953661,116.130021 612.750101,120.629506 C616.546542,125.128991 619.639938,128.925431 623.717596,128.784822 C627.795254,128.644214 631.732304,120.488897 640.871883,120.06707 C650.011462,119.645243 663.931744,120.910724 674.055585,131.73761 C684.179427,142.564495 691.565331,150.74231 687.55404,155.078688 C683.543312,159.414505 682.49212,151.563466 670.540362,148.891896 C658.588605,146.220327 652.683031,158.593911 651.136333,164.499485 C649.589635,170.405059 652.261204,178.700985 654.792165,179.685247 C657.323125,180.669509 652.683031,171.52993 652.964249,166.749228 C653.245467,161.968525 655.073383,156.484777 659.713477,154.79747 C664.353571,153.110164 673.774367,150.438594 675.321065,154.094426 C676.867763,157.750257 671.665234,158.031475 671.665234,159.578173 C671.665234,161.124871 680.101768,160.703045 680.242377,162.109134 C680.382986,163.515223 678.836288,165.764965 669.415491,166.046183 C659.994694,166.327401 658.729214,173.498455 656.901298,171.389322 C655.073383,169.280188 653.807902,163.093396 646.636848,164.640094 C639.465794,166.186792 627.795254,172.514193 624.983076,170.405059 C622.170898,168.295926 618.936893,167.452272 617.249586,171.52993 C615.56228,175.607589 618.233849,180.388292 619.639938,177.154287 C621.046027,173.920282 623.998814,168.717752 618.936893,167.030445 C613.874973,165.343139 608.813052,164.780703 607.406963,168.295926 C606.000874,171.811148 609.375488,176.451242 611.62523,171.811148 C613.874973,167.171054 616.405933,165.905574 609.234879,157.750257 C602.063824,149.594941 597.564339,142.705104 598.548602,138.627446 C599.532864,134.549788 601.36078,133.143699 602.345042,135.815268 C603.329305,138.486837 598.548602,141.720842 597.42373,149.032505 C596.298859,156.344168 599.111037,176.310633 603.89174,180.950727 C608.672443,185.590821 616.124715,193.183702 630.044997,190.93396 C643.965279,188.684217 660.978957,187.981173 660.697739,191.215178 C660.416521,194.449182 658.588605,200.354757 644.527715,199.93293 C630.466824,199.511103 622.278323,198.407604 618.796284,193.886747 C615.314245,189.365327 608.672443,172.373584 595.173988,184.46595 C581.675533,196.558316 572.449339,209.646756 575.910568,213.009558 C579.372359,216.371798 588.143542,220.883657 597.283121,213.150167 C606.4227,205.416677 618.374458,193.46492 615.843497,197.261361 C613.312537,201.057801 587.299889,228.757756 577.597874,243.240473 C567.89586,257.723191 560.584197,268.409468 562.69333,268.409468 C564.802464,268.409468 577.316657,261.238414 584.768929,251.39579 C592.221201,241.553167 595.736424,235.366375 592.924245,232.835414 C590.112067,230.304454 585.050147,228.19532 585.050147,228.19532 C573.379607,225.66436 541.039558,214.837474 539.352251,215.259301 C537.664945,215.681127 507.996465,257.301364 508.418292,258.145018 C508.840118,258.988671 555.803494,270.940428 556.22532,270.65921 C556.647147,270.377993 578.16031,234.944548 577.597874,234.522721 C577.035439,234.100894 571.973518,233.39785 571.832909,234.241503 C571.6923,235.085157 555.053205,265.878508 553.530129,265.878508 C552.007053,265.878508 527.822321,257.723191 527.822321,257.723191 C527.822321,257.723191 548.913657,224.39888 550.179137,224.117662 C551.444618,223.836444 577.176048,231.288716 581.113097,229.742018 C585.050147,228.19532 592.36181,225.420825 589.268414,221.465216 C586.175018,217.509043 581.563608,213.546684 535.977638,215.118692 C531.899979,215.259301 539.49286,203.72937 539.49286,198.105014 C539.49286,192.480658 538.649207,187.418737 534.43094,183.903514 C530.212672,180.388292 527.96293,175.748198 524.166489,180.247683 C520.370049,184.747168 516.292391,204.854242 521.354311,209.916162 C526.416232,214.978083 536.258856,216.384172 536.9619,212.587732 C537.664945,208.791291 525.572579,206.541548 518.542133,210.19738 C511.511688,213.853212 500.262975,222.889865 496.607144,221.465216 C492.951312,220.040004 489.983902,217.227825 492.240956,205.416677 C494.49801,193.605529 495.467649,183.622297 492.240956,183.622297 C489.014262,183.622297 488.733045,199.651712 492.810703,213.009558 C496.888361,226.367404 511.792906,210.337989 514.183257,210.337989 C516.573608,210.337989 529.509628,216.243563 530.49389,219.899395 C531.478153,223.555226 513.902039,244.646563 499.138104,243.802909 C484.374169,242.959256 472.422411,238.037944 466.657446,228.617147 C460.892481,219.19635 450.346813,202.182672 455.549342,177.576113 C460.751872,152.969555 473.687892,147.485807 483.811733,148.329461 C493.935574,149.173114 509.824381,158.031475 513.339604,162.952787 C516.854826,167.874099 525.994405,188.824826 521.354311,193.886747 C516.714217,198.948667 517.839089,173.920282 511.792906,166.186792 C505.746723,158.453302 500.544193,144.392411 493.513748,141.439624 C486.483302,138.486837 480.155901,139.049273 481.983817,143.689367 C483.811733,148.329461 506.730985,162.109134 511.792906,157.609649 C516.854826,153.110164 513.339604,150.719812 521.916747,150.157376 C530.49389,149.594941 525.994405,143.26754 527.96293,141.439624 C529.931455,139.611708 536.399464,137.783793 535.415202,133.143699 C534.43094,128.503605 531.618762,122.316813 532.181197,118.660981 C532.743633,115.00515 529.931455,110.224447 529.931455,109.521402 C529.931455,108.818358 535.837029,107.834095 533.306068,103.756437 C530.775108,99.6787786 527.541103,93.9138133 517.417262,94.0544223 C507.293421,94.1950312 494.49801,97.429036 490.842178,99.5381697 C487.186347,101.647303 480.718337,106.287397 481.983817,115.708194 C483.249297,125.128991 486.157652,142.277653 495.341663,139.752317 C500.96602,138.205619 500.403584,127.378733 505.184287,125.972644 C509.96499,124.566555 516.995435,131.597001 518.823351,127.941169 C520.651267,124.285337 515.870564,126.253862 518.542133,119.785852 C521.213702,113.317843 531.056326,106.568615 528.525366,104.740699 C525.994405,102.912783 515.870564,95.1792935 502.512718,102.06913 C489.154871,108.958966 489.29548,114.302105 490.139134,121.754377 C490.982787,129.206649 496.466535,136.096486 474.531545,156.625386 C452.596555,177.154287 441.347843,200.495365 433.754962,234.944548 C426.162081,269.39373 437.129576,277.12722 440.644798,281.345487 C444.160021,285.563755 458.923956,298.921601 462.720397,293.016027 C466.516837,287.110453 469.81271,250.440212 473.266065,244.224736 C476.71942,238.008697 484.23356,232.13237 485.780258,235.506983 C487.326956,238.881597 484.092951,248.021176 473.266065,260.113542 C462.439179,272.205908 453.580818,287.954106 465.251357,294.281507 C476.921896,300.608908 503.215762,292.5942 514.464475,293.297245 C525.713187,294.000289 546.663915,297.937339 555.241058,286.266799 C563.818201,274.59626 568.458295,266.581552 576.191785,268.690686 C583.925275,270.799819 583.503449,273.190171 577.738483,273.893215 C571.973518,274.59626 566.208553,274.59626 566.911597,277.970874 C567.614642,281.345487 580.128835,281.486096 579.988226,282.892185 C579.847617,284.298275 576.613612,286.407408 572.114127,285.141928 C567.614642,283.876448 563.677593,289.219586 564.240028,297.79673 C564.802464,306.373873 561.709068,350.665679 570.708038,355.7276 C579.707008,360.78952 610.35975,371.897624 611.765839,367.538748 C613.171928,363.179872 613.734364,359.242822 595.455206,355.165164 C577.176048,351.087506 567.89586,360.227085 567.89586,360.227085 C563.583666,366.038732 563.771519,375.224993 566.583697,380.099623 C569.395876,384.974252 606.328774,391.910771 613.640437,394.722949 C620.9521,397.535127 619.264793,404.6595 613.453146,407.096533 C607.641499,409.533567 588.330834,391.161044 575.207523,385.723979 C562.084212,380.286914 554.95984,384.974252 553.647678,390.410755 C552.334953,395.847821 562.271503,398.84729 571.457765,401.097032 C580.644588,403.346775 578.206992,407.658969 596.392786,413.470616 C614.578017,419.282826 623.576987,413.096034 628.451617,408.78384 C633.325684,404.471646 621.88968,395.285385 609.516096,388.723448 C597.142513,382.162074 598.829819,368.475766 597.704948,361.914392 C596.580077,355.352455 603.329305,296.859149 604.82932,286.548017 C606.328774,276.236322 602.429408,253.790079 600.892271,248.676976 C599.355134,243.563874 595.080061,240.802877 594.143043,243.240473 C593.205463,245.677507 600.329835,253.176461 615.140453,263.488156 C629.95107,273.799289 650.949042,275.486595 664.447497,275.299304 C677.945952,275.111451 694.819021,285.235292 709.81693,292.172373 C724.815401,299.108892 728.002724,292.734809 731.939773,290.859649 C735.876822,288.985051 737.938711,279.986081 733.251935,279.986081 C728.565159,279.986081 724.252965,286.922599 724.065674,294.609407 C723.877821,302.296215 734.939242,309.045442 747.687971,318.418995 C760.436137,327.793109 771.872703,328.355545 776.372188,324.418495 C780.871673,320.481446 772.059994,306.607846 767.560509,303.608377 C763.061024,300.608908 750.68744,272.111982 747.125535,276.424176 C743.563068,280.735807 745.063084,289.172342 753.124473,294.790511 C761.186426,300.409243 775.059463,303.421086 784.058433,293.85968 C793.057403,284.298275 775.809752,261.98814 769.247816,257.113511 C762.685879,252.239444 767.560509,229.929309 766.060493,214.743547 C764.56104,199.557785 752.749891,166.936519 734.189516,160.562436 C715.62914,154.18779 669.509418,174.060891 657.323125,183.247152 C645.136832,192.433413 648.511446,201.432383 659.572868,209.119191 C670.634289,216.805999 698.005782,212.306514 706.255025,210.993789 C714.504268,209.681627 710.379366,199.557785 706.63017,194.308574 C702.880411,189.058799 705.130154,185.496894 708.504768,185.12175 C711.879381,184.747168 725.002692,201.245092 725.940272,206.305326 C726.877852,211.365559 722.503228,208.785104 717.316447,201.057801 C712.129103,193.329936 716.191575,184.372023 718.066173,183.809588 C719.940771,183.247152 723.69053,189.621235 722.940803,201.620237 C722.190514,213.618676 720.69106,238.928279 721.065643,245.677507 C721.440787,252.426735 727.252434,276.424176 729.314886,280.735807 C731.377337,285.048001 745.250375,282.798259 754.249345,282.423114 C763.248315,282.048532 763.248315,265.737899 757.811812,247.739958 C752.374747,229.742018 749.562569,203.869979 749.375278,196.745607 C749.187424,189.621235 761.561008,181.1847 762.311297,179.122811 C763.061024,177.06036 757.999103,171.060859 754.249345,184.372023 C750.500149,197.683187 757.061523,223.555226 759.68641,235.740957 C762.311297,247.92725 772.997574,254.301333 781.058964,255.614057 C789.120354,256.92622 793.057403,251.301863 793.950551,255.614057 C794.843699,259.925689 778.434077,262.175431 777.309206,269.862239 C776.184334,277.549047 788.745772,288.79776 803.556389,293.671827 C818.367007,298.546456 816.492409,286.172872 814.805102,281.860678 C813.117795,277.549047 794.932564,262.175431 790.245225,254.114041 C785.558449,246.052652 798.119324,243.05262 803.74368,242.865329 C809.368037,242.678038 818.742151,237.990699 819.117296,234.241503 C819.491878,230.491745 812.180215,231.054181 805.056405,234.241503 C797.932033,237.428264 799.244195,240.990731 799.056904,246.239943 C798.869613,251.489154 796.244726,252.801879 795.119855,250.176992 C793.994984,247.552105 793.807692,204.806997 786.68332,180.622265 C779.558948,156.437533 765.873202,155.687806 742.813341,155.875097 C719.75348,156.062951 684.320035,171.623295 683.382455,170.311132 C682.445437,168.99897 685.069762,138.252301 685.632198,137.502575 C686.194633,136.752286 722.378367,127.566024 723.503239,127.941169 C724.62811,128.315751 723.69053,138.814737 723.877821,145.751256 C724.065674,152.688337 725.565128,156.062951 728.190015,155.12537 C730.814902,154.18779 730.252466,124.191411 730.064613,122.128959 C729.877322,120.06707 694.256586,130.378203 692.194134,129.628476 C690.131683,128.878187 692.943861,106.755906 703.255556,100.569114 C713.566688,94.3823222 731.75192,108.255922 733.251935,109.943229 C734.751951,111.630536 727.81487,116.130021 716.191575,105.068599 C701.501319,91.0892616 711.129655,71.884897 718.628609,63.2610714 C726.127563,54.6366835 751.062584,65.1356694 750.68744,71.5097524 C750.312295,77.8843979 736.626549,76.7595266 731.377337,76.384382 C726.127563,76.0092375 724.252965,79.1965602 723.877821,81.2590116 C723.503239,83.3209007 722.378367,86.6955145 719.566189,84.0711898 C716.754011,81.4463027 716.191575,86.3209323 715.816431,90.0701282 C715.441286,93.8198866 719.566189,102.06913 718.066173,102.256421 C716.566157,102.443712 712.254526,95.1320489 711.129655,92.1325797 C710.004783,89.1331105 709.067203,62.6986358 726.315417,66.0732496 C743.563068,69.4478634 747.125535,67.9478476 746.375246,77.1341087 C745.525406,87.5481669 749.375278,98.6945162 744.125503,102.818857 C741.433686,104.933615 757.999103,104.131019 762.123444,112.567553 C766.248347,121.004088 752.749891,133.00309 757.249376,140.689335 C759.318015,144.223118 763.436168,139.752317 766.248347,135.627414 C769.060525,131.503074 768.872671,128.12846 766.248347,128.503605 C763.623459,128.878187 757.623959,133.565525 755.186925,130.003058 C752.749891,126.441153 745.250375,123.628975 740.188454,122.879248 C735.126533,122.128959 736.251405,116.317312 736.064113,114.067569 C735.876822,111.817827 746.187955,111.0681 746.375246,109.755375 C746.563099,108.443213 740.188454,107.693486 737.938711,105.818326 C735.688969,103.943728 731.75192,97.0072093 744.125503,102.818857 C755.805604,108.304854 762.30736,120.473149 767.887846,127.023274 C768.219121,127.41248 768.547021,127.781437 768.872671,128.12846 C774.684881,134.315252 782.498237,137.667368 782.371126,147.06398 C782.244578,156.46003 748.812842,150.438594 737.564129,152.500483 C726.315417,154.562935 721.628078,162.999469 725.940272,172.560875 C730.252466,182.122281 773.747301,203.11969 789.308207,206.305326 C804.868552,209.490961 809.743181,220.367904 821.367038,228.429294 C832.990333,236.491246 854.738032,240.428295 856.61263,244.92778 C858.48779,249.427265 853.800451,250.552137 844.801481,249.052121 C835.802511,247.552105 826.61625,237.428264 824.928943,228.242002 C823.241636,219.055741 837.115236,219.243032 855.487758,200.869948 C873.860843,182.497425 856.238047,161.499453 828.116266,156.999968 C799.994484,152.500483 788.933063,173.685746 792.120386,174.435473 C825.759661,182.35063 830.740591,129.253331 831.865462,125.878718 C832.990333,122.504104 785.183304,135.440123 784.246287,135.440123 C783.308707,135.440123 772.059994,154.000499 775.247317,162.624325 C778.434077,171.248713 801.119356,173.685746 814.429957,176.310633 C827.741121,178.934958 835.990365,198.057769 842.551739,208.181611 C849.113675,218.305452 861.862404,217.555725 867.111616,219.055741 C872.360827,220.555195 869.923794,229.742018 881.547651,234.05365 C898.404409,240.307372 909.669432,214.743547 902.54506,204.806997 C895.420688,194.871009 889.233896,207.431884 886.234427,211.556225 C883.234958,215.681127 872.923263,210.056771 875.247809,225.99226 C877.572356,241.927749 868.049196,242.302893 860.175097,248.676976 C852.300998,255.051622 854.362887,266.487625 871.048665,266.674916 C887.734443,266.86277 886.047136,231.991761 886.609572,226.741987 C887.172007,221.492775 896.920704,218.118161 894.295817,234.05365 C891.671492,249.989701 874.235988,268.924659 874.235988,268.924659"
                      id="Page-1"
                      transform="translate(638.359537, 237.919145) rotate(14.000000) translate(-638.359537, -237.919145) "></path>
            </g>
        </g>
    </g>
</svg>
