<svg width="320px" height="203px" viewBox="0 0 320 203" version="1.1" xmlns="http://www.w3.org/2000/svg"
     xmlns:xlink="http://www.w3.org/1999/xlink">
    <!-- Generator: Sketch 50 (54983) - http://www.bohemiancoding.com/sketch -->
    <desc>Created with Sketch.</desc>
    <defs></defs>
    <g id="Page-1" stroke="none" stroke-width="1" fill="none" fill-rule="evenodd">
        <g id="Mobile-Portrait-320" transform="translate(0.000000, -1222.000000)" fill="#65C8CE">
            <g id="Spaces" transform="translate(-43.000000, 1140.000000)">
                <g id="Page-1" transform="translate(15.000000, 82.000000)">
                    <path d="M140.963207,1.28056829 C139.26301,1.28056829 137.286229,1.62262779 135.017163,2.30578685 C132.879176,2.94926828 128.765692,5.13825708 128.726912,6.64024706 C128.716336,7.05654211 129.116307,7.41652054 129.600247,7.69874362 C129.588389,7.18485442 129.787413,6.68152459 130.193152,6.22619188 C132.542342,3.58603012 142.644496,2.5000152 144.932151,3.42379984 C146.245197,3.95400806 147.342874,4.76067971 148.235117,5.76733938 C147.779702,4.85443409 147.237113,4.05288213 146.617606,3.40044124 C145.273793,1.986126 143.403415,1.28056829 140.963207,1.28056829 Z M281.96295,6.12027823 C283.224077,6.21371263 284.497383,6.36058382 285.779662,6.56153178 C294.635432,7.94896863 303.261731,11.8652139 309.53147,17.3320863 C308.148878,15.5801913 306.427848,13.7895786 304.422865,11.8847327 C298.871023,6.60888894 290.765199,5.98236649 283.571808,6.06716141 C283.030501,6.07356103 282.494963,6.09115997 281.96295,6.12027823 Z M200.674275,10.461458 C199.120862,10.461458 197.48348,10.8572743 195.808601,11.647627 C193.572225,12.7032437 193.486654,13.2305721 193.486333,13.2360118 C193.877651,14.182835 200.365964,14.6279283 202.808416,14.7952783 C205.681285,14.9923865 206.644677,15.0787813 207.061955,15.3478852 C208.378206,16.1990342 209.256347,17.3644043 209.793808,18.7144034 C209.070143,15.4665981 207.200086,12.7909184 204.677832,11.4501988 C203.437858,10.7907183 202.09084,10.461458 200.674275,10.461458 Z M146.62017,12.7006838 C146.75766,12.7006838 146.897394,12.7250024 147.03905,12.7781192 C148.631563,13.3764833 148.172622,17.1004201 148.152431,17.2588107 C148.013018,18.3445056 147.576191,19.2324524 147.153785,20.0909609 C146.664077,21.0864212 146.248402,21.9321306 146.327884,22.9435899 C146.579147,22.8507955 146.830732,22.7637607 147.082637,22.6824856 C148.539903,20.9193913 149.49977,18.3128275 149.783403,15.2470912 C149.845257,14.5824911 149.873461,13.9188508 149.869615,13.2625702 C149.45426,9.3844026 147.722014,5.9305296 144.451737,4.61028873 C142.591295,3.8599337 133.100635,4.88579222 131.151417,7.07638092 C130.847592,7.41780046 130.804647,7.70450328 131.003671,8.06640159 C131.990458,9.86053406 134.271063,9.55975209 136.686273,9.24137117 C138.874897,8.95242849 141.138515,8.65388638 142.605076,9.98692648 C143.52424,10.8230364 143.983502,12.1791151 144.001449,14.1207587 C144.142785,14.1306781 144.285403,14.1441173 144.426098,14.1569166 C144.499811,14.1639561 144.572562,14.1706757 144.64371,14.1767554 C145.163224,13.4558386 145.85452,12.7006838 146.62017,12.7006838 Z M139.052768,28.8961932 C143.108885,29.3400066 146.02438,26.9436702 147.796688,23.8142578 C147.796047,23.8145777 147.795406,23.8148977 147.794444,23.8148977 C147.384538,24.2702304 146.941942,24.6721263 146.46954,25.0138659 C146.313141,25.1268191 146.114437,25.1639369 145.927912,25.1140199 C145.741387,25.0644228 145.587552,24.9335507 145.508392,24.7578812 C145.497815,24.7345226 145.48788,24.711804 145.477945,24.6887653 C143.180996,25.7232633 140.935325,27.2217335 139.052768,28.8961932 Z M211.41132,24.5985308 C211.229923,26.6556875 210.735728,28.632849 209.936426,30.5088965 C209.949246,30.4932175 209.962066,30.4772184 209.974885,30.4612194 C211.252998,28.8481961 211.727323,26.296029 211.456509,24.5898913 C211.441766,24.5927711 211.426703,24.5956509 211.41132,24.5985308 Z M130.088993,25.1258591 C125.32171,26.3753843 122.081559,28.2264733 121.605632,32.0470443 C121.724213,31.9110525 121.847922,31.7763406 121.97708,31.6432285 C123.925657,29.6366288 127.001717,27.1938952 130.088993,25.1258591 Z M201.286411,36.9936279 C201.943735,36.9936279 202.606508,37.0221062 203.264793,37.1219402 C203.357094,37.1360193 203.450998,37.1500985 203.545222,37.1644976 C203.592334,37.1219402 203.640087,37.0784228 203.68784,37.0342654 C205.027166,35.7965796 206.164904,34.4702591 207.096247,33.0674632 C206.928951,33.0245857 206.78409,32.9151523 206.697878,32.7618815 C206.591155,32.5730928 206.58763,32.3433466 206.688264,32.1513581 C209.125588,27.497557 211.052371,19.4801175 206.387003,16.4367799 C206.028055,16.2991882 204.272413,16.1785554 202.720922,16.0723218 C195.713737,15.5917106 192.535441,15.10054 192.225848,13.4606383 C192.041246,12.4843768 192.977075,11.5682717 195.260885,10.4905763 C199.787481,8.35374437 203.208387,9.21897251 205.280353,10.3203465 C208.208346,11.8767332 210.35146,14.9866268 211.106855,18.7265627 C211.272548,16.0236847 210.683808,13.465438 209.358263,11.479957 C207.612876,8.86635364 204.785837,7.48211661 201.181611,7.47699691 L201.16815,7.47699691 C197.05755,7.47699691 192.632229,10.061482 191.089071,13.365604 C189.995881,15.7056237 190.411235,18.120519 192.289625,20.3498254 C192.506917,20.6077299 192.486726,20.9894671 192.243154,21.2230531 C191.999902,21.456959 191.616597,21.4617588 191.367576,21.2348923 C191.047728,20.9440298 191.009589,20.94051 190.825628,20.9248309 C190.680447,20.9120317 190.485909,20.8950727 190.205481,20.823717 C188.817761,22.7797598 189.748783,23.8814537 190.910558,25.2564113 C191.482312,25.9325308 192.073295,26.6323289 192.29251,27.4450801 C192.56749,28.4664589 192.499866,29.4974371 192.434486,30.4941774 C192.334494,32.0220858 192.238988,33.4776786 193.36615,34.889434 C193.397558,34.9044731 193.428645,34.9191922 193.459733,34.9345513 C194.590741,35.4865182 195.525289,36.1651975 196.353434,36.8057991 C197.497902,37.0902621 198.721532,37.0550642 199.986825,37.0185864 C200.414999,37.0064271 200.849583,36.9936279 201.286411,36.9936279 Z M198.389184,38.3202684 C199.541024,39.0357455 200.586782,39.2254941 202.090199,38.2917901 C201.420696,38.2578721 200.735489,38.2777109 200.023681,38.2981897 C199.481413,38.3135488 198.93626,38.3292278 198.389184,38.3202684 Z M121.609158,34.1781166 C121.650821,34.555374 121.713317,34.9476705 121.797285,35.356606 C122.032524,36.5037372 122.764523,37.6435089 123.540108,38.8501566 C123.900018,39.410443 124.264094,39.9764891 124.582661,40.5537345 C124.852192,40.3431871 125.070125,40.0312058 125.345106,39.6373094 C125.852761,38.910953 126.547583,37.9161326 127.949404,36.9731491 C129.228158,36.1130406 130.707218,35.9552901 132.011611,35.8160984 C134.253436,35.5770728 135.435722,35.3473265 135.698844,33.0943416 C135.811977,32.1263996 135.734739,31.4707589 135.469374,31.1453384 C135.16587,30.7728807 134.495726,30.7133643 133.64771,30.6384888 C132.519907,30.5386547 131.116163,30.4141822 129.872983,29.4120023 C129.688381,29.2628912 129.601208,29.0238655 129.646718,28.7909195 C129.692548,28.5579734 129.863689,28.3695047 130.091237,28.3010288 C132.278579,27.6444282 135.003061,26.3782641 135.882485,24.0385643 C135.659104,23.8356965 135.447901,23.6641868 135.234775,23.5128358 C131.103023,25.6883854 125.752127,29.5943913 122.897526,32.5340551 C122.398524,33.0482643 121.981567,33.605031 121.609158,34.1781166 Z M119.053573,38.4025034 C119.535269,38.6687275 119.952867,39.1071012 120.337775,39.511557 C120.727811,39.9211324 121.131628,40.344787 121.455323,40.4420612 C122.236676,40.6759672 122.82157,40.8077993 123.276665,40.8493968 C123.02444,40.4177426 122.744652,39.9825687 122.461019,39.5409952 C121.709791,38.3721052 120.934847,37.1657775 120.604743,35.8871342 C120.593846,35.906653 120.58295,35.9261718 120.572053,35.9460107 C120.112791,36.7725211 119.642313,37.6201503 119.053573,38.4025034 Z M266.167938,36.8531563 C266.686491,36.8531563 267.246386,36.9673894 267.854996,37.2518524 C269.830174,38.1749971 270.289115,40.0324857 270.694534,41.6714275 C271.044188,43.0876626 271.346731,44.3109493 272.467803,44.9489911 C273.533752,45.5563147 274.515091,45.5630343 275.460536,44.96691 C275.252218,44.4203827 275.078833,43.8204187 274.94615,43.1522987 C274.517014,40.9930682 274.918588,38.843117 275.307021,36.7635617 C275.583283,35.2826904 275.844803,33.8840542 275.77109,32.62013 C275.577194,29.2753704 273.360367,27.1673368 271.535179,25.9878875 C267.679368,23.4965168 261.946769,22.8050382 257.90251,24.343826 C256.281474,24.9604291 255.350131,25.6157498 255.208795,26.2381125 C255.020026,27.0697426 256.14847,28.2520718 257.342935,29.5038368 C259.392787,31.651548 262.173676,34.5652934 260.512257,38.3353075 C261.335595,39.1128608 261.923694,38.7932 263.121684,38.025566 C263.96329,37.4857584 264.949757,36.8531563 266.167938,36.8531563 Z M213.439699,43.8405775 C213.263109,43.9032937 213.14613,43.9909685 213.089724,44.1023218 C212.866343,44.5454952 213.207985,45.4664001 213.70891,46.4612204 C213.845118,45.5876728 213.783264,44.7093254 213.439699,43.8405775 Z M117.313635,40.1860765 C117.245691,40.3195085 117.214924,40.445261 117.221654,40.562694 C117.25146,41.0900224 118.009738,41.6816669 118.618669,42.1571584 C119.132093,42.5574544 119.57533,42.9033537 119.805442,43.3174089 C120.92363,45.3275284 122.266161,46.7213648 122.992391,46.6279304 C123.440756,46.5712938 123.879186,45.8471772 124.195509,44.6411695 C124.417608,43.7945003 124.26794,42.9615902 123.923734,42.1238804 C123.234361,42.1769972 122.335708,42.0416453 121.08708,41.6679077 C120.437127,41.4730394 119.914088,40.9242723 119.408676,40.3931041 C118.982745,39.9460909 118.500088,39.4392413 118.161971,39.4334816 C118.160048,39.4334816 118.157484,39.4331617 118.156202,39.4334816 C117.883786,39.7032255 117.601435,39.9515306 117.313635,40.1860765 Z M277.42706,46.0426855 C278.053618,47.0125474 278.855162,47.8006602 279.796761,48.6505292 C280.355054,48.0224069 280.690927,47.4221228 280.620099,46.9930286 C280.539335,46.5037779 279.703498,46.1479592 278.326675,46.0164471 C278.014838,45.9870089 277.71518,45.9969283 277.42706,46.0426855 Z M110.491051,48.8946746 C110.455797,49.4802395 110.561238,49.9768497 110.807695,50.3822654 C110.928519,50.5803336 111.083316,50.7576029 111.268239,50.9166334 L110.491051,48.8946746 Z M276.193816,46.4772195 C274.669247,47.3210089 273.44722,49.1688982 272.176158,51.0916629 C271.806313,51.6506694 271.427814,52.2234351 271.03201,52.7773219 C273.223518,51.4487615 275.60732,50.5710541 277.993686,50.2302745 C278.300715,50.0126876 278.598129,49.7813414 278.875674,49.5442357 C277.848184,48.6118115 276.918123,47.6806673 276.193816,46.4772195 Z M126.795962,51.7140256 C132.026994,51.7140256 136.115801,52.5267769 139.034821,54.143 C139.030014,54.1302008 139.025206,54.1170816 139.020719,54.1042824 C138.904382,53.7734222 138.919765,53.47584 138.989952,53.2534533 L138.943802,35.1102207 C138.943481,34.9121526 139.034821,34.7252838 139.19154,34.6036911 C139.34826,34.4817784 139.553053,34.439221 139.744385,34.488818 L160.96721,39.9326517 C160.953429,38.6114509 160.034265,35.0689432 159.659292,33.6242298 C159.391683,32.5919717 159.18016,31.7766605 159.120228,31.3728447 C158.495273,27.163817 156.750848,24.5534135 153.935346,23.6142697 C152.579675,23.1624568 151.046132,23.1307787 149.449132,23.4158816 C147.37909,27.7903395 143.416235,31.3299673 137.530443,29.9271714 C137.303856,29.8730946 137.124382,29.700625 137.061887,29.4769584 C136.999071,29.2526518 137.063169,29.0123462 137.228862,28.849156 C139.371656,26.7372826 142.169851,24.7393223 145.10169,23.4414801 C144.844016,21.8831735 145.452626,20.6461276 146.003228,19.5268347 C146.396789,18.7265627 146.768236,17.971088 146.880728,17.0959404 C147.066612,15.6477072 146.843872,14.2705098 146.598697,13.9946863 C146.491974,14.0385237 146.136551,14.2449113 145.495892,15.1955743 C145.372824,15.3782834 145.165147,15.4854769 144.94465,15.4777974 C144.751074,15.4720377 144.53186,15.4521989 144.307837,15.4314002 C143.980297,15.401002 143.640578,15.3696439 143.416235,15.3930025 C143.230992,15.4109214 143.047992,15.3498051 142.912425,15.2230927 C142.777179,15.0963803 142.703466,14.917191 142.710517,14.7319221 C142.781345,12.8600343 142.455407,11.5823509 141.741997,10.9334298 C140.71611,10.0013256 138.840284,10.2483508 136.854209,10.5100951 C134.884801,10.7702395 132.717009,11.0556624 131.16648,10.077801 C131.146609,11.3183667 130.988287,12.6328479 130.823235,14.0030058 C130.399227,17.5275945 129.960157,21.1721761 131.970588,23.7393822 C132.001676,23.7790599 132.027315,23.8216173 132.047826,23.8660946 C133.065381,23.2395722 134.057617,22.6744861 134.98255,22.2009145 C135.183497,22.0988406 135.423223,22.10844 135.614555,22.2274729 C136.104905,22.5330545 136.552308,22.892713 137.065733,23.393483 C137.233349,23.5569932 137.298088,23.7988987 137.234951,24.0241652 C136.506478,26.6150499 134.128445,28.1503179 131.85393,29.0462642 C132.475359,29.249772 133.124671,29.3070486 133.760843,29.3636852 C134.8191,29.4571196 135.818387,29.5457542 136.463533,30.3373868 C136.969586,30.9581496 137.131112,31.8812943 136.97215,33.2428127 C136.577947,36.6163705 134.224592,36.8672354 132.147819,37.0886622 C130.934766,37.2182544 129.68069,37.3520064 128.665699,38.0345255 C127.46226,38.8443969 126.895955,39.6545884 126.396632,40.3694255 C125.993136,40.9469909 125.631623,41.4224824 125.149927,41.7338238 C125.556949,42.7574424 125.7345,43.8248984 125.435484,44.9653101 C124.952826,46.8058398 124.206085,47.7651423 123.152956,47.8976143 C121.240274,48.13728 119.391369,45.2091355 118.68469,43.9388116 C118.580851,43.7519428 118.181521,43.4402815 117.829303,43.165418 C117.144737,42.63105 116.318835,41.9866086 116.037766,41.1354596 C115.911493,41.2240943 115.78554,41.3114491 115.660229,41.3981639 C114.339811,42.3152289 113.092466,43.181097 112.181634,44.6578085 C111.706027,45.4289623 111.330414,46.1393197 111.054472,46.7879209 L112.955617,51.7338644 C115.375634,52.4035843 119.10389,52.1300007 121.838628,51.9287327 C122.593061,51.8733761 123.305509,51.8212192 123.946168,51.7885811 C124.930392,51.7389841 125.881285,51.7140256 126.795962,51.7140256 Z M164.834559,49.9714101 C164.650277,50.3941047 164.505736,50.8097598 164.406384,51.2158155 C164.102881,52.4563811 164.231718,53.5062382 164.800587,54.411144 C164.896093,54.3746661 164.991919,54.3365884 165.088066,54.2965908 L164.834559,49.9714101 Z M260.14722,51.3274888 C260.72346,51.3274888 261.311879,51.424443 261.879787,51.7425039 C262.658577,52.1779978 262.966888,52.9725102 263.238983,53.6735882 C263.517168,54.3909852 263.717154,54.8383184 264.142764,55.0034285 C264.966423,55.3224493 265.690409,55.3800459 266.35863,55.2171757 C266.447726,55.1554194 266.536501,55.0959029 266.624636,55.0389463 C267.118831,54.7202454 267.631615,54.4396223 268.156897,54.1871574 C269.111315,53.3241691 270.035607,52.0055281 271.106363,50.3864252 C271.976813,49.0690641 272.861365,47.7315443 273.878919,46.6871269 C273.20525,46.6602485 272.518761,46.451621 271.832272,46.0609244 C270.23367,45.150579 269.817034,43.46492 269.449752,41.9779691 C269.064844,40.4203025 268.731856,39.0751031 267.311766,38.4114629 C265.911226,37.7574221 264.89271,38.4111429 263.814262,39.1026215 C262.564032,39.9041734 261.008696,40.9012337 259.258822,38.8725553 C259.088001,38.6744871 259.054991,38.392264 259.175495,38.1602779 C260.817043,34.9995074 258.47843,32.5487743 256.415118,30.3866638 C254.913944,28.8142781 253.617884,27.4559595 253.958565,25.9552494 C254.209187,24.8497157 255.317441,23.9576092 257.446453,23.1477377 C261.841969,21.474878 268.06043,22.2178734 272.231282,24.9133919 C275.206387,26.8355167 276.872934,29.4747185 277.051126,32.5458944 C277.133171,33.9656493 276.858512,35.4385211 276.567187,36.9981076 C276.201187,38.9583101 275.822689,40.9853886 276.203751,42.9033537 C276.286117,43.3180488 276.384507,43.7020258 276.498922,44.0597644 C279.384611,40.812599 280.768165,32.8476363 280.138403,30.0055667 C278.467049,22.4620188 271.68677,21.7772598 265.129552,21.1148995 C264.722209,21.073942 264.320315,21.0288247 263.922908,20.9843474 C260.735959,20.6275687 257.983274,20.3194272 255.17931,22.2844294 C253.662112,23.3474057 252.146837,25.2724104 252.345861,26.5280151 C252.444251,27.1519777 253.009274,27.6265093 254.024585,27.9388106 C254.347959,28.0383246 254.53801,28.3717446 254.458849,28.7000449 C254.280016,29.4424004 253.919144,30.1921155 253.570131,30.917192 C253.19003,31.7069047 252.79711,32.5234958 252.671158,33.2748107 C252.58783,33.7720609 252.725961,34.2225939 252.885565,34.7441627 C253.082987,35.388924 253.307009,36.1197602 253.132022,37.0374652 C252.807686,38.7368834 252.147798,39.7678616 251.665782,40.5204565 C250.939232,41.6560684 250.638292,42.1261203 252.049728,44.0888826 C252.187859,44.2811911 252.607701,44.5410155 253.014082,44.7918805 C253.807934,45.283371 254.796324,45.8945344 255.44115,46.9168731 C255.671261,47.2816513 255.712604,47.8134594 255.765165,48.487019 C255.845608,49.5154374 255.945921,50.7953607 256.720544,51.3364482 C257.210894,51.6791477 257.923983,51.5773938 258.748282,51.4590009 C259.193763,51.3950047 259.666165,51.3274888 260.14722,51.3274888 Z M113.511987,53.1817776 L114.909642,56.8170798 C115.188147,56.6193316 115.473383,56.428943 115.766311,56.245914 C120.754091,53.1273809 126.131587,53.693107 131.331532,54.2402742 C133.265046,54.443782 135.252723,54.6527295 137.191044,54.6623289 C134.035182,53.3174495 129.632296,52.7824416 124.010907,53.0669045 C123.384991,53.0985826 122.679593,53.1504195 121.932532,53.2051362 C119.167667,53.4083241 115.999948,53.6406301 113.511987,53.1817776 Z M157.982169,59.5957932 C160.557624,60.2808722 163.115773,61.0811442 165.548609,62.1607595 L165.166906,55.6411502 C165.030378,55.6920272 164.893849,55.7397043 164.757,55.7838617 C164.503813,55.8660968 164.224346,55.7829017 164.057692,55.5739543 C163.023472,54.277072 162.721891,52.708526 163.160962,50.9121537 C163.430493,49.8110997 163.967955,48.6742078 164.692261,47.5392358 L164.539067,44.9253125 C161.702734,44.2021558 147.208269,40.5054174 143.624874,39.5851525 L143.245414,53.2057762 C143.379379,53.5039983 143.431939,53.9161336 143.233876,54.3327487 C143.067542,54.6828077 142.759872,54.9720703 142.29997,55.2043764 C142.92204,55.4965189 143.729353,55.8193796 144.777675,56.1655988 C145.80196,56.5041385 146.851243,56.8122801 147.911423,57.1005828 C148.044747,57.1239414 148.179352,57.14762 148.313958,57.1712985 C148.856867,57.2672928 149.410674,57.3648869 149.976658,57.4612012 C152.751137,57.9347728 155.406714,58.7024068 157.982169,59.5957932 Z M185.198151,59.365407 C188.104992,59.365407 190.501613,60.1308012 192.826766,60.8731567 C194.458699,61.3944054 196.146398,61.9332531 197.97383,62.1825182 C198.614168,62.269233 199.143296,62.0910037 199.70191,61.901895 C200.326224,61.6903877 201.000854,61.4619214 201.79631,61.618712 C202.569972,60.4853399 204.02211,59.8936954 205.630968,60.0716047 C205.671991,60.0764044 205.713014,60.0812041 205.754677,60.0869638 C206.5027,57.7591033 208.27661,55.277652 209.266923,54.0070082 C209.452487,53.7683025 209.647665,53.5222372 209.848612,53.2684924 C211.063268,51.7361043 212.435605,50.0043681 213.193883,48.2076758 C212.154215,46.3802653 211.35267,44.700046 211.944935,43.5263563 C212.246836,42.9276722 212.8516,42.5740934 213.7416,42.4752193 C214.005683,42.446741 214.262396,42.5833728 214.383541,42.8207986 C215.297257,44.6117313 215.202071,46.3991442 214.607243,48.0940826 C214.679353,48.2185551 214.750501,48.3407878 214.819727,48.4595007 C215.553008,49.7186252 216.245906,50.9079939 216.428265,51.8065001 C216.626007,52.7795617 216.710937,53.8118199 216.708052,54.8632769 C217.841624,52.2893511 219.152106,49.9019742 220.395606,47.8633764 C220.564825,47.5853131 220.733723,47.3075697 220.90198,47.0298264 C220.722185,46.6157712 220.516751,46.2129153 220.284396,45.8225387 C217.298715,40.8017196 209.247694,39.3381273 203.93686,38.5192964 C200.30443,41.5287161 198.31451,39.9681696 196.028778,38.1769169 C195.946733,38.1126008 195.863405,38.0473247 195.779437,37.9817286 C194.895847,37.7279839 194.03373,37.2966497 193.214238,36.573493 C192.97355,36.3613458 192.759463,36.1475986 192.568772,35.9328914 C188.772251,34.2808305 182.982606,35.0593438 179.342164,36.6800467 C176.187904,38.0841225 169.250585,43.1199807 165.997936,47.9081737 L166.337655,53.7055862 C166.968058,53.3772859 167.612883,53.0051482 168.275656,52.6224512 C171.576058,50.7176053 175.316173,48.5583747 179.290565,51.0244669 C180.830838,51.9805696 182.774287,54.7784819 183.753063,57.5952731 C184.133484,58.1664389 184.461345,58.7628831 184.730877,59.3721266 C184.887917,59.3676469 185.043995,59.365407 185.198151,59.365407 Z M168.993873,58.7462441 C170.466203,59.6604294 172.207743,59.7839419 174.035175,59.9141741 C176.791707,60.1100024 179.637976,60.3119103 181.681738,63.2435746 C182.008317,63.1303014 182.274644,62.9671112 182.484565,62.7488842 C182.665,62.2241157 182.864986,61.7006271 183.082919,61.1832181 C183.149901,60.284072 182.940621,59.2111763 182.565008,58.1187617 C181.918259,57.1904974 181.112869,56.3377485 180.183769,55.6270711 C177.751573,53.7654227 173.186198,53.5075181 171.495615,54.3253891 C171.3546,54.393865 171.025778,54.5736942 171.022893,54.7695225 C171.021932,54.8514376 171.08603,55.6078722 173.666612,56.9501918 C173.935824,57.0900234 174.069788,57.3994449 173.987102,57.6912674 C173.905057,57.9830899 173.63232,58.1776382 173.325932,58.1561995 C171.60298,58.0371666 170.174557,58.2304351 168.993873,58.7462441 Z M88.5926341,54.7756021 C94.7473174,55.2923711 101.416066,57.7386245 104.524175,63.2774926 C107.977451,62.1230018 110.365099,60.6773284 111.892232,59.516438 C112.498919,58.8422384 113.149833,58.2118762 113.849462,57.6317509 L111.981008,52.7706023 C110.993258,52.4013444 110.201649,51.8506574 109.712261,51.0468656 C109.041797,49.9454916 109.028016,48.536936 109.67893,46.7815212 L108.685733,44.1976761 L82.6587682,38.3276279 L88.5926341,54.7756021 Z M89.0672793,56.1048025 C91.1552694,61.0635453 96.8429993,62.9776705 102.291964,63.9289735 C102.61662,63.8489783 102.942879,63.7625835 103.270419,63.6685091 C100.444341,58.8940753 94.6059815,56.679168 89.0672793,56.1048025 Z M206.709737,61.6734287 C206.654292,62.1789984 206.703647,62.6157722 206.881198,62.9549519 C207.191432,63.5462765 207.934648,63.8736168 209.095141,63.9315334 C208.484608,62.7770426 207.596531,62.0574057 206.709737,61.6734287 Z M283.004862,51.6029923 C287.914764,56.346708 291.733718,60.666769 294.626778,64.7516442 C293.50859,60.4235836 291.519311,56.6545295 288.469852,54.2217153 C286.74081,52.841638 284.887739,52.0029683 283.004862,51.6029923 Z M202.489849,63.337329 C202.373512,64.2527941 202.703616,65.3983255 203.462535,66.6782487 C203.832701,66.5806546 204.058005,66.4110648 204.133,66.1717191 C204.327537,65.5522362 203.734952,64.4124645 202.783418,63.5773146 C202.681823,63.48772 202.583753,63.4080447 202.489849,63.337329 Z M183.616855,63.3968454 C183.166567,64.7494043 182.855051,66.0987635 182.709869,67.3454088 C183.737679,66.239555 184.287639,64.8809165 184.315202,63.3517281 C184.322573,62.9437526 184.292447,62.5293774 184.228028,62.1124424 C184.101435,62.6084127 183.896322,63.0375069 183.616855,63.3968454 Z M215.673191,61.7047868 C215.108809,63.9811304 214.809472,66.2891521 214.922604,68.5296578 C215.454297,67.9712912 215.972849,67.3726071 216.476338,66.7352053 C220.416758,61.7425446 223.025224,54.3881053 221.449697,48.5961325 C219.41651,51.9376922 217.206734,56.2212755 215.944005,60.6862879 C215.858114,61.034107 215.767736,61.3739267 215.673191,61.7047868 Z M212.612194,68.4061452 C212.942619,68.4570221 213.286505,68.543097 213.646415,68.6678895 C213.611802,68.0308077 213.608917,67.3895661 213.634236,66.7454447 C213.314067,67.3290897 212.973707,67.8826566 212.612194,68.4061452 Z M123.203273,67.690988 C122.185078,67.690988 122.028038,67.9364133 122.026756,67.9396131 C121.959453,68.0986436 121.967465,68.7376453 124.154807,70.8575183 C124.313129,70.4914602 124.475617,70.127642 124.642272,69.7660637 C124.338448,69.0454669 123.974371,68.3546283 123.542351,67.6989876 C123.419924,67.6935479 123.307112,67.690988 123.203273,67.690988 Z M125.15185,71.7877025 C125.22396,71.8529786 125.298314,71.9195346 125.37395,71.9870506 C125.337093,71.8369796 125.297994,71.6885085 125.256971,71.5403573 C125.221397,71.6225924 125.186463,71.7048275 125.15185,71.7877025 Z M207.029265,73.3783272 C207.028624,73.3789671 207.027983,73.3799271 207.027342,73.380887 C206.964846,73.4608822 206.90203,73.5415174 206.838894,73.6218326 C209.102833,73.0263483 211.34594,71.7861026 213.436494,69.9567723 C212.785259,69.7062273 212.201968,69.6137528 211.666109,69.6511906 C210.352101,71.2219764 208.808623,72.463182 207.029265,73.3783272 Z M258.828405,70.4825007 C259.280936,71.2981319 259.61713,72.5044596 259.855254,73.8560586 C260.266762,72.5873346 260.410983,71.112863 260.551998,69.6665496 C260.695578,68.1965577 260.844285,66.6769688 261.275664,65.3855262 C262.22239,62.552096 263.799199,59.7458642 265.706113,57.4250433 C262.716906,60.3224697 259.699816,65.740065 258.828405,70.4825007 Z M184.993358,73.1655399 C187.348636,73.1655399 190.404184,73.3789671 194.247176,73.799102 C194.623751,73.8403795 194.922448,73.8730175 195.123395,73.8922164 C196.739624,74.0458072 198.252335,74.0800451 199.663772,73.9923704 C199.689411,73.8880566 199.741651,73.7898225 199.817607,73.7085474 C199.985864,73.5293581 200.240973,73.4615222 200.475572,73.5338379 C200.817534,73.6394315 201.162061,73.7277462 201.509151,73.7994219 C203.22345,73.5424773 204.773018,73.0785052 206.165545,72.4030256 C207.565764,70.6127329 209.012455,68.8355594 211.018079,68.4327036 C212.159663,66.9607918 213.104146,65.1932177 213.866911,63.120382 C214.071704,62.5636154 214.270087,61.9562918 214.453087,61.3131303 C214.529364,61.0085086 214.610768,60.7035668 214.696018,60.400545 C215.352381,57.7520637 215.700433,54.6626489 215.171945,52.0608848 C215.050159,51.4615607 214.530325,50.5172973 213.971712,49.5509553 C213.116645,51.207816 211.900387,52.742444 210.853988,54.0626848 C210.655605,54.3135498 210.46235,54.5570552 210.278389,54.7928811 C208.863107,56.6097322 207.580827,58.7068865 207.00651,60.4123843 C208.449675,60.9704308 209.920722,62.1988372 210.67163,64.3539081 C210.737971,64.5436567 210.710729,64.7538841 210.598878,64.9205941 C210.486707,65.0876241 210.302746,65.1922578 210.101479,65.2034571 C207.852282,65.3263298 206.386042,64.7702031 205.745383,63.5485163 C205.410471,62.9101546 205.34381,62.15212 205.457904,61.3403287 C204.448362,61.2369749 203.544901,61.5387168 203.011286,62.1399607 C203.21031,62.2708329 203.416385,62.4282635 203.630472,62.6160922 C204.786158,63.6310714 205.768458,65.2428148 205.355988,66.5547361 C205.174591,67.1329415 204.656359,67.8567381 203.218322,68.0205683 C202.973789,68.0471267 202.738229,67.9354534 202.606187,67.7300257 C201.193789,65.5330374 201.051492,63.9248138 201.278078,62.852558 C200.887081,62.8455185 200.541593,62.9690311 200.113739,63.1139824 C199.470516,63.3318893 198.740441,63.5789145 197.800445,63.4506022 C195.862444,63.186298 194.120582,62.6301714 192.436089,62.0922836 C190.111577,61.3502481 187.903083,60.6450103 185.211291,60.6450103 L185.202317,60.6450103 C185.475054,61.5563157 185.612864,62.4781805 185.59684,63.3747667 C185.553253,65.805661 184.429616,67.8724172 182.346754,69.3510486 C182.150935,69.4902402 181.893582,69.5081591 181.680456,69.3977658 C181.467331,69.2876924 181.333686,69.0675455 181.334327,68.8275599 C181.338814,67.5121188 181.557068,66.0264478 181.954795,64.5001393 C181.816985,64.5420568 181.673726,64.5778946 181.525019,64.6073329 C181.263499,64.6591698 180.996211,64.5439767 180.855195,64.3171103 C179.142178,61.5601555 176.617361,61.3806463 173.944156,61.1905776 C171.671564,61.0293073 169.321414,60.8622773 167.380528,59.1334209 C167.23086,59.0003089 167.15234,58.8048006 167.168364,58.6051326 C167.184068,58.4057845 167.292714,58.2249954 167.461292,58.1171618 C168.509934,57.4458421 169.730679,57.0426662 171.155896,56.9005948 C170.196671,56.163039 169.730999,55.4520416 169.741255,54.7506436 C169.746703,54.3753061 169.909192,53.6707083 170.936682,53.1734581 C173.122421,52.1165615 177.975596,52.5130177 180.734371,54.443142 C180.020961,53.3683265 179.256593,52.5107779 178.614011,52.1117618 C175.292456,50.0504453 172.195885,51.8378582 168.917597,53.7305448 C168.063812,54.2233152 167.238231,54.6997667 166.419059,55.0987827 L166.883769,63.0301474 C168.174381,63.5363571 169.485825,64.0355271 170.809768,64.5007792 C177.750933,66.940633 182.379444,69.8428591 184.651395,73.1671398 C184.763567,73.1661799 184.877661,73.1655399 184.993358,73.1655399 Z M126.993704,73.6083934 C127.186639,73.8458192 127.362267,74.081645 127.521871,74.316511 C134.057617,70.9807109 140.849754,66.7467246 142.33266,62.502499 C142.772371,61.2440144 142.703146,60.0808842 142.121136,58.9468721 C141.86154,58.4413024 141.551306,57.9677308 141.190755,57.5261573 C137.288793,57.4202436 134.006018,58.5104183 130.497297,62.686488 C128.717939,64.804441 127.263557,67.2321355 126.039607,69.8051013 C126.497266,71.0149488 126.805577,72.2897524 126.993704,73.6083934 Z M124.638105,73.0468271 C124.213457,74.1251624 123.819575,75.216617 123.451653,76.3093515 C124.238455,75.9378538 125.048012,75.5493971 125.870068,75.1443013 C125.843787,74.8073615 125.810136,74.4736215 125.768793,74.1427614 C125.626175,73.9789312 125.473301,73.8138211 125.310493,73.6467911 C125.248318,73.5831149 125.051217,73.4100053 124.842257,73.2266563 C124.773352,73.1661799 124.705408,73.1063435 124.638105,73.0468271 Z M201.363008,75.1007839 C201.5803,75.6159531 201.807527,76.1285623 202.044369,76.6379718 C202.23538,76.5160591 202.417739,76.3906266 202.591124,76.2623143 C202.980198,75.9740116 203.346518,75.6533908 203.696493,75.3106914 C202.938214,75.3058917 202.184102,75.233256 201.43672,75.0905446 C201.412684,75.0940644 201.387365,75.0972642 201.363008,75.1007839 Z M146.597415,71.5579563 C145.373145,72.8286001 144.810045,75.0207887 144.622238,77.6068737 C145.427949,76.5154192 146.421467,75.2726137 147.456328,74.1613203 C147.46434,73.1194627 147.231023,72.1953581 146.597415,71.5579563 Z M183.95433,74.4560226 C180.306197,74.5763354 179.9027,75.3014119 179.865844,75.3948463 C179.840525,75.4588425 179.678998,76.067766 181.79455,77.6478313 C182.634874,78.2753137 183.714283,78.7424857 184.944323,79.0653463 C184.984063,78.8093617 185.005216,78.5463374 185.006498,78.2753137 C185.012908,76.951233 184.66133,75.6773894 183.95433,74.4560226 Z M186.202565,79.3370101 C190.857677,80.1475215 197.038961,79.2259767 200.925219,77.2712139 C200.6121,76.6002141 200.314045,75.9240946 200.033617,75.2415755 C198.466743,75.3618883 196.791223,75.3362898 195.001929,75.16606 C194.796495,75.1465412 194.49203,75.1132632 194.107763,75.0713457 C192.401796,74.8847969 188.852374,74.4966602 185.711575,74.4448233 C185.604852,74.4432234 185.49909,74.4419434 185.396213,74.4409835 C185.996811,75.6684299 186.294866,76.9486732 186.288456,78.2813933 C186.286533,78.6458515 186.257689,78.9975104 186.202565,79.3370101 Z M144.546602,79.8928167 C144.547243,80.8415599 144.582497,81.8191013 144.640826,82.8040023 C144.962598,82.3000325 145.300073,81.6603908 145.626973,80.8572389 L145.640113,80.8252409 C146.093285,79.7113876 146.761186,78.069566 147.148337,76.4287044 C146.118283,77.6539109 145.169313,78.9242348 144.546602,79.8928167 Z M275.82974,71.1247023 C273.491768,72.5911744 274.218959,76.7371659 274.986211,81.1154635 C275.104792,81.7919029 275.224014,82.4728221 275.33266,83.1489416 C275.45028,82.6600109 275.584565,82.1381222 275.725901,81.5877552 C276.65436,77.9722918 277.91132,73.0775452 275.82974,71.1247023 Z M112.735761,60.4978192 C107.777145,66.1144425 105.973429,75.0089495 105.18182,83.6903491 C106.082716,83.3857274 106.993548,83.0996645 107.916237,82.8094419 C110.415095,82.024209 112.998562,81.2120977 115.585555,79.9372941 C116.417546,79.5277186 117.579321,79.0010302 118.924736,78.3914667 C119.819864,77.985731 120.807613,77.5380779 121.857217,77.0533069 C122.386986,75.4060457 122.968995,73.7517448 123.624717,72.1265622 C121.538009,70.1717994 120.352518,68.6083731 120.845751,67.441723 C121.301167,66.3646675 122.833428,66.3553881 123.946489,66.4421029 C124.138141,66.456822 124.313129,66.556976 124.423057,66.7150465 C124.773031,67.2177364 125.085188,67.7396251 125.361771,68.2768729 C126.525469,65.9771708 127.887229,63.8019411 129.515317,61.8641373 C132.92725,57.8029407 136.290148,56.4481419 139.931231,56.2769521 C139.754641,56.1332807 139.570359,55.9944091 139.379027,55.8603371 C139.124879,55.8820958 138.85759,55.8993748 138.577162,55.9131339 C136.129903,56.0318468 133.622392,55.7685026 131.197247,55.5131579 C125.983841,54.9650308 121.059518,54.4469818 116.44671,57.330649 C115.973027,57.6269512 115.518572,57.9450122 115.083347,58.2838719 C114.889772,58.531217 114.161619,59.4038047 112.735761,60.4978192 Z M215.282194,70.9727114 C216.56255,75.8655381 221.260928,81.6799096 226.218903,84.2391163 C226.130128,84.0663266 226.036545,83.8855374 225.938475,83.6964288 L225.665738,83.1681404 C223.821641,79.5859551 219.421638,73.9715716 215.528009,71.1471009 C215.445002,71.0869445 215.363278,71.029028 215.282194,70.9727114 Z M143.339318,82.3947468 C142.90217,83.6356324 142.92845,84.2583151 143.007611,84.4509436 C143.099912,84.4323847 143.255029,84.3549493 143.453732,84.1991186 C143.408223,83.5978747 143.369123,82.9950308 143.339318,82.3947468 Z M86.0495487,55.9486518 C78.2956221,55.9486518 69.2020487,59.031667 66.3025788,65.9368532 C63.7610959,71.9889705 65.5609658,77.7537449 71.6518716,83.0708663 C72.3181696,83.6525914 73.2216299,84.2733542 74.2452739,84.9232352 C76.191287,82.7809636 77.8831519,80.1097637 79.5423268,77.4897608 C81.1954125,74.8796772 82.7568381,72.4145449 84.5483752,70.4457029 C88.4987307,66.1045231 92.7872027,65.4812005 97.3272591,64.8214 C97.9025381,64.7375651 98.4835858,64.6534101 99.0700819,64.5602957 C94.0806989,63.3094906 89.3977041,60.9608314 87.6497536,55.9924892 C87.1350472,55.9643309 86.6254687,55.9499317 86.1235819,55.9486518 C86.0992246,55.9486518 86.0742264,55.9486518 86.0495487,55.9486518 Z M255.281866,68.5232582 C254.635759,68.5232582 253.85088,69.3312097 252.948381,70.2601141 C252.65289,70.5640959 252.342015,70.8840767 252.009987,71.2046975 C251.438234,71.7566644 250.901093,72.2180767 250.427089,72.6254123 C248.412171,74.3571485 247.578257,75.0739056 248.523381,78.5690561 C248.848037,79.7686642 249.322361,80.8300406 249.780982,81.856539 C250.286074,82.9867113 250.776423,84.0836056 251.061018,85.3052924 C252.772753,84.3850275 255.498197,83.7809037 257.355434,84.2387963 C257.638747,84.3085521 257.929752,84.3888673 258.227166,84.4781419 C258.609831,83.6173935 258.835776,82.7291268 258.929359,81.9611728 C259.070054,80.8044421 259.083835,79.1187831 258.971343,77.3896068 C258.855967,77.436004 258.728092,77.4481633 258.604062,77.4225648 C258.412089,77.3832072 258.248959,77.2587346 258.160825,77.0843451 C257.318899,75.4226847 257.099684,73.2253763 257.482669,70.7167267 C256.657408,69.3376094 255.949446,68.6022934 255.375449,68.5293378 C255.344362,68.5251781 255.312954,68.5232582 255.281866,68.5232582 Z M228.013325,85.0134698 C228.90685,85.3219314 229.79685,85.5084802 230.664415,85.5497577 C231.082975,80.7967626 229.152345,76.5723758 227.11371,72.1092832 C225.115137,67.7351454 223.048619,63.2122165 223.137716,57.9283732 C223.340265,45.9143732 229.641092,32.9509902 238.460326,26.4035426 C242.015197,23.7643407 246.005934,21.8630147 249.865591,20.0244049 C252.85608,18.5995303 255.680876,17.2540109 258.284534,15.6041898 C259.890507,14.5863308 261.198746,13.4289602 262.463719,12.3096673 C263.611072,11.2946881 264.780218,10.2598701 266.166977,9.34344505 C264.280895,10.027884 262.459232,10.8927922 260.727947,11.9538486 C258.363374,13.4030417 255.812597,14.8202368 253.345788,16.1910346 C248.118923,19.0948606 242.714826,22.0978806 238.326682,25.7754202 C231.92458,31.1418186 227.829364,37.9734091 223.4941,45.2059357 C223.109192,45.8484572 222.723002,46.4925786 222.333928,47.1376599 C224.82958,53.7366244 221.768263,62.0977233 217.482996,67.5271579 C216.881117,68.2899921 216.257764,68.9997096 215.616144,69.6559903 C215.832795,69.7951819 216.054894,69.9468528 216.28148,70.111323 C220.327662,73.0468271 224.89464,78.870478 226.80572,82.5828955 L227.077495,83.108624 C227.462723,83.8522594 227.783213,84.4711023 228.013325,85.0134698 Z M251.309077,87.6849897 C251.598479,87.7931432 252.012872,87.9086563 252.603214,88.0094503 C253.921067,88.2356767 255.115212,87.9572934 256.155521,87.1842197 C256.734005,86.7541655 257.212496,86.2162778 257.600929,85.628473 C257.413443,85.5750362 257.229161,85.5257591 257.048726,85.4812818 C255.348849,85.0637068 252.612187,85.7651048 251.277348,86.6578513 C251.305551,86.9883915 251.317409,87.330131 251.309077,87.6849897 Z M204.12659,76.7707639 C204.282668,76.7707639 204.438426,76.8274005 204.561494,76.9406737 C205.451494,77.7607845 206.389247,78.6679302 207.382124,79.6281926 C210.718421,82.8548792 214.499879,86.51226 218.075902,88.4068665 C220.609052,89.748866 222.457637,89.7789442 224.896563,88.5201397 C226.416325,87.7352267 227.038716,87.2338168 227.115954,86.7311269 C227.1464,86.5333787 227.109223,86.2921132 227.017884,86.0025306 C221.155167,83.6740301 215.448528,76.902596 214.006965,71.1567003 C211.35235,73.4052056 208.462815,74.7798432 205.567511,75.1849389 C205.076842,75.750025 204.556687,76.2936725 203.983652,76.7870829 C204.030764,76.7762035 204.078837,76.7707639 204.12659,76.7707639 Z M211.729245,85.4240052 C214.229706,88.0462481 216.937202,90.9126363 219.181912,93.35281 C219.124224,92.5442185 219.371001,91.7913036 219.908782,91.1491021 C220.062938,90.9651131 220.24081,90.7904036 220.441436,90.6249735 C219.50144,90.4598634 218.53292,90.0976451 217.474984,89.5373587 C215.564225,88.5252594 213.62366,87.0568674 211.729245,85.4240052 Z M223.409491,90.4845019 C222.221436,90.8902376 221.382073,91.3855679 220.892365,91.9704929 C220.479254,92.4635833 220.361634,92.9960314 220.52252,93.6459125 C220.713852,94.4189861 221.289131,94.971593 221.840374,95.338291 C222.305724,95.2166983 222.776524,95.1127046 223.244439,95.0096707 C223.929966,94.8579998 224.63921,94.7015292 225.338518,94.4922617 L243.013202,89.249056 C234.050388,88.8929173 227.718474,89.2378567 224.071622,90.2781143 C223.848882,90.3574696 223.628065,90.4262654 223.409491,90.4845019 Z M75.3516041,85.612154 C75.7381147,85.8489398 76.1342399,86.0889254 76.5351724,86.3314708 C81.0800362,89.0836259 86.2296639,92.202159 86.4841327,96.0748869 C88.8166564,94.5169003 90.9431052,92.7422866 93.2355677,90.8294413 C94.2361364,89.9942913 95.271318,89.1306631 96.3664311,88.2491159 C98.7967042,86.2933931 101.283063,85.1049844 103.853069,84.1584811 C104.521611,76.3970263 105.958045,68.376067 109.682456,62.4577017 C108.414919,63.1415007 106.897401,63.8243398 105.100736,64.4345432 C105.137271,64.5180582 105.173166,64.6022132 105.2081,64.6870081 C105.295593,64.8985154 105.263544,65.1407409 105.12349,65.32185 C104.983757,65.5032792 104.758453,65.5954336 104.530264,65.5656754 C103.810444,65.4690412 103.076203,65.3605677 102.335871,65.2354552 C100.67894,65.6277517 99.0752097,65.8606977 97.5118612,66.0878841 C93.0189167,66.740965 89.138428,67.3050912 85.4973451,71.3064514 C83.7808025,73.1927383 82.248221,75.6121133 80.6259024,78.1741997 C78.9782651,80.7756438 77.2992198,83.426365 75.3516041,85.612154 Z M46.4517702,96.9161165 C47.6584138,97.7128687 49.0374807,98.3451508 50.4899398,98.6273739 C50.5732672,96.8607598 50.5328855,94.3988273 49.5118054,93.6980693 C49.0698502,93.3953675 48.3923351,93.4548839 47.495605,93.8753387 C46.6636139,94.2653953 46.3162031,95.2822944 46.4517702,96.9161165 Z M51.7674116,98.7793648 C52.700357,98.8200024 53.6499678,98.7003295 54.5931689,98.375869 C54.7348253,98.3272319 54.8713539,98.2705953 55.0027546,98.2072391 C54.9793589,98.0299697 54.9665393,97.8520604 54.9646164,97.6728711 C54.9434641,95.838741 55.6530281,94.7063289 56.2228588,93.7963035 C57.0042125,92.5483782 57.3964919,91.9224958 55.2770938,89.9046967 C54.6216924,89.2810541 53.845146,88.8957972 53.0230901,88.4884616 C52.1519992,88.0568074 51.2514233,87.6104342 50.4421869,86.8520796 C49.8630621,86.3087522 49.3973906,85.5407982 48.9474231,84.7981227 C48.4320758,83.9472937 47.898781,83.0673465 47.2792745,82.691689 C45.8915543,81.8504594 44.708627,81.6018343 43.7619006,81.9525333 C42.6783251,82.3537892 41.8033883,83.5562772 41.1614475,85.5263991 C40.1634428,88.5889355 41.4030967,92.3167121 44.3961496,95.2544561 C44.6400422,95.4938017 44.8993183,95.7299476 45.1723755,95.9596938 C45.2396784,94.4938616 45.730989,93.2884939 46.9507726,92.7166882 C48.2884964,92.0895257 49.3945062,92.0645672 50.238035,92.6430926 C51.8241383,93.7319873 51.880224,96.640613 51.7674116,98.7793648 Z M202.602662,77.8014221 C204.755711,82.1518813 207.532433,86.3087522 210.238328,90.3584295 C212.426631,93.6337532 214.671981,96.9945118 216.603252,100.474303 C216.616392,99.9594541 216.725038,99.4708434 216.941689,99.0148707 C217.672085,97.4760829 218.712074,96.5948557 219.886028,96.0275297 C214.257268,89.7792642 203.266396,78.4753017 203.145892,78.3511491 C203.025387,78.2276365 202.960328,78.0606066 202.964815,77.8881369 C202.969622,77.7156672 203.043976,77.552477 203.170569,77.435364 C203.188837,77.418405 203.206785,77.401766 203.225373,77.3848071 C203.026669,77.5271985 202.818992,77.6660702 202.602662,77.8014221 Z M279.707024,100.170961 C279.57402,100.170961 279.480117,100.20104 279.42339,100.250957 C279.071813,100.561338 279.116041,101.606395 279.398072,102.87096 C280.416267,102.488582 281.401773,102.03229 282.343372,101.519681 C282.13313,101.336652 281.913595,101.170262 281.684765,101.02147 C280.711438,100.389828 280.066293,100.170961 279.707024,100.170961 Z M91.0366882,98.5857764 L91.0184203,98.5857764 C90.5812724,98.5876963 90.0040706,98.658732 89.7351797,98.9879923 C89.4098828,99.3870084 89.4400088,99.6567522 89.5028248,99.8477808 C89.9473439,101.19938 93.6143865,102.706809 96.8330641,103.53492 C97.6599274,103.747707 98.5239675,103.86322 99.359484,103.974573 C99.4924872,103.992172 99.6261314,104.010091 99.7594551,104.02833 C99.6091455,103.176221 99.360766,102.402828 98.8880437,101.833262 C98.0365027,100.808363 93.6063743,98.5857764 91.0366882,98.5857764 Z M254.202457,91.7929035 C259.073259,99.7319477 265.283066,104.004012 272.180645,104.155683 C274.246521,104.20112 276.263042,103.878899 278.176365,103.288535 C277.80011,101.69823 277.705566,100.059288 278.573772,99.292614 C279.758623,98.2456368 281.734441,99.52684 282.383433,99.9482547 C282.781801,100.206799 283.15389,100.508221 283.50098,100.847401 C286.671264,98.8913581 289.272037,96.3151925 290.92961,93.8132624 C294.737027,88.0660869 296.719896,77.3006521 295.298204,68.0458468 C294.943743,67.4929199 294.582551,66.9460727 294.21559,66.406585 C291.125109,61.8583776 286.850418,57.0145079 281.147304,51.5978726 C281.05276,51.507958 280.958536,51.4193233 280.864953,51.3322885 C280.072382,51.2977306 279.281734,51.3329285 278.497816,51.4305226 C277.869016,51.8564171 277.254316,52.2010364 276.754673,52.424703 C275.538415,52.9696304 274.216074,53.3859254 272.937321,53.7891012 C272.188977,54.0246071 271.430699,54.2636328 270.684919,54.5304968 C270.105154,54.9339926 269.550386,55.3666067 269.026065,55.8225794 C266.198064,58.281952 263.755292,62.0084486 262.491922,65.7906219 C262.106373,66.9447928 261.971126,68.3274299 261.827867,69.7907022 C261.605127,72.0718455 261.376298,74.415705 260.16068,76.1695199 C260.375729,78.4551429 260.366114,80.7666844 260.201703,82.1157235 C260.099146,82.958233 259.855574,83.9284149 259.445027,84.8816377 C259.991141,85.077466 260.551998,85.2963329 261.120547,85.5324787 C263.540885,85.6179136 265.723419,87.0927052 267.608219,88.6020548 C267.712698,88.6548516 267.816537,88.7073285 267.919735,88.7591653 C269.895874,89.7571855 271.602802,90.6192139 272.413,90.8425605 C273.033147,91.0140702 273.497537,90.9785523 273.830525,90.7350469 C273.894944,90.6876898 273.954875,90.6326531 274.010961,90.5712167 C274.947432,88.3179118 274.326002,84.7731642 273.723482,81.3359303 C272.872582,76.4824611 271.992838,71.463242 275.631998,69.7785429 C275.840316,69.6825487 276.084209,69.7043074 276.271695,69.8364595 C279.484924,72.1032036 278.089192,77.5383979 276.967799,81.9054961 C276.623593,83.2455758 276.298616,84.5114199 276.198303,85.4000067 C276.164652,85.7014286 276.15055,86.0982048 276.134205,86.5580173 C276.080363,88.0686467 276.009855,90.0566876 275.116971,91.2409366 C275.030439,91.4310052 274.933971,91.6149942 274.826928,91.7919436 C274.332092,92.6104545 273.712265,93.0872259 272.984433,93.2088187 C271.456338,93.4664032 269.842032,92.118004 267.971654,90.5590575 C267.625205,90.2697948 267.271384,89.9750925 266.911154,89.6842299 C265.012253,88.7262073 262.878433,87.6606712 260.854861,86.8082423 C260.619301,86.8108021 260.382139,86.829681 260.143374,86.8674387 C258.131019,87.1835798 256.133728,88.8404405 254.202457,91.7929035 Z M122.908423,77.9770916 C122.355578,79.7299465 121.860101,81.473202 121.395391,83.1604609 C119.338809,90.6294533 119.399061,96.8645996 119.475658,104.758206 L119.478222,105.047469 C119.479183,105.131944 119.479183,105.215459 119.478542,105.298974 C120.847354,103.117665 121.86619,100.330312 122.523515,96.9564341 C122.827659,95.3974875 123.218657,93.7217479 123.632729,91.9474543 C124.759891,87.1186237 126.052426,81.5816755 125.939293,76.534618 C124.897702,77.0430675 123.879506,77.5252786 122.908423,77.9770916 Z M216.68722,104.668612 C216.116108,104.794364 215.0508,106.230758 214.19317,107.968894 C215.269695,106.86688 216.17636,105.738628 216.68722,104.668612 Z M84.2794844,98.9057572 C82.9494523,99.6247541 81.5239144,100.280715 79.9509511,100.86404 C79.6871882,100.961634 79.3045235,101.095706 78.8350062,101.260496 C77.0864146,101.873579 74.1600236,102.899438 71.6845615,104.044329 C67.628765,105.920697 67.5723588,106.851201 67.5794096,106.951035 C67.597357,107.2051 68.2194274,107.754507 70.4394592,108.2012 C72.3694479,108.590617 76.7668865,106.389149 80.4499535,103.19158 C82.1469462,101.718389 83.4647997,100.228238 84.2794844,98.9057572 Z M46.7097644,98.5780969 C47.0562137,100.19656 47.7164224,102.214039 48.689429,104.623815 L48.7820505,104.853241 C49.2432351,105.999092 49.8954315,107.324773 50.6896049,108.680531 C50.2678405,106.394908 50.2047041,103.763386 50.3732816,100.442305 C50.3806529,100.294154 50.3934725,100.113045 50.4085355,99.9063373 C49.1640742,99.6890703 47.913844,99.2414171 46.7097644,98.5780969 Z M101.234669,105.577357 C101.245566,105.70311 101.255821,105.827582 101.266077,105.951095 C101.359019,107.071348 101.443628,108.093047 101.749055,108.784845 C101.87052,107.789065 102.016984,106.814083 102.166973,105.857661 C101.874366,105.744067 101.56285,105.653513 101.234669,105.577357 Z M103.360797,110.139644 C103.420729,110.139644 103.481301,110.147963 103.541233,110.165562 C103.913321,110.274356 104.281244,110.37355 104.643717,110.462505 C104.768388,109.716309 104.71711,108.964994 104.440527,108.214319 C104.171636,107.484443 103.804996,106.953915 103.355349,106.559379 C103.170747,107.760267 102.998003,108.987713 102.880063,110.238518 C102.874615,110.295475 102.861795,110.351471 102.841925,110.403948 C102.96307,110.236918 103.157286,110.139644 103.360797,110.139644 Z M105.911254,110.736088 C109.649766,111.431407 112.84024,110.994313 115.417298,109.428007 C116.378446,108.844042 117.255306,108.106806 118.046915,107.217899 C118.151074,106.54146 118.203635,105.825343 118.196263,105.059948 L118.193699,104.770366 C118.119346,97.0933858 118.055248,90.4630632 120.159262,82.8212812 C120.530069,81.4744819 120.920425,80.0931247 121.343792,78.6980084 C120.679738,79.0016702 120.047412,79.288373 119.454506,79.5568369 C118.119346,80.1619206 116.966224,80.6844493 116.153142,81.0850653 C113.477694,82.4033863 110.846154,83.2305367 108.301145,84.0301688 C107.20475,84.3751081 106.125662,84.7139678 105.062918,85.0854655 C104.797232,88.4187058 104.66519,91.6914696 104.543084,94.7060089 C104.488921,96.0444887 104.437322,97.3224921 104.376429,98.5208203 C104.25945,100.831402 103.914924,103.018791 103.579371,105.134504 C104.444693,105.670792 105.169641,106.485463 105.643645,107.772746 C106.016375,108.784205 106.081113,109.773266 105.911254,110.736088 Z M103.780639,111.561959 C103.771024,111.69859 103.796343,111.800024 103.823584,111.87554 C103.86653,111.994573 103.938961,112.112006 104.03671,112.227519 C104.127409,112.049929 104.210095,111.87106 104.284128,111.692191 C104.117153,111.650913 103.949537,111.607396 103.780639,111.561959 Z M279.727535,104.107045 C279.996746,104.982193 280.344798,105.881979 280.728745,106.667532 C282.013588,109.294575 283.808009,111.162623 285.708192,113.140424 C286.179312,113.630955 286.65588,114.126925 287.128282,114.639854 C286.43955,110.016131 285.435776,105.217059 283.247473,102.471624 C282.129605,103.100066 280.951485,103.653633 279.727535,104.107045 Z M105.080545,113.016592 C105.714794,113.38009 106.508006,113.730149 107.288078,114.074448 C109.083781,114.867361 111.166323,115.786985 112.349891,117.259217 C112.686405,116.824043 113.024522,116.396869 113.360395,115.972894 C115.035274,113.858141 116.56433,111.927377 117.437023,109.568798 C117.004683,109.918537 116.553433,110.235958 116.083596,110.521381 C113.201112,112.272956 109.670277,112.759007 105.564484,111.973774 C105.430199,112.325113 105.267711,112.672932 105.080545,113.016592 Z M53.257368,112.452465 C55.9975545,115.906338 59.4306397,118.563139 62.5874628,117.504323 C65.087282,116.665653 67.4018583,113.643114 66.7570331,110.854161 C66.2775806,108.778446 64.5690503,107.799624 62.7605272,106.762886 C61.9525728,106.299874 61.1170562,105.821183 60.3693539,105.231458 C58.5358326,103.784825 56.2183719,101.740147 55.3318975,99.4634838 C55.2274179,99.5076411 55.1203743,99.5482787 55.0107669,99.5860364 C53.9502666,99.9504946 52.8272709,100.100246 51.6834433,100.047449 C51.6709442,100.223438 51.6600476,100.378309 51.6536378,100.507581 C51.3799396,105.894138 51.7106849,109.321133 53.257368,112.452465 Z M220.775066,97.0226701 C219.656878,97.4853624 218.747328,98.1998795 218.099939,99.5629978 C216.092712,103.789305 227.39478,113.117385 234.262232,118.066849 L221.263492,97.5794367 C221.108696,97.4015274 220.945246,97.2149786 220.775066,97.0226701 Z M227.338053,100.098326 L239.040733,119.528521 C244.041012,118.851762 261.242974,114.137804 265.358702,112.999952 L248.309293,89.5219996 C247.827277,89.4922414 247.351029,89.4637631 246.880871,89.4372047 L225.705158,95.7187482 C225.077319,95.906897 224.456531,96.0515283 223.851446,96.1862402 C225.085972,96.4883021 226.339407,96.472623 227.119159,96.2131186 C227.138067,96.206719 227.157617,96.2012793 227.177167,96.1967996 L241.95142,92.7787644 C242.212619,92.7182881 242.482471,92.8264416 242.629896,93.0485083 L255.782471,112.836122 C255.894963,113.005072 255.920602,113.217219 255.851056,113.407928 C255.78183,113.598637 255.626072,113.745508 255.431535,113.803104 L240.297052,118.300435 C240.013419,118.38395 239.707672,118.263957 239.559285,118.007332 L229.126065,99.9994517 L227.338053,100.098326 Z M213.137157,110.725529 C213.125619,110.770966 213.113761,110.815763 213.102864,110.860881 C212.133062,114.813604 211.833405,118.921518 211.744629,123.130545 C212.162868,121.421848 212.662832,119.688832 213.276249,117.987494 C213.688719,116.844202 214.357261,115.622195 215.064902,114.328513 C216.274109,112.118725 217.524019,109.834062 217.48524,107.924097 C217.469856,107.151023 217.418257,106.560338 217.349993,106.108846 C216.361603,107.689551 214.794729,109.274096 213.137157,110.725529 Z M112.019466,119.868981 C111.314069,120.891 110.650975,121.981494 110.082106,123.190062 C109.608743,124.195442 109.263255,125.198261 109.045963,126.179323 C110.925956,124.296555 111.907295,122.271077 112.016261,120.077288 C112.019466,120.006573 112.020748,119.937457 112.019466,119.868981 Z M129.157009,122.243558 C129.265655,122.243558 129.374301,122.271077 129.472051,122.326114 C130.050214,122.651854 130.460761,123.063349 130.895666,123.498843 L130.918421,123.521562 C131.80842,124.413028 132.223134,125.468005 132.154229,126.631775 C132.563494,126.612897 132.969234,126.589538 133.368884,126.567139 C133.864361,126.538981 134.345737,126.511783 134.804999,126.493544 C134.918772,126.489064 135.029982,126.484264 135.138949,126.479785 C135.115233,126.178363 135.13959,125.8955 135.220994,125.638555 C135.29022,125.419048 135.471938,125.253618 135.697242,125.205301 C136.10202,125.118266 136.485005,125.127226 136.823442,125.136505 C137.075027,125.143225 137.31283,125.149304 137.538775,125.116986 C138.257634,125.015552 138.934508,125.079869 139.56459,125.309295 C140.282167,124.529501 140.642397,123.206381 141.124414,120.917558 C142.783909,113.03739 144.552691,103.938416 144.532501,95.6813105 C144.528975,94.2948336 144.300466,92.2875939 144.035421,89.9635732 C143.878702,88.5886156 143.710765,87.113504 143.572634,85.6067143 C143.421683,85.6678306 143.272976,85.7078282 143.127474,85.7247872 C142.665648,85.7827037 142.250935,85.6028745 141.989415,85.2403362 C141.23979,84.1987987 142.019221,82.0091699 142.805382,80.355829 C142.886145,80.1859192 143.048954,79.905616 143.278104,79.5465975 C143.322332,75.5250785 144.005295,71.9486529 146.174049,70.2133969 C146.392943,70.0380474 146.700934,70.0252481 146.93425,70.1829987 C147.941869,70.8635979 148.45273,71.8478589 148.641819,72.9709916 C150.008387,71.7022676 151.348033,70.8411992 152.339308,71.0226284 C153.436665,71.2229364 154.163215,71.7083473 154.497806,72.4654219 C155.247431,74.1600403 153.686967,76.6539709 152.432891,78.6573708 C151.910172,79.4928407 151.416298,80.2819134 151.29964,80.6966086 C150.931397,82.00821 151.072092,83.0641467 151.729737,83.925535 C154.091104,87.0178297 162.386979,86.9752723 166.841144,86.9487139 C167.165159,86.947114 167.471868,86.9451941 167.757745,86.9448741 C172.74232,86.9365546 182.446426,85.2563353 184.583772,80.3110317 C183.215602,79.938894 181.999343,79.3990863 181.026978,78.6727299 C179.755916,77.7236667 178.12911,76.3023119 178.673302,74.9251145 C179.056928,73.9530127 180.462916,73.3898465 183.103751,73.2205766 C180.849426,70.4063453 176.597811,67.892256 170.384157,65.7083869 C168.196815,64.939473 166.055945,64.0838442 163.985261,63.2566938 C161.846954,62.402345 159.762169,61.5694349 157.65559,60.833799 C156.056026,60.4079046 154.445886,60.0261674 152.855296,59.64891 C151.131062,59.2399746 149.370292,58.8227196 147.630674,58.3507478 C145.912529,58.0490059 144.330592,57.7795821 142.845763,57.6336708 C142.994791,57.8698167 143.133563,58.1130021 143.26208,58.3632271 C144.00209,59.8050607 144.096635,61.3396887 143.542828,62.9239138 C141.930125,67.5402771 134.889287,71.9758512 128.161248,75.4233246 C129.198353,77.5847951 129.059901,79.7862631 128.877863,82.6868893 L128.857031,83.0180694 C128.465713,89.2932133 126.980244,95.5997154 125.543489,101.69855 C125.228768,103.03607 124.91597,104.36367 124.617274,105.680071 C124.416967,106.563538 124.158653,107.546519 123.885596,108.587097 C122.427688,114.138764 120.431038,121.742469 124.506705,125.140665 C124.765981,125.356972 125.045127,125.544161 125.340939,125.706391 C126.338944,124.303595 127.469631,123.108467 128.839084,122.328033 C128.937795,122.271717 129.047402,122.243558 129.157009,122.243558 Z M126.548865,126.210361 C127.852617,126.613537 129.353149,126.699611 130.86554,126.674973 C130.947906,125.822864 130.664272,125.079869 130.010473,124.425508 L129.987719,124.402149 C129.686779,124.101047 129.433272,123.846982 129.147395,123.638355 C128.167978,124.270957 127.321886,125.159224 126.548865,126.210361 Z M289.039682,119.135585 C289.279729,120.900279 289.522019,122.522262 289.822318,123.740109 C289.956283,124.281516 290.073902,124.956036 290.198573,125.669593 C290.473553,127.244859 290.807183,129.155144 291.467391,130.587378 C291.47316,130.575219 291.478609,130.56274 291.484057,130.550261 C292.770182,127.679393 291.877939,123.54492 289.039682,119.135585 Z M292.253873,131.839463 C292.621154,132.250959 293.055738,132.539901 293.576213,132.653175 C295.79945,133.138266 298.944736,130.412669 300.824407,128.784606 C301.07503,128.56702 301.305462,128.367671 301.511537,128.194882 C307.470401,123.188782 310.086879,117.013472 309.288219,109.839502 C307.651798,95.1418228 303.389607,81.7013484 296.891358,70.6392913 C296.975968,71.6680297 297.017311,72.6212526 297.032694,73.464722 C297.177556,81.4204052 295.201416,89.6845499 291.998763,94.5194601 C290.285746,97.1052251 287.613503,99.7661857 284.353483,101.814063 C286.988869,105.259936 287.961235,111.176062 288.676888,116.431107 C289.040964,116.88676 289.394144,117.360651 289.73194,117.859181 C293.114708,122.851522 294.179695,127.667553 292.654165,131.072789 C292.535904,131.337413 292.40226,131.593078 292.253873,131.839463 Z M104.401107,114.105486 C102.753469,116.454465 100.10334,118.604097 97.7634455,120.501903 C96.4292471,121.584398 95.1690818,122.606417 94.328117,123.487964 C91.4735156,126.481385 90.4354496,129.576239 91.6837568,131.372611 C92.949691,133.193942 96.2885522,133.297936 100.191155,131.635636 C103.235165,130.339713 105.680501,128.967955 107.540303,127.507563 C107.688369,125.931337 108.149233,124.286956 108.921613,122.645774 C109.684379,121.026351 110.592646,119.626435 111.544501,118.326673 C110.663795,116.964515 108.692784,116.094167 106.769525,115.245258 C105.900678,114.861601 105.08375,114.500663 104.401107,114.105486 Z M136.801649,127.640995 C137.756708,129.56152 140.191789,132.182803 141.556434,132.831084 C141.788789,132.941477 142.044219,133.030112 142.318238,133.099868 C142.312789,132.842923 142.298367,132.56902 142.274651,132.275917 C142.126264,130.444667 141.356128,128.101767 139.969048,126.994634 C139.888605,126.929998 139.806881,126.870481 139.724194,126.815764 C139.001811,127.264378 138.066942,127.505003 136.801649,127.640995 Z M143.601478,133.286417 C146.135269,133.430728 149.48022,132.56038 151.54193,131.746989 C154.277629,130.667694 156.939616,129.343293 159.513469,128.06177 C162.6626,126.494504 165.918455,124.874121 169.427496,123.630995 C173.385863,122.228839 177.371152,122.228199 181.22472,122.227559 C184.530891,122.227239 187.653422,122.2266 190.666666,121.38633 C195.243899,120.108966 201.968092,117.913578 207.495257,113.610476 C207.727291,113.429687 207.975991,113.237698 208.237831,113.03579 C209.33006,112.192641 210.689577,111.143424 212.014481,109.999492 C212.711226,107.755787 214.711722,103.513481 216.692989,103.384209 C214.560772,99.1345435 211.82411,95.038469 209.172059,91.0684669 C206.454627,87.0015107 203.666367,82.8280008 201.483512,78.4305044 C197.286059,80.5609367 190.841653,81.5362382 185.861244,80.6025342 C183.505645,86.7365666 172.057434,88.2177578 167.759988,88.2247974 C167.475714,88.2251174 167.170287,88.2270372 166.848195,88.2286371 C161.840544,88.2567955 153.459099,88.3012728 150.710259,84.7018085 C149.804555,83.5156396 149.587584,82.0517274 150.065434,80.3510293 C150.231448,79.7593847 150.723399,78.9738318 151.34579,77.9793314 C152.323283,76.4171851 153.80042,74.0570065 153.325134,72.9825109 C153.172261,72.6366116 152.762995,72.4011058 152.108876,72.2817529 C151.426233,72.1556805 150.104534,73.2285762 148.710724,74.6819291 C148.552082,77.068986 147.487095,79.6861091 146.827527,81.307132 L146.814707,81.3391301 C146.232378,82.7697643 145.51416,83.943454 144.779598,84.7168476 C144.928626,86.478342 145.127009,88.2193577 145.309367,89.8189418 C145.578258,92.1807203 145.810934,94.220598 145.814459,95.6781107 C145.83497,104.059688 144.052087,113.236738 142.37881,121.180582 C141.896153,123.473885 141.443621,124.962756 140.693675,125.935177 C140.719315,125.955016 140.744633,125.974535 140.769632,125.995014 C142.570783,127.432687 143.394121,130.22164 143.552443,132.172563 C143.584813,132.57094 143.600837,132.941157 143.601478,133.286417 Z M260.026716,132.629176 C263.790546,132.629176 267.337726,133.302416 270.767926,133.953257 C270.989064,133.995174 271.209882,134.037092 271.429737,134.078689 C271.4573,133.639995 271.13713,133.103708 270.834909,132.701172 C269.956126,131.531002 263.523258,130.89712 261.409308,130.688812 C261.015106,130.650095 260.687245,130.617777 260.449441,130.590578 C255.572871,130.035092 250.16589,129.828064 247.045923,132.505983 C246.995286,132.549181 246.945289,132.593338 246.896255,132.638136 C249.384536,133.131866 252.010628,132.982755 254.959454,132.815085 C256.569914,132.72389 258.235819,132.629176 260.026716,132.629176 Z M125.803085,127.304695 C124.976542,128.603817 124.217623,130.072849 123.440436,131.578359 C122.707155,132.998434 121.961696,134.441547 121.131308,135.778747 C124.648041,134.173723 129.140023,131.020952 130.504668,127.955856 C128.888439,127.960336 127.25266,127.820824 125.803085,127.304695 Z M108.780277,128.148165 C108.698552,129.947737 109.085063,131.618357 109.941732,133.021153 C111.377846,135.373012 114.030539,136.73645 117.411384,136.859642 C117.830585,136.877561 118.390801,136.776127 119.043638,136.581899 C120.265665,134.933038 121.295398,132.938917 122.301095,130.991834 C123.041746,129.55768 123.792974,128.102727 124.629132,126.773207 C124.297425,126.586018 123.981422,126.370351 123.684969,126.123006 C118.984668,122.203881 121.100541,114.146124 122.645621,108.262636 C122.915794,107.232618 123.171224,106.259876 123.367043,105.397528 C123.666381,104.077927 123.97982,102.746487 124.295822,101.405767 C125.720078,95.3587698 127.193049,89.1057046 127.577316,82.9387142 L127.598148,82.6068941 C127.760316,80.0272087 127.875692,78.1930786 127.222854,76.4818212 C127.343359,81.6895091 126.029351,87.3205316 124.881357,92.2376769 C124.469848,94.0004512 124.081415,95.6649915 123.782077,97.2008994 C122.901692,101.719669 121.382892,105.262176 119.250033,107.786505 C118.577646,111.448685 116.520423,114.04629 114.366091,116.766767 C113.92638,117.321613 113.482181,117.88254 113.044713,118.459145 C113.234122,118.963115 113.327385,119.520202 113.296618,120.140325 C113.149833,123.097907 111.660518,125.750868 108.780277,128.148165 Z M245.925171,133.73055 C245.285474,134.625856 244.834545,135.703232 244.566936,136.975796 C247.861569,135.06359 253.631345,135.435088 258.824238,135.769788 C261.265408,135.926898 263.571011,136.07505 265.143333,135.923699 C265.36415,135.90226 265.609966,135.881461 265.87469,135.859382 C266.988071,135.765628 268.927995,135.602438 270.196814,135.147425 C266.927819,134.528262 263.550499,133.909099 260.026716,133.909099 C258.272355,133.909099 256.625038,134.002534 255.031884,134.093088 C251.797503,134.276437 248.810219,134.446347 245.925171,133.73055 Z M314.559953,25.2180136 C314.889096,28.0383246 314.326316,31.1453384 312.482859,34.6760068 C307.998889,43.2639721 309.864779,51.7725821 317.474165,57.4368826 C318.870218,58.4761803 320.465295,59.4374027 322.007812,60.367587 C327.121865,63.4506022 332.410265,66.6385711 332.691014,73.5523967 C332.827543,76.9048358 332.000038,79.6416318 331.269963,82.0558871 C330.084792,85.9762921 329.061469,89.3623292 332.239444,94.3725889 C333.00926,95.5859562 333.849584,96.7858843 334.662346,97.9464547 C337.696742,102.278675 340.834656,106.758087 340.695564,112.603816 C340.610313,116.20776 338.895373,119.2143 337.236839,122.122286 C335.579587,125.028352 334.013995,127.773467 334.002458,131.024152 C333.996048,132.73253 335.089238,134.949037 336.502918,137.106988 C341.082395,129.000594 342.936748,118.159003 342.263719,104.02993 C341.924,96.8975576 341.501275,88.0209696 339.33861,80.9173953 C337.645464,75.3551687 334.419735,71.045027 331.005238,66.4817805 C329.970698,65.0994634 328.900903,63.670109 327.867004,62.1927576 C323.591351,56.0840037 322.027682,49.188417 320.515612,42.5196967 C319.128212,36.4010234 317.793373,30.517536 314.559953,25.2180136 Z M341.841955,145.129867 C341.797087,145.195463 341.767922,145.263299 341.751256,145.329855 C341.769204,145.259459 341.79965,145.191623 341.841955,145.129867 Z M234.337868,148.444868 C235.044227,148.511424 235.749624,148.675574 236.427781,148.833325 C237.826718,149.158425 239.272767,149.495365 240.617542,149.022114 C243.324397,148.069211 243.601941,146.401471 243.402597,144.132487 C242.878917,143.620197 242.483112,143.084229 242.236655,142.524263 C241.648236,141.189623 241.873861,139.809866 242.90712,138.422749 C242.964487,138.345633 243.023778,138.270758 243.085312,138.197802 C243.286259,136.288797 243.808337,134.667454 244.644494,133.349453 C242.860969,132.72645 241.108211,131.708271 239.350646,130.083409 C238.349757,129.158344 237.315537,127.906259 236.220744,126.580259 C232.949506,122.619536 229.263234,118.154844 224.870603,120.345112 C225.733682,120.959155 226.991604,121.152744 228.308816,121.355292 C230.28784,121.659593 232.531267,122.004853 233.236345,124.140085 C233.512286,124.975875 233.465174,125.657754 233.096611,126.166523 C232.40243,127.124546 230.847094,127.124866 229.200098,127.124866 L229.199457,127.124866 C228.106908,127.124866 226.896418,127.124866 226.146793,127.434927 C226.987117,128.507823 227.78097,128.245119 228.912939,127.871381 C230.407703,127.377651 232.45435,126.701211 233.901361,130.701612 C234.925646,133.533122 234.710917,136.479505 234.50324,139.328934 C234.423438,140.426469 234.340752,141.561441 234.329855,142.675614 C234.317036,143.987855 234.323766,145.356093 234.330496,146.678894 C234.333381,147.265739 234.336265,147.854824 234.337868,148.444868 Z M119.812493,137.688713 C119.336566,138.298916 118.82923,138.864962 118.281193,139.368292 C114.394936,142.938318 112.281947,147.07567 113.257518,149.205783 C113.974453,150.771449 116.354089,151.371733 120.139713,150.939119 C126.972552,150.159645 130.217189,146.928479 134.325226,142.837204 C135.255607,141.91022 136.218037,140.952197 137.275653,139.968256 C138.09835,139.202542 138.849578,138.619537 139.512671,138.105648 C141.041086,136.919159 141.995184,136.179043 142.251255,134.39835 C141.804813,134.302676 141.386254,134.167644 141.005512,133.986535 C139.485429,133.264978 136.462892,130.246919 135.461361,127.744669 C135.265863,127.755228 135.064275,127.764188 134.855636,127.772507 C134.403425,127.790426 133.929421,127.817304 133.441315,127.844823 C132.941351,127.873301 132.422158,127.902739 131.892389,127.923858 C131.835662,128.092168 131.769962,128.261438 131.695287,128.432628 C130.015601,132.272717 123.903223,136.351513 119.812493,137.688713 Z M231.323983,150.834805 C231.784526,151.051752 232.37615,151.154146 233.045653,151.184864 C233.051422,150.703293 233.054627,150.221722 233.055909,149.74047 C232.427108,149.860783 231.856957,150.183004 231.323983,150.834805 Z M240.128154,150.684094 C241.301467,150.684094 242.320303,150.852724 243.047174,151.381332 C244.261189,150.270999 245.398606,149.349774 246.369049,148.696053 C247.380194,148.015134 248.249682,147.601719 248.996744,147.384132 C247.323467,146.715372 245.868765,145.988375 244.721091,145.199623 C244.69417,147.263179 243.998067,149.189464 241.043793,150.229401 C239.346159,150.825845 237.641475,150.429709 236.136776,150.07965 C235.487784,149.928939 234.891353,149.790068 234.338188,149.723512 C234.336586,150.206043 234.333701,150.688894 234.327932,151.171425 C235.130438,151.128867 235.987428,151.033193 236.834161,150.938799 C237.987604,150.810166 239.115407,150.684094 240.128154,150.684094 Z M244.631675,143.553001 C249.514975,147.794987 265.93366,150.850804 280.805342,152.372633 C283.126328,152.610378 285.437058,152.887162 287.671833,153.155306 C301.419557,154.803847 314.403554,156.361194 326.394995,148.123287 C330.225167,145.492085 333.343851,142.251639 335.777329,138.332194 C334.085464,135.836664 332.712487,133.162264 332.720499,131.019673 C332.733319,127.432687 334.456592,124.411109 336.122817,121.489044 C337.775262,118.591617 339.336367,115.854501 339.414246,112.573738 C339.543083,107.147503 336.662201,103.03447 333.611781,98.6798508 C332.790686,97.507761 331.94203,96.2953537 331.15651,95.0573479 C327.664454,89.5530378 328.819819,85.7318268 330.042808,81.6863093 C330.777691,79.255095 331.537572,76.7413256 331.410337,73.6042336 C331.157151,67.3783668 326.391149,64.505259 321.34536,61.4632013 C319.776242,60.517338 318.153924,59.5394766 316.708195,58.4630611 C312.698869,55.4786 310.096494,51.6295507 309.182137,47.3315683 C308.282202,43.1007818 309.030545,38.5199364 311.346083,34.0846822 C313.699118,29.5777523 313.926345,25.8573353 312.504653,22.2713102 C311.5012,21.007706 310.356731,19.7850592 309.040801,18.6072098 C300.536928,10.9987058 286.522236,6.01788436 273.743993,7.56243179 C272.587987,7.8977717 271.391599,8.29390795 270.133677,8.75500032 C267.198313,9.83109582 265.31159,11.5004358 263.313978,13.2676899 C262.011188,14.4202608 260.663849,15.6121893 258.971343,16.6847651 C256.302626,18.3761837 253.310855,19.8010583 250.417795,21.1795357 C246.613583,22.991907 242.679893,24.8657147 239.225335,27.430681 C230.703835,33.7567019 224.615493,46.3066697 224.419674,57.9498119 C224.335385,62.9443925 226.340689,67.3335695 228.279972,71.5781151 C230.380461,76.1759195 232.55274,80.9298746 231.875546,86.2761142 C231.835805,86.5893754 231.573003,86.8274411 231.25668,86.8354406 C230.319889,86.8642389 229.366432,86.729527 228.405604,86.4684226 C228.413296,86.6232934 228.405925,86.7749643 228.38317,86.9247153 C228.302086,87.4533236 228.033195,87.8942572 227.593804,88.3047926 C233.073536,87.5825959 240.367239,87.781304 246.734407,88.1454421 L248.075336,87.747706 C248.334933,87.6702706 248.617284,87.7653049 248.776888,87.9854517 L248.992898,88.2827139 C249.325887,88.3041526 249.62266,88.3233515 249.880334,88.3390305 C249.666567,88.1505618 249.521065,87.9380946 249.439019,87.6993889 C249.340629,87.4117261 249.264353,86.8309609 249.863989,86.1772401 C249.880975,86.1590012 249.898281,86.1404423 249.916229,86.1222034 C249.695091,84.8054823 249.176218,83.6445919 248.610233,82.3781078 C248.131422,81.306812 247.636265,80.1987184 247.285649,78.9024761 C246.129964,74.6294522 247.506787,73.4464831 249.590932,71.6555504 C250.051475,71.2594142 250.573553,70.8108011 251.118385,70.2847526 C251.440477,69.9737312 251.742058,69.6636698 252.028255,69.3689675 C253.214388,68.1485606 254.234506,67.0948638 255.537938,67.2596539 C256.316727,67.358848 257.054815,67.8903361 257.841938,68.9421131 C258.165312,67.6465107 258.632586,66.2885121 259.241516,64.8940357 C260.692693,61.5723148 262.747993,58.5113782 264.806819,56.5143779 C264.445947,56.4526216 264.070975,56.3483079 263.679336,56.196637 C262.695433,55.8155398 262.333921,54.8840756 262.043557,54.1359605 C261.821458,53.5638347 261.629805,53.0697844 261.253229,52.858917 C260.590136,52.4880592 259.783784,52.6035723 258.93032,52.725805 C257.975261,52.8630767 256.892006,53.0182674 255.985662,52.3850254 C254.71492,51.4977186 254.583199,49.8152594 254.487052,48.5865331 C254.458528,48.2217549 254.419749,47.7225848 254.353087,47.5933126 C253.869148,46.8266385 253.056066,46.3239487 252.33881,45.8801353 C251.778914,45.533916 251.295616,45.2350539 251.008137,44.8353979 C249.182948,42.29667 249.658555,41.279771 250.585731,39.8315378 C251.058774,39.0923821 251.594633,38.2553122 251.872497,36.7981196 C251.988194,36.1914359 251.835962,35.6941857 251.659692,35.1182203 C251.478616,34.5275357 251.273823,33.8581358 251.406826,33.0639434 C251.562584,32.1331192 251.995886,31.2330131 252.414445,30.3626653 C252.652249,29.8692549 252.880758,29.3950433 253.04549,28.9432304 C251.630848,28.3384666 251.189854,27.4255613 251.079285,26.7276831 C250.752066,24.6577272 252.911525,22.3097079 254.443145,21.2364923 C257.643875,18.9934267 260.763842,19.3431657 264.065526,19.7124236 C264.458447,19.7565809 264.855854,19.8007383 265.258709,19.8416958 C271.942841,20.5168554 279.518896,21.2819295 281.390556,29.7294232 C282.072237,32.8085987 280.663044,41.0068273 277.595317,44.7314041 C277.870297,44.7115653 278.153931,44.7144451 278.448781,44.7426034 C280.538053,44.9416315 281.69438,45.6289503 281.885071,46.785041 C282.030574,47.6665882 281.526764,48.620451 280.750218,49.5000783 C280.973919,49.6987864 281.201146,49.9022942 281.43254,50.1138015 C284.306371,50.338748 286.975729,51.390845 289.270435,53.2217752 C293.79671,56.8330788 295.731506,62.6084127 296.524718,67.5850744 C303.944054,79.2368561 308.785691,93.7425467 310.562485,109.69807 C311.411142,117.323213 308.643714,123.876101 302.336798,129.174023 C302.13521,129.343293 301.909906,129.538481 301.664411,129.750949 C299.603983,131.536762 296.158078,134.525702 293.302515,133.90398 C292.574042,133.745269 291.976329,133.386891 291.480852,132.89188 C289.923913,134.656895 287.423453,135.805946 284.121448,136.252959 C279.954121,136.818365 275.956013,136.218721 272.078729,135.502284 C270.841639,136.72621 268.077416,136.958837 265.982375,137.134506 C265.723419,137.156585 265.482731,137.176743 265.266721,137.197862 C263.590561,137.358813 261.235603,137.207782 258.741873,137.047151 C253.420142,136.704132 246.865808,136.281117 244.321441,138.748489 C244.305416,138.962236 244.293238,139.180463 244.284905,139.40285 C244.247408,140.40759 244.379129,141.464487 244.506684,142.486505 C244.55027,142.837844 244.594818,143.194303 244.631675,143.553001 Z M234.306139,152.452948 C234.222491,156.143287 233.943345,159.822746 233.092124,163.339015 C235.452851,159.42981 238.934651,155.324456 242.080257,152.290078 C241.035781,151.75731 238.976955,151.987056 236.976459,152.210722 C236.079729,152.310876 235.172743,152.41199 234.306139,152.452948 Z M211.720913,129.788386 C211.816419,139.798026 212.498421,148.2484 213.949277,157.600479 L214.103433,158.59018 C214.562054,161.523124 215.062658,164.723572 215.292129,167.958579 C216.239176,167.77107 217.219874,167.59764 218.208264,167.43317 C218.500871,167.384213 218.758225,167.341656 218.97103,167.303898 C219.227742,167.259101 219.549834,167.195744 219.92064,167.122789 C223.70979,166.379793 227.904679,165.708793 229.72538,167.177185 C229.932737,167.344215 230.11798,167.510925 230.282712,167.676036 C230.558654,167.142308 230.82498,166.43035 231.147714,165.470088 C232.522294,161.379133 232.919701,156.936199 233.023539,152.460947 C231.80664,152.406871 230.739089,152.147686 229.990105,151.477326 C229.756788,151.268059 229.708715,150.92152 229.876652,150.657536 C230.813122,149.184984 231.913363,148.603579 233.055909,148.455108 C233.054627,147.864103 233.051422,147.273738 233.048538,146.685614 C233.041807,145.358013 233.035077,143.984975 233.047897,142.663135 C233.059114,141.508644 233.143403,140.353513 233.224486,139.23582 C233.431843,136.39535 233.627021,133.711991 232.695679,131.136466 C231.672676,128.308155 230.78556,128.600617 229.315795,129.086348 C228.002108,129.519922 226.201917,130.116367 224.700744,127.577959 C224.549473,127.322294 224.594341,126.996874 224.809069,126.791126 C225.796177,125.844943 227.52618,125.844943 229.199457,125.844943 L229.200418,125.844943 C230.335272,125.844943 231.74767,125.844623 232.057904,125.416488 C232.207573,125.210421 232.097645,124.779407 232.018804,124.540701 C231.59063,123.243819 230.257714,122.950076 228.113317,122.620176 C226.387801,122.354912 224.432173,122.05381 223.308216,120.607177 C223.198288,120.466065 223.153099,120.285276 223.182264,120.108966 C223.212069,119.932977 223.314305,119.776826 223.463974,119.679232 C229.12927,115.984414 233.610036,121.407449 237.209775,125.766227 C238.276365,127.05767 239.283984,128.277757 240.221417,129.144265 C241.959752,130.751209 243.682064,131.714031 245.457897,132.272397 C245.692175,132.010333 245.943118,131.764588 246.210407,131.535162 C249.704385,128.536301 255.442432,128.73245 260.594623,129.318974 C260.827619,129.345533 261.14907,129.376891 261.53494,129.414969 C267.002173,129.953816 270.850292,130.588018 271.860155,131.932898 C272.516838,132.807405 272.796305,133.605758 272.695992,134.314515 C276.452772,135.000554 280.087765,135.507404 283.949345,134.985195 C287.104886,134.5577 289.363377,133.506563 290.68732,131.854822 C289.684508,130.177163 289.271396,127.812825 288.935844,125.88942 C288.81534,125.198261 288.700925,124.545181 288.577536,124.04633 C288.189744,122.475545 287.916687,120.422868 287.600363,118.04573 C287.55229,117.687992 287.504216,117.324493 287.454541,116.958435 C286.598192,115.915618 285.68031,114.960475 284.782939,114.026451 C282.89846,112.064969 280.949562,110.03629 279.576905,107.229098 C279.563444,107.20222 278.99137,106.001012 278.51961,104.516621 C276.488346,105.142183 274.351642,105.487123 272.152442,105.434966 C266.952176,105.321053 259.389903,102.917037 252.897103,92.1125644 C252.772753,91.9055368 252.775637,91.6460323 252.904795,91.4418846 C253.41245,90.6384127 253.923631,89.9187758 254.44026,89.282014 C253.779731,89.3946473 253.09132,89.3917674 252.386563,89.2711347 C251.934993,89.1936993 251.537906,89.1031447 251.192418,88.997871 C251.186009,89.0381886 251.179919,89.0791462 251.173189,89.1197837 C251.120949,89.4407245 250.835072,89.6637511 250.510737,89.6563916 C250.363312,89.649672 250.181914,89.6397526 249.969109,89.6269533 L266.938075,112.994193 C267.061143,113.163463 267.093192,113.38265 267.024287,113.580398 C266.955381,113.778146 266.793855,113.929817 266.591946,113.986133 C265.665411,114.244678 243.847116,120.330073 238.77056,120.850042 C238.526026,120.874361 238.284377,120.755968 238.155861,120.54318 L225.691698,99.8481007 C225.57568,99.6557923 225.569271,99.4170866 225.674391,99.2190184 C225.779512,99.0206303 225.9811,98.891998 226.205122,98.8795188 L229.448157,98.6993696 C229.687883,98.6856104 229.917674,98.808803 230.038819,99.0180705 L240.415954,116.929637 L254.235468,112.823323 L241.80784,94.1258837 L227.495093,97.4370452 C226.125641,97.8811786 224.114568,97.7215082 222.468854,97.0869862 L237.051453,120.071529 C237.213621,120.327193 237.174521,120.661253 236.957229,120.872441 C236.740258,121.083628 236.405026,121.114346 236.1528,120.945716 C234.458372,119.811384 223.117204,112.080328 218.52587,105.412887 C218.700216,106.20388 218.751174,107.108466 218.767198,107.898498 C218.812708,110.148603 217.479471,112.585577 216.190141,114.941916 C215.506857,116.191121 214.861391,117.371211 214.482572,118.421388 C213.101262,122.250278 212.305165,126.270197 211.720913,129.788386 Z M210.607532,136.688773 C210.113657,139.852103 209.660485,143.061831 209.365955,146.257159 C209.156996,148.528703 208.679466,150.937199 208.21764,153.266339 C207.462567,157.076351 206.681533,161.015635 207.000741,164.59494 C207.190471,166.721213 208.18463,168.399512 209.33006,169.657037 C210.60016,169.084271 212.226645,168.621259 214.023951,168.223843 C213.804416,164.974757 213.299004,161.742311 212.836858,158.787608 L212.682382,157.796308 C211.565475,150.597699 210.9011,143.930899 210.607532,136.688773 Z M231.600565,170.327397 C232.385124,170.60642 233.082189,171.033594 233.670288,171.586521 C234.983013,167.915381 237.671601,163.773549 239.710877,160.632938 C240.73388,159.056392 241.61779,157.695194 241.928344,156.982596 C242.613231,155.409891 242.909684,154.184684 242.808409,153.372893 C237.900751,158.152446 232.13386,165.59136 231.600565,170.327397 Z M215.368726,169.246501 C215.421607,170.372834 215.43667,171.498526 215.400775,172.615899 C218.361138,171.284459 221.016715,170.251561 224.646581,169.754631 C225.255191,169.671116 225.798741,169.60776 226.286526,169.550483 C227.926792,169.358815 228.838906,169.252261 229.501358,168.710214 C229.335986,168.530704 229.142089,168.351835 228.91999,168.172646 C227.412407,166.957039 222.33553,167.953139 220.167738,168.379033 C219.787317,168.453589 219.456571,168.518225 219.193129,168.564622 C218.976798,168.60238 218.71624,168.646217 218.419467,168.695494 C217.676251,168.819327 216.578574,169.002356 215.368726,169.246501 Z M210.321655,170.622099 C210.574201,170.840646 210.825465,171.040954 211.068716,171.222383 C211.971536,171.895623 213.000628,172.485667 214.10183,172.979078 C214.152147,171.836106 214.144776,170.678416 214.095741,169.518485 C212.777888,169.817987 211.427665,170.184685 210.321655,170.622099 Z M209.066938,171.215983 C208.546783,171.520285 208.163157,171.850825 207.978555,172.209204 C207.676654,172.794129 207.231494,173.838866 207.640759,174.266041 C208.316992,174.971918 211.011349,174.493547 212.807052,173.787029 C211.912886,173.335536 211.069357,172.820367 210.301144,172.247922 C209.859509,171.918021 209.44768,171.573722 209.066938,171.215983 Z M216.050087,173.727833 C218.916546,174.659297 222.032347,174.963919 224.59338,174.44811 C226.594838,174.045574 229.734354,172.467428 230.176309,170.666896 C230.244894,170.387873 230.241048,170.10629 230.165413,169.823747 C229.317077,170.447389 228.201132,170.615379 226.435554,170.821767 C225.955461,170.877764 225.420243,170.94048 224.820607,171.022715 C221.392649,171.492127 218.935135,172.43287 216.050087,173.727833 Z M234.179225,174.834007 C234.107435,175.61668 234.17602,176.317758 234.425682,176.904282 C234.434976,176.927001 234.444911,176.94908 234.454846,176.971158 C234.471191,176.351036 234.408375,175.723873 234.258386,175.121669 C234.235952,175.031115 234.209672,174.934481 234.179225,174.834007 Z M235.623031,178.207884 C236.025887,178.433791 236.514954,178.602101 237.094079,178.715374 C239.887146,179.262221 242.507469,175.460849 243.897753,172.038974 C245.613014,167.818107 246.679604,166.383633 249.511771,162.855524 C252.002937,159.75235 253.569811,151.224862 251.510024,148.991715 C250.674187,148.08585 249.185833,148.342794 247.085664,149.757429 C246.155282,150.384272 245.047029,151.286618 243.858013,152.379352 C244.36695,153.511764 244.120814,155.158386 243.1039,157.492966 C242.751041,158.302837 241.884117,159.638117 240.78644,161.328896 C238.753253,164.460548 235.771418,169.054193 234.625347,172.741972 C235.014421,173.351535 235.311836,174.046854 235.502527,174.812568 C235.780391,175.928981 235.810197,177.101391 235.623031,178.207884 Z M224.129311,186.507227 C222.436164,186.874885 220.702956,187.146869 218.988657,187.415972 C215.353022,187.986498 211.919296,188.525666 208.985534,189.883345 C207.238865,190.691936 203.589129,193.995738 203.796486,195.623801 C203.863788,196.150809 204.440349,196.516867 205.510144,196.712055 C207.372509,197.055075 210.52164,194.425472 213.049663,192.314879 C214.555323,191.058314 215.854909,189.973259 216.898744,189.442411 C217.880724,188.942921 220.731479,187.672277 224.129311,186.507227 Z M215.259118,174.824407 C214.956576,177.878624 214.195093,180.809648 212.693919,183.407893 C211.606818,185.28938 208.799329,187.262702 205.826467,189.352496 C202.007833,192.036176 197.679941,195.078233 198.141125,197.431052 C198.774733,200.664458 204.736161,201.770952 209.65055,201.720075 C211.549451,201.703756 213.989979,200.930682 216.350386,200.182887 C218.860781,199.387415 221.239455,198.63098 222.956959,198.79449 C226.14455,195.591802 229.132154,194.209165 233.467097,192.809889 L233.715797,192.730214 C235.442916,192.176327 238.334694,191.249023 239.146494,189.512167 C239.463459,188.833807 239.443268,188.076093 239.084319,187.195826 C238.833055,186.579863 238.33854,186.142129 237.57289,185.857026 C232.829964,184.094252 220.535981,189.029316 217.480753,190.582823 C216.566075,191.048075 215.257516,192.140489 213.87236,193.2969 C210.995965,195.697716 207.737226,198.416913 205.279712,197.97118 C203.184671,197.588803 202.625416,196.571584 202.524783,195.785391 C202.183461,193.107791 206.79082,189.488808 208.446149,188.722134 C211.54272,187.28894 215.226749,186.710735 218.789312,186.151408 C223.87997,185.352736 229.143692,184.526546 232.758174,181.207385 C233.417101,180.601661 233.906168,179.727473 234.186596,178.742252 C233.779575,178.368835 233.465174,177.922141 233.245318,177.404093 C232.728048,176.186245 232.795992,174.662817 233.23314,172.989957 C232.769391,172.409192 232.122643,171.878024 231.221106,171.550043 C230.247458,173.720793 227.022691,175.265021 224.846887,175.703074 C221.920175,176.290879 218.431325,175.929941 215.259118,174.824407 Z M196.882883,197.676477 C196.262094,194.509627 200.748949,191.355896 205.088379,188.305519 C207.816708,186.388194 210.637658,184.405273 211.583423,182.768571 C212.984603,180.343116 213.698975,177.575602 213.98357,174.671776 C212.710585,175.257341 208.297122,176.801249 206.714544,175.151108 C205.982866,174.387633 206.02453,173.200504 206.838573,171.622999 C207.096888,171.122229 207.553906,170.678096 208.167323,170.280359 C206.739222,168.628298 205.904987,166.738492 205.72391,164.708533 C205.388358,160.946839 206.187338,156.91604 206.960039,153.018034 C207.436607,150.614978 207.886254,148.345034 208.089765,146.139726 C208.51826,141.485925 209.277179,136.823805 210.011421,132.314955 L210.330629,130.347073 C210.365562,130.130126 210.401457,129.910939 210.437993,129.689512 C210.430621,128.89884 210.427416,128.098888 210.427416,127.287736 C210.427416,122.085808 210.517154,117.000673 211.514517,112.089927 C210.641504,112.798365 209.786758,113.457845 209.022069,114.04821 C208.761511,114.249158 208.514414,114.440186 208.283341,114.619695 C202.577343,119.061989 195.693546,121.312414 191.011833,122.618576 C187.829371,123.506523 184.471601,123.507163 181.22504,123.507483 C177.479478,123.508123 173.606681,123.508763 169.856311,124.837323 C166.420662,126.05421 163.200061,127.657314 160.085543,129.207301 C157.487013,130.500664 154.800028,131.838183 152.01305,132.937638 C149.981145,133.73887 146.424992,134.743929 143.522317,134.5657 C143.206635,136.860282 141.97275,137.817345 140.299153,139.116147 C139.657532,139.613717 138.930341,140.177844 138.149629,140.90452 C137.108037,141.873742 136.153619,142.824085 135.230609,143.74339 C131.115522,147.841384 127.561612,151.380692 120.285215,152.211042 C115.832652,152.717892 113.07548,151.886902 112.091576,149.737911 C110.661552,146.614578 113.733765,141.806226 117.413307,138.426269 C113.539549,137.999094 110.514447,136.418389 108.846939,133.687673 C108.024883,132.341193 107.575877,130.791846 107.49928,129.132746 C105.671207,130.434428 103.405666,131.658354 100.694323,132.812845 C96.138563,134.752569 92.282752,134.480265 90.6306278,132.102488 C88.9958101,129.749669 90.0569514,126.110847 93.3996584,122.605457 C94.2970295,121.664713 95.5879618,120.617096 96.9551706,119.508362 C99.2271218,117.665913 101.815076,115.566839 103.352144,113.359611 C103.012425,113.04699 102.758597,112.70237 102.616941,112.307194 C102.419519,111.757787 102.465029,111.172222 102.752187,110.565538 C100.320953,110.064768 100.151734,108.027451 99.9882847,106.057009 C99.9687348,105.819583 99.9488645,105.581517 99.9267507,105.344091 C98.3166107,105.126824 97.4141118,105.006192 96.5132154,104.774206 C94.2992729,104.20464 89.0663178,102.623294 88.2846436,100.247117 C88.1234373,99.7565862 88.0718385,98.9995116 88.7416618,98.1794008 C89.2114997,97.6040752 89.975547,97.3100129 91.012972,97.3058531 C93.9512211,97.3058531 98.7383751,99.6484327 99.8748314,101.016351 C100.608432,101.899818 100.92091,103.059748 101.089808,104.241117 C101.527917,104.326872 101.957373,104.432466 102.370484,104.573578 C102.682,102.603136 102.989029,100.569657 103.096073,98.4558642 C103.156645,97.2620157 103.208244,95.9881721 103.262087,94.654492 C103.377783,91.8005831 103.502454,88.7188478 103.739296,85.5708764 C101.472793,86.446024 99.2844894,87.5445181 97.1711807,89.2452162 C96.0847207,90.1200438 95.054026,90.9798323 94.0576237,91.8114624 C91.4257627,94.0074908 89.0073477,96.0256098 86.2450474,97.757986 C85.4034416,100.35335 82.6257578,102.998952 81.2909184,104.157602 C77.8982149,107.103026 72.9767758,110.016771 70.1862724,109.456165 C68.5674792,109.130424 66.4038535,108.525341 66.3006559,107.03999 C66.1461799,104.818363 71.0298012,102.640253 78.4103574,100.052888 C78.8705805,99.8916181 79.2458739,99.760106 79.5045091,99.6641118 C81.6043573,98.8855984 83.4398015,97.9659735 85.1399991,96.9327555 C85.1973668,96.6639716 85.2201215,96.4118267 85.20602,96.1782407 C85.0140467,92.9630734 79.9442209,89.8931774 75.8704769,87.4261252 C75.3894219,87.1346227 74.9150972,86.8472799 74.4548741,86.5637769 C73.1437509,87.8750583 71.7060343,88.9613932 70.0779469,89.6839099 C68.5597874,90.3581095 67.196104,90.4249855 65.877289,90.4896216 C64.2286903,90.5702568 62.8047547,90.6403326 61.3006968,91.9144962 C60.5116513,92.5832562 59.9290011,93.6948695 59.311738,94.871439 C58.5790987,96.2694352 57.7721057,97.808543 56.4587391,98.8081631 C57.2631682,101.149143 60.1257817,103.407887 61.1644887,104.227358 C61.8371965,104.758206 62.6310494,105.213219 63.3986221,105.653193 C65.3664285,106.780485 67.4008968,107.946815 68.0063018,110.566178 C68.8241914,114.105166 66.0221504,117.702071 62.9957666,118.71737 C61.0177044,119.38101 59.0271432,118.905839 57.1545222,117.776306 C57.5814144,118.232279 58.0381121,118.700731 58.5252564,119.185502 C58.7092175,119.368211 58.7646622,119.643394 58.6656309,119.88306 C58.59961,120.042624 39.2580595,120.174562 0.640979305,120.278876 C0.287158729,120.278876 0,119.992173 0,119.638915 C0,119.285336 0.287158729,118.998953 0.640979305,118.998953 L56.5481557,118.998953 C54.54157,116.896039 53.1105837,115.029911 52.1279625,113.054989 C50.0543944,110.405868 48.4336782,107.421407 47.5923929,105.330012 C46.8488569,103.488523 45.5976653,100.390468 45.2537799,97.6536723 C44.647093,97.2146586 44.059315,96.7186883 43.4974966,96.1670414 C40.1554305,92.886918 38.793029,88.6577314 39.9423049,85.1302628 C40.7114801,82.7697643 41.8466544,81.2965726 43.3160995,80.7522852 C44.6480545,80.2585548 46.2053137,80.5430178 47.944611,81.5976746 C48.8330083,82.1362023 49.4489895,83.1527814 50.0444592,84.1354425 C50.4681466,84.8352405 50.8687586,85.4960009 51.3196876,85.9190156 C51.9907929,86.5480979 52.7689418,86.9336748 53.5929207,87.3419703 C54.4646525,87.7739444 55.3658694,88.2206376 56.1616452,88.9783522 C58.8377338,91.5257195 58.353474,92.8085227 57.3099597,94.4749828 C56.8276227,95.2448566 56.3302228,96.0387291 56.2555487,97.2709752 C57.0362615,96.4521443 57.6121814,95.3536501 58.1762432,94.2781946 C58.8229913,93.0443485 59.4918532,91.768585 60.4712696,90.9385547 C62.3070343,89.383128 64.0902387,89.2954532 65.8144731,89.2112982 C67.0707925,89.149542 68.2578862,89.0916254 69.5571512,88.5147 C70.9375002,87.9016167 72.1842049,86.9823118 73.3379677,85.8633389 C72.3563079,85.2329767 71.4823326,84.6234132 70.8080223,84.0346485 C64.3475919,78.3949865 62.3810674,71.9656119 65.1202925,65.4418428 C68.2476305,57.9942892 77.8716143,54.6687285 86.0508307,54.6687285 C86.4806073,54.6696885 86.8389148,54.677048 87.1994656,54.6904872 L81.05632,37.6630277 C80.977159,37.4432009 81.0239505,37.1977756 81.178747,37.0224261 C81.2821583,36.9057398 90.6566943,38.9064732 109.302355,43.0246264 C109.441661,43.0559845 109.815352,43.7631421 110.423428,45.1460993 C110.62149,44.7726816 110.84391,44.3861448 111.090046,43.9868087 C112.140932,42.2825909 113.558137,41.2989698 114.928551,40.3476668 C115.414734,40.0097671 115.886494,39.6824267 116.334859,39.3294879 C117.014297,38.5679335 117.236717,38.4105029 117.466508,38.3061892 C118.273501,37.4451208 118.845575,36.4147826 119.45098,35.3252479 C119.720512,34.8398369 119.99389,34.3480264 120.293548,33.8600557 C119.830761,27.4402804 124.943852,25.0647428 130.412367,23.7237032 C128.709606,20.8349163 129.154125,17.1423376 129.550571,13.8503749 C129.748633,12.2037536 129.937081,10.6406473 129.873945,9.25001065 C128.233679,8.58253065 127.417392,7.69490385 127.445274,6.60728904 C127.517705,3.81033667 133.476889,1.43255918 134.646997,1.08058028 C140.681817,-0.736270832 144.901705,-0.265579043 147.547667,2.51953403 C149.719626,4.80643697 151.039081,8.69612385 151.143882,12.8638741 C151.46982,15.6000301 151.169841,18.5438536 150.312852,21.2217731 C150.22664,21.490877 150.134019,21.7590209 150.034667,22.0258849 C151.536481,21.8530953 152.994709,21.9516494 154.341407,22.4002625 C156.617524,23.159577 159.51443,25.2996087 160.388406,31.185336 C160.438402,31.5213158 160.652489,32.3471863 160.900548,33.303289 C162.093731,37.9030134 162.557159,40.2404733 161.963612,41.0829828 C161.861697,41.2280407 154.616494,39.5118769 140.228004,35.9344913 L140.272232,53.376006 C140.230568,53.6956668 140.311972,53.9545313 140.837255,54.3570672 C141.852887,54.1241212 142.046783,53.8374183 142.072101,53.7907011 C141.995398,53.6614289 142.093361,48.6466894 142.36599,38.7464828 C142.781986,38.1333996 142.985176,38.0956418 143.173945,38.1465188 C143.827423,38.3231482 165.095437,43.7461832 165.310165,43.8008999 C165.580658,43.8700157 165.775196,44.1055216 165.791541,44.383585 L165.879034,45.8801353 C169.590625,41.178977 175.87735,36.8208382 178.820406,35.5111567 C182.331371,33.9480504 187.472666,33.1461785 191.5009,34.2149144 C190.991322,32.9093926 191.076572,31.6102705 191.155412,30.4106624 C191.216305,29.4766384 191.274314,28.5944513 191.054137,27.7775402 C190.909597,27.2396525 190.434311,26.6774462 189.931142,26.0816419 C188.715845,24.643648 187.051222,22.6741661 189.467073,19.6781856 C188.989543,17.3148073 188.904293,15.0135052 189.926975,12.8248364 C191.692873,9.04426298 196.523293,6.19707362 201.167509,6.19707362 C206.303035,6.20443318 209.034568,8.68780435 210.424853,10.7699196 C212.636872,14.083001 213.017934,18.7857591 211.491763,23.2795698 C212.391377,23.3445259 212.503869,23.4811577 212.553545,23.6443479 C213.234585,25.8864536 212.528867,29.3006489 210.980261,31.2554118 C210.328706,32.0777625 209.562094,32.6332492 208.718245,32.903953 C207.767032,34.4993774 206.57449,36.007447 205.145427,37.4137627 C210.651118,38.3039493 218.295758,39.9713694 221.386881,45.1691379 C221.927547,45.3265684 222.161184,44.9374718 222.39418,44.5486951 C226.78649,37.2211342 230.935229,30.299949 237.502382,24.795319 C241.98411,21.0387441 247.44333,18.0056459 252.722115,15.0727017 C255.177387,13.7083034 257.715985,12.297828 260.057483,10.863034 C263.938612,8.48429654 268.487322,6.95574815 273.410043,6.3260259 C276.950813,5.30048736 280.134236,4.82691574 283.556745,4.78723812 C291.004604,4.69956338 299.421945,5.36544347 305.306776,10.9574283 C308.843699,14.3181869 312.075838,17.7304624 313.647198,21.6665465 C318.523448,27.9394505 320.166919,35.1866962 321.765842,42.2371536 C323.250991,48.7852411 324.786457,55.5566753 328.917889,61.4596815 C329.939931,62.920074 331.003636,64.3414288 332.032087,65.7157464 C335.51581,70.3711474 338.806918,74.7686439 340.565124,80.5452576 C342.774259,87.8014627 343.201472,96.7660455 343.544396,103.969454 C344.020003,113.959895 343.254994,122.172843 341.205142,129.077389 C340.212906,132.420869 338.901142,135.478605 337.27658,138.24068 C339.052093,140.74485 341.083036,143.027593 342.086489,144.155845 C342.343201,144.444148 342.542225,144.667815 342.690612,144.849244 L367.359021,144.849244 C367.712841,144.849244 368,145.135626 368,145.489205 C368,145.842464 367.712841,146.129167 367.359021,146.129167 L342.372045,146.129167 C341.699658,145.648236 341.421473,145.335295 341.128225,145.005714 C340.079262,143.826585 338.23901,141.758549 336.547466,139.428449 C334.055018,143.317815 330.905246,146.57874 327.121865,149.177624 C314.732056,157.689434 301.51346,156.104569 287.518959,154.42595 C285.289633,154.158446 282.98403,153.882302 280.674582,153.645836 C274.067688,152.969717 261.853827,151.445648 252.90159,148.735091 C254.938301,152.198883 252.997737,160.559662 250.512019,163.656116 C247.767025,167.075432 246.734087,168.464148 245.085808,172.520225 C243.43721,176.578542 240.409223,180.666617 236.847622,179.971299 C236.270741,179.858665 235.755393,179.694835 235.30158,179.480448 C234.942952,180.530625 234.373121,181.463049 233.62606,182.149088 C232.213662,183.44629 230.597112,184.385434 228.858456,185.096111 C232.340576,184.232803 235.785199,183.826108 238.020294,184.657738 C239.125662,185.068593 239.882979,185.760072 240.271733,186.713295 C240.765608,187.924742 240.777787,189.048515 240.307949,190.053254 C239.259627,192.29664 236.03454,193.330818 234.107435,193.949021 C229.524433,195.427652 226.754121,196.722935 223.649858,199.916343 C221.65481,199.845627 219.155632,200.63694 216.738178,201.402974 C214.287714,202.179248 211.752962,202.98208 209.661767,202.999998 C206.387965,203.000958 197.840506,202.561625 196.882883,197.676477 Z"
                          id="Fill-1"></path>
                </g>
            </g>
        </g>
    </g>
</svg>
