<?xml version="1.0" encoding="utf-8"?>
<!-- Generator: Adobe Illustrator 19.0.0, SVG Export Plug-In . SVG Version: 6.00 Build 0)  -->
<svg version="1.1" id="Layer_1" xmlns="http://www.w3.org/2000/svg" xmlns:xlink="http://www.w3.org/1999/xlink" x="0px" y="0px"
	 viewBox="0 0 157.698 41.682" enable-background="new 0 0 157.698 41.682" xml:space="preserve">
<g>
	<defs>
		<rect id="SVGID_1_" y="0" width="157.698" height="41.682"/>
	</defs>
	<clipPath id="SVGID_2_">
		<use xlink:href="#SVGID_1_"  overflow="visible"/>
	</clipPath>
	<path clip-path="url(#SVGID_2_)" fill="#FFFFFF" d="M107.556,30.958c-0.499,0.129-0.863,0.229-1.235,0.314
		c-1.238,0.274-2.272,0.144-2.892-1.085c-1.227-2.434-2.505-4.845-3.789-7.318c0.147-0.028,0.058-0.028-0.017,0.004
		c-2.082,1.001-2.847,2.55-2.332,4.676c0.105,0.432,0.031,0.904,0.013,1.354c-0.046,1.209-2.009,2.425-3.257,2.038
		c-1.421-0.441-1.025-1.729-1.051-2.504c-0.154-4.805-0.082-9.615-0.085-14.423c0-0.219,0.021-0.44,0.052-0.968
		c1.184,0.232,2.287,0.375,3.338,0.676c0.76,0.215,1.129,0.674,1.057,1.593c-0.158,1.937-0.049,3.891-0.049,6.135
		c0.752-0.843,5.43-5.152,5.992-7.634h4.096c-1.03,1.443-1.633,2.919-2.784,3.755c-2.249,1.635-1.199,3.286-0.489,4.984
		c1.097,2.621,2.288,5.211,3.425,7.821C107.618,30.53,107.556,30.733,107.556,30.958"/>
	<path clip-path="url(#SVGID_2_)" fill="#FFFFFF" d="M53.553,23.783c0.398-1.123,0.775-1.984,1.012-2.881
		c0.463-1.751,0.813-3.531,1.28-5.28c0.163-0.608,0.464-1.206,0.825-1.725c0.426-0.605,0.971-0.543,1.492-0.043
		c0.455,0.439,0.987,0.796,1.453,1.164c-0.162,0.766-0.302,1.744-0.578,2.682c-0.656,2.212-1.205,4.475-2.117,6.578
		c-0.679,1.567-1.474,3.07-1.84,4.759c-0.048,0.219-0.386,0.51-0.611,0.534c-1.066,0.102-2.143,0.172-3.207,0.13
		c-0.219-0.01-0.488-0.527-0.605-0.854c-0.569-1.597-1.09-3.21-1.633-4.814c-0.076-0.216-0.194-0.418-0.381-0.807
		c-0.322,0.664-0.602,1.183-0.83,1.727c-0.455,1.077-0.875,2.171-1.33,3.249c-0.514,1.224-1.772,1.547-2.778,2.136
		c-0.479,0.281-1.191-0.366-1.334-1.092c-0.591-3.013-1.128-6.037-1.765-9.04c-0.407-1.912-0.971-3.79-1.428-5.694
		c-0.059-0.235,0.051-0.637,0.23-0.781c1.51-1.218,3.614-0.559,4.14,1.29c0.739,2.582,1.452,5.174,2.167,7.766
		c0.08,0.296,0.098,0.611,0.149,0.918c0.076,0.019,0.152,0.041,0.227,0.063c0.411-1.099,0.842-2.19,1.226-3.298
		c0.547-1.596,1.341-2.209,3.02-2.236c0.839-0.01,1.404,0.248,1.667,1.192C52.389,20.82,52.965,22.161,53.553,23.783"/>
	<path clip-path="url(#SVGID_2_)" fill="#FFFFFF" d="M119.095,22.12c-0.604-1.827-1.206-3.664-1.854-5.628
		c0,0.802-0.174,1.441-0.224,2.064c-0.053,0.662-0.224,1.311-0.279,1.973c-0.053,0.605-0.19,1.189-0.199,1.799
		c0.642-0.015,3.322-0.014,2.683,0C119.132,22.328,119.222,22.328,119.095,22.12 M116.376,14.167
		c-0.271-0.702,0.068-0.952,0.578-0.984c1.268-0.088,2.384,0.474,3.318,1.294c0.391,0.339,0.422,1.151,0.654,1.73
		c0.879,2.183,1.864,4.323,2.639,6.549c0.758,2.168,1.315,4.416,1.94,6.636c0.164,0.589-0.067,0.95-0.668,0.886
		c-0.799-0.082-1.52,0.105-2.231,0.537c-0.465,0.281-1.287-0.379-1.439-1.055c-0.174-0.775-0.416-1.534-0.516-2.318
		c-0.126-0.967-0.601-1.251-1.44-1.19c-0.818,0.061-1.858,0.044-2.681,0.008c-0.498-0.023-0.648,0.215-0.723,0.715
		c-0.154,0.966-0.094,1.936-0.388,2.858c-0.109,0.355-0.57,0.638-0.93,0.821c-0.462,0.236-0.976,0.382-1.48,0.497
		c-0.391,0.086-0.944,0.247-1.169,0.043c-0.374-0.339-0.71-0.928-0.752-1.442c-0.062-0.776,0.136-1.577,0.231-2.368
		c0.18-1.427,0.182-1.426-1.084-1.483c-1.718-0.074-2.877-2.022-2.283-3.777c1.139,0,2.26,0.008,3.385-0.004
		c0.594-0.009,0.937-0.269,1.052-0.997c0.362-2.257,0.762-4.507,1.216-6.745c0.271-1.322,1.05-1.578,2.101-0.783
		C115.937,13.771,116.153,13.976,116.376,14.167"/>
	<path clip-path="url(#SVGID_2_)" fill="#FFFFFF" d="M80.956,21.95c0.613-0.296,0.941-0.468,1.281-0.613
		c1.418-0.613,2.179-1.97,1.99-3.551c-0.193-1.604-1.117-2.483-2.803-2.673c-0.403-0.042-0.804-0.079-1.21-0.122
		c0.082,0.945,0.205,1.854,0.234,2.763c0.121,3.63,0.25,7.26,0.293,10.89c0.021,1.45-0.38,1.669-1.785,1.401
		c-0.365-0.071-0.779-0.083-1.127,0.025c-1.078,0.335-1.834-0.238-1.81-1.398c0.086-4.112,0.195-8.228,0.222-12.341
		c0.006-0.906,0.192-1.974-0.813-2.607c0.007-0.092,0.014-0.184,0.017-0.278c0.589-0.116,1.185-0.368,1.762-0.321
		c1.86,0.148,3.728,0.316,5.564,0.642c2.199,0.392,4.16,1.326,5.429,3.409c1.149,1.9,0.768,4.681-1.156,5.987
		c-0.121,0.079-0.232,0.173-0.395,0.294c1.459,2.442,2.912,4.856,4.344,7.283c0.106,0.178,0.153,0.61,0.098,0.637
		c-0.384,0.193-0.842,0.498-1.207,0.42c-2.184-0.482-4.151-1.335-5.02-3.793c-0.162-0.461-0.433-0.877-0.648-1.319
		C83.397,25.013,82.776,23.204,80.956,21.95"/>
	<path clip-path="url(#SVGID_2_)" fill="#FFFFFF" d="M30.895,19.408c1.463,0,2.76-0.124,4.02,0.031
		c1.523,0.186,2.265,2.106,1.392,3.37c-0.107,0.154-0.451,0.212-0.68,0.207c-1.406-0.042-2.81-0.114-4.322-0.181
		c0.073,1.266,0.122,2.449,0.236,3.623c0.014,0.147,0.374,0.358,0.583,0.371c1.642,0.091,3.289,0.136,4.929,0.212
		c0.582,0.026,1.178,0.054,1.748,0.152c0.853,0.15,1.045,0.72,0.586,1.46c-0.249,0.405-0.359,0.9-0.642,1.274
		c-0.192,0.252-0.571,0.513-0.866,0.509c-1.111-0.011-2.22-0.16-3.338-0.199c-1.976-0.074-3.951-0.119-5.933-0.147
		c-0.854-0.011-1.16-0.483-1.225-1.551c-0.17-2.879-0.44-5.75-0.629-8.629c-0.132-1.981-0.267-3.966-0.224-5.947
		c0.011-0.397,0.824-1.101,1.279-1.111c2.391-0.06,4.789,0.044,7.182,0.124c1.881,0.063,2.843,1.407,2.259,3.197
		c-0.068,0.205-0.606,0.363-0.919,0.359c-1.612-0.025-3.227-0.101-4.838-0.183c-0.619-0.031-0.95,0.092-0.818,0.827
		C30.805,17.903,30.827,18.649,30.895,19.408"/>
	<path clip-path="url(#SVGID_2_)" fill="#FFFFFF" d="M17.431,15.397c-0.004,0.032-1.547-0.293-1.634,0.864
		c-0.05,0.697-0.155,1.4-0.155,2.099c0,2.127,0.029,4.258,0.072,6.387c0.025,1.246,0.215,1.412,1.43,1.361
		c0.587-0.024,1.171-0.107,1.753-0.14c2.053-0.126,3.211-1.166,3.838-3.05c0.407-1.214,0.082-2.601-0.164-3.806
		C22.272,17.646,21.11,15.347,17.431,15.397 M11.496,13.414c0.005-0.199,0.206-0.512,0.386-0.57
		c2.724-0.923,7.596-0.951,9.791,1.489c1.799,2.007,2.746,4.418,3.081,7.041c0.249,1.961,0.042,3.905-0.939,5.703
		c-0.887,1.633-2.131,2.657-4.086,2.722c-1.104,0.036-2.207,0.203-3.308,0.33c-0.944,0.109-1.621-0.22-2.145-1.042
		c-0.183-0.286-0.676-0.502-1.038-0.521c-1.048-0.061-1.503-0.404-1.54-1.386C11.577,24.111,11.464,14.932,11.496,13.414"/>
	<path clip-path="url(#SVGID_2_)" fill="#FFFFFF" d="M130.048,14.821c0,0.407-0.057,0.731,0.013,1.023
		c0.41,1.806,0.861,3.605,1.283,5.411c0.381,1.627,0.773,3.253,1.103,4.89c0.261,1.291,1.034,2.036,2.321,2.546
		c0.146-0.57,0.347-1.07,0.384-1.586c0.083-1.078,1.301-1.41,2.257-1.235c0.746,0.136,0.872,0.591,0.724,1.745
		c-0.277,2.159-1.215,2.601-3,3.089c-1.877,0.511-3.606,0.193-5.375-0.459c-1.256-0.465-1.938-1.412-2.223-2.622
		c-0.74-3.214-0.951-6.491-0.769-9.781c0.066-1.167,0.289-2.323,1.155-3.249c1.638-1.751,3.593-1.781,5.679-1.195
		c0.595,0.169,1.168,0.427,1.765,0.605c1.12,0.333,1.575,1.202,1.713,2.269c0.135,0.98-1.601,2.796-2.523,2.609
		c-0.801-0.162-1.098-0.883-1.252-1.626c-0.14-0.678-0.006-1.594-0.393-1.988c-0.388-0.395-1.275-0.279-1.951-0.374
		C130.697,14.855,130.428,14.849,130.048,14.821"/>
	<path clip-path="url(#SVGID_2_)" fill="#FFFFFF" d="M144.74,18.54c0.759-1.307,1.396-2.443,2.077-3.554
		c0.514-0.831,1.065-1.667,2.11-1.967c0.399-0.114,0.857-0.033,1.283-0.04c-0.02,0.381,0.058,0.798-0.076,1.137
		c-0.952,2.331-1.993,4.628-2.895,6.975c-0.228,0.595-0.086,2.268-0.061,2.939c0.049,1.508,0.147,3.016,0.176,4.523
		c0.005,0.223-0.205,0.531-0.412,0.67c-0.75,0.493-1.517,0.963-2.317,1.378c-0.691,0.358-1.359-0.1-1.425-0.995
		c-0.074-1.02-0.164-2.047-0.076-3.063c0.199-2.321-0.766-5.223-1.926-7.153c-1.136-1.879-2.221-3.779-3.328-5.676
		c1.322-1.156,3.828-0.723,4.631,0.815c0.343,0.661,0.75,1.295,1.117,1.947C143.968,17.101,144.301,17.732,144.74,18.54"/>
	<path clip-path="url(#SVGID_2_)" fill="#FFFFFF" d="M68.069,14.442c-1.943,0.276-2.408,0.789-2.422,2.614
		c-0.008,0.959,0.043,3.362,0.053,3.604c0.044,0.918,0.103,1.834,0.121,2.753c0.022,1.115,0,2.231,0.01,3.347
		c0.004,0.577-0.028,1.169,0.445,1.685c0.762,0.084,1.549,0.396,2.404,0.02c0.172-2.201-0.019-12.168-0.212-13.31
		C68.423,14.896,68.195,14.665,68.069,14.442 M72.823,23.317v5.094c0,0.5-0.269,0.824-0.711,1c-0.312,0.126-0.643,0.204-0.969,0.296
		c-0.183,0.052-0.421,0.04-0.548,0.15c-0.745,0.647-1.602,0.572-2.487,0.462c-0.769-0.1-1.549-0.111-2.312-0.226
		c-1.127-0.166-2.11-0.719-3.07-1.287c-0.503-0.297-0.893-0.747-0.967-1.385c-0.054-0.431-0.176-0.862-0.188-1.292
		c-0.053-2.868-0.094-5.736-0.112-8.602c-0.003-0.63,0.038-1.268,0.141-1.887c0.258-1.523,1.441-2.598,2.985-2.727
		c0.58-0.05,1.171-0.042,1.752-0.005c0.965,0.065,1.925,0.25,2.89,0.252c1.715,0.004,3.268,1.418,3.444,3.463
		c0.152,1.797,0.152,3.589,0.156,5.383c0.004,0.437,0,0.874,0,1.311H72.823"/>
	<path clip-path="url(#SVGID_2_)" fill="#E62342" d="M16.483,0.198C2.528,6.79-7.693,24.697,7.656,34.051
		c11.804,7.191,30.362,7.524,44.515,7.624c17.458,0.124,34.966-1.151,52.187-3.396c12.515-1.631,25.211-3.842,36.642-8.31
		c8.962-3.5,17.906-9.375,16.563-18.064c-1.117-7.233-12.41-9.192-19.861-10.272C124.616-0.265,110.864,0.1,97.663,0.881
		c-11.902,0.702-24.252,1.82-35.662,4.728c-1.834,0.469-1.319,2.082,0.546,1.61c17.422-4.444,37.073-5.36,55.252-5.146
		c11.801,0.139,40.008,0.102,36.536,14.675c-1.676,7.034-11.967,11.07-19.422,13.559c-6.313,2.109-13.019,3.525-19.719,4.617
		c-14.705,2.397-29.555,3.919-44.547,4.652c-17.226,0.839-36.129,1.204-52.584-3.544c-5.801-1.672-11.539-4.52-13.884-9.242
		C-0.612,17.138,8.294,6.078,18.493,1.26C20.266,0.422,17.713-0.383,16.483,0.198"/>
</g>
</svg>
