<svg width="296px" height="252px" viewBox="0 0 296 252" version="1.1" xmlns="http://www.w3.org/2000/svg"
     xmlns:xlink="http://www.w3.org/1999/xlink">
    <!-- Generator: Sketch 50 (54983) - http://www.bohemiancoding.com/sketch -->
    <desc>Created with Sketch.</desc>
    <defs></defs>
    <g id="Page-1" stroke="none" stroke-width="1" fill="none" fill-rule="evenodd">
        <g id="Mobile-Portrait-320" transform="translate(-24.000000, -4745.000000)" stroke="#65C8CE" stroke-width="2">
            <g id="Form" transform="translate(15.000000, 4746.000000)">
                <g id="Icon-:-message"
                   transform="translate(43.500000, 29.351885) rotate(21.000000) translate(-43.500000, -29.351885) translate(15.000000, 8.851885)">
                    <path d="M55.5460029,40.6058423 L1.11492447,40.6058423 C0.291303078,40.6058423 0.0184784938,39.3828182 0.0184784938,38.6163421 L0.0184784938,0.874248301 C0.0184784938,0.555975954 -0.0664574618,0.262736264 0.127865709,0.0279061051 C0.199932581,-0.0603042083 0.183202771,0.159029544 0.274573269,0.0898917307 C0.531954952,-0.104409365 0.759737742,0.0767793868 1.11492447,0.0767793868 L55.5460029,0.0767793868 C56.3709112,0.0767793868 56.6424489,0.1077722 56.6424489,0.874248301 L56.6424489,38.6163421 C56.6424489,39.3828182 56.3709112,40.6058423 55.5460029,40.6058423 L55.5460029,40.6058423 Z"
                          id="Stroke-98"></path>
                    <path d="M0,0 L22.210163,20.8250629 C25.694512,23.971525 31.2592224,23.9494359 34.7128272,20.7759761 L56.6424489,0.144805977"
                          id="Stroke-100"></path>
                    <path d="M54.5599131,40.3895403 L39.2582972,16.5356788" id="Stroke-102"></path>
                    <path d="M0,40.6058423 L19.4638366,18.1215826" id="Stroke-104"></path>
                </g>
                <g id="Icon-:-message-Copy"
                   transform="translate(117.133100, 17.507307) rotate(-34.000000) translate(-117.133100, -17.507307) translate(102.133100, 6.507307)">
                    <path d="M28.8779331,21.1106603 L0.579640523,21.1106603 C0.151446196,21.1106603 0.00960682462,20.4748196 0.00960682462,20.0763347 L0.00960682462,0.454514865 C0.00960682462,0.289047557 -0.0345507154,0.136594532 0.0664763837,0.0145081661 C0.103943387,-0.031351687 0.0952456901,0.082678218 0.142748498,0.0467340088 C0.276559226,-0.0542816135 0.394981719,0.0399170036 0.579640523,0.0399170036 L28.8779331,0.0399170036 C29.3067965,0.0399170036 29.4479668,0.056029925 29.4479668,0.454514865 L29.4479668,20.0763347 C29.4479668,20.4748196 29.3067965,21.1106603 28.8779331,21.1106603 L28.8779331,21.1106603 Z"
                          id="Stroke-98"></path>
                    <path d="M0,0 L11.5468903,10.8267876 C13.3583762,12.4626086 16.2514256,12.4511247 18.0469278,10.8012678 L29.4479668,0.0752834964"
                          id="Stroke-100"></path>
                    <path d="M28.3652727,20.9982066 L20.4100821,8.59677028" id="Stroke-102"></path>
                    <path d="M0,21.1106603 L10.1190966,9.42126927" id="Stroke-104"></path>
                </g>
                <g id="Icon-:-message"
                   transform="translate(282.602341, 196.745032) rotate(-32.000000) translate(-282.602341, -196.745032) translate(235.602341, 162.745032)">
                    <path d="M91.9284388,67.2025257 L1.84519606,67.2025257 C0.482105567,67.2025257 0.030581842,65.1784252 0.030581842,63.90991 L0.030581842,1.44687785 C0.030581842,0.920138243 -0.109986865,0.434827589 0.211617298,0.0461845054 C0.330887716,-0.099803252 0.30319994,0.263193334 0.454417791,0.148770497 C0.880383569,-0.172797131 1.25736328,0.127069614 1.84519606,0.127069614 L91.9284388,0.127069614 C93.2936591,0.127069614 93.743053,0.17836261 93.743053,1.44687785 L93.743053,63.90991 C93.743053,65.1784252 93.2936591,67.2025257 91.9284388,67.2025257 L91.9284388,67.2025257 Z"
                          id="Stroke-98"></path>
                    <path d="M0,0 L36.7577414,34.4654057 C42.5243268,39.6727893 51.7339028,39.636232 57.4496065,34.3841672 L93.743053,0.239653381"
                          id="Stroke-100"></path>
                    <path d="M90.2964637,66.8445467 L64.9723433,27.3664901" id="Stroke-102"></path>
                    <path d="M0,67.2025257 L32.2125809,29.9911552" id="Stroke-104"></path>
                </g>
            </g>
        </g>
    </g>
</svg>
