<?xml version="1.0" encoding="utf-8"?>
<!-- Generator: Adobe Illustrator 20.1.0, SVG Export Plug-In . SVG Version: 6.00 Build 0)  -->
<svg version="1.1" id="livetype" xmlns="http://www.w3.org/2000/svg" xmlns:xlink="http://www.w3.org/1999/xlink" x="0px" y="0px"
	 viewBox="0 0 119.7 34.4" enable-background="new 0 0 119.7 34.4" xml:space="preserve">
<title>Download_on_the_App_Store_Badge_US-UK_RGB_blk_4SVG_092917</title>
<g>
	<g>
		<g>
			<path fill="#A6A6A6" d="M110.2,0H9.6C9.2,0,8.8,0,8.5,0C8.2,0,7.8,0,7.5,0c-0.7,0-1.3,0.1-2,0.2C4.9,0.3,4.2,0.4,3.6,0.7
				C3,1,2.5,1.3,2,1.7C1.5,2.1,1.1,2.6,0.8,3.1C0.5,3.6,0.3,4.2,0.2,4.7C0.1,5.3,0,5.9,0,6.5C0,6.7,0,7,0,7.3v19.9
				c0,0.3,0,0.5,0,0.8c0,0.6,0.1,1.2,0.2,1.7c0.1,0.6,0.3,1.1,0.6,1.6c0.3,0.5,0.7,1,1.2,1.4c0.5,0.4,1,0.8,1.6,1
				c0.6,0.3,1.2,0.4,1.9,0.5c0.7,0.1,1.3,0.1,2,0.2c0.3,0,0.6,0,0.9,0c0.4,0,0.7,0,1.1,0h100.6c0.4,0,0.7,0,1.1,0c0.3,0,0.6,0,0.9,0
				c0.7,0,1.3-0.1,2-0.2c0.7-0.1,1.3-0.3,1.9-0.5c0.6-0.3,1.1-0.6,1.6-1c0.5-0.4,0.9-0.9,1.2-1.4c0.3-0.5,0.5-1.1,0.6-1.6
				c0.1-0.6,0.2-1.1,0.2-1.7c0-0.3,0-0.5,0-0.8c0-0.3,0-0.6,0-0.9v-18c0-0.3,0-0.6,0-0.9c0-0.3,0-0.5,0-0.8c0-0.6-0.1-1.2-0.2-1.7
				c-0.1-0.6-0.3-1.1-0.6-1.6c-0.6-1-1.6-1.9-2.8-2.4c-0.6-0.3-1.2-0.4-1.9-0.5c-0.7-0.1-1.3-0.1-2-0.2c-0.3,0-0.6,0-0.9,0
				C110.9,0,110.5,0,110.2,0L110.2,0z"/>
			<path d="M8.5,33.6c-0.3,0-0.6,0-0.9,0c-0.6,0-1.3-0.1-1.9-0.1C5.1,33.4,4.6,33.2,4,33c-0.5-0.2-1-0.5-1.4-0.9
				c-0.4-0.3-0.8-0.8-1-1.2c-0.3-0.4-0.4-0.9-0.5-1.4C1,29,0.9,28.4,0.9,27.9c0-0.2,0-0.8,0-0.8V7.3c0,0,0-0.6,0-0.8
				c0-0.5,0.1-1.1,0.2-1.6c0.1-0.5,0.3-1,0.5-1.4c0.3-0.4,0.6-0.9,1-1.2C3,1.9,3.5,1.6,4,1.4C4.6,1.1,5.1,1,5.7,0.9
				c0.6-0.1,1.2-0.1,1.9-0.1l0.9,0h102.8l0.9,0c0.6,0,1.2,0.1,1.9,0.1c0.6,0.1,1.1,0.2,1.7,0.5c1,0.5,1.9,1.2,2.4,2.1
				c0.3,0.4,0.4,0.9,0.5,1.4c0.1,0.5,0.2,1.1,0.2,1.6c0,0.2,0,0.5,0,0.8c0,0.3,0,0.6,0,0.9v18c0,0.3,0,0.6,0,0.9c0,0.3,0,0.5,0,0.8
				c0,0.5-0.1,1.1-0.2,1.6c-0.1,0.5-0.3,1-0.5,1.4c-0.3,0.4-0.6,0.8-1,1.2c-0.4,0.4-0.9,0.7-1.4,0.9c-0.5,0.2-1.1,0.4-1.7,0.5
				c-0.6,0.1-1.2,0.1-1.9,0.1c-0.3,0-0.6,0-0.9,0l-1.1,0L8.5,33.6z"/>
		</g>
		<g id="_Group_">
			<g id="_Group_2">
				<g id="_Group_3">
					<path id="_Path_" fill="#FFFFFF" d="M24.8,17.4c0-1.5,0.9-2.8,2.4-3.6c-0.9-1.1-2.4-1.8-4-1.9c-1.7-0.2-3.3,0.9-4.2,0.9
						c-0.9,0-2.2-0.8-3.6-0.8c-1.9,0.1-3.6,0.9-4.5,2.3c-1.9,2.9-0.5,7.1,1.4,9.4c0.9,1.1,2,2.4,3.4,2.4c1.4,0,1.9-0.8,3.6-0.8
						c1.7,0,2.1,0.8,3.6,0.7c1.5,0,2.4-1.1,3.3-2.3c0.7-0.8,1.2-1.7,1.5-2.7C25.9,20.6,24.8,19.1,24.8,17.4z"/>
					<path id="_Path_2" fill="#FFFFFF" d="M22.1,10.5c0.8-0.8,1.2-1.9,1.1-3c-1.2,0.1-2.4,0.6-3.2,1.4c-0.8,0.8-1.2,1.8-1.1,2.9
						C20.1,11.8,21.3,11.3,22.1,10.5z"/>
				</g>
			</g>
			<g>
				<path fill="#FFFFFF" d="M42.3,23.3h-4.7l-1.1,2.9h-2l4.5-10.7H41l4.5,10.7h-2L42.3,23.3z M38.1,22h3.8L40,17.3h-0.1L38.1,22z"/>
				<path fill="#FFFFFF" d="M55.2,22.3c0,2.4-1.5,4-3.8,4c-1.2,0.1-2.3-0.5-2.8-1.4h0v3.9h-1.9V18.4h1.8v1.3h0
					c0.6-0.9,1.7-1.4,2.9-1.4C53.7,18.3,55.2,19.9,55.2,22.3z M53.3,22.3c0-1.6-0.9-2.6-2.4-2.6c-1.4,0-2.4,1.1-2.4,2.6
					c0,1.6,1,2.6,2.4,2.6C52.3,24.9,53.3,23.9,53.3,22.3z"/>
				<path fill="#FFFFFF" d="M65.1,22.3c0,2.4-1.5,4-3.8,4c-1.2,0.1-2.3-0.5-2.8-1.4h0v3.9h-1.9V18.4h1.8v1.3h0
					c0.6-0.9,1.7-1.4,2.9-1.4C63.6,18.3,65.1,19.9,65.1,22.3z M63.2,22.3c0-1.6-0.9-2.6-2.4-2.6c-1.4,0-2.4,1.1-2.4,2.6
					c0,1.6,1,2.6,2.4,2.6C62.3,24.9,63.2,23.9,63.2,22.3L63.2,22.3z"/>
				<path fill="#FFFFFF" d="M71.7,23.2c0.1,1.1,1.3,1.8,3,1.8c1.6,0,2.7-0.7,2.7-1.6c0-0.8-0.7-1.3-2.3-1.7l-1.6-0.3
					c-2.3-0.5-3.3-1.4-3.3-2.9c0-1.8,1.9-3.1,4.5-3.1c2.6,0,4.4,1.3,4.5,3.1h-1.9c-0.1-1.1-1.1-1.7-2.6-1.7s-2.5,0.7-2.5,1.6
					c0,0.8,0.7,1.2,2.3,1.5l1.4,0.3c2.5,0.5,3.6,1.4,3.6,3c0,2-1.9,3.2-4.8,3.2c-2.8,0-4.6-1.2-4.7-3.2L71.7,23.2z"/>
				<path fill="#FFFFFF" d="M83.4,16.6v1.8h1.7v1.3h-1.7V24c0,0.7,0.3,1,1.1,1c0.2,0,0.4,0,0.6,0v1.3c-0.3,0.1-0.7,0.1-1,0.1
					c-1.8,0-2.5-0.6-2.5-2.1v-4.5h-1.3v-1.3h1.3v-1.8H83.4z"/>
				<path fill="#FFFFFF" d="M86.1,22.3c0-2.4,1.7-4,4.3-4c2.6,0,4.3,1.5,4.3,4c0,2.5-1.7,4-4.3,4C87.7,26.3,86.1,24.8,86.1,22.3z
					 M92.8,22.3c0-1.7-0.9-2.7-2.4-2.7s-2.4,1-2.4,2.7c0,1.7,0.9,2.7,2.4,2.7S92.8,24,92.8,22.3L92.8,22.3z"/>
				<path fill="#FFFFFF" d="M96.2,18.4H98v1.3h0c0.2-0.9,1.2-1.4,2.2-1.4c0.2,0,0.4,0,0.6,0.1v1.5c-0.3-0.1-0.6-0.1-0.8-0.1
					c-1,0-1.9,0.7-1.9,1.5c0,0.1,0,0.2,0,0.2v4.6h-1.9L96.2,18.4z"/>
				<path fill="#FFFFFF" d="M109.4,23.9c-0.2,1.4-1.9,2.4-3.9,2.4c-2.6,0-4.3-1.5-4.3-3.9c0-2.4,1.6-4,4.2-4c2.5,0,4.1,1.5,4.1,3.8
					v0.5h-6.4v0.1c-0.1,1.1,0.8,2.1,2.1,2.2c0.1,0,0.2,0,0.3,0c0.9,0.1,1.8-0.4,2.1-1.1L109.4,23.9z M103.1,21.6h4.5
					c0.1-1-0.9-1.9-2.1-2c-0.1,0-0.1,0-0.2,0C104.2,19.6,103.1,20.5,103.1,21.6C103.1,21.6,103.1,21.6,103.1,21.6z"/>
			</g>
		</g>
	</g>
	<g id="_Group_4">
		<g>
			<path fill="#FFFFFF" d="M37.8,7.5c1.5-0.1,2.7,0.9,2.8,2.1c0,0.1,0,0.3,0,0.4c0,1.6-1,2.6-2.8,2.6h-2.2V7.5H37.8z M36.6,11.9h1.1
				c1,0.1,1.9-0.6,2-1.5c0-0.1,0-0.2,0-0.3c0.1-0.9-0.6-1.7-1.6-1.8c-0.1,0-0.2,0-0.4,0h-1.1V11.9z"/>
			<path fill="#FFFFFF" d="M41.7,10.7c-0.1-1,0.7-1.9,1.9-2c1.2-0.1,2.2,0.6,2.3,1.6c0,0.1,0,0.2,0,0.3c0.1,1-0.7,1.9-1.9,2
				c-1.2,0.1-2.2-0.6-2.3-1.6C41.7,10.9,41.7,10.8,41.7,10.7z M45,10.7c0-0.8-0.4-1.3-1.2-1.3c-0.8,0-1.2,0.5-1.2,1.3
				c0,0.8,0.4,1.3,1.2,1.3C44.6,12,45,11.5,45,10.7L45,10.7z"/>
			<path fill="#FFFFFF" d="M51.6,12.6h-0.9l-0.9-2.8h-0.1l-0.9,2.8h-0.9l-1.2-3.9h0.9l0.8,3h0.1l0.9-3h0.9l0.9,3h0.1l0.8-3h0.9
				L51.6,12.6z"/>
			<path fill="#FFFFFF" d="M53.9,8.8h0.9v0.6h0.1c0.2-0.5,0.8-0.7,1.3-0.7c0.8-0.1,1.5,0.5,1.6,1.2c0,0.1,0,0.2,0,0.3v2.5h-0.9v-2.3
				c0-0.6-0.3-0.9-1-0.9c-0.6,0-1.1,0.4-1.1,0.8c0,0,0,0.1,0,0.1v2.3h-0.9L53.9,8.8z"/>
			<path fill="#FFFFFF" d="M59.1,7.2H60v5.4h-0.9V7.2z"/>
			<path fill="#FFFFFF" d="M61.2,10.7c-0.1-1,0.7-1.9,1.9-2c1.2-0.1,2.2,0.6,2.3,1.7c0,0.1,0,0.2,0,0.3c0.1,1-0.7,1.9-1.9,2
				c-1.2,0.1-2.2-0.6-2.3-1.6C61.2,10.9,61.2,10.8,61.2,10.7z M64.6,10.7c0-0.8-0.4-1.3-1.2-1.3c-0.8,0-1.2,0.5-1.2,1.3
				c0,0.8,0.4,1.3,1.2,1.3C64.1,12,64.6,11.5,64.6,10.7z"/>
			<path fill="#FFFFFF" d="M66.4,11.5c0-0.7,0.6-1.1,1.7-1.2l1.2-0.1V10c0-0.4-0.3-0.6-0.9-0.6c-0.5,0-0.8,0.2-0.9,0.4h-0.9
				c0.1-0.7,0.8-1.1,1.8-1.1c1.1,0,1.8,0.5,1.8,1.3v2.6h-0.9v-0.5h-0.1c-0.3,0.4-0.8,0.6-1.4,0.6c-0.7,0.1-1.4-0.4-1.5-1
				C66.4,11.6,66.4,11.6,66.4,11.5z M69.3,11.2v-0.3l-1.1,0.1c-0.6,0-0.9,0.2-0.9,0.6c0,0.3,0.4,0.6,0.8,0.6
				C68.7,12.1,69.3,11.7,69.3,11.2C69.3,11.2,69.3,11.2,69.3,11.2z"/>
			<path fill="#FFFFFF" d="M71.4,10.7c0-1.2,0.7-2,1.9-2c0.6,0,1.1,0.2,1.4,0.7h0.1V7.2h0.9v5.4h-0.9V12h-0.1
				c-0.3,0.4-0.8,0.7-1.4,0.7C72.1,12.7,71.4,11.9,71.4,10.7z M72.3,10.7c0,0.8,0.5,1.3,1.2,1.3c0.7,0,1.2-0.5,1.2-1.3
				c0-0.8-0.5-1.3-1.2-1.3C72.7,9.4,72.3,9.9,72.3,10.7L72.3,10.7z"/>
			<path fill="#FFFFFF" d="M79.2,10.7c-0.1-1,0.7-1.9,1.9-2c1.2-0.1,2.2,0.6,2.3,1.6c0,0.1,0,0.2,0,0.3c0.1,1-0.7,1.9-1.9,2
				c-1.2,0.1-2.2-0.6-2.3-1.6C79.2,10.9,79.2,10.8,79.2,10.7z M82.6,10.7c0-0.8-0.4-1.3-1.2-1.3c-0.8,0-1.2,0.5-1.2,1.3
				c0,0.8,0.4,1.3,1.2,1.3C82.1,12,82.6,11.5,82.6,10.7z"/>
			<path fill="#FFFFFF" d="M84.7,8.8h0.9v0.6h0.1c0.2-0.5,0.8-0.7,1.3-0.7c0.8-0.1,1.5,0.5,1.6,1.2c0,0.1,0,0.2,0,0.3v2.5h-0.9v-2.3
				c0-0.6-0.3-0.9-1-0.9c-0.6,0-1.1,0.4-1.1,0.8c0,0,0,0.1,0,0.1v2.3h-0.9V8.8z"/>
			<path fill="#FFFFFF" d="M93.5,7.8v1h1v0.6h-1v2c0,0.4,0.2,0.6,0.6,0.6c0.1,0,0.2,0,0.3,0v0.6c-0.2,0-0.3,0-0.5,0
				c-1,0-1.4-0.3-1.4-1V9.4h-0.7V8.8h0.7v-1H93.5z"/>
			<path fill="#FFFFFF" d="M95.7,7.2h0.9v2.1h0.1c0.2-0.5,0.8-0.7,1.4-0.7c0.8,0,1.5,0.5,1.6,1.2c0,0.1,0,0.2,0,0.2v2.5h-0.9v-2.3
				c0-0.6-0.3-0.9-1-0.9c-0.6,0-1.1,0.3-1.1,0.8c0,0.1,0,0.1,0,0.2v2.3h-0.9L95.7,7.2z"/>
			<path fill="#FFFFFF" d="M104.8,11.6c-0.2,0.7-1.1,1.2-2,1.1c-1.1,0-2.1-0.7-2.1-1.7c0-0.1,0-0.2,0-0.3c-0.2-1,0.6-1.9,1.8-2
				c0.1,0,0.2,0,0.3,0c1.3,0,2,0.7,2,2v0.3h-3.2v0c-0.1,0.6,0.4,1.1,1.1,1.1c0,0,0.1,0,0.1,0c0.4,0,0.9-0.1,1.1-0.5L104.8,11.6z
				 M101.7,10.3h2.3c0-0.5-0.4-1-1-1c0,0-0.1,0-0.1,0C102.2,9.3,101.7,9.8,101.7,10.3C101.7,10.3,101.7,10.3,101.7,10.3L101.7,10.3z
				"/>
		</g>
	</g>
</g>
</svg>
