<?xml version="1.0" encoding="utf-8"?>
<!-- Generator: Adobe Illustrator 20.1.0, SVG Export Plug-In . SVG Version: 6.00 Build 0)  -->
<svg version="1.1" id="artwork" xmlns="http://www.w3.org/2000/svg" xmlns:xlink="http://www.w3.org/1999/xlink" x="0px" y="0px"
	 viewBox="0 0 80.7 23.3" style="enable-background:new 0 0 80.7 23.3;" xml:space="preserve">
<g>
	<rect x="-6" y="-5.8" style="fill:#FFFFFF;fill-opacity:0;" width="92.7" height="35"/>
	<g>
		<path d="M77.8,23.3H3c-1.6,0-3-1.3-3-2.9V2.9C0,1.3,1.3,0,3,0h74.8c1.6,0,3,1.3,3,2.9v17.5C80.7,22,79.4,23.3,77.8,23.3z"/>
	</g>
	<g>
		<g>
			<path style="fill:#A6A6A6;" d="M77.8,0.5c1.4,0,2.5,1.1,2.5,2.5v17.5c0,1.4-1.1,2.5-2.5,2.5H3c-1.4,0-2.5-1.1-2.5-2.5V2.9
				c0-1.4,1.1-2.5,2.5-2.5H77.8 M77.8,0H3C1.3,0,0,1.3,0,2.9v17.5c0,1.6,1.3,2.9,3,2.9h74.8c1.6,0,3-1.3,3-2.9V2.9
				C80.7,1.3,79.4,0,77.8,0L77.8,0z"/>
		</g>
	</g>
	<g>
		<path style="fill:#FFFFFF;stroke:#FFFFFF;stroke-width:0.2;stroke-miterlimit:10;" d="M28.4,6c0,0.5-0.1,0.9-0.4,1.2
			c-0.3,0.3-0.8,0.5-1.3,0.5c-0.5,0-1-0.2-1.3-0.5c-0.4-0.4-0.5-0.8-0.5-1.3c0-0.5,0.2-1,0.5-1.3C25.6,4.2,26.1,4,26.6,4
			c0.3,0,0.5,0,0.7,0.1c0.2,0.1,0.4,0.2,0.6,0.4l-0.3,0.3c-0.2-0.3-0.6-0.4-1-0.4c-0.4,0-0.7,0.1-1,0.4c-0.3,0.3-0.4,0.6-0.4,1
			s0.1,0.8,0.4,1c0.3,0.3,0.6,0.4,1,0.4c0.4,0,0.7-0.1,1-0.4c0.2-0.2,0.3-0.4,0.3-0.7h-1.3V5.7h1.7C28.4,5.8,28.4,5.9,28.4,6z"/>
		<path style="fill:#FFFFFF;stroke:#FFFFFF;stroke-width:0.2;stroke-miterlimit:10;" d="M31.1,4.5h-1.6v1.1H31V6h-1.5v1.1h1.6v0.4
			H29V4.1h2.1V4.5z"/>
		<path style="fill:#FFFFFF;stroke:#FFFFFF;stroke-width:0.2;stroke-miterlimit:10;" d="M33.1,7.6h-0.5V4.5h-1V4.1h2.5v0.4h-1V7.6z"
			/>
		<path style="fill:#FFFFFF;stroke:#FFFFFF;stroke-width:0.2;stroke-miterlimit:10;" d="M35.9,7.6V4.1h0.5v3.5H35.9z"/>
		<path style="fill:#FFFFFF;stroke:#FFFFFF;stroke-width:0.2;stroke-miterlimit:10;" d="M38.4,7.6h-0.5V4.5h-1V4.1h2.5v0.4h-1V7.6z"
			/>
		<path style="fill:#FFFFFF;stroke:#FFFFFF;stroke-width:0.2;stroke-miterlimit:10;" d="M44,7.1c-0.4,0.4-0.8,0.5-1.3,0.5
			c-0.5,0-1-0.2-1.3-0.5c-0.4-0.4-0.5-0.8-0.5-1.3s0.2-0.9,0.5-1.3C41.7,4.2,42.2,4,42.7,4c0.5,0,1,0.2,1.3,0.5
			c0.4,0.4,0.5,0.8,0.5,1.3C44.6,6.3,44.4,6.8,44,7.1z M41.7,6.8c0.3,0.3,0.6,0.4,1,0.4c0.4,0,0.7-0.1,1-0.4c0.3-0.3,0.4-0.6,0.4-1
			s-0.1-0.7-0.4-1c-0.3-0.3-0.6-0.4-1-0.4c-0.4,0-0.7,0.1-1,0.4c-0.3,0.3-0.4,0.6-0.4,1S41.5,6.6,41.7,6.8z"/>
		<path style="fill:#FFFFFF;stroke:#FFFFFF;stroke-width:0.2;stroke-miterlimit:10;" d="M45.2,7.6V4.1h0.6l1.7,2.7h0l0-0.7v-2H48
			v3.5h-0.5l-1.8-2.9h0l0,0.7v2.2H45.2z"/>
	</g>
	<path style="fill:#FFFFFF;" d="M40.8,12.7c-1.4,0-2.6,1-2.6,2.5c0,1.4,1.1,2.5,2.6,2.5c1.4,0,2.6-1.1,2.6-2.5
		C43.3,13.7,42.2,12.7,40.8,12.7z M40.8,16.7c-0.8,0-1.4-0.6-1.4-1.5c0-0.9,0.7-1.5,1.4-1.5c0.8,0,1.4,0.6,1.4,1.5
		C42.2,16.1,41.5,16.7,40.8,16.7z M35.2,12.7c-1.4,0-2.6,1-2.6,2.5c0,1.4,1.1,2.5,2.6,2.5c1.4,0,2.6-1.1,2.6-2.5
		C37.7,13.7,36.6,12.7,35.2,12.7z M35.2,16.7c-0.8,0-1.4-0.6-1.4-1.5c0-0.9,0.7-1.5,1.4-1.5c0.8,0,1.4,0.6,1.4,1.5
		C36.6,16.1,36,16.7,35.2,16.7z M28.6,13.4v1.1h2.6c-0.1,0.6-0.3,1-0.6,1.3c-0.4,0.4-1,0.8-2,0.8c-1.6,0-2.8-1.2-2.8-2.8
		S27,11,28.6,11c0.9,0,1.5,0.3,1.9,0.8l0.8-0.7c-0.6-0.6-1.5-1.1-2.7-1.1c-2.2,0-4,1.7-4,3.9c0,2.1,1.8,3.9,4,3.9
		c1.2,0,2.1-0.4,2.8-1.1c0.7-0.7,0.9-1.7,0.9-2.5c0-0.2,0-0.5-0.1-0.7H28.6z M55.7,14.3c-0.2-0.6-0.9-1.6-2.2-1.6
		c-1.3,0-2.4,1-2.4,2.5c0,1.4,1.1,2.5,2.5,2.5c1.2,0,1.8-0.7,2.1-1.1L54.9,16c-0.3,0.4-0.7,0.7-1.3,0.7c-0.6,0-1-0.3-1.2-0.8
		l3.4-1.4L55.7,14.3z M52.2,15.1c0-1,0.8-1.4,1.3-1.4c0.4,0,0.8,0.2,0.9,0.5L52.2,15.1z M49.4,17.5h1.1v-7.3h-1.1V17.5z M47.6,13.2
		L47.6,13.2c-0.3-0.3-0.8-0.6-1.4-0.6c-1.3,0-2.4,1.1-2.4,2.5c0,1.4,1.2,2.5,2.4,2.5c0.6,0,1.1-0.3,1.3-0.6h0v0.4
		c0,0.9-0.5,1.5-1.4,1.5c-0.7,0-1.1-0.5-1.3-0.9l-1,0.4c0.3,0.7,1,1.5,2.3,1.5c1.3,0,2.4-0.8,2.4-2.6v-4.5h-1.1V13.2z M46.3,16.7
		c-0.8,0-1.4-0.6-1.4-1.5c0-0.9,0.6-1.5,1.4-1.5c0.8,0,1.4,0.6,1.4,1.5C47.7,16,47.1,16.7,46.3,16.7z M60.9,10.2h-2.7v7.3h1.1v-2.8
		h1.6c1.2,0,2.5-0.9,2.5-2.3S62.1,10.2,60.9,10.2z M60.9,13.7h-1.6v-2.5h1.6c0.8,0,1.3,0.7,1.3,1.2C62.2,13,61.8,13.7,60.9,13.7z
		 M67.8,12.7c-0.8,0-1.6,0.3-2,1.1l1,0.4c0.2-0.4,0.6-0.5,1-0.5c0.6,0,1.2,0.3,1.2,0.9v0.1c-0.2-0.1-0.6-0.3-1.2-0.3
		c-1.1,0-2.2,0.6-2.2,1.6c0,1,0.9,1.6,1.9,1.6c0.8,0,1.2-0.3,1.4-0.7h0v0.6h1.1v-2.8C70.1,13.4,69.1,12.7,67.8,12.7z M67.7,16.7
		c-0.4,0-0.9-0.2-0.9-0.6c0-0.6,0.6-0.8,1.2-0.8c0.5,0,0.7,0.1,1,0.2C68.9,16.2,68.3,16.7,67.7,16.7z M74,12.8L72.7,16h0l-1.3-3.2
		h-1.2l2,4.4L71,19.7h1.2l3.1-6.9H74z M64,17.5h1.1v-7.3H64V17.5z"/>
	<g>

			<linearGradient id="SVGID_1_" gradientUnits="userSpaceOnUse" x1="13.0457" y1="160.3354" x2="3.1328" y2="150.4224" gradientTransform="matrix(1 0 0 -1 0 165.3333)">
			<stop  offset="0" style="stop-color:#00A0FF"/>
			<stop  offset="6.574450e-03" style="stop-color:#00A1FF"/>
			<stop  offset="0.2601" style="stop-color:#00BEFF"/>
			<stop  offset="0.5122" style="stop-color:#00D2FF"/>
			<stop  offset="0.7604" style="stop-color:#00DFFF"/>
			<stop  offset="1" style="stop-color:#00E3FF"/>
		</linearGradient>
		<path style="fill:url(#SVGID_1_);" d="M6.2,4.4C6.1,4.6,6,4.9,6,5.2v12.9c0,0.4,0.1,0.6,0.3,0.8l0,0l7.4-7.2v-0.1v-0.1L6.2,4.4
			L6.2,4.4z"/>

			<linearGradient id="SVGID_2_" gradientUnits="userSpaceOnUse" x1="20.2369" y1="153.6657" x2="5.7643" y2="153.6657" gradientTransform="matrix(1 0 0 -1 0 165.3333)">
			<stop  offset="0" style="stop-color:#FFE000"/>
			<stop  offset="0.4087" style="stop-color:#FFBD00"/>
			<stop  offset="0.7754" style="stop-color:#FFA500"/>
			<stop  offset="1" style="stop-color:#FF9C00"/>
		</linearGradient>
		<path style="fill:url(#SVGID_2_);" d="M16.2,14.2l-2.5-2.4v-0.1v-0.1l2.5-2.4l0.1,0l2.9,1.6c0.8,0.5,0.8,1.2,0,1.7L16.2,14.2
			L16.2,14.2z"/>

			<linearGradient id="SVGID_3_" gradientUnits="userSpaceOnUse" x1="14.8197" y1="152.3869" x2="1.3193" y2="138.8864" gradientTransform="matrix(1 0 0 -1 0 165.3333)">
			<stop  offset="0" style="stop-color:#FF3A44"/>
			<stop  offset="1" style="stop-color:#C31162"/>
		</linearGradient>
		<path style="fill:url(#SVGID_3_);" d="M16.2,14.1l-2.5-2.5l-7.5,7.3c0.3,0.3,0.7,0.3,1.2,0L16.2,14.1"/>

			<linearGradient id="SVGID_4_" gradientUnits="userSpaceOnUse" x1="4.421" y1="165.3438" x2="10.4495" y2="159.3153" gradientTransform="matrix(1 0 0 -1 0 165.3333)">
			<stop  offset="0" style="stop-color:#32A071"/>
			<stop  offset="6.850000e-02" style="stop-color:#2DA771"/>
			<stop  offset="0.4762" style="stop-color:#15CF74"/>
			<stop  offset="0.8009" style="stop-color:#06E775"/>
			<stop  offset="1" style="stop-color:#00F076"/>
		</linearGradient>
		<path style="fill:url(#SVGID_4_);" d="M16.2,9.2L7.5,4.4c-0.5-0.3-1-0.2-1.2,0l7.5,7.3L16.2,9.2z"/>
		<g>
			<path style="opacity:0.2;enable-background:new    ;" d="M16.2,14.1l-8.7,4.8c-0.5,0.3-0.9,0.3-1.2,0l0,0l0,0l0,0l0,0l0,0
				c0.3,0.2,0.7,0.3,1.2,0L16.2,14.1L16.2,14.1z"/>
			<path style="opacity:0.12;enable-background:new    ;" d="M6.2,18.9C6.1,18.7,6,18.4,6,18v0.1C6,18.5,6.1,18.8,6.2,18.9L6.2,18.9
				L6.2,18.9z"/>
		</g>
		<path style="opacity:0.12;enable-background:new    ;" d="M19.1,12.4l-3,1.7l0.1,0.1L19.1,12.4c0.4-0.1,0.6-0.5,0.6-0.8l0,0
			C19.7,11.9,19.5,12.2,19.1,12.4z"/>
		<path style="opacity:0.25;fill:#FFFFFF;enable-background:new    ;" d="M7.5,4.4l11.7,6.5c0.4,0.2,0.6,0.5,0.6,0.8l0,0
			c0-0.3-0.2-0.6-0.6-0.8L7.5,4.4C6.6,3.9,6,4.3,6,5.2v0.1C6,4.4,6.6,4,7.5,4.4z"/>
	</g>
</g>
</svg>
