<svg width="31px" height="31px" viewBox="0 0 31 31" version="1.1" xmlns="http://www.w3.org/2000/svg"
     xmlns:xlink="http://www.w3.org/1999/xlink">
    <!-- Generator: Sketch 49.3 (51167) - http://www.bohemiancoding.com/sketch -->
    <desc>Created with Sketch.</desc>
    <defs>
        <path d="M11.696563,8 C11.3872371,8 11.0971675,8.11759072 10.8797466,8.33119666 L9.38003243,9.80400319 C9.10317963,10.0758028 8.86046296,11.4857739 9.09363902,13.1646221 C9.30834655,14.7099773 9.99273228,16.9730828 12.0343357,18.9779702 C14.5777403,21.4757414 17.0781684,22 18.7279941,22 C19.9881426,22 20.9903445,21.6750783 21.2292099,21.4404126 L22.6625774,20.0326764 C22.8800859,19.8190704 23,19.5341192 23,19.2304292 C23,18.9267391 22.8800859,18.6418739 22.6625774,18.4282679 C22.6562754,18.4221649 22.6496232,18.4162338 22.6426209,18.4109044 L20.2358484,16.5652975 C20.0194778,16.3578805 19.7336096,16.2439 19.4290102,16.2439 C19.1197718,16.2439 18.8297022,16.3614908 18.6122813,16.5750107 L17.4434251,17.7228096 C17.2220654,17.9402837 17.1509922,18.2470682 17.1299853,18.4635967 C16.572516,18.3813348 15.1014236,18.0656966 13.959001,16.9435992 C12.8465131,15.8510714 12.4703154,14.4360287 12.3572285,13.8522871 C12.6635785,13.8503101 12.9504095,13.7330632 13.1654672,13.5216921 L14.3343234,12.3740652 C14.5518319,12.1604593 14.6715709,11.875594 14.6715709,11.571904 C14.6714834,11.2738871 14.5562958,10.9940075 14.3465774,10.7817769 L12.5351741,8.3559526 C12.5286094,8.34718487 12.5213446,8.33893289 12.513467,8.33119666 C12.2960461,8.11759072 12.0058889,8 11.696563,8 Z"
              id="path-1"></path>
    </defs>
    <g id="Page-1" stroke="none" stroke-width="1" fill="none" fill-rule="evenodd">
        <g id="Mobile-Portrait" transform="translate(-211.000000, -4780.000000)">
            <g id="head_menu" transform="translate(211.000000, 11.000000)">
                <g id="phone/normal" transform="translate(0.000000, 4769.000000)">
                    <g id="phone">
                        <circle id="Oval-5" fill="#ED2B4D" cx="15.5" cy="15.5" r="15.5"></circle>
                        <mask id="mask-2" fill="white">
                            <use xlink:href="#path-1"></use>
                        </mask>
                        <use id="Clip-2" fill="#FFFFFF" xlink:href="#path-1"></use>
                    </g>
                </g>
            </g>
        </g>
    </g>
</svg>
