<svg width="122px" height="44px" viewBox="0 0 122 44" version="1.1" xmlns="http://www.w3.org/2000/svg"
     xmlns:xlink="http://www.w3.org/1999/xlink">
    <!-- Generator: Sketch 50 (54983) - http://www.bohemiancoding.com/sketch -->
    <desc>Created with Sketch.</desc>
    <defs>
        <polygon id="path-1" points="0 0.463984797 37.1531918 0.463984797 37.1531918 39.5691765 0 39.5691765"></polygon>
        <polygon id="path-3" points="0.39192 0.265427027 16.93392 0.265427027 16.93392 44 0.39192 44"></polygon>
        <polygon id="path-5"
                 points="0.79716 0.371885714 5.6208 0.371885714 5.6208 7.49302857 0.79716 7.49302857"></polygon>
        <polygon id="path-7" points="0 44 122 44 122 0 0 0"></polygon>
    </defs>
    <g id="Page-1" stroke="none" stroke-width="1" fill="none" fill-rule="evenodd">
        <g id="Mobile-Portrait-320" transform="translate(-99.000000, -5699.000000)">
            <g id="Footer" transform="translate(0.000000, 5294.000000)">
                <g id="Page-1" transform="translate(99.000000, 405.000000)">
                    <g id="Group-3" transform="translate(0.000000, 2.000000)">
                        <mask id="mask-2" fill="white">
                            <use xlink:href="#path-1"></use>
                        </mask>
                        <g id="Clip-2"></g>
                        <path d="M11.300725,36.3444706 C11.006225,36.7068235 10.5561625,36.828 10.2901625,36.6162353 C10.056225,36.4303529 10.0491,36.0456471 10.25335,35.7103529 C10.084725,35.7527059 9.9351,35.8444706 9.8365375,35.9856471 C9.5847875,36.3444706 9.73085,36.8809412 10.1666625,37.1809412 C10.6012875,37.4832941 11.1606,37.4350588 11.41235,37.0774118 C11.5892875,36.828 11.5679125,36.4927059 11.39335,36.2103529 C11.3660375,36.2562353 11.33635,36.3009412 11.300725,36.3444706 Z M26.2097875,10.8538824 C25.6849125,10.3562353 25.8392875,9.37505882 25.8392875,9.37505882 C25.6184125,9.55741176 25.336975,10.8397647 25.8036625,11.4903529 C26.3451625,12.2444706 26.83085,12.348 27.2595375,13.1691765 C27.3117875,13.0515294 27.2441,12.7585882 27.1336625,12.5397647 C26.9650375,12.2056471 26.899725,11.928 27.29635,11.8138824 C28.419725,11.4915294 29.4635375,13.0938824 30.0762875,13.0668235 C30.93485,13.0303529 31.127225,12.2691765 31.16285,12.2315294 C31.1996625,12.1950588 30.7127875,12.5609412 30.158225,12.4962353 C29.284225,12.3915294 28.8792875,11.4185882 27.89485,11.2209412 C27.26785,11.0950588 26.73585,11.3527059 26.2097875,10.8538824 Z M25.6112875,28.7056471 C25.32035,29.128 25.5424125,29.7256471 26.3166625,29.9491765 C27.0125375,30.1491765 27.474475,30.3597647 27.8152875,30.6997647 C28.3164125,31.1950588 28.5491625,31.2574118 28.6702875,31.2529397 L7.2691625,1.88447059 L6.98535,2.09035294 C6.98535,2.09035294 19.33535,19.0385882 24.828725,26.5785882 C25.032975,26.8585882 25.868975,28.3291765 25.6112875,28.7056471 Z M25.5281625,30.0432941 C24.714725,30.0632941 23.7801625,30.3515294 22.8396625,29.4903529 C21.6212875,28.3750588 20.35185,29.088 20.35185,29.088 C20.35185,29.088 21.1534125,29.8797647 20.7069125,30.2056471 C19.9801625,30.7374118 20.515725,31.3621176 20.4504125,31.6056471 C20.3851,31.8491765 19.6536,31.8985882 18.4281,31.3444706 C17.732225,31.0268235 17.0945375,31.0385882 16.6741625,31.1044706 C16.3582875,31.1574118 16.4627875,31.3844706 16.5340375,31.4491765 C16.5340375,31.4491765 17.0494125,31.9162353 17.2501,32.0456471 C17.4116,32.1468235 17.822475,32.4844706 17.9756625,32.3738824 C18.1252875,32.2691765 17.7999125,31.6715294 17.7999125,31.6715294 C17.7999125,31.6715294 20.2141,32.4703529 21.057225,32.4703529 C22.0392875,32.4703529 21.1201625,30.8538824 21.8920375,30.7774118 C22.2815375,30.7374118 22.767225,31.3397647 23.569975,31.4527059 C24.1281,31.5327059 24.667225,31.2962353 25.21585,31.1609412 C25.8001,31.0174118 26.020975,31.7350588 26.1029125,32.3656471 C26.11835,32.4691765 26.1385375,32.7291765 26.2501625,32.9209412 C26.4425375,32.0103529 26.700225,30.0150588 25.5281625,30.0432941 Z M31.640225,31.9115294 C31.321975,31.0644706 30.7151625,31.4291765 30.443225,31.3362353 C30.1712875,31.2432941 29.8186,30.9056471 29.7046,30.0056471 C29.5906,29.1032941 28.8175375,29.5903529 28.8175375,29.5903529 C28.8175375,29.5903529 29.711725,31.3691765 30.0739125,32.3162353 C30.4361,33.2609412 30.7389125,32.528 31.179475,33.0468235 C31.6236,33.5668235 31.57135,36.2327059 31.3207875,37.0903529 C30.9859125,38.228 30.3161625,39.0291765 29.6321625,39.5691765 C30.2556,39.4974118 31.416975,38.288 31.74235,37.4962353 C32.1176,36.5844706 31.90385,35.7456471 31.90385,35.7456471 L32.4275375,35.6985882 L32.1069125,34.8727059 L32.6127875,34.7962353 C32.6127875,34.7962353 31.9572875,32.7585882 31.640225,31.9115294 Z M10.83285,33.5997647 C10.1916,33.4256471 9.5016625,33.3938824 8.81885,33.4832941 C8.1122875,33.588 7.543475,33.7868235 6.9521,33.7562353 C6.365475,33.7421176 5.814475,33.5127059 5.45585,33.0927059 C5.29435,32.908 5.1767875,32.6915294 5.092475,32.4609412 C5.3762875,31.8797647 5.928475,31.2915294 6.911725,30.7503529 C10.3495375,28.8574118 9.2131,26.7232941 8.9981625,24.2515294 C8.8901,22.9950588 9.1477875,21.8515294 9.7985375,21.2715294 C10.7200375,20.4503529 12.2661625,20.5515294 12.2661625,20.5515294 C12.089225,20.328 10.0170375,19.5927059 8.4352875,20.0491765 C6.740725,20.5362353 6.427225,21.7503529 6.1362875,22.6138824 C5.8845375,23.3621176 5.5567875,24.2432941 4.056975,24.8656471 C1.539475,25.9115294 1.7092875,27.8727059 1.7092875,27.8727059 C1.7092875,27.8727059 0.7961,25.9362353 3.2435375,24.2974118 C6.3524125,22.2185882 5.1566,20.6221176 6.194475,19.668 C7.006725,18.9256471 7.9781,19.0432941 9.4601,19.4456471 C9.1929125,19.1338824 5.2551625,17.4985882 4.797975,20.9727059 C4.4096625,23.9244706 1.56085,23.5127059 1.06685,26.2915294 C0.7201,28.2621176 2.603475,29.9138824 2.603475,29.9138824 C2.603475,29.9138824 1.0989125,26.9291765 4.05935,25.7221176 C6.1077875,24.8891765 7.2751,23.9268235 7.5791,22.9774118 C7.562475,23.2809412 7.56485,23.6032941 7.5731625,23.9562353 C7.6064125,25.2915294 8.2476625,26.3362353 8.0505375,28.2150588 C7.9401,29.2491765 6.032975,30.2821176 4.9677875,31.3432941 C5.0046,30.8668235 5.1340375,30.4044706 5.3739125,30.0221176 C5.643475,29.6150588 6.0840375,29.1785882 6.275225,28.6962353 C6.4961,28.2209412 6.5257875,27.7174118 6.4545375,27.3068235 C6.39635,26.9738824 6.2776,26.7115294 6.1529125,26.488 C6.1054125,26.5068235 6.0591,26.5244706 6.0151625,26.5397647 C6.2301,27.0397647 6.351225,27.7985882 5.9344125,28.5374118 C5.7277875,28.9609412 5.3620375,29.2597647 4.9701625,29.7550588 C4.6151,30.2444706 4.3692875,30.8644706 4.337225,31.5362353 C4.327725,31.7491765 4.3491,31.968 4.3859125,32.1868235 C3.9512875,33.3174118 4.446475,34.7738824 4.8442875,35.448 C5.3192875,36.2503529 5.7657875,36.8385882 5.534225,37.7715294 C5.3002875,38.7044706 6.1196625,38.3809412 6.6991625,38.3903529 C6.8820375,38.3927059 7.0720375,38.3938824 7.244225,38.3938824 C7.6266,38.3927059 7.78335,38.1197647 7.5494125,37.7491765 C7.1456625,37.108 6.50085,36.1621176 5.98785,35.7574118 C5.5306625,35.3938824 4.7825375,34.4409412 4.8514125,33.3374118 C5.5282875,34.1338824 6.2871,34.3832941 6.916475,34.4397647 C7.6551,34.5044706 8.350975,34.2291765 8.9186,34.1409412 C9.514725,34.048 10.1239125,34.0632941 10.6772875,34.1962353 C11.229475,34.3327059 11.7294125,34.5832941 12.11535,34.9162353 C12.5084125,35.2491765 12.72335,35.6903529 12.8385375,36.1162353 C13.0511,36.9562353 12.469225,37.7421176 11.9977875,38.1562353 C12.0262875,38.1868235 12.0631,38.2174118 12.0951625,38.2468235 C12.9192875,37.7562353 13.362225,36.8997647 13.2019125,35.8774118 C13.043975,34.8727059 12.12485,33.9091765 10.83285,33.5997647 Z M10.160725,17.8821176 C11.1712875,18.9374118 12.25785,18.5138824 12.74235,18.5703529 C13.229225,18.6268235 13.78735,19.8585882 13.4916625,21.0515294 C13.1971625,22.2444706 13.0796,22.0397647 12.8789125,22.788 C12.625975,23.7315294 13.8051625,24.408 13.5320375,25.2762353 C13.4560375,25.5197647 13.286225,25.8668235 13.4916625,26.1362353 C13.8111,26.5609412 14.3276625,26.0021176 14.9796,26.0962353 C15.490225,26.1691765 15.941475,25.9985882 16.16235,25.8668235 C16.0851625,25.4985882 14.61385,25.7244706 14.283725,25.128 C14.13885,24.8644706 13.7529125,22.1515294 14.606725,20.9385882 C15.3916625,19.8268235 14.663725,19.4797647 14.1257875,18.5821176 C14.8620375,18.1809412 16.592225,17.3303529 16.592225,17.3303529 C17.157475,17.9762353 17.55885,18.5338824 17.9044125,19.3127059 C18.0861,19.6997647 18.2107875,20.1162353 18.1965375,20.5338824 C18.2084125,20.9585882 18.0481,21.3762353 17.77735,21.7550588 C18.135975,21.7009412 18.4649125,21.0644706 18.563475,20.5762353 C18.658475,20.0844706 18.5860375,19.5797647 18.45185,19.1127059 C17.9519125,17.5997647 16.7905375,16.5162353 16.7905375,16.5162353 C16.7905375,16.5162353 15.2182875,17.0503529 13.75885,17.8338824 C13.2992875,16.9797647 12.834975,17.1315294 12.2626,17.1797647 C11.6926,17.228 11.3470375,16.6327059 11.3470375,16.6327059 C11.789975,16.7715294 12.4039125,16.7962353 13.229225,16.4738824 C15.076975,15.7515294 14.373975,14.2397647 14.373975,14.2397647 C14.373975,14.2397647 14.4131625,15.3374118 13.3076,15.4915294 C12.6200375,15.5868235 10.8174125,15.1444706 10.8174125,15.1444706 C10.8174125,15.1444706 12.2626,14.9785882 12.5559125,14.1550588 C12.9572875,13.028 14.103225,13.4703529 14.103225,13.4703529 C14.103225,13.4703529 13.4916625,12.7574118 12.5476,13.3162353 C11.97285,13.6585882 11.0181,13.768 9.847225,13.1821176 C8.6775375,12.5950588 8.2536,13.568 8.0172875,13.5915294 C7.780975,13.6185882 7.5969125,13.2350588 7.7299125,12.8362353 C7.8629125,12.4362353 9.205975,12.0597647 11.2282875,11.9821176 C12.5630375,11.9327059 13.2185375,12.1915294 13.509475,12.3750588 C13.5130375,12.2656471 13.153225,11.7762353 12.0524125,11.5091765 C10.9527875,11.2409412 11.025225,10.7950588 11.0762875,10.0268235 C11.12735,9.25858824 10.0004125,9.56682353 9.7261,9.46917647 C9.4517875,9.37270588 9.7071,8.77035294 9.7071,8.77035294 C9.3116625,8.88211765 9.011225,9.19858824 9.0266625,9.668 C9.034975,9.98211765 9.338975,10.208 9.6417875,10.3550588 C9.9434125,10.5044706 9.9932875,10.7738824 9.4494125,11.0868235 C9.0100375,11.3409412 8.379475,11.6691765 7.533975,12.028 C5.6517875,12.8268235 8.0006625,14.2021176 7.1741625,14.6232941 C6.3452875,15.0444706 6.1434125,15.5950588 6.0971,15.8962353 C5.9937875,16.5797647 6.4545375,17.0868235 6.4545375,17.0868235 C8.0731,16.2185882 9.1501625,16.8268235 10.160725,17.8821176 Z M19.736725,15.4409412 C19.736725,14.7574118 19.9136625,14.428 20.10485,14.4197647 C20.6879125,14.3950588 20.8126,15.2138824 20.8209125,15.4350588 C20.8446625,16.0856471 20.358975,16.3962353 20.358975,16.3962353 C20.7757875,16.4315294 21.1035375,15.8621176 21.1581625,15.4985882 C21.237725,14.9621176 21.14035,14.7774118 20.9491625,14.4197647 C20.9491625,14.4197647 22.168725,15.5868235 22.0381,16.8809412 C21.8896625,18.348 20.21885,19.1174118 20.21885,19.1174118 C20.7140375,19.2927059 22.1461625,19.1515294 23.061725,17.9962353 C23.5687875,17.3574118 23.7896625,16.3868235 23.175725,14.8574118 C22.619975,13.468 21.5595375,12.2915294 22.686475,9.62682353 C23.7849125,7.03035294 26.6931,6.69035294 28.4422875,7.92447059 C28.5551,8.00447059 28.6204125,8.10094118 28.6596,8.20211765 C28.7736,8.50917647 27.9566,8.91035294 28.3140375,9.09623529 C28.55985,9.22447059 28.88285,9.25741176 29.160725,9.468 C29.41485,9.65858824 29.4671,9.82211765 29.59535,9.94094118 C29.692725,10.0303529 29.7366625,10.0491765 29.8316625,10.0491765 C29.0407875,9.13152941 28.9101625,8.08682353 28.780725,6.98329412 C28.1596625,6.82447059 27.1740375,6.32564706 26.201475,6.21388235 C25.5911,6.14329412 24.11385,6.04682353 22.63185,6.76682353 C20.9646,7.57858824 19.1987875,9.15741176 19.1987875,12.8150588 C19.1987875,14.3915294 19.736725,15.5315294 19.736725,15.4409412 Z M1.164225,23.9585882 C2.023975,23.7268235 2.023975,23.0962353 2.03585,22.9644706 C2.1724125,23.1456471 2.2211,23.3432941 2.2246625,23.5997647 C2.6046625,23.1103529 2.513225,22.2621176 1.5834125,21.7550588 C1.5834125,21.7550588 1.6356625,22.8691765 0.9136625,23.2621176 C0.16435,23.6703529 0.0456,23.9327059 0.0040375,24.3350588 C-0.013775,24.5327059 0.0254125,24.7385882 0.133475,24.8985882 C0.2296625,25.0574118 0.3959125,25.1691765 0.551475,25.208 C0.3246625,24.9068235 0.280725,24.1962353 1.164225,23.9585882 Z M19.1512875,8.37976471 C17.043475,8.49976471 16.3084125,7.75152941 14.8667875,7.06447059 C13.4227875,6.37623529 12.18185,6.87976471 11.96335,7.20329412 C12.635475,7.24447059 13.3966625,7.508 14.84185,8.40682353 C17.760725,10.2209412 19.1512875,8.37976471 19.1512875,8.37976471 Z M18.2060375,3.95388235 C17.90085,4.03505882 17.15985,4.15388235 17.5054125,5.84682353 C17.85335,7.54094118 18.7760375,7.13035294 19.0254125,6.91270588 C19.0254125,6.91270588 17.770225,6.78447059 17.7334125,5.31623529 C17.6977875,3.84564706 19.4125375,4.11623529 19.4125375,4.11623529 C19.309225,4.00211765 18.691725,3.82682353 18.2060375,3.95388235 Z M36.9851625,25.4821176 C36.570725,24.0197647 35.24785,21.0409412 34.342975,19.6809412 C33.4345375,18.3209412 32.9690375,19.2962353 32.6080375,19.6044706 C32.2446625,19.9115294 31.1806625,21.6821176 30.7151625,19.3997647 C30.248475,17.1150588 27.86635,15.1385882 27.86635,15.1385882 C28.357975,16.8574118 28.22735,18.1150588 28.0979125,19.2197647 C27.97085,20.3221176 28.253475,20.708 28.253475,21.3738824 C28.253475,22.0421176 26.2359125,22.4785882 26.1290375,22.9903529 C26.025725,23.5044706 29.1346,25.6115294 32.09385,23.4997647 C32.984475,22.8644706 33.53785,25.328 33.82285,25.9950588 C34.1090375,26.6632941 33.53785,26.868 34.2111625,27.6385882 C34.8856625,28.4068235 34.366725,29.0562353 34.366725,29.5374118 C34.366725,29.9868235 35.70385,31.1174118 35.9472875,30.8703529 C36.37835,30.4468235 35.4034125,27.9197647 35.0151,27.048 C34.6256,26.1738824 34.0045375,23.3515294 33.56635,22.5809412 C33.3134125,22.1409412 32.0131,22.4538824 32.0131,22.4538824 L31.9216625,22.1115294 C31.9216625,22.1115294 32.1021625,21.8832941 32.2684125,21.7103529 C33.6174125,20.3232941 33.5141,20.8868235 34.9117875,22.5809412 C36.309475,24.2750588 34.6256,24.9432941 35.8427875,25.8150588 C37.0611625,26.688 37.3984125,26.9444706 36.9851625,25.4821176 Z M14.8026625,2.77388235 C14.8026625,2.77388235 15.0615375,2.86094118 15.556725,2.87152941 C16.0542875,2.88094118 16.3001,2.42564706 16.3001,2.42564706 C15.0900375,2.30564706 14.7385375,1.88329412 14.7385375,1.88329412 C14.7385375,1.88329412 15.8904125,1.82564706 16.473475,1.748 C17.0565375,1.67035294 18.11935,1.38917647 18.11935,1.38917647 C18.11935,1.38917647 18.078975,2.33152941 18.0706625,2.87976471 C18.0659125,3.428 18.7760375,3.308 19.0135375,3.23270588 C19.3127875,3.13976471 19.3602875,2.048 19.408975,1.11270588 C19.4457875,0.406823529 18.91735,0.400941176 18.6145375,0.525647059 C18.1704125,0.710352941 17.323725,1.13976471 16.4105375,1.41623529 C15.494975,1.69152941 14.0640375,1.49152941 14.0640375,1.49152941 L13.9856625,1.78564706 L15.1897875,2.51858824 L14.8026625,2.77388235 Z M16.7834125,7.25388235 L17.109975,7.11505882 C17.109975,7.11505882 16.8594125,6.39270588 16.8416,5.75270588 C16.8261625,5.11035294 17.0921625,3.68917647 17.0921625,3.68917647 L16.7834125,3.68917647 C16.7834125,3.68917647 16.6432875,4.73270588 16.459225,5.64564706 C16.278725,6.55976471 15.794225,6.38094118 15.556725,6.36329412 C15.3204125,6.34447059 13.4406,6.07858824 13.4406,6.07858824 L13.4406,6.35270588 C13.4406,6.35270588 13.5581625,6.36917647 14.5105375,6.50447059 C15.4641,6.64094118 16.7834125,7.25388235 16.7834125,7.25388235 Z M17.955475,11.2762353 C17.1800375,11.7691765 15.90585,11.5244706 15.90585,11.5244706 C16.07685,11.7632941 17.0019125,12.0432941 17.4674125,12.0350588 C17.8711625,12.028 18.2274125,11.8691765 18.54685,11.5244706 C19.2391625,10.7762353 18.9565375,9.528 18.7879125,9.37152941 C18.7879125,9.37152941 18.7119125,10.7950588 17.955475,11.2762353 Z M16.16235,33.4891765 C14.3799125,31.728 15.03185,31.9056471 16.16235,30.3362353 C17.000725,29.1715294 21.0881,28.1456471 23.1484125,27.6927059 L23.1080375,27.5056471 C22.064225,27.5515294 20.5002875,27.6056471 18.9280375,27.6044706 C16.235975,27.6032941 15.1494125,26.588 14.45235,26.7174118 C11.7769125,27.2127059 13.6792875,30.2515294 10.5395375,29.8209412 C7.3997875,29.3915294 7.5042875,32.6127059 7.5042875,32.6127059 C8.3949125,30.8209412 9.3164125,31.0715294 10.0241625,31.0409412 C10.8459125,31.0056471 11.647475,31.6068235 12.8005375,30.648 C13.053475,30.4385882 14.1994125,28.5997647 14.0355375,29.5197647 C13.93935,30.0550588 13.4702875,30.6691765 13.0950375,31.0903529 C12.82785,31.3903529 12.6722875,31.6197647 13.21735,31.9244706 C13.409725,32.0350588 13.6650375,32.1785882 13.9951625,32.368 C15.2657875,33.0903529 15.0544125,33.9138824 14.226725,33.8703529 C13.637725,33.8385882 12.939475,33.5527059 12.3564125,33.4927059 C12.1189125,33.468 11.84935,33.5668235 12.2257875,33.7432941 C12.421725,33.8362353 12.644975,33.9715294 12.839725,34.1632941 C13.7719125,35.0856471 12.6580375,34.7221176 15.3275375,34.5797647 C15.8951625,34.548 16.2989125,34.4962353 16.5862875,34.4362353 C17.646725,34.2068235 16.3962875,33.7197647 16.16235,33.4891765 Z M29.8910375,35.0244706 C29.6761,34.6950588 29.5039125,34.2303529 29.303225,33.8162353 C28.8781,32.9338824 29.2961,33.1044706 29.032475,32.5962353 C28.737975,32.0338824 28.590725,32.5844706 27.849725,31.4609412 C27.7036625,31.2374118 27.4091625,31.3350588 27.3735375,31.8727059 C27.33435,32.4091765 28.2451625,32.9162353 28.6607875,34.2174118 C29.0776,35.5221176 29.4207875,35.6727059 29.08235,36.4727059 C28.7462875,37.2738824 27.0956625,37.2256471 27.0956625,37.2256471 C28.3841,38.5527059 31.0061,36.7409412 29.8910375,35.0244706 Z"
                              id="Fill-1" fill="#FEFEFE" mask="url(#mask-2)"></path>
                    </g>
                    <path d="M60,0 L44,43" id="Fill-4" fill="#FEFEFE"></path>
                    <g id="Group-8" transform="translate(43.000000, 0.000000)">
                        <mask id="mask-4" fill="white">
                            <use xlink:href="#path-3"></use>
                        </mask>
                        <g id="Clip-7"></g>
                        <polygon id="Fill-6" fill="#FEFEFE" mask="url(#mask-4)"
                                 points="0.93432 44.0002378 0.39192 43.8040216 16.39152 0.265427027 16.93392 0.460454054"></polygon>
                    </g>
                    <path d="M68.4910314,6.47054043 L70.4843049,6.47054043 L69.6423767,3.77163755 L69.3340807,3.77163755 L68.4910314,6.47054043 Z M70.7017937,7.15928484 L68.2825112,7.15928484 L67.7107623,9 L67,9 L68.9080717,3 L70.0829596,3 L72,9 L71.2735426,9 L70.7017937,7.15928484 Z"
                          id="Fill-9" fill="#FEFEFE"></path>
                    <polygon id="Fill-11" fill="#FEFEFE"
                             points="73.7384067 3.68874441 73.7384067 9 73 9 73 3 77 3 77 3.68874441"></polygon>
                    <polygon id="Fill-13" fill="#FEFEFE"
                             points="82 8.31111563 82 9 78 9 78 3 81.8756008 3 81.8756008 3.68766511 78.7022901 3.68766511 78.7022901 5.54460476 81.2592593 5.54460476 81.2592593 6.23592766 78.7022901 6.23592766 78.7022901 8.31111563"></polygon>
                    <polygon id="Fill-15" fill="#FEFEFE"
                             points="88 3 88 9 87.2234469 9 87.2234469 6.26086957 83.7778056 6.26086957 83.7778056 9 83 9 83 3 83.7778056 3 83.7778056 5.5538399 87.2234469 5.5538399 87.2234469 3"></polygon>
                    <polygon id="Fill-17" fill="#FEFEFE"
                             points="94 3.67167818 91.9111629 3.67167818 91.9111629 9 91.1069671 9 91.1069671 3.67167818 89 3.67167818 89 3 94 3"></polygon>
                    <path d="M99,7.24857871 C98.7717057,8.27778867 97.9638041,9 96.6922167,9 C94.9628578,9 94,7.72025093 94,5.99941188 C94,4.28092531 94.9723208,3 96.7004968,3 C97.8739058,3 98.7066477,3.63164085 98.934942,4.62085866 L98.1601609,4.62085866 C97.9401467,4.00568516 97.5001183,3.66457557 96.7004968,3.66457557 C95.3461084,3.66457557 94.7428436,4.77494609 94.7428436,5.99941188 C94.7428436,7.23211135 95.3390111,8.33542443 96.6922167,8.33542443 C97.5072155,8.33542443 98.0383251,7.91433052 98.2252188,7.24857871 L99,7.24857871 Z"
                          id="Fill-19" fill="#FEFEFE"></path>
                    <polygon id="Fill-21" fill="#FEFEFE"
                             points="105 3.67167818 102.909868 3.67167818 102.909868 9 102.106967 9 102.106967 3.67167818 100 3.67167818 100 3 105 3"></polygon>
                    <path d="M109.189294,7.25193011 C109.189294,6.46932141 108.54797,6.20967087 107.798035,6.20967087 L105.801655,6.20967087 L105.801655,8.32588379 L107.788984,8.32588379 C108.510473,8.32588379 109.189294,8.07476636 109.189294,7.25193011 Z M105.801655,5.54530679 L107.754073,5.54530679 C108.458754,5.54530679 108.992759,5.3344169 108.992759,4.58715969 C108.992759,3.90694839 108.378588,3.67045916 107.735971,3.67045916 L105.801655,3.67045916 L105.801655,5.54530679 Z M110,7.31044291 C110,8.26859 109.287561,9 107.841996,9 L105,9 L105,3 L107.770882,3 C109.125937,3 109.803465,3.69727753 109.803465,4.52011377 C109.803465,5.05891914 109.562969,5.51239334 109.100078,5.74766355 L109.100078,5.91588785 C109.634083,6.14993905 110,6.69727753 110,7.31044291 Z"
                          id="Fill-23" fill="#FEFEFE"></path>
                    <path d="M115.318231,5.99941188 C115.318231,4.78317977 114.776955,3.66457557 113.501634,3.66457557 C112.224134,3.66457557 111.682858,4.78317977 111.682858,5.99941188 C111.682858,7.21682023 112.224134,8.33542443 113.501634,8.33542443 C114.776955,8.33542443 115.318231,7.21682023 115.318231,5.99941188 M116,5.99941188 C116,7.66967261 115.129819,9 113.501634,9 C111.863646,9 111,7.66967261 111,5.99941188 C111,4.32797491 111.863646,3 113.501634,3 C115.129819,3 116,4.32797491 116,5.99941188"
                          id="Fill-25" fill="#FEFEFE"></path>
                    <polygon id="Fill-27" fill="#FEFEFE"
                             points="67.7549751 14 67.7549751 19.0845185 67.9266169 19.0845185 70.8072139 14 72 14 72 20 71.2437811 20 71.2437811 14.9154815 71.0721393 14.9154815 68.1927861 20 67 20 67 14"></polygon>
                    <polygon id="Fill-29" fill="#FEFEFE"
                             points="79 14 79 20 78.2219995 20 78.2219995 17.2608696 74.7754949 17.2608696 74.7754949 20 74 20 74 14 74.7754949 14 74.7754949 16.5550589 78.2219995 16.5550589 78.2219995 14"></polygon>
                    <polygon id="Fill-31" fill="#FEFEFE"
                             points="85 14 85 20 84.2234469 20 84.2234469 17.2608696 80.7790581 17.2608696 80.7790581 20 80 20 80 14 80.7790581 14 80.7790581 16.5550589 84.2234469 16.5550589 84.2234469 14"></polygon>
                    <path d="M90.3171422,17 C90.3171422,15.7823529 89.7769549,14.6647059 88.5005445,14.6647059 C87.2241342,14.6647059 86.6828578,15.7823529 86.6828578,17 C86.6828578,18.2164706 87.2241342,19.3352941 88.5005445,19.3352941 C89.7769549,19.3352941 90.3171422,18.2164706 90.3171422,17 M91,17 C91,18.6705882 90.1287301,20 88.5005445,20 C86.8636463,20 86,18.6705882 86,17 C86,15.3294118 86.8636463,14 88.5005445,14 C90.1287301,14 91,15.3294118 91,17"
                          id="Fill-33" fill="#FEFEFE"></path>
                    <path d="M97.189294,18.2510664 C97.189294,17.4698355 96.546677,17.2102377 95.7993276,17.2102377 L93.802948,17.2102377 L93.802948,19.3272395 L95.7889837,19.3272395 C96.5130592,19.3272395 97.189294,19.0749543 97.189294,18.2510664 Z M93.802948,16.5472273 L95.7540729,16.5472273 C96.4587536,16.5472273 96.9940522,16.3363803 96.9940522,15.5892748 C96.9940522,14.9079829 96.3785881,14.6727605 95.737264,14.6727605 L93.802948,14.6727605 L93.802948,16.5472273 Z M98,18.3107861 C98,19.2687386 97.2875614,20 95.8432894,20 L93,20 L93,14 L95.7708818,14 C97.1259374,14 97.8047582,14.6971359 97.8047582,15.5222425 C97.8047582,16.0585009 97.5642617,16.511883 97.1000776,16.7483242 L97.1000776,16.9152956 C97.6353763,17.1517367 98,17.6965265 98,18.3107861 Z"
                          id="Fill-35" fill="#FEFEFE"></path>
                    <path d="M99.491818,17.4705404 L101.484645,17.4705404 L100.642905,14.7728566 L100.333557,14.7728566 L99.491818,17.4705404 Z M101.702085,18.1592848 L99.2833445,18.1592848 L98.7117238,20 L98,20 L99.9087649,14 L101.083389,14 L103,20 L102.272585,20 L101.702085,18.1592848 Z"
                          id="Fill-37" fill="#FEFEFE"></path>
                    <polygon id="Fill-39" fill="#FEFEFE"
                             points="109.202425 19.6214717 104 19.6214717 104 14 104.806668 14 104.806668 18.9761788 108.272353 18.9761788 108.272353 14 109.076423 14 109.076423 18.9761788 110 18.9761788 110 21 109.202425 21"></polygon>
                    <polygon id="Fill-41" fill="#FEFEFE"
                             points="111.755163 14 111.755163 19.0845185 111.925603 19.0845185 114.806917 14 116 14 116 20 115.244837 20 115.244837 14.9154815 115.073153 14.9154815 112.191839 20 111 20 111 14"></polygon>
                    <g id="Group-45" transform="translate(116.000000, 12.000000)">
                        <mask id="mask-6" fill="white">
                            <use xlink:href="#path-5"></use>
                        </mask>
                        <g id="Clip-44"></g>
                        <path d="M4.65276,0.371885714 C4.63596,1.15131429 4.02396,1.59245714 3.20556,1.59245714 C2.40276,1.59245714 1.79196,1.15131429 1.77516,0.371885714 L2.37756,0.371885714 C2.38716,0.803885714 2.72556,1.08045714 3.20556,1.08045714 C3.69396,1.08045714 4.04076,0.803885714 4.04916,0.371885714 L4.65276,0.371885714 Z M1.52676,1.86788571 L1.52676,6.63474286 L1.69236,6.63474286 L4.47036,1.86788571 L5.62116,1.86788571 L5.62116,7.49302857 L4.89276,7.49302857 L4.89276,2.72617143 L4.72716,2.72617143 L1.94796,7.49302857 L0.79716,7.49302857 L0.79716,1.86788571 L1.52676,1.86788571 Z"
                              id="Fill-43" fill="#FEFEFE" mask="url(#mask-6)"></path>
                    </g>
                    <polygon id="Fill-46" fill="#FEFEFE"
                             points="67.7395957 24.6888844 67.7395957 30 67 30 67 24 71 24 71 24.6888844"></polygon>
                    <path d="M76.3171422,27.0005881 C76.3171422,25.784356 75.7769549,24.6645756 74.5005445,24.6645756 C73.2241342,24.6645756 72.6828578,25.784356 72.6828578,27.0005881 C72.6828578,28.2168202 73.2241342,29.3354244 74.5005445,29.3354244 C75.7769549,29.3354244 76.3171422,28.2168202 76.3171422,27.0005881 M77,27.0005881 C77,28.6708489 76.1298192,30 74.5005445,30 C72.8636463,30 72,28.6708489 72,27.0005881 C72,25.3303274 72.8636463,24 74.5005445,24 C76.1298192,24 77,25.3303274 77,27.0005881"
                          id="Fill-48" fill="#FEFEFE"></path>
                    <path d="M81.3312,25.7992686 C81.3312,25.100772 81.0069333,24.6716782 80.1098667,24.6716782 L78.6613333,24.6716782 L78.6613333,26.924421 L80.1098667,26.924421 C81.0069333,26.924421 81.3312,26.4953271 81.3312,25.7992686 M82,25.7882974 C82,26.9171069 81.36,27.5973182 80.2197333,27.5973182 L78.6613333,27.5973182 L78.6613333,30 L78,30 L78,24 L80.2197333,24 C81.36,24 82,24.6814303 82,25.7882974"
                          id="Fill-50" fill="#FEFEFE"></path>
                    <path d="M88.3171422,27.0005881 C88.3171422,25.784356 87.7758658,24.6645756 86.5005445,24.6645756 C85.2241342,24.6645756 84.6828578,25.784356 84.6828578,27.0005881 C84.6828578,28.2168202 85.2241342,29.3354244 86.5005445,29.3354244 C87.7758658,29.3354244 88.3171422,28.2168202 88.3171422,27.0005881 M89,27.0005881 C89,28.6708489 88.1287301,30 86.5005445,30 C84.8636463,30 84,28.6708489 84,27.0005881 C84,25.3303274 84.8636463,24 86.5005445,24 C88.1287301,24 89,25.3303274 89,27.0005881"
                          id="Fill-52" fill="#FEFEFE"></path>
                    <path d="M94.3983051,24.6455035 L92.0859564,24.6455035 L92.0859564,25.2521626 C92.0859564,26.9921658 91.7602906,28.236331 91.4188862,28.9778032 L94.3983051,28.9778032 L94.3983051,24.6455035 Z M96,28.9778032 L96,31 L95.2578692,31 L95.2578692,29.6221642 L90.7421308,29.6221642 L90.7421308,31 L90,31 L90,28.9778032 L90.6174334,28.9778032 C91.0012107,28.2123388 91.3692494,27.0081606 91.3692494,25.1333442 L91.3692494,24 L95.1404358,24 L95.1404358,28.9778032 L96,28.9778032 Z"
                          id="Fill-54" fill="#FEFEFE"></path>
                    <path d="M97.491818,27.4705404 L99.4846447,27.4705404 L98.6429052,24.7716375 L98.3335575,24.7716375 L97.491818,27.4705404 Z M99.7020847,28.1592848 L97.2833445,28.1592848 L96.710603,30 L96,30 L97.9098857,24 L99.0833894,24 L101,30 L100.272585,30 L99.7020847,28.1592848 Z"
                          id="Fill-56" fill="#FEFEFE"></path>
                    <polygon id="Fill-58" fill="#FEFEFE"
                             points="67 35 68.9577408 35 69.9329541 37.3941487 70.0999594 37.3941487 71.0751727 35 73 35 73 41 71.832182 41 71.832182 36.320195 71.6639577 36.320195 70.5717188 38.9910605 69.4282812 38.9910605 68.3360423 36.320195 68.167818 36.320195 68.167818 41 67 41"></polygon>
                    <path d="M78.6819508,38.0005881 C78.6819508,36.9290335 78.1554815,36.0797883 77,36.0797883 C75.8532722,36.0797883 75.3192997,36.9290335 75.3192997,38.0005881 C75.3192997,39.0709665 75.8532722,39.9225642 77,39.9225642 C78.1554815,39.9225642 78.6819508,39.0709665 78.6819508,38.0005881 M80,38.0005881 C80,39.7037836 78.9483118,41 77,41 C75.0516882,41 74,39.7037836 74,38.0005881 C74,36.2985689 75.0516882,35 77,35 C78.9483118,35 80,36.2985689 80,38.0005881"
                          id="Fill-60" fill="#FEFEFE"></path>
                    <path d="M86,39.0462654 C85.8277425,40.1989806 84.9766546,41 83.6722575,41 C81.9689483,41 81,39.7684768 81,38.0005881 C81,36.2326995 81.9768812,35 83.6722575,35 C84.9131913,35 85.7495467,35.730445 85.9456029,36.7925897 L84.725068,36.7925897 C84.5936083,36.3291511 84.2264279,36.0797883 83.6722575,36.0797883 C82.6715775,36.0797883 82.1956029,36.9231523 82.1956029,38.0005881 C82.1956029,39.0709665 82.6715775,39.9225642 83.6722575,39.9225642 C84.2728921,39.9225642 84.6797371,39.5990982 84.7885313,39.0462654 L86,39.0462654 Z"
                          id="Fill-62" fill="#FEFEFE"></path>
                    <polygon id="Fill-64" fill="#FEFEFE"
                             points="87 35 88.2171131 35 88.2171131 37.344169 89.5657739 37.344169 90.6691159 35 91.9265229 35 90.5861579 37.9158879 92 41 90.7414079 41 89.5740697 38.4790735 88.2171131 38.4790735 88.2171131 41 87 41"></polygon>
                    <path d="M96.7029752,39.1934173 C96.7029752,38.6875254 96.3894763,38.4290939 95.7464962,38.4290939 L94.2626014,38.4290939 L94.2626014,39.9321414 L95.7292845,39.9321414 C96.3562823,39.9321414 96.7029752,39.6968712 96.7029752,39.1934173 M96.5345463,36.7041853 C96.5345463,36.2604632 96.2456356,36.0422592 95.6788788,36.0422592 L94.2626014,36.0422592 L94.2626014,37.3783015 L95.6874846,37.3783015 C96.2554709,37.3783015 96.5345463,37.1588785 96.5345463,36.7041853 M98,39.2604632 C98,40.2600569 97.3471847,41 95.9161544,41 L93,41 L93,35 L95.8387017,35 C97.1787558,35 97.8315712,35.73141 97.8315712,36.5883787 C97.8315712,37.1344982 97.5856897,37.6038196 97.1959675,37.7988623 L97.1959675,37.9658675 C97.628719,38.1426249 98,38.6631451 98,39.2604632"
                          id="Fill-66" fill="#FEFEFE"></path>
                    <mask id="mask-8" fill="white">
                        <use xlink:href="#path-7"></use>
                    </mask>
                    <g id="Clip-69"></g>
                    <path d="M104.681643,41 L106,41 L106,35.0012188 L104.681643,35.0012188 L104.681643,41 Z M102.627728,39.0170628 C102.627728,38.4539915 102.310655,38.1334552 101.43389,38.1334552 L100.318357,38.1334552 L100.318357,39.8994516 L101.43389,39.8994516 C102.310655,39.8994516 102.627728,39.5862279 102.627728,39.0170628 Z M99,41 L99,35 L100.318357,35 L100.318357,37.0341255 L101.637997,37.0341255 C103.115533,37.0341255 103.982028,37.781231 103.982028,39.0085314 C103.982028,40.2516758 103.115533,41 101.637997,41 L99,41 Z"
                          id="Fill-68" fill="#FEFEFE" mask="url(#mask-8)"></path>
                </g>
            </g>
        </g>
    </g>
</svg>
