<svg width="19px" height="18px" viewBox="0 0 19 18" version="1.1" xmlns="http://www.w3.org/2000/svg"
     xmlns:xlink="http://www.w3.org/1999/xlink">
    <!-- Generator: Sketch 50 (54983) - http://www.bohemiancoding.com/sketch -->
    <desc>Created with Sketch.</desc>
    <defs>
        <path d="M1.33073659,6.06364213 C1.2625903,6.25998062 1.36792109,6.47375806 1.56613724,6.54125881 C1.7648087,6.60906023 1.9804788,6.50457689 2.04847331,6.3082384 C3.48652691,2.16814218 7.94623845,-0.132596131 12.2006005,1.07054087 C16.6143247,2.31847793 19.1802069,6.89033842 17.9204871,11.2619517 C17.3103578,13.3798817 15.9041766,15.1355026 13.9611727,16.2055925 C12.0178652,17.2758327 9.77040375,17.5320048 7.63176383,16.9273544 C4.62148889,16.0766044 2.36810823,13.6583035 1.75145264,10.6158086 C1.71032203,10.4124044 1.51013283,10.2808606 1.30478333,10.3213009 C1.09943383,10.3621922 0.966328497,10.5603347 1.00745911,10.7638894 C1.68027088,14.0833027 4.13900104,16.7219958 7.42368241,17.6501687 C8.25099957,17.8842415 9.09334231,18 9.93067653,18 C11.4543304,18 12.9612891,17.6163432 14.3299822,16.8625597 C16.4504093,15.6949019 17.9845355,13.7791735 18.650214,11.4682123 C20.0248262,6.698059 17.2249093,1.70946781 12.4088337,0.347876925 C11.5760527,0.112451141 10.7367454,0 9.90988356,0 C6.12723345,0.0003006715 2.618838,2.35621221 1.33073659,6.06364213"
              id="path-1"></path>
    </defs>
    <g id="Symbols" stroke="none" stroke-width="1" fill="none" fill-rule="evenodd">
        <g id="dowwnload">
            <g id="Group-6">
                <mask id="mask-2" fill="white">
                    <use xlink:href="#path-1"></use>
                </mask>
                <use id="Clip-5" fill="white" xlink:href="#path-1"></use>
                <path d="M0.356433516,0 C0.32827157,0 0.299682928,0.00347207246 0.271094286,0.0110200561 C0.10894975,0.0529868449 0.000284464099,0.20711667 0,0.376644382 L0,0.378153979 C0,0.407440155 0.00341356919,0.43733017 0.0102407076,0.467220185 L1.45034021,6.71211991 C1.49016518,6.88451585 1.63552634,7 1.79553739,7 C1.82341487,7 1.85186128,6.99637697 1.88044993,6.98897994 L7.72888957,5.47002372 C7.91948052,5.42035799 8.03639526,5.21610955 7.98974315,5.01367263 C7.94309104,4.81123571 7.75093554,4.68714686 7.55963343,4.73681259 L2.05667544,6.16609877 L0.701061772,0.287729135 C0.66137903,0.115635109 0.516871268,0 0.356575748,0 L0.356433516,0 Z"
                      id="Clip-2" fill="white"></path>
            </g>
        </g>
    </g>
</svg>
