<svg width="331px" height="252px" viewBox="0 0 331 252" version="1.1" xmlns="http://www.w3.org/2000/svg"
     xmlns:xlink="http://www.w3.org/1999/xlink">
    <!-- Generator: Sketch 50 (54983) - http://www.bohemiancoding.com/sketch -->
    <desc>Created with Sketch.</desc>
    <defs></defs>
    <g id="Page-1" stroke="none" stroke-width="1" fill="none" fill-rule="evenodd">
        <g id="Artboard" transform="translate(-147.000000, -133.000000)" stroke="#65C8CE" stroke-width="2">
            <g id="Form" transform="translate(108.000000, 56.000000)">
                <g id="Group" transform="translate(39.000000, 78.000000)">
                    <path d="M61.6285038,49.4067501 L7.19742541,49.4067501 C6.37380402,49.4067501 6.10097944,48.183726 6.10097944,47.4172499 L6.10097944,9.67515606 C6.10097944,9.35688372 6.01604348,9.06364403 6.21036665,8.82881387 C6.28243352,8.74060356 6.26570371,8.95993731 6.35707421,8.89079949 C6.61445589,8.6964984 6.84223868,8.87768715 7.19742541,8.87768715 L61.6285038,8.87768715 C62.4534121,8.87768715 62.7249498,8.90867996 62.7249498,9.67515606 L62.7249498,47.4172499 C62.7249498,48.183726 62.4534121,49.4067501 61.6285038,49.4067501 L61.6285038,49.4067501 Z"
                          id="Stroke-98"
                          transform="translate(34.403725, 29.103829) rotate(21.000000) translate(-34.403725, -29.103829) "></path>
                    <path d="M9.20662316,9.37992959 L31.4167862,30.2049925 C34.9011352,33.3514546 40.4658456,33.3293655 43.9194503,30.1559057 L65.849072,9.52473557"
                          id="Stroke-100"
                          transform="translate(37.527848, 20.965212) rotate(21.000000) translate(-37.527848, -20.965212) "></path>
                    <path d="M56.4403292,55.3452384 L41.1387132,31.4913769" id="Stroke-102"
                          transform="translate(48.906821, 43.517435) rotate(21.000000) translate(-48.906821, -43.517435) "></path>
                    <path d="M4.06869901,42.1487414 L23.5325356,19.6644817" id="Stroke-104"
                          transform="translate(13.816469, 30.907576) rotate(21.000000) translate(-13.816469, -30.907576) "></path>
                    <path d="M121.809566,27.8483355 L93.5112732,27.8483355 C93.0830788,27.8483355 92.9412395,27.2124948 92.9412395,26.8140099 L92.9412395,7.19219007 C92.9412395,7.02672276 92.8970819,6.87426973 92.998109,6.75218337 C93.035576,6.70632351 93.0268783,6.82035342 93.0743811,6.78440921 C93.2081919,6.68339359 93.3266144,6.77759221 93.5112732,6.77759221 L121.809566,6.77759221 C122.238429,6.77759221 122.379599,6.79370513 122.379599,7.19219007 L122.379599,26.8140099 C122.379599,27.2124948 122.238429,27.8483355 121.809566,27.8483355 L121.809566,27.8483355 Z"
                          id="Stroke-98"
                          transform="translate(107.655616, 17.293005) rotate(-34.000000) translate(-107.655616, -17.293005) "></path>
                    <path d="M90.3972406,7.51251661 L101.944131,18.3393042 C103.755617,19.9751253 106.648666,19.9636413 108.444168,18.3137844 L119.845207,7.58780011"
                          id="Stroke-100"
                          transform="translate(105.121224, 13.535615) rotate(-34.000000) translate(-105.121224, -13.535615) "></path>
                    <path d="M122.035354,21.5638509 L114.080163,9.1624146" id="Stroke-102"
                          transform="translate(118.118742, 15.414668) rotate(-34.000000) translate(-118.118742, -15.414668) "></path>
                    <path d="M97.2169128,32.4425833 L107.336009,20.7531922" id="Stroke-104"
                          transform="translate(102.284702, 26.598389) rotate(-34.000000) translate(-102.284702, -26.598389) "></path>
                    <path d="M318.339003,230.076228 L228.255761,230.076228 C226.89267,230.076228 226.441146,228.052127 226.441146,226.783612 L226.441146,164.32058 C226.441146,163.79384 226.300578,163.308529 226.622182,162.919886 C226.741452,162.773899 226.713764,163.136895 226.864982,163.022472 C227.290948,162.700905 227.667928,163.000771 228.255761,163.000771 L318.339003,163.000771 C319.704224,163.000771 320.153618,163.052064 320.153618,164.32058 L320.153618,226.783612 C320.153618,228.052127 319.704224,230.076228 318.339003,230.076228 L318.339003,230.076228 Z"
                          id="Stroke-98"
                          transform="translate(273.282091, 196.474965) rotate(-32.000000) translate(-273.282091, -196.474965) "></path>
                    <path d="M218.765069,165.066012 L255.522811,199.531418 C261.289396,204.738802 270.498972,204.702244 276.214676,199.45018 L312.508122,165.305666"
                          id="Stroke-100"
                          transform="translate(265.636596, 184.239614) rotate(-32.000000) translate(-265.636596, -184.239614) "></path>
                    <path d="M319.246153,211.236608 L293.922032,171.758551" id="Stroke-102"
                          transform="translate(306.778224, 191.661634) rotate(-32.000000) translate(-306.778224, -191.661634) "></path>
                    <path d="M239.028706,244.086567 L271.241286,206.875197" id="Stroke-104"
                          transform="translate(255.161231, 225.482478) rotate(-32.000000) translate(-255.161231, -225.482478) "></path>
                </g>
            </g>
        </g>
    </g>
</svg>
